G04 EAGLE Gerber RS-274X export*
G75*
%MOMM*%
%FSLAX34Y34*%
%LPD*%
%INBottom Copper*%
%IPPOS*%
%AMOC8*
5,1,8,0,0,1.08239X$1,22.5*%
G01*
%ADD10C,1.930400*%
%ADD11C,1.524000*%
%ADD12R,1.000000X1.100000*%
%ADD13C,1.016000*%
%ADD14C,5.999988*%

G36*
X950998Y238764D02*
X950998Y238764D01*
X951017Y238762D01*
X951119Y238784D01*
X951221Y238800D01*
X951238Y238810D01*
X951258Y238814D01*
X951347Y238867D01*
X951438Y238916D01*
X951452Y238930D01*
X951469Y238940D01*
X951536Y239019D01*
X951608Y239094D01*
X951616Y239112D01*
X951629Y239127D01*
X951668Y239223D01*
X951711Y239317D01*
X951713Y239337D01*
X951721Y239355D01*
X951739Y239522D01*
X951739Y763678D01*
X951736Y763698D01*
X951738Y763717D01*
X951716Y763819D01*
X951700Y763921D01*
X951690Y763938D01*
X951686Y763958D01*
X951633Y764047D01*
X951584Y764138D01*
X951570Y764152D01*
X951560Y764169D01*
X951481Y764236D01*
X951406Y764308D01*
X951388Y764316D01*
X951373Y764329D01*
X951277Y764368D01*
X951183Y764411D01*
X951163Y764413D01*
X951145Y764421D01*
X950978Y764439D01*
X480822Y764439D01*
X480802Y764436D01*
X480783Y764438D01*
X480681Y764416D01*
X480579Y764400D01*
X480562Y764390D01*
X480542Y764386D01*
X480453Y764333D01*
X480362Y764284D01*
X480348Y764270D01*
X480331Y764260D01*
X480264Y764181D01*
X480192Y764106D01*
X480184Y764088D01*
X480171Y764073D01*
X480132Y763977D01*
X480089Y763883D01*
X480087Y763863D01*
X480079Y763845D01*
X480061Y763678D01*
X480061Y239522D01*
X480064Y239502D01*
X480062Y239483D01*
X480084Y239381D01*
X480100Y239279D01*
X480110Y239262D01*
X480114Y239242D01*
X480167Y239153D01*
X480216Y239062D01*
X480230Y239048D01*
X480240Y239031D01*
X480319Y238964D01*
X480394Y238892D01*
X480412Y238884D01*
X480427Y238871D01*
X480523Y238832D01*
X480617Y238789D01*
X480637Y238787D01*
X480655Y238779D01*
X480822Y238761D01*
X950978Y238761D01*
X950998Y238764D01*
G37*
%LPC*%
G36*
X892261Y270255D02*
X892261Y270255D01*
X888900Y271647D01*
X887975Y272572D01*
X887901Y272625D01*
X887832Y272685D01*
X887802Y272697D01*
X887775Y272716D01*
X887688Y272743D01*
X887604Y272777D01*
X887563Y272781D01*
X887540Y272788D01*
X887508Y272787D01*
X887437Y272795D01*
X773386Y272795D01*
X770959Y273801D01*
X645087Y399672D01*
X645013Y399725D01*
X644944Y399785D01*
X644914Y399797D01*
X644887Y399816D01*
X644800Y399843D01*
X644716Y399877D01*
X644675Y399881D01*
X644652Y399888D01*
X644620Y399887D01*
X644549Y399895D01*
X598017Y399895D01*
X597927Y399881D01*
X597836Y399873D01*
X597806Y399861D01*
X597774Y399856D01*
X597693Y399813D01*
X597610Y399777D01*
X597577Y399751D01*
X597557Y399740D01*
X597535Y399717D01*
X597479Y399672D01*
X594831Y397025D01*
X590723Y395323D01*
X586277Y395323D01*
X582169Y397025D01*
X579521Y399672D01*
X579447Y399725D01*
X579378Y399785D01*
X579348Y399797D01*
X579322Y399816D01*
X579235Y399843D01*
X579150Y399877D01*
X579109Y399881D01*
X579087Y399888D01*
X579054Y399887D01*
X578983Y399895D01*
X566166Y399895D01*
X566146Y399892D01*
X566127Y399894D01*
X566025Y399872D01*
X565923Y399856D01*
X565906Y399846D01*
X565886Y399842D01*
X565797Y399789D01*
X565706Y399740D01*
X565692Y399726D01*
X565675Y399716D01*
X565608Y399637D01*
X565536Y399562D01*
X565528Y399544D01*
X565515Y399529D01*
X565476Y399433D01*
X565433Y399339D01*
X565431Y399319D01*
X565423Y399301D01*
X565405Y399134D01*
X565405Y341586D01*
X564399Y339159D01*
X549841Y324601D01*
X547441Y323607D01*
X547385Y323572D01*
X547325Y323546D01*
X547260Y323495D01*
X547232Y323477D01*
X547220Y323462D01*
X547194Y323442D01*
X546200Y322447D01*
X542839Y321055D01*
X523961Y321055D01*
X520600Y322447D01*
X518027Y325020D01*
X516635Y328381D01*
X516635Y332019D01*
X518027Y335380D01*
X520600Y337953D01*
X523961Y339345D01*
X542839Y339345D01*
X544537Y338642D01*
X544650Y338615D01*
X544764Y338586D01*
X544770Y338587D01*
X544776Y338585D01*
X544893Y338596D01*
X545009Y338605D01*
X545015Y338608D01*
X545021Y338609D01*
X545128Y338656D01*
X545235Y338702D01*
X545241Y338706D01*
X545246Y338709D01*
X545259Y338721D01*
X545366Y338807D01*
X551972Y345413D01*
X552025Y345487D01*
X552085Y345556D01*
X552097Y345586D01*
X552116Y345613D01*
X552143Y345700D01*
X552177Y345784D01*
X552181Y345825D01*
X552188Y345848D01*
X552187Y345880D01*
X552195Y345951D01*
X552195Y352307D01*
X552195Y352311D01*
X552195Y352315D01*
X552175Y352432D01*
X552156Y352550D01*
X552154Y352553D01*
X552153Y352557D01*
X552096Y352662D01*
X552040Y352767D01*
X552038Y352770D01*
X552036Y352773D01*
X551948Y352854D01*
X551862Y352936D01*
X551858Y352938D01*
X551856Y352941D01*
X551747Y352990D01*
X551639Y353040D01*
X551635Y353040D01*
X551631Y353042D01*
X551512Y353054D01*
X551395Y353067D01*
X551391Y353066D01*
X551387Y353067D01*
X551271Y353040D01*
X551154Y353015D01*
X551151Y353013D01*
X551147Y353012D01*
X551046Y352950D01*
X550943Y352889D01*
X550941Y352886D01*
X550937Y352883D01*
X550861Y352792D01*
X550783Y352702D01*
X550782Y352698D01*
X550779Y352695D01*
X550710Y352542D01*
X550436Y351700D01*
X549710Y350275D01*
X548770Y348981D01*
X547639Y347850D01*
X546345Y346910D01*
X544920Y346184D01*
X543399Y345689D01*
X541820Y345439D01*
X534923Y345439D01*
X534923Y354838D01*
X534920Y354858D01*
X534922Y354877D01*
X534900Y354979D01*
X534883Y355081D01*
X534874Y355098D01*
X534870Y355118D01*
X534817Y355207D01*
X534768Y355298D01*
X534754Y355312D01*
X534744Y355329D01*
X534665Y355396D01*
X534590Y355467D01*
X534572Y355476D01*
X534557Y355489D01*
X534461Y355527D01*
X534367Y355571D01*
X534347Y355573D01*
X534329Y355581D01*
X534162Y355599D01*
X533399Y355599D01*
X533399Y355601D01*
X534162Y355601D01*
X534182Y355604D01*
X534201Y355602D01*
X534303Y355624D01*
X534405Y355641D01*
X534422Y355650D01*
X534442Y355654D01*
X534531Y355707D01*
X534622Y355756D01*
X534636Y355770D01*
X534653Y355780D01*
X534720Y355859D01*
X534791Y355934D01*
X534800Y355952D01*
X534813Y355967D01*
X534852Y356063D01*
X534895Y356157D01*
X534897Y356177D01*
X534905Y356195D01*
X534923Y356362D01*
X534923Y365761D01*
X541820Y365761D01*
X543399Y365511D01*
X544920Y365016D01*
X546345Y364290D01*
X547639Y363350D01*
X548770Y362219D01*
X549710Y360925D01*
X550436Y359500D01*
X550710Y358658D01*
X550712Y358654D01*
X550713Y358650D01*
X550768Y358546D01*
X550823Y358439D01*
X550826Y358437D01*
X550828Y358433D01*
X550914Y358351D01*
X550999Y358268D01*
X551003Y358266D01*
X551006Y358264D01*
X551114Y358214D01*
X551221Y358162D01*
X551225Y358162D01*
X551229Y358160D01*
X551346Y358147D01*
X551466Y358133D01*
X551470Y358133D01*
X551473Y358133D01*
X551589Y358158D01*
X551706Y358182D01*
X551710Y358184D01*
X551714Y358185D01*
X551816Y358246D01*
X551919Y358306D01*
X551922Y358309D01*
X551925Y358311D01*
X552003Y358402D01*
X552081Y358492D01*
X552082Y358495D01*
X552085Y358498D01*
X552130Y358610D01*
X552175Y358719D01*
X552175Y358723D01*
X552177Y358726D01*
X552195Y358893D01*
X552195Y403107D01*
X552195Y403111D01*
X552195Y403115D01*
X552175Y403232D01*
X552156Y403350D01*
X552154Y403353D01*
X552153Y403357D01*
X552096Y403462D01*
X552040Y403567D01*
X552038Y403570D01*
X552036Y403573D01*
X551948Y403654D01*
X551862Y403736D01*
X551858Y403738D01*
X551856Y403741D01*
X551747Y403790D01*
X551639Y403840D01*
X551635Y403840D01*
X551631Y403842D01*
X551512Y403854D01*
X551395Y403867D01*
X551391Y403866D01*
X551387Y403867D01*
X551271Y403840D01*
X551154Y403815D01*
X551151Y403813D01*
X551147Y403812D01*
X551046Y403750D01*
X550943Y403689D01*
X550941Y403686D01*
X550937Y403683D01*
X550861Y403592D01*
X550783Y403502D01*
X550782Y403498D01*
X550779Y403495D01*
X550710Y403342D01*
X550436Y402500D01*
X549710Y401075D01*
X548770Y399781D01*
X547639Y398650D01*
X546345Y397710D01*
X544920Y396984D01*
X543399Y396489D01*
X541820Y396239D01*
X534923Y396239D01*
X534923Y405638D01*
X534920Y405658D01*
X534922Y405677D01*
X534900Y405779D01*
X534883Y405881D01*
X534874Y405898D01*
X534870Y405918D01*
X534817Y406007D01*
X534768Y406098D01*
X534754Y406112D01*
X534744Y406129D01*
X534665Y406196D01*
X534590Y406267D01*
X534572Y406276D01*
X534557Y406289D01*
X534461Y406327D01*
X534367Y406371D01*
X534347Y406373D01*
X534329Y406381D01*
X534162Y406399D01*
X533399Y406399D01*
X533399Y406401D01*
X534162Y406401D01*
X534182Y406404D01*
X534201Y406402D01*
X534303Y406424D01*
X534405Y406441D01*
X534422Y406450D01*
X534442Y406454D01*
X534531Y406507D01*
X534622Y406556D01*
X534636Y406570D01*
X534653Y406580D01*
X534720Y406659D01*
X534791Y406734D01*
X534800Y406752D01*
X534813Y406767D01*
X534852Y406863D01*
X534895Y406957D01*
X534897Y406977D01*
X534905Y406995D01*
X534923Y407162D01*
X534923Y416561D01*
X541820Y416561D01*
X543399Y416311D01*
X544920Y415816D01*
X546345Y415090D01*
X547639Y414150D01*
X548770Y413019D01*
X549710Y411725D01*
X550436Y410300D01*
X550931Y408779D01*
X550980Y408466D01*
X550992Y408430D01*
X550996Y408392D01*
X551030Y408314D01*
X551057Y408232D01*
X551080Y408202D01*
X551096Y408167D01*
X551154Y408104D01*
X551205Y408035D01*
X551236Y408014D01*
X551262Y407986D01*
X551337Y407945D01*
X551408Y407896D01*
X551444Y407886D01*
X551478Y407867D01*
X551562Y407852D01*
X551644Y407829D01*
X551682Y407830D01*
X551720Y407824D01*
X551805Y407836D01*
X551890Y407840D01*
X551925Y407854D01*
X551963Y407859D01*
X552039Y407898D01*
X552119Y407929D01*
X552148Y407954D01*
X552182Y407971D01*
X552242Y408032D01*
X552308Y408087D01*
X552328Y408119D01*
X552355Y408146D01*
X552435Y408293D01*
X553201Y410141D01*
X555159Y412099D01*
X557586Y413105D01*
X578983Y413105D01*
X579073Y413119D01*
X579164Y413127D01*
X579194Y413139D01*
X579226Y413144D01*
X579307Y413187D01*
X579390Y413223D01*
X579423Y413249D01*
X579443Y413260D01*
X579465Y413283D01*
X579521Y413328D01*
X582169Y415975D01*
X586277Y417677D01*
X590723Y417677D01*
X594831Y415975D01*
X597479Y413328D01*
X597553Y413275D01*
X597622Y413215D01*
X597652Y413203D01*
X597678Y413184D01*
X597765Y413157D01*
X597850Y413123D01*
X597891Y413119D01*
X597913Y413112D01*
X597946Y413113D01*
X598017Y413105D01*
X648914Y413105D01*
X651341Y412099D01*
X777213Y286228D01*
X777287Y286175D01*
X777356Y286115D01*
X777386Y286103D01*
X777413Y286084D01*
X777500Y286057D01*
X777584Y286023D01*
X777625Y286019D01*
X777648Y286012D01*
X777680Y286013D01*
X777751Y286005D01*
X856234Y286005D01*
X856254Y286008D01*
X856273Y286006D01*
X856375Y286028D01*
X856477Y286044D01*
X856494Y286054D01*
X856514Y286058D01*
X856603Y286111D01*
X856694Y286160D01*
X856708Y286174D01*
X856725Y286184D01*
X856792Y286263D01*
X856864Y286338D01*
X856872Y286356D01*
X856885Y286371D01*
X856924Y286467D01*
X856967Y286561D01*
X856969Y286581D01*
X856977Y286599D01*
X856995Y286766D01*
X856995Y395014D01*
X858001Y397441D01*
X859155Y398596D01*
X859197Y398654D01*
X859246Y398706D01*
X859268Y398753D01*
X859299Y398795D01*
X859320Y398864D01*
X859350Y398929D01*
X859356Y398981D01*
X859371Y399031D01*
X859369Y399102D01*
X859377Y399173D01*
X859366Y399224D01*
X859365Y399276D01*
X859340Y399344D01*
X859325Y399414D01*
X859298Y399459D01*
X859280Y399507D01*
X859235Y399563D01*
X859199Y399625D01*
X859159Y399659D01*
X859127Y399699D01*
X859066Y399738D01*
X859012Y399785D01*
X858963Y399804D01*
X858920Y399832D01*
X858850Y399850D01*
X858784Y399877D01*
X858712Y399885D01*
X858681Y399893D01*
X858658Y399891D01*
X858617Y399895D01*
X845717Y399895D01*
X845627Y399881D01*
X845536Y399873D01*
X845506Y399861D01*
X845474Y399856D01*
X845393Y399813D01*
X845310Y399777D01*
X845277Y399751D01*
X845257Y399740D01*
X845235Y399717D01*
X845179Y399672D01*
X842531Y397025D01*
X838423Y395323D01*
X833977Y395323D01*
X829869Y397025D01*
X826725Y400169D01*
X825023Y404277D01*
X825023Y408723D01*
X826725Y412831D01*
X829869Y415975D01*
X833977Y417677D01*
X838423Y417677D01*
X842531Y415975D01*
X845179Y413328D01*
X845253Y413275D01*
X845322Y413215D01*
X845352Y413203D01*
X845378Y413184D01*
X845465Y413157D01*
X845550Y413123D01*
X845591Y413119D01*
X845613Y413112D01*
X845646Y413113D01*
X845717Y413105D01*
X860649Y413105D01*
X860739Y413119D01*
X860830Y413127D01*
X860860Y413139D01*
X860892Y413144D01*
X860972Y413187D01*
X861056Y413223D01*
X861088Y413249D01*
X861109Y413260D01*
X861131Y413283D01*
X861187Y413328D01*
X869472Y421613D01*
X869525Y421687D01*
X869585Y421756D01*
X869597Y421786D01*
X869616Y421813D01*
X869643Y421900D01*
X869677Y421984D01*
X869681Y422025D01*
X869688Y422048D01*
X869687Y422080D01*
X869695Y422151D01*
X869695Y452117D01*
X869684Y452188D01*
X869682Y452259D01*
X869664Y452308D01*
X869656Y452360D01*
X869622Y452423D01*
X869597Y452490D01*
X869565Y452531D01*
X869540Y452577D01*
X869488Y452626D01*
X869444Y452682D01*
X869400Y452711D01*
X869362Y452746D01*
X869297Y452777D01*
X869237Y452815D01*
X869186Y452828D01*
X869139Y452850D01*
X869068Y452858D01*
X868998Y452875D01*
X868946Y452871D01*
X868895Y452877D01*
X868824Y452862D01*
X868753Y452856D01*
X868705Y452836D01*
X868654Y452825D01*
X868593Y452788D01*
X868527Y452760D01*
X868471Y452715D01*
X868443Y452699D01*
X868428Y452681D01*
X868396Y452655D01*
X867234Y451494D01*
X856606Y440866D01*
X854641Y438901D01*
X852214Y437895D01*
X851851Y437895D01*
X851761Y437881D01*
X851670Y437873D01*
X851640Y437861D01*
X851608Y437856D01*
X851528Y437813D01*
X851444Y437777D01*
X851412Y437751D01*
X851391Y437740D01*
X851369Y437717D01*
X851313Y437672D01*
X847600Y433959D01*
X847547Y433885D01*
X847487Y433816D01*
X847475Y433786D01*
X847456Y433759D01*
X847429Y433672D01*
X847395Y433588D01*
X847391Y433547D01*
X847384Y433524D01*
X847385Y433492D01*
X847377Y433421D01*
X847377Y429677D01*
X845675Y425569D01*
X842531Y422425D01*
X838423Y420723D01*
X833977Y420723D01*
X829869Y422425D01*
X826725Y425569D01*
X825023Y429677D01*
X825023Y434123D01*
X826725Y438231D01*
X829869Y441375D01*
X833977Y443077D01*
X837721Y443077D01*
X837811Y443091D01*
X837902Y443099D01*
X837932Y443111D01*
X837964Y443116D01*
X838044Y443159D01*
X838128Y443195D01*
X838160Y443221D01*
X838181Y443232D01*
X838203Y443255D01*
X838259Y443300D01*
X840257Y445298D01*
X840301Y445359D01*
X840333Y445393D01*
X840341Y445409D01*
X840376Y445452D01*
X840386Y445476D01*
X840401Y445497D01*
X840429Y445591D01*
X840464Y445681D01*
X840465Y445708D01*
X840473Y445733D01*
X840471Y445830D01*
X840475Y445927D01*
X840467Y445952D01*
X840467Y445978D01*
X840433Y446070D01*
X840406Y446163D01*
X840391Y446185D01*
X840382Y446209D01*
X840321Y446286D01*
X840266Y446365D01*
X840245Y446381D01*
X840229Y446401D01*
X840146Y446454D01*
X840069Y446512D01*
X840044Y446520D01*
X840022Y446534D01*
X839927Y446558D01*
X839835Y446588D01*
X839808Y446588D01*
X839783Y446595D01*
X839686Y446587D01*
X839589Y446586D01*
X839557Y446577D01*
X839538Y446575D01*
X839508Y446563D01*
X839428Y446539D01*
X838423Y446123D01*
X833977Y446123D01*
X829869Y447825D01*
X826725Y450969D01*
X825023Y455077D01*
X825023Y459523D01*
X826725Y463631D01*
X829869Y466775D01*
X833977Y468477D01*
X838423Y468477D01*
X842531Y466775D01*
X845675Y463631D01*
X847377Y459523D01*
X847377Y455077D01*
X846071Y451925D01*
X846055Y451855D01*
X846029Y451789D01*
X846027Y451736D01*
X846015Y451686D01*
X846022Y451615D01*
X846019Y451543D01*
X846033Y451493D01*
X846038Y451441D01*
X846067Y451375D01*
X846087Y451307D01*
X846117Y451264D01*
X846138Y451216D01*
X846187Y451163D01*
X846228Y451105D01*
X846269Y451074D01*
X846305Y451035D01*
X846368Y451000D01*
X846425Y450958D01*
X846474Y450942D01*
X846520Y450916D01*
X846591Y450904D01*
X846659Y450882D01*
X846711Y450882D01*
X846762Y450873D01*
X846833Y450883D01*
X846905Y450884D01*
X846974Y450904D01*
X847006Y450909D01*
X847026Y450919D01*
X847066Y450931D01*
X847486Y451105D01*
X847849Y451105D01*
X847939Y451119D01*
X848030Y451127D01*
X848060Y451139D01*
X848092Y451144D01*
X848172Y451187D01*
X848256Y451223D01*
X848288Y451249D01*
X848309Y451260D01*
X848331Y451283D01*
X848387Y451328D01*
X856772Y459713D01*
X856825Y459787D01*
X856885Y459856D01*
X856897Y459886D01*
X856916Y459913D01*
X856943Y459999D01*
X856977Y460084D01*
X856981Y460125D01*
X856988Y460148D01*
X856987Y460180D01*
X856995Y460251D01*
X856995Y572814D01*
X858001Y575241D01*
X859966Y577206D01*
X883294Y600534D01*
X885259Y602499D01*
X887659Y603493D01*
X887715Y603528D01*
X887775Y603554D01*
X887840Y603605D01*
X887868Y603623D01*
X887880Y603638D01*
X887906Y603658D01*
X888900Y604653D01*
X892261Y606045D01*
X911139Y606045D01*
X914500Y604653D01*
X915425Y603728D01*
X915499Y603675D01*
X915568Y603615D01*
X915598Y603603D01*
X915625Y603584D01*
X915712Y603557D01*
X915796Y603523D01*
X915837Y603519D01*
X915860Y603512D01*
X915892Y603513D01*
X915963Y603505D01*
X924214Y603505D01*
X926641Y602499D01*
X929193Y599948D01*
X929267Y599895D01*
X929336Y599835D01*
X929366Y599823D01*
X929393Y599804D01*
X929480Y599777D01*
X929564Y599743D01*
X929605Y599739D01*
X929628Y599732D01*
X929660Y599733D01*
X929731Y599725D01*
X932732Y599725D01*
X933625Y598832D01*
X933625Y594358D01*
X933635Y594294D01*
X933636Y594228D01*
X933659Y594148D01*
X933664Y594116D01*
X933674Y594098D01*
X933683Y594067D01*
X933705Y594014D01*
X933705Y591386D01*
X933683Y591333D01*
X933668Y591269D01*
X933643Y591208D01*
X933634Y591126D01*
X933627Y591094D01*
X933628Y591074D01*
X933625Y591042D01*
X933625Y586568D01*
X932732Y585675D01*
X921468Y585675D01*
X920575Y586568D01*
X920575Y589534D01*
X920572Y589554D01*
X920574Y589573D01*
X920552Y589675D01*
X920536Y589777D01*
X920526Y589794D01*
X920522Y589814D01*
X920469Y589903D01*
X920420Y589994D01*
X920406Y590008D01*
X920396Y590025D01*
X920317Y590092D01*
X920242Y590164D01*
X920224Y590172D01*
X920209Y590185D01*
X920113Y590224D01*
X920019Y590267D01*
X919999Y590269D01*
X919981Y590277D01*
X919814Y590295D01*
X915963Y590295D01*
X915873Y590281D01*
X915782Y590273D01*
X915752Y590261D01*
X915720Y590256D01*
X915640Y590213D01*
X915556Y590177D01*
X915524Y590151D01*
X915503Y590140D01*
X915481Y590117D01*
X915425Y590072D01*
X914500Y589147D01*
X911139Y587755D01*
X892261Y587755D01*
X890563Y588458D01*
X890450Y588485D01*
X890336Y588514D01*
X890330Y588513D01*
X890324Y588515D01*
X890207Y588504D01*
X890091Y588495D01*
X890085Y588492D01*
X890079Y588491D01*
X889972Y588444D01*
X889865Y588398D01*
X889859Y588394D01*
X889854Y588391D01*
X889841Y588379D01*
X889734Y588293D01*
X870428Y568987D01*
X870375Y568913D01*
X870315Y568844D01*
X870303Y568814D01*
X870284Y568787D01*
X870257Y568701D01*
X870223Y568616D01*
X870219Y568575D01*
X870212Y568552D01*
X870213Y568520D01*
X870205Y568449D01*
X870205Y500383D01*
X870216Y500312D01*
X870218Y500241D01*
X870236Y500192D01*
X870244Y500140D01*
X870278Y500077D01*
X870303Y500010D01*
X870335Y499969D01*
X870360Y499923D01*
X870412Y499874D01*
X870456Y499818D01*
X870500Y499789D01*
X870538Y499754D01*
X870603Y499723D01*
X870663Y499685D01*
X870714Y499672D01*
X870761Y499650D01*
X870832Y499642D01*
X870902Y499625D01*
X870954Y499629D01*
X871005Y499623D01*
X871076Y499638D01*
X871147Y499644D01*
X871195Y499664D01*
X871246Y499675D01*
X871307Y499712D01*
X871373Y499740D01*
X871429Y499785D01*
X871457Y499801D01*
X871472Y499819D01*
X871504Y499845D01*
X872566Y500906D01*
X885259Y513599D01*
X887659Y514593D01*
X887715Y514628D01*
X887775Y514654D01*
X887840Y514705D01*
X887868Y514723D01*
X887880Y514738D01*
X887906Y514758D01*
X888900Y515753D01*
X892261Y517145D01*
X911139Y517145D01*
X914500Y515753D01*
X917073Y513180D01*
X918465Y509819D01*
X918465Y506181D01*
X917073Y502820D01*
X914500Y500247D01*
X911139Y498855D01*
X892261Y498855D01*
X890563Y499558D01*
X890450Y499585D01*
X890336Y499614D01*
X890330Y499613D01*
X890324Y499615D01*
X890207Y499604D01*
X890091Y499595D01*
X890085Y499592D01*
X890079Y499591D01*
X889972Y499544D01*
X889865Y499498D01*
X889859Y499494D01*
X889854Y499491D01*
X889841Y499479D01*
X889734Y499393D01*
X883128Y492787D01*
X883085Y492727D01*
X883045Y492685D01*
X883038Y492670D01*
X883015Y492644D01*
X883003Y492614D01*
X882984Y492587D01*
X882957Y492501D01*
X882948Y492478D01*
X882941Y492462D01*
X882941Y492459D01*
X882923Y492416D01*
X882919Y492375D01*
X882912Y492352D01*
X882913Y492320D01*
X882905Y492249D01*
X882905Y417786D01*
X881899Y415359D01*
X879934Y413394D01*
X868145Y401604D01*
X868103Y401546D01*
X868054Y401494D01*
X868032Y401447D01*
X868001Y401405D01*
X867980Y401336D01*
X867950Y401271D01*
X867944Y401219D01*
X867929Y401169D01*
X867931Y401098D01*
X867923Y401027D01*
X867934Y400976D01*
X867935Y400924D01*
X867960Y400856D01*
X867975Y400786D01*
X868002Y400741D01*
X868020Y400693D01*
X868065Y400637D01*
X868101Y400575D01*
X868141Y400541D01*
X868173Y400501D01*
X868234Y400462D01*
X868288Y400415D01*
X868337Y400396D01*
X868380Y400368D01*
X868450Y400350D01*
X868516Y400323D01*
X868588Y400315D01*
X868619Y400307D01*
X868642Y400309D01*
X868683Y400305D01*
X887437Y400305D01*
X887527Y400319D01*
X887618Y400327D01*
X887648Y400339D01*
X887680Y400344D01*
X887760Y400387D01*
X887844Y400423D01*
X887876Y400449D01*
X887897Y400460D01*
X887919Y400483D01*
X887975Y400528D01*
X888900Y401453D01*
X892261Y402845D01*
X911139Y402845D01*
X914500Y401453D01*
X917073Y398880D01*
X918465Y395519D01*
X918465Y391881D01*
X917073Y388520D01*
X914500Y385947D01*
X911139Y384555D01*
X892261Y384555D01*
X888900Y385947D01*
X887975Y386872D01*
X887901Y386925D01*
X887832Y386985D01*
X887802Y386997D01*
X887775Y387016D01*
X887688Y387043D01*
X887604Y387077D01*
X887563Y387081D01*
X887540Y387088D01*
X887508Y387087D01*
X887437Y387095D01*
X870966Y387095D01*
X870946Y387092D01*
X870927Y387094D01*
X870825Y387072D01*
X870723Y387056D01*
X870706Y387046D01*
X870686Y387042D01*
X870597Y386989D01*
X870506Y386940D01*
X870492Y386926D01*
X870475Y386916D01*
X870408Y386837D01*
X870336Y386762D01*
X870328Y386744D01*
X870315Y386729D01*
X870276Y386633D01*
X870233Y386539D01*
X870231Y386519D01*
X870223Y386501D01*
X870205Y386334D01*
X870205Y286766D01*
X870208Y286746D01*
X870206Y286727D01*
X870228Y286625D01*
X870244Y286523D01*
X870254Y286506D01*
X870258Y286486D01*
X870311Y286397D01*
X870360Y286306D01*
X870374Y286292D01*
X870384Y286275D01*
X870463Y286208D01*
X870538Y286136D01*
X870556Y286128D01*
X870571Y286115D01*
X870667Y286076D01*
X870761Y286033D01*
X870781Y286031D01*
X870799Y286023D01*
X870966Y286005D01*
X887437Y286005D01*
X887527Y286019D01*
X887618Y286027D01*
X887648Y286039D01*
X887680Y286044D01*
X887760Y286087D01*
X887844Y286123D01*
X887876Y286149D01*
X887897Y286160D01*
X887919Y286183D01*
X887975Y286228D01*
X888900Y287153D01*
X892261Y288545D01*
X911139Y288545D01*
X914500Y287153D01*
X917073Y284580D01*
X918465Y281219D01*
X918465Y277581D01*
X917073Y274220D01*
X914500Y271647D01*
X911139Y270255D01*
X892261Y270255D01*
G37*
%LPD*%
%LPC*%
G36*
X833977Y573123D02*
X833977Y573123D01*
X829869Y574825D01*
X826725Y577969D01*
X825023Y582077D01*
X825023Y586523D01*
X826725Y590631D01*
X829869Y593775D01*
X833977Y595477D01*
X837721Y595477D01*
X837811Y595491D01*
X837902Y595499D01*
X837932Y595511D01*
X837964Y595516D01*
X838044Y595559D01*
X838128Y595595D01*
X838160Y595621D01*
X838181Y595632D01*
X838203Y595655D01*
X838259Y595700D01*
X840257Y597698D01*
X840314Y597777D01*
X840376Y597852D01*
X840386Y597876D01*
X840401Y597897D01*
X840429Y597991D01*
X840464Y598081D01*
X840465Y598108D01*
X840473Y598133D01*
X840471Y598230D01*
X840475Y598327D01*
X840467Y598352D01*
X840467Y598378D01*
X840433Y598470D01*
X840406Y598563D01*
X840391Y598585D01*
X840382Y598609D01*
X840321Y598686D01*
X840266Y598765D01*
X840245Y598781D01*
X840229Y598801D01*
X840147Y598854D01*
X840069Y598912D01*
X840044Y598920D01*
X840022Y598934D01*
X839927Y598958D01*
X839835Y598988D01*
X839809Y598988D01*
X839783Y598995D01*
X839686Y598987D01*
X839589Y598986D01*
X839557Y598977D01*
X839538Y598975D01*
X839508Y598963D01*
X839428Y598939D01*
X838423Y598523D01*
X833977Y598523D01*
X829869Y600225D01*
X826725Y603369D01*
X825023Y607477D01*
X825023Y611923D01*
X826725Y616031D01*
X829869Y619175D01*
X833977Y620877D01*
X837721Y620877D01*
X837811Y620891D01*
X837902Y620899D01*
X837932Y620911D01*
X837964Y620916D01*
X838044Y620959D01*
X838128Y620995D01*
X838160Y621021D01*
X838181Y621032D01*
X838203Y621055D01*
X838259Y621100D01*
X840257Y623098D01*
X840314Y623177D01*
X840376Y623252D01*
X840386Y623276D01*
X840401Y623297D01*
X840429Y623391D01*
X840464Y623481D01*
X840465Y623508D01*
X840473Y623533D01*
X840471Y623630D01*
X840475Y623727D01*
X840467Y623752D01*
X840467Y623778D01*
X840433Y623870D01*
X840406Y623963D01*
X840391Y623985D01*
X840382Y624009D01*
X840321Y624086D01*
X840266Y624165D01*
X840245Y624181D01*
X840229Y624201D01*
X840147Y624254D01*
X840069Y624312D01*
X840044Y624320D01*
X840022Y624334D01*
X839927Y624358D01*
X839835Y624388D01*
X839809Y624388D01*
X839783Y624395D01*
X839686Y624387D01*
X839589Y624386D01*
X839557Y624377D01*
X839538Y624375D01*
X839508Y624363D01*
X839428Y624339D01*
X838423Y623923D01*
X833977Y623923D01*
X829869Y625625D01*
X826725Y628769D01*
X825023Y632877D01*
X825023Y637323D01*
X826725Y641431D01*
X829869Y644575D01*
X833977Y646277D01*
X838423Y646277D01*
X842531Y644575D01*
X845675Y641431D01*
X847377Y637323D01*
X847377Y632877D01*
X846961Y631872D01*
X846938Y631778D01*
X846910Y631685D01*
X846910Y631658D01*
X846905Y631633D01*
X846914Y631536D01*
X846916Y631439D01*
X846925Y631414D01*
X846928Y631388D01*
X846967Y631299D01*
X847001Y631208D01*
X847017Y631187D01*
X847028Y631163D01*
X847094Y631092D01*
X847154Y631016D01*
X847176Y631001D01*
X847194Y630982D01*
X847279Y630935D01*
X847361Y630883D01*
X847387Y630876D01*
X847410Y630864D01*
X847505Y630846D01*
X847600Y630823D01*
X847626Y630825D01*
X847652Y630820D01*
X847748Y630834D01*
X847845Y630842D01*
X847869Y630852D01*
X847895Y630856D01*
X847982Y630900D01*
X848071Y630938D01*
X848097Y630958D01*
X848114Y630967D01*
X848137Y630991D01*
X848202Y631043D01*
X856772Y639613D01*
X856825Y639687D01*
X856885Y639756D01*
X856897Y639786D01*
X856916Y639813D01*
X856943Y639900D01*
X856977Y639984D01*
X856981Y640025D01*
X856988Y640048D01*
X856987Y640080D01*
X856995Y640151D01*
X856995Y699814D01*
X858001Y702241D01*
X872559Y716799D01*
X874986Y717805D01*
X887437Y717805D01*
X887527Y717819D01*
X887618Y717827D01*
X887648Y717839D01*
X887680Y717844D01*
X887760Y717887D01*
X887844Y717923D01*
X887876Y717949D01*
X887897Y717960D01*
X887919Y717983D01*
X887975Y718028D01*
X888900Y718953D01*
X892261Y720345D01*
X911139Y720345D01*
X914500Y718953D01*
X917073Y716380D01*
X918465Y713019D01*
X918465Y709381D01*
X917073Y706020D01*
X914500Y703447D01*
X911139Y702055D01*
X892261Y702055D01*
X888900Y703447D01*
X887975Y704372D01*
X887901Y704425D01*
X887832Y704485D01*
X887802Y704497D01*
X887775Y704516D01*
X887688Y704543D01*
X887604Y704577D01*
X887563Y704581D01*
X887540Y704588D01*
X887508Y704587D01*
X887437Y704595D01*
X879351Y704595D01*
X879261Y704581D01*
X879170Y704573D01*
X879140Y704561D01*
X879108Y704556D01*
X879028Y704513D01*
X878944Y704477D01*
X878912Y704451D01*
X878891Y704440D01*
X878869Y704417D01*
X878813Y704372D01*
X870428Y695987D01*
X870375Y695913D01*
X870315Y695844D01*
X870303Y695814D01*
X870284Y695787D01*
X870257Y695700D01*
X870223Y695616D01*
X870219Y695575D01*
X870212Y695552D01*
X870213Y695520D01*
X870205Y695449D01*
X870205Y678183D01*
X870216Y678112D01*
X870218Y678041D01*
X870236Y677992D01*
X870244Y677940D01*
X870278Y677877D01*
X870303Y677810D01*
X870335Y677769D01*
X870360Y677723D01*
X870412Y677674D01*
X870456Y677618D01*
X870500Y677589D01*
X870538Y677554D01*
X870603Y677523D01*
X870663Y677485D01*
X870714Y677472D01*
X870761Y677450D01*
X870832Y677442D01*
X870902Y677425D01*
X870954Y677429D01*
X871005Y677423D01*
X871076Y677438D01*
X871147Y677444D01*
X871195Y677464D01*
X871246Y677475D01*
X871307Y677512D01*
X871373Y677540D01*
X871429Y677585D01*
X871457Y677601D01*
X871472Y677619D01*
X871504Y677645D01*
X872666Y678806D01*
X885259Y691399D01*
X887659Y692393D01*
X887715Y692428D01*
X887775Y692454D01*
X887840Y692505D01*
X887868Y692523D01*
X887880Y692538D01*
X887906Y692558D01*
X888900Y693553D01*
X892261Y694945D01*
X911139Y694945D01*
X914500Y693553D01*
X917073Y690980D01*
X918465Y687619D01*
X918465Y683981D01*
X917073Y680620D01*
X914500Y678047D01*
X911139Y676655D01*
X892261Y676655D01*
X890563Y677358D01*
X890450Y677385D01*
X890336Y677414D01*
X890330Y677413D01*
X890324Y677415D01*
X890207Y677404D01*
X890091Y677395D01*
X890085Y677392D01*
X890079Y677391D01*
X889972Y677344D01*
X889865Y677298D01*
X889859Y677294D01*
X889854Y677291D01*
X889841Y677279D01*
X889734Y677193D01*
X883128Y670587D01*
X883075Y670513D01*
X883015Y670444D01*
X883003Y670414D01*
X882984Y670387D01*
X882957Y670300D01*
X882923Y670216D01*
X882919Y670175D01*
X882912Y670152D01*
X882913Y670120D01*
X882905Y670049D01*
X882905Y625593D01*
X882905Y625589D01*
X882905Y625585D01*
X882925Y625468D01*
X882944Y625350D01*
X882946Y625347D01*
X882947Y625343D01*
X883004Y625238D01*
X883060Y625133D01*
X883062Y625130D01*
X883064Y625127D01*
X883152Y625046D01*
X883238Y624964D01*
X883242Y624962D01*
X883244Y624959D01*
X883353Y624910D01*
X883461Y624860D01*
X883465Y624860D01*
X883469Y624858D01*
X883588Y624846D01*
X883705Y624833D01*
X883709Y624834D01*
X883713Y624833D01*
X883829Y624860D01*
X883946Y624885D01*
X883949Y624887D01*
X883953Y624888D01*
X884054Y624950D01*
X884157Y625011D01*
X884159Y625014D01*
X884163Y625017D01*
X884239Y625108D01*
X884317Y625198D01*
X884318Y625202D01*
X884321Y625205D01*
X884390Y625358D01*
X884664Y626200D01*
X885390Y627625D01*
X886330Y628919D01*
X887461Y630050D01*
X888755Y630990D01*
X890180Y631716D01*
X891701Y632211D01*
X893280Y632461D01*
X900177Y632461D01*
X900177Y623823D01*
X883666Y623823D01*
X883646Y623820D01*
X883627Y623822D01*
X883525Y623800D01*
X883423Y623783D01*
X883406Y623774D01*
X883386Y623770D01*
X883297Y623717D01*
X883206Y623668D01*
X883192Y623654D01*
X883175Y623644D01*
X883108Y623565D01*
X883036Y623490D01*
X883028Y623472D01*
X883015Y623457D01*
X882976Y623361D01*
X882933Y623267D01*
X882931Y623247D01*
X882923Y623229D01*
X882908Y623095D01*
X881899Y620659D01*
X879934Y618694D01*
X847600Y586359D01*
X847547Y586285D01*
X847487Y586216D01*
X847475Y586186D01*
X847456Y586159D01*
X847429Y586073D01*
X847395Y585988D01*
X847391Y585947D01*
X847384Y585924D01*
X847385Y585892D01*
X847377Y585821D01*
X847377Y582077D01*
X845675Y577969D01*
X842531Y574825D01*
X838423Y573123D01*
X833977Y573123D01*
G37*
%LPD*%
%LPC*%
G36*
X656250Y247875D02*
X656250Y247875D01*
X648232Y250024D01*
X641043Y254174D01*
X635174Y260043D01*
X631024Y267232D01*
X628875Y275250D01*
X628875Y283550D01*
X631024Y291568D01*
X635174Y298757D01*
X641043Y304626D01*
X648232Y308776D01*
X656250Y310925D01*
X664550Y310925D01*
X672568Y308776D01*
X679757Y304626D01*
X685626Y298757D01*
X689776Y291568D01*
X691925Y283550D01*
X691925Y275250D01*
X689776Y267232D01*
X685626Y260043D01*
X679757Y254174D01*
X672568Y250024D01*
X664550Y247875D01*
X656250Y247875D01*
G37*
%LPD*%
%LPC*%
G36*
X892261Y295655D02*
X892261Y295655D01*
X888900Y297047D01*
X886327Y299620D01*
X884935Y302981D01*
X884935Y306619D01*
X886327Y309980D01*
X888900Y312553D01*
X892261Y313945D01*
X911139Y313945D01*
X914500Y312553D01*
X915425Y311628D01*
X915499Y311575D01*
X915568Y311515D01*
X915598Y311503D01*
X915625Y311484D01*
X915712Y311457D01*
X915796Y311423D01*
X915837Y311419D01*
X915860Y311412D01*
X915892Y311413D01*
X915963Y311405D01*
X919734Y311405D01*
X919754Y311408D01*
X919773Y311406D01*
X919875Y311428D01*
X919977Y311444D01*
X919994Y311454D01*
X920014Y311458D01*
X920103Y311511D01*
X920194Y311560D01*
X920208Y311574D01*
X920225Y311584D01*
X920292Y311663D01*
X920364Y311738D01*
X920372Y311756D01*
X920385Y311771D01*
X920424Y311867D01*
X920467Y311961D01*
X920469Y311981D01*
X920477Y311999D01*
X920495Y312166D01*
X920495Y365007D01*
X920495Y365011D01*
X920495Y365015D01*
X920475Y365131D01*
X920456Y365250D01*
X920454Y365253D01*
X920453Y365257D01*
X920396Y365361D01*
X920340Y365467D01*
X920338Y365470D01*
X920336Y365473D01*
X920248Y365554D01*
X920162Y365636D01*
X920158Y365638D01*
X920156Y365641D01*
X920047Y365690D01*
X919939Y365740D01*
X919935Y365740D01*
X919931Y365742D01*
X919812Y365754D01*
X919695Y365767D01*
X919691Y365766D01*
X919687Y365767D01*
X919571Y365740D01*
X919454Y365715D01*
X919451Y365713D01*
X919447Y365712D01*
X919346Y365650D01*
X919243Y365589D01*
X919241Y365586D01*
X919237Y365583D01*
X919160Y365492D01*
X919083Y365402D01*
X919082Y365398D01*
X919079Y365395D01*
X919010Y365242D01*
X918736Y364400D01*
X918010Y362975D01*
X917070Y361681D01*
X915939Y360550D01*
X914645Y359610D01*
X913220Y358884D01*
X911699Y358389D01*
X910120Y358139D01*
X903223Y358139D01*
X903223Y367538D01*
X903220Y367558D01*
X903222Y367577D01*
X903200Y367679D01*
X903183Y367781D01*
X903174Y367798D01*
X903170Y367818D01*
X903117Y367907D01*
X903068Y367998D01*
X903054Y368012D01*
X903044Y368029D01*
X902965Y368096D01*
X902890Y368167D01*
X902872Y368176D01*
X902857Y368189D01*
X902761Y368227D01*
X902667Y368271D01*
X902647Y368273D01*
X902629Y368281D01*
X902462Y368299D01*
X901699Y368299D01*
X901699Y368301D01*
X902462Y368301D01*
X902482Y368304D01*
X902501Y368302D01*
X902603Y368324D01*
X902705Y368341D01*
X902722Y368350D01*
X902742Y368354D01*
X902831Y368407D01*
X902922Y368456D01*
X902936Y368470D01*
X902953Y368480D01*
X903020Y368559D01*
X903091Y368634D01*
X903100Y368652D01*
X903113Y368667D01*
X903152Y368763D01*
X903195Y368857D01*
X903197Y368877D01*
X903205Y368895D01*
X903223Y369062D01*
X903223Y378461D01*
X910120Y378461D01*
X911699Y378211D01*
X913220Y377716D01*
X914645Y376990D01*
X915939Y376050D01*
X917070Y374919D01*
X918010Y373625D01*
X918736Y372200D01*
X919010Y371358D01*
X919012Y371354D01*
X919013Y371350D01*
X919068Y371246D01*
X919123Y371139D01*
X919126Y371137D01*
X919128Y371133D01*
X919214Y371051D01*
X919299Y370968D01*
X919303Y370966D01*
X919306Y370964D01*
X919414Y370914D01*
X919521Y370862D01*
X919525Y370862D01*
X919529Y370860D01*
X919646Y370847D01*
X919766Y370833D01*
X919770Y370833D01*
X919773Y370833D01*
X919891Y370858D01*
X920006Y370882D01*
X920010Y370884D01*
X920014Y370885D01*
X920117Y370947D01*
X920219Y371006D01*
X920222Y371009D01*
X920225Y371011D01*
X920303Y371103D01*
X920381Y371192D01*
X920382Y371195D01*
X920385Y371198D01*
X920430Y371310D01*
X920475Y371419D01*
X920475Y371423D01*
X920477Y371426D01*
X920495Y371593D01*
X920495Y411734D01*
X920492Y411754D01*
X920494Y411773D01*
X920472Y411875D01*
X920456Y411977D01*
X920446Y411994D01*
X920442Y412014D01*
X920389Y412103D01*
X920340Y412194D01*
X920326Y412208D01*
X920316Y412225D01*
X920237Y412292D01*
X920162Y412364D01*
X920144Y412372D01*
X920129Y412385D01*
X920033Y412424D01*
X919939Y412467D01*
X919919Y412469D01*
X919901Y412477D01*
X919734Y412495D01*
X915963Y412495D01*
X915873Y412481D01*
X915782Y412473D01*
X915752Y412461D01*
X915720Y412456D01*
X915640Y412413D01*
X915556Y412377D01*
X915524Y412351D01*
X915503Y412340D01*
X915481Y412317D01*
X915425Y412272D01*
X914500Y411347D01*
X911139Y409955D01*
X892261Y409955D01*
X888900Y411347D01*
X886327Y413920D01*
X884935Y417281D01*
X884935Y420919D01*
X886327Y424280D01*
X888900Y426853D01*
X892261Y428245D01*
X911139Y428245D01*
X914500Y426853D01*
X915425Y425928D01*
X915499Y425875D01*
X915568Y425815D01*
X915598Y425803D01*
X915625Y425784D01*
X915712Y425757D01*
X915796Y425723D01*
X915837Y425719D01*
X915860Y425712D01*
X915892Y425713D01*
X915963Y425705D01*
X928414Y425705D01*
X930841Y424699D01*
X932699Y422841D01*
X933705Y420414D01*
X933705Y303486D01*
X932699Y301059D01*
X930841Y299201D01*
X928414Y298195D01*
X915963Y298195D01*
X915873Y298181D01*
X915782Y298173D01*
X915752Y298161D01*
X915720Y298156D01*
X915640Y298113D01*
X915556Y298077D01*
X915524Y298051D01*
X915503Y298040D01*
X915481Y298017D01*
X915425Y297972D01*
X914500Y297047D01*
X911139Y295655D01*
X892261Y295655D01*
G37*
%LPD*%
%LPC*%
G36*
X523961Y295655D02*
X523961Y295655D01*
X520600Y297047D01*
X518027Y299620D01*
X516635Y302981D01*
X516635Y306619D01*
X518027Y309980D01*
X520600Y312553D01*
X523961Y313945D01*
X542839Y313945D01*
X544537Y313242D01*
X544650Y313215D01*
X544764Y313186D01*
X544770Y313187D01*
X544776Y313185D01*
X544893Y313196D01*
X545009Y313205D01*
X545015Y313208D01*
X545021Y313209D01*
X545128Y313256D01*
X545235Y313302D01*
X545241Y313306D01*
X545246Y313309D01*
X545259Y313321D01*
X545366Y313407D01*
X565894Y333934D01*
X567859Y335899D01*
X570286Y336905D01*
X578983Y336905D01*
X579073Y336919D01*
X579164Y336927D01*
X579194Y336939D01*
X579226Y336944D01*
X579307Y336987D01*
X579390Y337023D01*
X579423Y337049D01*
X579443Y337060D01*
X579465Y337083D01*
X579521Y337128D01*
X582169Y339775D01*
X586277Y341477D01*
X590723Y341477D01*
X594831Y339775D01*
X597975Y336631D01*
X599677Y332523D01*
X599677Y328077D01*
X597975Y323969D01*
X594831Y320825D01*
X590723Y319123D01*
X586277Y319123D01*
X582169Y320825D01*
X579521Y323472D01*
X579447Y323525D01*
X579378Y323585D01*
X579348Y323597D01*
X579322Y323616D01*
X579235Y323643D01*
X579150Y323677D01*
X579109Y323681D01*
X579087Y323688D01*
X579054Y323687D01*
X578983Y323695D01*
X574651Y323695D01*
X574561Y323681D01*
X574470Y323673D01*
X574440Y323661D01*
X574408Y323656D01*
X574328Y323613D01*
X574244Y323577D01*
X574212Y323551D01*
X574191Y323540D01*
X574169Y323517D01*
X574113Y323472D01*
X549841Y299201D01*
X547441Y298207D01*
X547385Y298172D01*
X547325Y298146D01*
X547260Y298095D01*
X547232Y298077D01*
X547220Y298062D01*
X547194Y298042D01*
X546200Y297047D01*
X542839Y295655D01*
X523961Y295655D01*
G37*
%LPD*%
%LPC*%
G36*
X586277Y446123D02*
X586277Y446123D01*
X582169Y447825D01*
X579521Y450472D01*
X579447Y450525D01*
X579378Y450585D01*
X579348Y450597D01*
X579322Y450616D01*
X579235Y450643D01*
X579150Y450677D01*
X579109Y450681D01*
X579087Y450688D01*
X579054Y450687D01*
X578983Y450695D01*
X547763Y450695D01*
X547673Y450681D01*
X547582Y450673D01*
X547552Y450661D01*
X547520Y450656D01*
X547440Y450613D01*
X547356Y450577D01*
X547324Y450551D01*
X547303Y450540D01*
X547281Y450517D01*
X547225Y450472D01*
X546200Y449447D01*
X542839Y448055D01*
X523961Y448055D01*
X520600Y449447D01*
X518027Y452020D01*
X516635Y455381D01*
X516635Y459019D01*
X518027Y462380D01*
X520600Y464953D01*
X523961Y466345D01*
X542839Y466345D01*
X546200Y464953D01*
X547025Y464128D01*
X547099Y464075D01*
X547168Y464015D01*
X547198Y464003D01*
X547225Y463984D01*
X547312Y463957D01*
X547396Y463923D01*
X547437Y463919D01*
X547460Y463912D01*
X547492Y463913D01*
X547563Y463905D01*
X578983Y463905D01*
X579073Y463919D01*
X579164Y463927D01*
X579194Y463939D01*
X579226Y463944D01*
X579307Y463987D01*
X579390Y464023D01*
X579423Y464049D01*
X579443Y464060D01*
X579465Y464083D01*
X579521Y464128D01*
X582169Y466775D01*
X586277Y468477D01*
X590723Y468477D01*
X594831Y466775D01*
X597975Y463631D01*
X599677Y459523D01*
X599677Y455077D01*
X597975Y450969D01*
X594831Y447825D01*
X590723Y446123D01*
X586277Y446123D01*
G37*
%LPD*%
%LPC*%
G36*
X586277Y471523D02*
X586277Y471523D01*
X582169Y473225D01*
X579521Y475872D01*
X579447Y475925D01*
X579378Y475985D01*
X579348Y475997D01*
X579322Y476016D01*
X579235Y476043D01*
X579150Y476077D01*
X579109Y476081D01*
X579087Y476088D01*
X579054Y476087D01*
X578983Y476095D01*
X547763Y476095D01*
X547673Y476081D01*
X547582Y476073D01*
X547552Y476061D01*
X547520Y476056D01*
X547440Y476013D01*
X547356Y475977D01*
X547324Y475951D01*
X547303Y475940D01*
X547281Y475917D01*
X547225Y475872D01*
X546200Y474847D01*
X542839Y473455D01*
X523961Y473455D01*
X520600Y474847D01*
X518027Y477420D01*
X516635Y480781D01*
X516635Y484419D01*
X518027Y487780D01*
X520600Y490353D01*
X523961Y491745D01*
X542839Y491745D01*
X546200Y490353D01*
X547025Y489528D01*
X547099Y489475D01*
X547168Y489415D01*
X547198Y489403D01*
X547225Y489384D01*
X547312Y489357D01*
X547396Y489323D01*
X547437Y489319D01*
X547460Y489312D01*
X547492Y489313D01*
X547563Y489305D01*
X578983Y489305D01*
X579073Y489319D01*
X579164Y489327D01*
X579194Y489339D01*
X579226Y489344D01*
X579307Y489387D01*
X579390Y489423D01*
X579423Y489449D01*
X579443Y489460D01*
X579465Y489483D01*
X579521Y489528D01*
X582169Y492175D01*
X586277Y493877D01*
X590723Y493877D01*
X594831Y492175D01*
X597975Y489031D01*
X599677Y484923D01*
X599677Y480477D01*
X597975Y476369D01*
X594831Y473225D01*
X590723Y471523D01*
X586277Y471523D01*
G37*
%LPD*%
%LPC*%
G36*
X586277Y573123D02*
X586277Y573123D01*
X582169Y574825D01*
X579621Y577372D01*
X579547Y577425D01*
X579478Y577485D01*
X579448Y577497D01*
X579422Y577516D01*
X579335Y577543D01*
X579250Y577577D01*
X579209Y577581D01*
X579187Y577588D01*
X579154Y577587D01*
X579083Y577595D01*
X547663Y577595D01*
X547573Y577581D01*
X547482Y577573D01*
X547452Y577561D01*
X547420Y577556D01*
X547340Y577513D01*
X547256Y577477D01*
X547224Y577451D01*
X547203Y577440D01*
X547181Y577417D01*
X547125Y577372D01*
X546200Y576447D01*
X542839Y575055D01*
X523961Y575055D01*
X520600Y576447D01*
X518027Y579020D01*
X516635Y582381D01*
X516635Y586019D01*
X518027Y589380D01*
X520600Y591953D01*
X523961Y593345D01*
X542839Y593345D01*
X546200Y591953D01*
X547125Y591028D01*
X547199Y590975D01*
X547268Y590915D01*
X547298Y590903D01*
X547325Y590884D01*
X547412Y590857D01*
X547496Y590823D01*
X547537Y590819D01*
X547560Y590812D01*
X547592Y590813D01*
X547663Y590805D01*
X578883Y590805D01*
X578973Y590819D01*
X579064Y590827D01*
X579094Y590839D01*
X579126Y590844D01*
X579207Y590887D01*
X579290Y590923D01*
X579323Y590949D01*
X579343Y590960D01*
X579365Y590983D01*
X579421Y591028D01*
X582169Y593775D01*
X586277Y595477D01*
X590723Y595477D01*
X594831Y593775D01*
X597975Y590631D01*
X599677Y586523D01*
X599677Y582077D01*
X597975Y577969D01*
X594831Y574825D01*
X590723Y573123D01*
X586277Y573123D01*
G37*
%LPD*%
%LPC*%
G36*
X586277Y547723D02*
X586277Y547723D01*
X582169Y549425D01*
X579521Y552072D01*
X579447Y552125D01*
X579378Y552185D01*
X579348Y552197D01*
X579322Y552216D01*
X579235Y552243D01*
X579150Y552277D01*
X579109Y552281D01*
X579087Y552288D01*
X579054Y552287D01*
X578983Y552295D01*
X547763Y552295D01*
X547673Y552281D01*
X547582Y552273D01*
X547552Y552261D01*
X547520Y552256D01*
X547440Y552213D01*
X547356Y552177D01*
X547324Y552151D01*
X547303Y552140D01*
X547281Y552117D01*
X547225Y552072D01*
X546200Y551047D01*
X542839Y549655D01*
X523961Y549655D01*
X520600Y551047D01*
X518027Y553620D01*
X516635Y556981D01*
X516635Y560619D01*
X518027Y563980D01*
X520600Y566553D01*
X523961Y567945D01*
X542839Y567945D01*
X546200Y566553D01*
X547025Y565728D01*
X547099Y565675D01*
X547168Y565615D01*
X547198Y565603D01*
X547225Y565584D01*
X547312Y565557D01*
X547396Y565523D01*
X547437Y565519D01*
X547460Y565512D01*
X547492Y565513D01*
X547563Y565505D01*
X578983Y565505D01*
X579073Y565519D01*
X579164Y565527D01*
X579194Y565539D01*
X579226Y565544D01*
X579307Y565587D01*
X579390Y565623D01*
X579423Y565649D01*
X579443Y565660D01*
X579465Y565683D01*
X579521Y565728D01*
X582169Y568375D01*
X586277Y570077D01*
X590723Y570077D01*
X594831Y568375D01*
X597975Y565231D01*
X599677Y561123D01*
X599677Y556677D01*
X597975Y552569D01*
X594831Y549425D01*
X590723Y547723D01*
X586277Y547723D01*
G37*
%LPD*%
%LPC*%
G36*
X586277Y496923D02*
X586277Y496923D01*
X582169Y498625D01*
X579521Y501272D01*
X579447Y501325D01*
X579378Y501385D01*
X579348Y501397D01*
X579322Y501416D01*
X579235Y501443D01*
X579150Y501477D01*
X579109Y501481D01*
X579087Y501488D01*
X579054Y501487D01*
X578983Y501495D01*
X547763Y501495D01*
X547673Y501481D01*
X547582Y501473D01*
X547552Y501461D01*
X547520Y501456D01*
X547440Y501413D01*
X547356Y501377D01*
X547324Y501351D01*
X547303Y501340D01*
X547281Y501317D01*
X547225Y501272D01*
X546200Y500247D01*
X542839Y498855D01*
X523961Y498855D01*
X520600Y500247D01*
X518027Y502820D01*
X516635Y506181D01*
X516635Y509819D01*
X518027Y513180D01*
X520600Y515753D01*
X523961Y517145D01*
X542839Y517145D01*
X546200Y515753D01*
X547025Y514928D01*
X547099Y514875D01*
X547168Y514815D01*
X547198Y514803D01*
X547225Y514784D01*
X547312Y514757D01*
X547396Y514723D01*
X547437Y514719D01*
X547460Y514712D01*
X547492Y514713D01*
X547563Y514705D01*
X578983Y514705D01*
X579073Y514719D01*
X579164Y514727D01*
X579194Y514739D01*
X579226Y514744D01*
X579307Y514787D01*
X579390Y514823D01*
X579423Y514849D01*
X579443Y514860D01*
X579465Y514883D01*
X579521Y514928D01*
X582169Y517575D01*
X586277Y519277D01*
X590723Y519277D01*
X594831Y517575D01*
X597975Y514431D01*
X599677Y510323D01*
X599677Y505877D01*
X597975Y501769D01*
X594831Y498625D01*
X590723Y496923D01*
X586277Y496923D01*
G37*
%LPD*%
%LPC*%
G36*
X586277Y522323D02*
X586277Y522323D01*
X582169Y524025D01*
X579521Y526672D01*
X579447Y526725D01*
X579378Y526785D01*
X579348Y526797D01*
X579322Y526816D01*
X579235Y526843D01*
X579150Y526877D01*
X579109Y526881D01*
X579087Y526888D01*
X579054Y526887D01*
X578983Y526895D01*
X547763Y526895D01*
X547673Y526881D01*
X547582Y526873D01*
X547552Y526861D01*
X547520Y526856D01*
X547440Y526813D01*
X547356Y526777D01*
X547324Y526751D01*
X547303Y526740D01*
X547281Y526717D01*
X547225Y526672D01*
X546200Y525647D01*
X542839Y524255D01*
X523961Y524255D01*
X520600Y525647D01*
X518027Y528220D01*
X516635Y531581D01*
X516635Y535219D01*
X518027Y538580D01*
X520600Y541153D01*
X523961Y542545D01*
X542839Y542545D01*
X546200Y541153D01*
X547025Y540328D01*
X547099Y540275D01*
X547168Y540215D01*
X547198Y540203D01*
X547225Y540184D01*
X547312Y540157D01*
X547396Y540123D01*
X547437Y540119D01*
X547460Y540112D01*
X547492Y540113D01*
X547563Y540105D01*
X578983Y540105D01*
X579073Y540119D01*
X579164Y540127D01*
X579194Y540139D01*
X579226Y540144D01*
X579307Y540187D01*
X579390Y540223D01*
X579423Y540249D01*
X579443Y540260D01*
X579465Y540283D01*
X579521Y540328D01*
X582169Y542975D01*
X586277Y544677D01*
X590723Y544677D01*
X594831Y542975D01*
X597975Y539831D01*
X599677Y535723D01*
X599677Y531277D01*
X597975Y527169D01*
X594831Y524025D01*
X590723Y522323D01*
X586277Y522323D01*
G37*
%LPD*%
%LPC*%
G36*
X586277Y420723D02*
X586277Y420723D01*
X582169Y422425D01*
X579521Y425072D01*
X579447Y425125D01*
X579378Y425185D01*
X579348Y425197D01*
X579322Y425216D01*
X579235Y425243D01*
X579150Y425277D01*
X579109Y425281D01*
X579087Y425288D01*
X579054Y425287D01*
X578983Y425295D01*
X547763Y425295D01*
X547673Y425281D01*
X547582Y425273D01*
X547552Y425261D01*
X547520Y425256D01*
X547440Y425213D01*
X547356Y425177D01*
X547324Y425151D01*
X547303Y425140D01*
X547281Y425117D01*
X547225Y425072D01*
X546200Y424047D01*
X542839Y422655D01*
X523961Y422655D01*
X520600Y424047D01*
X518027Y426620D01*
X516635Y429981D01*
X516635Y433619D01*
X518027Y436980D01*
X520600Y439553D01*
X523961Y440945D01*
X542839Y440945D01*
X546200Y439553D01*
X547025Y438728D01*
X547099Y438675D01*
X547168Y438615D01*
X547198Y438603D01*
X547225Y438584D01*
X547312Y438557D01*
X547396Y438523D01*
X547437Y438519D01*
X547460Y438512D01*
X547492Y438513D01*
X547563Y438505D01*
X578983Y438505D01*
X579073Y438519D01*
X579164Y438527D01*
X579194Y438539D01*
X579226Y438544D01*
X579307Y438587D01*
X579390Y438623D01*
X579423Y438649D01*
X579443Y438660D01*
X579465Y438683D01*
X579521Y438728D01*
X582169Y441375D01*
X586277Y443077D01*
X590723Y443077D01*
X594831Y441375D01*
X597975Y438231D01*
X599677Y434123D01*
X599677Y429677D01*
X597975Y425569D01*
X594831Y422425D01*
X590723Y420723D01*
X586277Y420723D01*
G37*
%LPD*%
%LPC*%
G36*
X586277Y598523D02*
X586277Y598523D01*
X582169Y600225D01*
X579621Y602772D01*
X579547Y602825D01*
X579478Y602885D01*
X579448Y602897D01*
X579422Y602916D01*
X579335Y602943D01*
X579250Y602977D01*
X579209Y602981D01*
X579187Y602988D01*
X579154Y602987D01*
X579083Y602995D01*
X547663Y602995D01*
X547573Y602981D01*
X547482Y602973D01*
X547452Y602961D01*
X547420Y602956D01*
X547340Y602913D01*
X547256Y602877D01*
X547224Y602851D01*
X547203Y602840D01*
X547181Y602817D01*
X547125Y602772D01*
X546200Y601847D01*
X542839Y600455D01*
X523961Y600455D01*
X520600Y601847D01*
X518027Y604420D01*
X516635Y607781D01*
X516635Y611419D01*
X518027Y614780D01*
X520600Y617353D01*
X523961Y618745D01*
X542839Y618745D01*
X546200Y617353D01*
X547125Y616428D01*
X547199Y616375D01*
X547268Y616315D01*
X547298Y616303D01*
X547325Y616284D01*
X547412Y616257D01*
X547496Y616223D01*
X547537Y616219D01*
X547560Y616212D01*
X547592Y616213D01*
X547663Y616205D01*
X578883Y616205D01*
X578973Y616219D01*
X579064Y616227D01*
X579094Y616239D01*
X579126Y616244D01*
X579207Y616287D01*
X579290Y616323D01*
X579323Y616349D01*
X579343Y616360D01*
X579365Y616383D01*
X579421Y616428D01*
X582169Y619175D01*
X586277Y620877D01*
X590723Y620877D01*
X594831Y619175D01*
X597975Y616031D01*
X599677Y611923D01*
X599677Y607477D01*
X597975Y603369D01*
X594831Y600225D01*
X590723Y598523D01*
X586277Y598523D01*
G37*
%LPD*%
%LPC*%
G36*
X892261Y562355D02*
X892261Y562355D01*
X888900Y563747D01*
X886327Y566320D01*
X884935Y569681D01*
X884935Y573319D01*
X886327Y576680D01*
X888900Y579253D01*
X892261Y580645D01*
X911139Y580645D01*
X914500Y579253D01*
X915425Y578328D01*
X915499Y578275D01*
X915568Y578215D01*
X915598Y578203D01*
X915625Y578184D01*
X915712Y578157D01*
X915796Y578123D01*
X915837Y578119D01*
X915860Y578112D01*
X915892Y578113D01*
X915963Y578105D01*
X919814Y578105D01*
X919834Y578108D01*
X919853Y578106D01*
X919955Y578128D01*
X920057Y578144D01*
X920074Y578154D01*
X920094Y578158D01*
X920183Y578211D01*
X920274Y578260D01*
X920288Y578274D01*
X920305Y578284D01*
X920372Y578363D01*
X920444Y578438D01*
X920452Y578456D01*
X920465Y578471D01*
X920504Y578567D01*
X920547Y578661D01*
X920549Y578681D01*
X920557Y578699D01*
X920575Y578866D01*
X920575Y581832D01*
X921468Y582725D01*
X932732Y582725D01*
X933625Y581832D01*
X933625Y577358D01*
X933635Y577294D01*
X933636Y577228D01*
X933659Y577148D01*
X933664Y577116D01*
X933674Y577098D01*
X933683Y577067D01*
X933705Y577014D01*
X933705Y574386D01*
X933683Y574333D01*
X933668Y574269D01*
X933643Y574208D01*
X933634Y574126D01*
X933627Y574094D01*
X933628Y574074D01*
X933625Y574042D01*
X933625Y569568D01*
X932732Y568675D01*
X929731Y568675D01*
X929641Y568661D01*
X929550Y568653D01*
X929520Y568641D01*
X929488Y568636D01*
X929408Y568593D01*
X929324Y568557D01*
X929292Y568531D01*
X929271Y568520D01*
X929249Y568497D01*
X929193Y568452D01*
X928606Y567866D01*
X926641Y565901D01*
X924214Y564895D01*
X915963Y564895D01*
X915873Y564881D01*
X915782Y564873D01*
X915752Y564861D01*
X915720Y564856D01*
X915640Y564813D01*
X915556Y564777D01*
X915524Y564751D01*
X915503Y564740D01*
X915481Y564717D01*
X915425Y564672D01*
X914500Y563747D01*
X911139Y562355D01*
X892261Y562355D01*
G37*
%LPD*%
%LPC*%
G36*
X892261Y435355D02*
X892261Y435355D01*
X888900Y436747D01*
X886327Y439320D01*
X884935Y442681D01*
X884935Y446319D01*
X886327Y449680D01*
X888900Y452253D01*
X892261Y453645D01*
X911139Y453645D01*
X914500Y452253D01*
X917073Y449680D01*
X918465Y446319D01*
X918465Y442681D01*
X917073Y439320D01*
X914500Y436747D01*
X911139Y435355D01*
X892261Y435355D01*
G37*
%LPD*%
%LPC*%
G36*
X892261Y473455D02*
X892261Y473455D01*
X888900Y474847D01*
X886327Y477420D01*
X884935Y480781D01*
X884935Y484419D01*
X886327Y487780D01*
X888900Y490353D01*
X892261Y491745D01*
X911139Y491745D01*
X914500Y490353D01*
X917073Y487780D01*
X918465Y484419D01*
X918465Y480781D01*
X917073Y477420D01*
X914500Y474847D01*
X911139Y473455D01*
X892261Y473455D01*
G37*
%LPD*%
%LPC*%
G36*
X544281Y681735D02*
X544281Y681735D01*
X540920Y683127D01*
X538347Y685700D01*
X536955Y689061D01*
X536955Y707939D01*
X538347Y711300D01*
X540920Y713873D01*
X544281Y715265D01*
X547919Y715265D01*
X551280Y713873D01*
X553853Y711300D01*
X555245Y707939D01*
X555245Y689061D01*
X553853Y685700D01*
X551280Y683127D01*
X547919Y681735D01*
X544281Y681735D01*
G37*
%LPD*%
%LPC*%
G36*
X892261Y651255D02*
X892261Y651255D01*
X888900Y652647D01*
X886327Y655220D01*
X884935Y658581D01*
X884935Y662219D01*
X886327Y665580D01*
X888900Y668153D01*
X892261Y669545D01*
X911139Y669545D01*
X914500Y668153D01*
X917073Y665580D01*
X918465Y662219D01*
X918465Y658581D01*
X917073Y655220D01*
X914500Y652647D01*
X911139Y651255D01*
X892261Y651255D01*
G37*
%LPD*%
%LPC*%
G36*
X523961Y270255D02*
X523961Y270255D01*
X520600Y271647D01*
X518027Y274220D01*
X516635Y277581D01*
X516635Y281219D01*
X518027Y284580D01*
X520600Y287153D01*
X523961Y288545D01*
X542839Y288545D01*
X546200Y287153D01*
X548773Y284580D01*
X550165Y281219D01*
X550165Y277581D01*
X548773Y274220D01*
X546200Y271647D01*
X542839Y270255D01*
X523961Y270255D01*
G37*
%LPD*%
%LPC*%
G36*
X523961Y625855D02*
X523961Y625855D01*
X520600Y627247D01*
X518027Y629820D01*
X516635Y633181D01*
X516635Y636819D01*
X518027Y640180D01*
X520600Y642753D01*
X523961Y644145D01*
X542839Y644145D01*
X546200Y642753D01*
X548773Y640180D01*
X550165Y636819D01*
X550165Y633181D01*
X548773Y629820D01*
X546200Y627247D01*
X542839Y625855D01*
X523961Y625855D01*
G37*
%LPD*%
%LPC*%
G36*
X892261Y321055D02*
X892261Y321055D01*
X888900Y322447D01*
X886327Y325020D01*
X884935Y328381D01*
X884935Y332019D01*
X886327Y335380D01*
X888900Y337953D01*
X892261Y339345D01*
X911139Y339345D01*
X914500Y337953D01*
X917073Y335380D01*
X918465Y332019D01*
X918465Y328381D01*
X917073Y325020D01*
X914500Y322447D01*
X911139Y321055D01*
X892261Y321055D01*
G37*
%LPD*%
%LPC*%
G36*
X833977Y293723D02*
X833977Y293723D01*
X829869Y295425D01*
X826725Y298569D01*
X825023Y302677D01*
X825023Y307123D01*
X826725Y311231D01*
X829869Y314375D01*
X833977Y316077D01*
X838423Y316077D01*
X842531Y314375D01*
X845675Y311231D01*
X847377Y307123D01*
X847377Y302677D01*
X845675Y298569D01*
X842531Y295425D01*
X838423Y293723D01*
X833977Y293723D01*
G37*
%LPD*%
%LPC*%
G36*
X833977Y496923D02*
X833977Y496923D01*
X829869Y498625D01*
X826725Y501769D01*
X825023Y505877D01*
X825023Y510323D01*
X826725Y514431D01*
X829869Y517575D01*
X833977Y519277D01*
X838423Y519277D01*
X842531Y517575D01*
X845675Y514431D01*
X847377Y510323D01*
X847377Y505877D01*
X845675Y501769D01*
X842531Y498625D01*
X838423Y496923D01*
X833977Y496923D01*
G37*
%LPD*%
%LPC*%
G36*
X833977Y471523D02*
X833977Y471523D01*
X829869Y473225D01*
X826725Y476369D01*
X825023Y480477D01*
X825023Y484923D01*
X826725Y489031D01*
X829869Y492175D01*
X833977Y493877D01*
X838423Y493877D01*
X842531Y492175D01*
X845675Y489031D01*
X847377Y484923D01*
X847377Y480477D01*
X845675Y476369D01*
X842531Y473225D01*
X838423Y471523D01*
X833977Y471523D01*
G37*
%LPD*%
%LPC*%
G36*
X586277Y369923D02*
X586277Y369923D01*
X582169Y371625D01*
X579025Y374769D01*
X577323Y378877D01*
X577323Y383323D01*
X579025Y387431D01*
X582169Y390575D01*
X586277Y392277D01*
X590723Y392277D01*
X594831Y390575D01*
X597975Y387431D01*
X599677Y383323D01*
X599677Y378877D01*
X597975Y374769D01*
X594831Y371625D01*
X590723Y369923D01*
X586277Y369923D01*
G37*
%LPD*%
%LPC*%
G36*
X833977Y369923D02*
X833977Y369923D01*
X829869Y371625D01*
X826725Y374769D01*
X825023Y378877D01*
X825023Y383323D01*
X826725Y387431D01*
X829869Y390575D01*
X833977Y392277D01*
X838423Y392277D01*
X842531Y390575D01*
X845675Y387431D01*
X847377Y383323D01*
X847377Y378877D01*
X845675Y374769D01*
X842531Y371625D01*
X838423Y369923D01*
X833977Y369923D01*
G37*
%LPD*%
%LPC*%
G36*
X833977Y344523D02*
X833977Y344523D01*
X829869Y346225D01*
X826725Y349369D01*
X825023Y353477D01*
X825023Y357923D01*
X826725Y362031D01*
X829869Y365175D01*
X833977Y366877D01*
X838423Y366877D01*
X842531Y365175D01*
X845675Y362031D01*
X847377Y357923D01*
X847377Y353477D01*
X845675Y349369D01*
X842531Y346225D01*
X838423Y344523D01*
X833977Y344523D01*
G37*
%LPD*%
%LPC*%
G36*
X586277Y344523D02*
X586277Y344523D01*
X582169Y346225D01*
X579025Y349369D01*
X577323Y353477D01*
X577323Y357923D01*
X579025Y362031D01*
X582169Y365175D01*
X586277Y366877D01*
X590723Y366877D01*
X594831Y365175D01*
X597975Y362031D01*
X599677Y357923D01*
X599677Y353477D01*
X597975Y349369D01*
X594831Y346225D01*
X590723Y344523D01*
X586277Y344523D01*
G37*
%LPD*%
%LPC*%
G36*
X833977Y319123D02*
X833977Y319123D01*
X829869Y320825D01*
X826725Y323969D01*
X825023Y328077D01*
X825023Y332523D01*
X826725Y336631D01*
X829869Y339775D01*
X833977Y341477D01*
X838423Y341477D01*
X842531Y339775D01*
X845675Y336631D01*
X847377Y332523D01*
X847377Y328077D01*
X845675Y323969D01*
X842531Y320825D01*
X838423Y319123D01*
X833977Y319123D01*
G37*
%LPD*%
%LPC*%
G36*
X586277Y293723D02*
X586277Y293723D01*
X582169Y295425D01*
X579025Y298569D01*
X577323Y302677D01*
X577323Y307123D01*
X579025Y311231D01*
X582169Y314375D01*
X586277Y316077D01*
X590723Y316077D01*
X594831Y314375D01*
X597975Y311231D01*
X599677Y307123D01*
X599677Y302677D01*
X597975Y298569D01*
X594831Y295425D01*
X590723Y293723D01*
X586277Y293723D01*
G37*
%LPD*%
%LPC*%
G36*
X833977Y649323D02*
X833977Y649323D01*
X829869Y651025D01*
X826725Y654169D01*
X825023Y658277D01*
X825023Y662723D01*
X826725Y666831D01*
X829869Y669975D01*
X833977Y671677D01*
X838423Y671677D01*
X842531Y669975D01*
X845675Y666831D01*
X847377Y662723D01*
X847377Y658277D01*
X845675Y654169D01*
X842531Y651025D01*
X838423Y649323D01*
X833977Y649323D01*
G37*
%LPD*%
%LPC*%
G36*
X586277Y649323D02*
X586277Y649323D01*
X582169Y651025D01*
X579025Y654169D01*
X577323Y658277D01*
X577323Y662723D01*
X579025Y666831D01*
X582169Y669975D01*
X586277Y671677D01*
X590723Y671677D01*
X594831Y669975D01*
X597975Y666831D01*
X599677Y662723D01*
X599677Y658277D01*
X597975Y654169D01*
X594831Y651025D01*
X590723Y649323D01*
X586277Y649323D01*
G37*
%LPD*%
%LPC*%
G36*
X833977Y547723D02*
X833977Y547723D01*
X829869Y549425D01*
X826725Y552569D01*
X825023Y556677D01*
X825023Y561123D01*
X826725Y565231D01*
X829869Y568375D01*
X833977Y570077D01*
X838423Y570077D01*
X842531Y568375D01*
X845675Y565231D01*
X847377Y561123D01*
X847377Y556677D01*
X845675Y552569D01*
X842531Y549425D01*
X838423Y547723D01*
X833977Y547723D01*
G37*
%LPD*%
%LPC*%
G36*
X833977Y522323D02*
X833977Y522323D01*
X829869Y524025D01*
X826725Y527169D01*
X825023Y531277D01*
X825023Y535723D01*
X826725Y539831D01*
X829869Y542975D01*
X833977Y544677D01*
X838423Y544677D01*
X842531Y542975D01*
X845675Y539831D01*
X847377Y535723D01*
X847377Y531277D01*
X845675Y527169D01*
X842531Y524025D01*
X838423Y522323D01*
X833977Y522323D01*
G37*
%LPD*%
%LPC*%
G36*
X522223Y700023D02*
X522223Y700023D01*
X522223Y716166D01*
X523079Y716031D01*
X524600Y715536D01*
X526025Y714810D01*
X527319Y713870D01*
X528450Y712739D01*
X529390Y711445D01*
X530116Y710020D01*
X530611Y708499D01*
X530861Y706920D01*
X530861Y700023D01*
X522223Y700023D01*
G37*
%LPD*%
%LPC*%
G36*
X903223Y738123D02*
X903223Y738123D01*
X903223Y746761D01*
X910120Y746761D01*
X911699Y746511D01*
X913220Y746016D01*
X914645Y745290D01*
X915939Y744350D01*
X917070Y743219D01*
X918010Y741925D01*
X918736Y740500D01*
X919231Y738979D01*
X919366Y738123D01*
X903223Y738123D01*
G37*
%LPD*%
%LPC*%
G36*
X903223Y534923D02*
X903223Y534923D01*
X903223Y543561D01*
X910120Y543561D01*
X911699Y543311D01*
X913220Y542816D01*
X914645Y542090D01*
X915939Y541150D01*
X917070Y540019D01*
X918010Y538725D01*
X918736Y537300D01*
X919231Y535779D01*
X919366Y534923D01*
X903223Y534923D01*
G37*
%LPD*%
%LPC*%
G36*
X903223Y255523D02*
X903223Y255523D01*
X903223Y264161D01*
X910120Y264161D01*
X911699Y263911D01*
X913220Y263416D01*
X914645Y262690D01*
X915939Y261750D01*
X917070Y260619D01*
X918010Y259325D01*
X918736Y257900D01*
X919231Y256379D01*
X919366Y255523D01*
X903223Y255523D01*
G37*
%LPD*%
%LPC*%
G36*
X903223Y623823D02*
X903223Y623823D01*
X903223Y632461D01*
X910120Y632461D01*
X911699Y632211D01*
X913220Y631716D01*
X914645Y630990D01*
X915939Y630050D01*
X917070Y628919D01*
X918010Y627625D01*
X918736Y626200D01*
X919231Y624679D01*
X919366Y623823D01*
X903223Y623823D01*
G37*
%LPD*%
%LPC*%
G36*
X884034Y738123D02*
X884034Y738123D01*
X884169Y738979D01*
X884664Y740500D01*
X885390Y741925D01*
X886330Y743219D01*
X887461Y744350D01*
X888755Y745290D01*
X890180Y746016D01*
X891701Y746511D01*
X893280Y746761D01*
X900177Y746761D01*
X900177Y738123D01*
X884034Y738123D01*
G37*
%LPD*%
%LPC*%
G36*
X884034Y255523D02*
X884034Y255523D01*
X884169Y256379D01*
X884664Y257900D01*
X885390Y259325D01*
X886330Y260619D01*
X887461Y261750D01*
X888755Y262690D01*
X890180Y263416D01*
X891701Y263911D01*
X893280Y264161D01*
X900177Y264161D01*
X900177Y255523D01*
X884034Y255523D01*
G37*
%LPD*%
%LPC*%
G36*
X884034Y369823D02*
X884034Y369823D01*
X884169Y370679D01*
X884664Y372200D01*
X885390Y373625D01*
X886330Y374919D01*
X887461Y376050D01*
X888755Y376990D01*
X890180Y377716D01*
X891701Y378211D01*
X893280Y378461D01*
X900177Y378461D01*
X900177Y369823D01*
X884034Y369823D01*
G37*
%LPD*%
%LPC*%
G36*
X884034Y534923D02*
X884034Y534923D01*
X884169Y535779D01*
X884664Y537300D01*
X885390Y538725D01*
X886330Y540019D01*
X887461Y541150D01*
X888755Y542090D01*
X890180Y542816D01*
X891701Y543311D01*
X893280Y543561D01*
X900177Y543561D01*
X900177Y534923D01*
X884034Y534923D01*
G37*
%LPD*%
%LPC*%
G36*
X515734Y357123D02*
X515734Y357123D01*
X515869Y357979D01*
X516364Y359500D01*
X517090Y360925D01*
X518030Y362219D01*
X519161Y363350D01*
X520455Y364290D01*
X521880Y365016D01*
X523401Y365511D01*
X524980Y365761D01*
X531877Y365761D01*
X531877Y357123D01*
X515734Y357123D01*
G37*
%LPD*%
%LPC*%
G36*
X515734Y407923D02*
X515734Y407923D01*
X515869Y408779D01*
X516364Y410300D01*
X517090Y411725D01*
X518030Y413019D01*
X519161Y414150D01*
X520455Y415090D01*
X521880Y415816D01*
X523401Y416311D01*
X524980Y416561D01*
X531877Y416561D01*
X531877Y407923D01*
X515734Y407923D01*
G37*
%LPD*%
%LPC*%
G36*
X522223Y696977D02*
X522223Y696977D01*
X530861Y696977D01*
X530861Y690080D01*
X530611Y688501D01*
X530116Y686980D01*
X529390Y685555D01*
X528450Y684261D01*
X527319Y683130D01*
X526025Y682190D01*
X524600Y681464D01*
X523079Y680969D01*
X522223Y680834D01*
X522223Y696977D01*
G37*
%LPD*%
%LPC*%
G36*
X903223Y726439D02*
X903223Y726439D01*
X903223Y735077D01*
X919366Y735077D01*
X919231Y734221D01*
X918736Y732700D01*
X918010Y731275D01*
X917070Y729981D01*
X915939Y728850D01*
X914645Y727910D01*
X913220Y727184D01*
X911699Y726689D01*
X910120Y726439D01*
X903223Y726439D01*
G37*
%LPD*%
%LPC*%
G36*
X903223Y612139D02*
X903223Y612139D01*
X903223Y620777D01*
X919366Y620777D01*
X919231Y619921D01*
X918736Y618400D01*
X918010Y616975D01*
X917070Y615681D01*
X915939Y614550D01*
X914645Y613610D01*
X913220Y612884D01*
X911699Y612389D01*
X910120Y612139D01*
X903223Y612139D01*
G37*
%LPD*%
%LPC*%
G36*
X510539Y700023D02*
X510539Y700023D01*
X510539Y706920D01*
X510789Y708499D01*
X511284Y710020D01*
X512010Y711445D01*
X512950Y712739D01*
X514081Y713870D01*
X515375Y714810D01*
X516800Y715536D01*
X518321Y716031D01*
X519177Y716166D01*
X519177Y700023D01*
X510539Y700023D01*
G37*
%LPD*%
%LPC*%
G36*
X903223Y523239D02*
X903223Y523239D01*
X903223Y531877D01*
X919366Y531877D01*
X919231Y531021D01*
X918736Y529500D01*
X918010Y528075D01*
X917070Y526781D01*
X915939Y525650D01*
X914645Y524710D01*
X913220Y523984D01*
X911699Y523489D01*
X910120Y523239D01*
X903223Y523239D01*
G37*
%LPD*%
%LPC*%
G36*
X903223Y243839D02*
X903223Y243839D01*
X903223Y252477D01*
X919366Y252477D01*
X919231Y251621D01*
X918736Y250100D01*
X918010Y248675D01*
X917070Y247381D01*
X915939Y246250D01*
X914645Y245310D01*
X913220Y244584D01*
X911699Y244089D01*
X910120Y243839D01*
X903223Y243839D01*
G37*
%LPD*%
%LPC*%
G36*
X893280Y726439D02*
X893280Y726439D01*
X891701Y726689D01*
X890180Y727184D01*
X888755Y727910D01*
X887461Y728850D01*
X886330Y729981D01*
X885390Y731275D01*
X884664Y732700D01*
X884169Y734221D01*
X884034Y735077D01*
X900177Y735077D01*
X900177Y726439D01*
X893280Y726439D01*
G37*
%LPD*%
%LPC*%
G36*
X518321Y680969D02*
X518321Y680969D01*
X516800Y681464D01*
X515375Y682190D01*
X514081Y683130D01*
X512950Y684261D01*
X512010Y685555D01*
X511284Y686980D01*
X510789Y688501D01*
X510539Y690080D01*
X510539Y696977D01*
X519177Y696977D01*
X519177Y680834D01*
X518321Y680969D01*
G37*
%LPD*%
%LPC*%
G36*
X524980Y396239D02*
X524980Y396239D01*
X523401Y396489D01*
X521880Y396984D01*
X520455Y397710D01*
X519161Y398650D01*
X518030Y399781D01*
X517090Y401075D01*
X516364Y402500D01*
X515869Y404021D01*
X515734Y404877D01*
X531877Y404877D01*
X531877Y396239D01*
X524980Y396239D01*
G37*
%LPD*%
%LPC*%
G36*
X893280Y523239D02*
X893280Y523239D01*
X891701Y523489D01*
X890180Y523984D01*
X888755Y524710D01*
X887461Y525650D01*
X886330Y526781D01*
X885390Y528075D01*
X884664Y529500D01*
X884169Y531021D01*
X884034Y531877D01*
X900177Y531877D01*
X900177Y523239D01*
X893280Y523239D01*
G37*
%LPD*%
%LPC*%
G36*
X524980Y345439D02*
X524980Y345439D01*
X523401Y345689D01*
X521880Y346184D01*
X520455Y346910D01*
X519161Y347850D01*
X518030Y348981D01*
X517090Y350275D01*
X516364Y351700D01*
X515869Y353221D01*
X515734Y354077D01*
X531877Y354077D01*
X531877Y345439D01*
X524980Y345439D01*
G37*
%LPD*%
%LPC*%
G36*
X893280Y612139D02*
X893280Y612139D01*
X891701Y612389D01*
X890180Y612884D01*
X888755Y613610D01*
X887461Y614550D01*
X886330Y615681D01*
X885390Y616975D01*
X884664Y618400D01*
X884169Y619921D01*
X884034Y620777D01*
X900177Y620777D01*
X900177Y612139D01*
X893280Y612139D01*
G37*
%LPD*%
%LPC*%
G36*
X893280Y358139D02*
X893280Y358139D01*
X891701Y358389D01*
X890180Y358884D01*
X888755Y359610D01*
X887461Y360550D01*
X886330Y361681D01*
X885390Y362975D01*
X884664Y364400D01*
X884169Y365921D01*
X884034Y366777D01*
X900177Y366777D01*
X900177Y358139D01*
X893280Y358139D01*
G37*
%LPD*%
%LPC*%
G36*
X893280Y243839D02*
X893280Y243839D01*
X891701Y244089D01*
X890180Y244584D01*
X888755Y245310D01*
X887461Y246250D01*
X886330Y247381D01*
X885390Y248675D01*
X884664Y250100D01*
X884169Y251621D01*
X884034Y252477D01*
X900177Y252477D01*
X900177Y243839D01*
X893280Y243839D01*
G37*
%LPD*%
%LPC*%
G36*
X590023Y636623D02*
X590023Y636623D01*
X590023Y647203D01*
X591355Y646993D01*
X593180Y646399D01*
X594890Y645528D01*
X596443Y644400D01*
X597800Y643043D01*
X598928Y641490D01*
X599799Y639780D01*
X600393Y637955D01*
X600603Y636623D01*
X590023Y636623D01*
G37*
%LPD*%
%LPC*%
G36*
X590023Y633577D02*
X590023Y633577D01*
X600603Y633577D01*
X600393Y632245D01*
X599799Y630420D01*
X598928Y628710D01*
X597800Y627157D01*
X596443Y625800D01*
X594890Y624672D01*
X593180Y623801D01*
X591355Y623207D01*
X590023Y622997D01*
X590023Y633577D01*
G37*
%LPD*%
%LPC*%
G36*
X576397Y636623D02*
X576397Y636623D01*
X576607Y637955D01*
X577201Y639780D01*
X578072Y641490D01*
X579200Y643043D01*
X580557Y644400D01*
X582110Y645528D01*
X583820Y646399D01*
X585645Y646993D01*
X586977Y647203D01*
X586977Y636623D01*
X576397Y636623D01*
G37*
%LPD*%
%LPC*%
G36*
X585645Y623207D02*
X585645Y623207D01*
X583820Y623801D01*
X582110Y624672D01*
X580557Y625800D01*
X579200Y627157D01*
X578072Y628710D01*
X577201Y630420D01*
X576607Y632245D01*
X576397Y633577D01*
X586977Y633577D01*
X586977Y622997D01*
X585645Y623207D01*
G37*
%LPD*%
%LPC*%
G36*
X901699Y736599D02*
X901699Y736599D01*
X901699Y736601D01*
X901701Y736601D01*
X901701Y736599D01*
X901699Y736599D01*
G37*
%LPD*%
%LPC*%
G36*
X520699Y698499D02*
X520699Y698499D01*
X520699Y698501D01*
X520701Y698501D01*
X520701Y698499D01*
X520699Y698499D01*
G37*
%LPD*%
%LPC*%
G36*
X901699Y622299D02*
X901699Y622299D01*
X901699Y622301D01*
X901701Y622301D01*
X901701Y622299D01*
X901699Y622299D01*
G37*
%LPD*%
%LPC*%
G36*
X588499Y635099D02*
X588499Y635099D01*
X588499Y635101D01*
X588501Y635101D01*
X588501Y635099D01*
X588499Y635099D01*
G37*
%LPD*%
%LPC*%
G36*
X901699Y533399D02*
X901699Y533399D01*
X901699Y533401D01*
X901701Y533401D01*
X901701Y533399D01*
X901699Y533399D01*
G37*
%LPD*%
%LPC*%
G36*
X901699Y253999D02*
X901699Y253999D01*
X901699Y254001D01*
X901701Y254001D01*
X901701Y253999D01*
X901699Y253999D01*
G37*
%LPD*%
D10*
X588500Y660500D03*
X588500Y635100D03*
X588500Y609700D03*
X588500Y584300D03*
X588500Y558900D03*
X588500Y533500D03*
X588500Y508100D03*
X588500Y482700D03*
X588500Y457300D03*
X588500Y431900D03*
X588500Y406500D03*
X588500Y381100D03*
X588500Y355700D03*
X588500Y330300D03*
X588500Y304900D03*
X836200Y660500D03*
X836200Y635100D03*
X836200Y609700D03*
X836200Y584300D03*
X836200Y558900D03*
X836200Y533500D03*
X836200Y508100D03*
X836200Y482700D03*
X836200Y457300D03*
X836200Y431900D03*
X836200Y406500D03*
X836200Y381100D03*
X836200Y355700D03*
X836200Y330300D03*
X836200Y304900D03*
D11*
X541020Y406400D02*
X525780Y406400D01*
X525780Y431800D02*
X541020Y431800D01*
X541020Y457200D02*
X525780Y457200D01*
X525780Y584200D02*
X541020Y584200D01*
X541020Y609600D02*
X525780Y609600D01*
X525780Y635000D02*
X541020Y635000D01*
X541020Y482600D02*
X525780Y482600D01*
X525780Y508000D02*
X541020Y508000D01*
X541020Y558800D02*
X525780Y558800D01*
X525780Y533400D02*
X541020Y533400D01*
X541020Y279400D02*
X525780Y279400D01*
X525780Y304800D02*
X541020Y304800D01*
X541020Y330200D02*
X525780Y330200D01*
X525780Y355600D02*
X541020Y355600D01*
X894080Y330200D02*
X909320Y330200D01*
X909320Y304800D02*
X894080Y304800D01*
X894080Y279400D02*
X909320Y279400D01*
X909320Y254000D02*
X894080Y254000D01*
X894080Y444500D02*
X909320Y444500D01*
X909320Y419100D02*
X894080Y419100D01*
X894080Y393700D02*
X909320Y393700D01*
X909320Y368300D02*
X894080Y368300D01*
X894080Y736600D02*
X909320Y736600D01*
X909320Y711200D02*
X894080Y711200D01*
X894080Y685800D02*
X909320Y685800D01*
X909320Y660400D02*
X894080Y660400D01*
X894080Y533400D02*
X909320Y533400D01*
X909320Y508000D02*
X894080Y508000D01*
X894080Y482600D02*
X909320Y482600D01*
X909320Y622300D02*
X894080Y622300D01*
X894080Y596900D02*
X909320Y596900D01*
X909320Y571500D02*
X894080Y571500D01*
D12*
X927100Y592700D03*
X927100Y575700D03*
D11*
X520700Y690880D02*
X520700Y706120D01*
X546100Y706120D02*
X546100Y690880D01*
D13*
X588500Y609700D02*
X588400Y609600D01*
X533400Y609600D01*
X588400Y584200D02*
X588500Y584300D01*
X588400Y584200D02*
X533400Y584200D01*
X533500Y558900D02*
X533400Y558800D01*
X533500Y558900D02*
X588500Y558900D01*
X588500Y533500D02*
X533500Y533500D01*
X533400Y533400D01*
X533500Y508100D02*
X588500Y508100D01*
X533500Y508100D02*
X533400Y508000D01*
X533500Y482700D02*
X588500Y482700D01*
X533500Y482700D02*
X533400Y482600D01*
X533500Y457300D02*
X533400Y457200D01*
X533500Y457300D02*
X588500Y457300D01*
X533500Y431900D02*
X533400Y431800D01*
X533500Y431900D02*
X588500Y431900D01*
X863600Y279400D02*
X901700Y279400D01*
X863600Y279400D02*
X863600Y393700D01*
X901700Y393700D01*
X558800Y342900D02*
X546100Y330200D01*
X533400Y330200D01*
X558800Y342900D02*
X558800Y406400D01*
X558900Y406500D01*
X588500Y406500D01*
X774700Y279400D02*
X863600Y279400D01*
X774700Y279400D02*
X647600Y406500D01*
X588500Y406500D01*
X901700Y304800D02*
X927100Y304800D01*
X927100Y419100D01*
X901700Y419100D01*
X571600Y330300D02*
X546100Y304800D01*
X533400Y304800D01*
X571600Y330300D02*
X588500Y330300D01*
X901700Y596900D02*
X922900Y596900D01*
X927100Y592700D01*
X850900Y444500D02*
X848800Y444500D01*
X836200Y431900D01*
X863600Y457200D02*
X863600Y571500D01*
X889000Y596900D02*
X901700Y596900D01*
X889000Y596900D02*
X863600Y571500D01*
X863600Y457200D02*
X850900Y444500D01*
X889000Y508000D02*
X901700Y508000D01*
X889000Y508000D02*
X876200Y495200D01*
X863700Y406500D02*
X836200Y406500D01*
X863700Y406500D02*
X876300Y419100D01*
X876300Y495100D01*
X876200Y495200D01*
D14*
X800100Y698500D03*
D13*
X927100Y575700D02*
X922900Y571500D01*
X901700Y571500D01*
X876300Y624400D02*
X836200Y584300D01*
X876300Y673100D02*
X889000Y685800D01*
X901700Y685800D01*
X876300Y673100D02*
X876300Y624400D01*
X863600Y637100D02*
X836200Y609700D01*
X863600Y698500D02*
X876300Y711200D01*
X901700Y711200D01*
X863600Y698500D02*
X863600Y637100D01*
D14*
X660400Y279400D03*
M02*
