G04 EAGLE Gerber RS-274X export*
G75*
%MOMM*%
%FSLAX34Y34*%
%LPD*%
%INTop Copper*%
%IPPOS*%
%AMOC8*
5,1,8,0,0,1.08239X$1,22.5*%
G01*
%ADD10C,1.930400*%
%ADD11C,1.524000*%
%ADD12C,1.016000*%
%ADD13C,5.999988*%


D10*
X588500Y660500D03*
X588500Y635100D03*
X588500Y609700D03*
X588500Y584300D03*
X588500Y558900D03*
X588500Y533500D03*
X588500Y508100D03*
X588500Y482700D03*
X588500Y457300D03*
X588500Y431900D03*
X588500Y406500D03*
X588500Y381100D03*
X588500Y355700D03*
X588500Y330300D03*
X588500Y304900D03*
X836200Y660500D03*
X836200Y635100D03*
X836200Y609700D03*
X836200Y584300D03*
X836200Y558900D03*
X836200Y533500D03*
X836200Y508100D03*
X836200Y482700D03*
X836200Y457300D03*
X836200Y431900D03*
X836200Y406500D03*
X836200Y381100D03*
X836200Y355700D03*
X836200Y330300D03*
X836200Y304900D03*
D11*
X541020Y406400D02*
X525780Y406400D01*
X525780Y431800D02*
X541020Y431800D01*
X541020Y457200D02*
X525780Y457200D01*
X525780Y584200D02*
X541020Y584200D01*
X541020Y609600D02*
X525780Y609600D01*
X525780Y635000D02*
X541020Y635000D01*
X541020Y482600D02*
X525780Y482600D01*
X525780Y508000D02*
X541020Y508000D01*
X541020Y558800D02*
X525780Y558800D01*
X525780Y533400D02*
X541020Y533400D01*
X541020Y279400D02*
X525780Y279400D01*
X525780Y304800D02*
X541020Y304800D01*
X541020Y330200D02*
X525780Y330200D01*
X525780Y355600D02*
X541020Y355600D01*
X894080Y330200D02*
X909320Y330200D01*
X909320Y304800D02*
X894080Y304800D01*
X894080Y279400D02*
X909320Y279400D01*
X909320Y254000D02*
X894080Y254000D01*
X894080Y444500D02*
X909320Y444500D01*
X909320Y419100D02*
X894080Y419100D01*
X894080Y393700D02*
X909320Y393700D01*
X909320Y368300D02*
X894080Y368300D01*
X894080Y736600D02*
X909320Y736600D01*
X909320Y711200D02*
X894080Y711200D01*
X894080Y685800D02*
X909320Y685800D01*
X909320Y660400D02*
X894080Y660400D01*
X894080Y533400D02*
X909320Y533400D01*
X909320Y508000D02*
X894080Y508000D01*
X894080Y482600D02*
X909320Y482600D01*
X909320Y622300D02*
X894080Y622300D01*
X894080Y596900D02*
X909320Y596900D01*
X909320Y571500D02*
X894080Y571500D01*
X520700Y690880D02*
X520700Y706120D01*
X546100Y706120D02*
X546100Y690880D01*
D12*
X698400Y330300D02*
X772557Y256143D01*
X698400Y330300D02*
X588500Y330300D01*
X772557Y256143D02*
X840343Y256143D01*
X889000Y304800D02*
X901700Y304800D01*
X889000Y304800D02*
X840343Y256143D01*
X588500Y660500D02*
X601100Y673100D01*
X660400Y673100D01*
X774700Y558800D01*
X774700Y304800D01*
X800100Y279400D01*
X838200Y279400D01*
X863600Y304800D02*
X863600Y444500D01*
X901700Y482600D01*
X863600Y304800D02*
X838200Y279400D01*
D13*
X800100Y698500D03*
D12*
X546100Y635000D02*
X533400Y635000D01*
X546100Y635000D02*
X558800Y635000D01*
X546100Y635000D02*
X546100Y698500D01*
X723900Y660500D02*
X836200Y660500D01*
X558800Y635000D02*
X558800Y292100D01*
X546100Y279400D01*
X533400Y279400D01*
X836200Y660500D02*
X867156Y660500D01*
X867156Y660400D01*
X901700Y660400D01*
X927100Y660400D01*
X927100Y571500D01*
X927100Y444500D01*
X927100Y330200D01*
X901700Y330200D01*
X901700Y444500D02*
X927100Y444500D01*
X927100Y571500D02*
X901700Y571500D01*
X723900Y660500D02*
X685900Y698500D01*
X546100Y698500D01*
D13*
X660400Y279400D03*
M02*
