G04 EAGLE Gerber RS-274X export*
G75*
%MOMM*%
%FSLAX34Y34*%
%LPD*%
%INBottom Copper*%
%IPPOS*%
%AMOC8*
5,1,8,0,0,1.08239X$1,22.5*%
G01*
%ADD10C,1.524000*%
%ADD11C,1.508000*%
%ADD12R,1.000000X1.100000*%
%ADD13C,2.550000*%
%ADD14C,1.016000*%

G36*
X1230398Y73664D02*
X1230398Y73664D01*
X1230417Y73662D01*
X1230519Y73684D01*
X1230621Y73700D01*
X1230638Y73710D01*
X1230658Y73714D01*
X1230747Y73767D01*
X1230838Y73816D01*
X1230852Y73830D01*
X1230869Y73840D01*
X1230936Y73919D01*
X1231008Y73994D01*
X1231016Y74012D01*
X1231029Y74027D01*
X1231068Y74123D01*
X1231111Y74217D01*
X1231113Y74237D01*
X1231121Y74255D01*
X1231139Y74422D01*
X1231139Y471578D01*
X1231136Y471598D01*
X1231138Y471617D01*
X1231116Y471719D01*
X1231100Y471821D01*
X1231090Y471838D01*
X1231086Y471858D01*
X1231033Y471947D01*
X1230984Y472038D01*
X1230970Y472052D01*
X1230960Y472069D01*
X1230881Y472136D01*
X1230806Y472208D01*
X1230788Y472216D01*
X1230773Y472229D01*
X1230677Y472268D01*
X1230583Y472311D01*
X1230563Y472313D01*
X1230545Y472321D01*
X1230378Y472339D01*
X150622Y472339D01*
X150602Y472336D01*
X150583Y472338D01*
X150481Y472316D01*
X150379Y472300D01*
X150362Y472290D01*
X150342Y472286D01*
X150253Y472233D01*
X150162Y472184D01*
X150148Y472170D01*
X150131Y472160D01*
X150064Y472081D01*
X149992Y472006D01*
X149984Y471988D01*
X149971Y471973D01*
X149932Y471877D01*
X149889Y471783D01*
X149887Y471763D01*
X149879Y471745D01*
X149861Y471578D01*
X149861Y74422D01*
X149864Y74402D01*
X149862Y74383D01*
X149884Y74281D01*
X149900Y74179D01*
X149910Y74162D01*
X149914Y74142D01*
X149967Y74053D01*
X150016Y73962D01*
X150030Y73948D01*
X150040Y73931D01*
X150119Y73864D01*
X150194Y73792D01*
X150212Y73784D01*
X150227Y73771D01*
X150323Y73732D01*
X150417Y73689D01*
X150437Y73687D01*
X150455Y73679D01*
X150622Y73661D01*
X1230378Y73661D01*
X1230398Y73664D01*
G37*
%LPC*%
G36*
X201886Y107695D02*
X201886Y107695D01*
X199459Y108701D01*
X184901Y123259D01*
X183895Y125686D01*
X183895Y371564D01*
X183892Y371584D01*
X183894Y371603D01*
X183872Y371705D01*
X183856Y371807D01*
X183846Y371824D01*
X183842Y371844D01*
X183789Y371933D01*
X183740Y372024D01*
X183726Y372038D01*
X183716Y372055D01*
X183637Y372122D01*
X183562Y372194D01*
X183544Y372202D01*
X183529Y372215D01*
X183433Y372254D01*
X183339Y372297D01*
X183319Y372299D01*
X183301Y372307D01*
X183134Y372325D01*
X174911Y372325D01*
X169664Y374498D01*
X165648Y378514D01*
X163475Y383761D01*
X163475Y389439D01*
X165648Y394686D01*
X169664Y398702D01*
X174911Y400875D01*
X206089Y400875D01*
X211336Y398702D01*
X215352Y394686D01*
X217525Y389439D01*
X217525Y383761D01*
X215352Y378514D01*
X211336Y374498D01*
X206089Y372325D01*
X197866Y372325D01*
X197846Y372322D01*
X197827Y372324D01*
X197725Y372302D01*
X197623Y372286D01*
X197606Y372276D01*
X197586Y372272D01*
X197497Y372219D01*
X197406Y372170D01*
X197392Y372156D01*
X197375Y372146D01*
X197308Y372067D01*
X197236Y371992D01*
X197228Y371974D01*
X197215Y371959D01*
X197176Y371863D01*
X197133Y371769D01*
X197131Y371749D01*
X197123Y371731D01*
X197105Y371564D01*
X197105Y130051D01*
X197119Y129961D01*
X197127Y129870D01*
X197139Y129840D01*
X197144Y129808D01*
X197187Y129728D01*
X197223Y129644D01*
X197249Y129612D01*
X197260Y129591D01*
X197283Y129569D01*
X197328Y129513D01*
X205713Y121128D01*
X205787Y121075D01*
X205856Y121015D01*
X205886Y121003D01*
X205913Y120984D01*
X206000Y120957D01*
X206084Y120923D01*
X206125Y120919D01*
X206148Y120912D01*
X206180Y120913D01*
X206251Y120905D01*
X225549Y120905D01*
X225639Y120919D01*
X225730Y120927D01*
X225760Y120939D01*
X225792Y120944D01*
X225872Y120987D01*
X225956Y121023D01*
X225988Y121049D01*
X226009Y121060D01*
X226031Y121083D01*
X226087Y121128D01*
X257412Y152453D01*
X257465Y152527D01*
X257525Y152596D01*
X257537Y152626D01*
X257556Y152653D01*
X257583Y152740D01*
X257617Y152824D01*
X257621Y152865D01*
X257628Y152888D01*
X257627Y152920D01*
X257635Y152991D01*
X257635Y161743D01*
X259015Y165075D01*
X261565Y167625D01*
X264897Y169005D01*
X268503Y169005D01*
X271835Y167625D01*
X274385Y165075D01*
X275765Y161743D01*
X275765Y143057D01*
X274385Y139725D01*
X271835Y137175D01*
X268503Y135795D01*
X264897Y135795D01*
X261505Y137200D01*
X261392Y137227D01*
X261278Y137255D01*
X261272Y137255D01*
X261266Y137256D01*
X261149Y137245D01*
X261033Y137236D01*
X261027Y137234D01*
X261021Y137233D01*
X260913Y137185D01*
X260807Y137140D01*
X260801Y137135D01*
X260796Y137133D01*
X260782Y137121D01*
X260676Y137035D01*
X245845Y122204D01*
X245803Y122146D01*
X245754Y122094D01*
X245732Y122047D01*
X245701Y122005D01*
X245680Y121936D01*
X245650Y121871D01*
X245644Y121819D01*
X245629Y121769D01*
X245631Y121698D01*
X245623Y121627D01*
X245634Y121576D01*
X245635Y121524D01*
X245660Y121456D01*
X245675Y121386D01*
X245702Y121341D01*
X245720Y121293D01*
X245765Y121237D01*
X245801Y121175D01*
X245841Y121141D01*
X245873Y121101D01*
X245934Y121062D01*
X245988Y121015D01*
X246037Y120996D01*
X246080Y120968D01*
X246150Y120950D01*
X246216Y120923D01*
X246288Y120915D01*
X246319Y120907D01*
X246342Y120909D01*
X246383Y120905D01*
X416049Y120905D01*
X416139Y120919D01*
X416230Y120927D01*
X416260Y120939D01*
X416292Y120944D01*
X416372Y120987D01*
X416456Y121023D01*
X416488Y121049D01*
X416509Y121060D01*
X416531Y121083D01*
X416587Y121128D01*
X447912Y152453D01*
X447965Y152527D01*
X448025Y152596D01*
X448037Y152626D01*
X448056Y152653D01*
X448083Y152740D01*
X448117Y152824D01*
X448121Y152865D01*
X448128Y152888D01*
X448127Y152920D01*
X448135Y152991D01*
X448135Y161743D01*
X449515Y165075D01*
X452065Y167625D01*
X455397Y169005D01*
X459003Y169005D01*
X462335Y167625D01*
X464885Y165075D01*
X466265Y161743D01*
X466265Y143057D01*
X464885Y139725D01*
X462335Y137175D01*
X459003Y135795D01*
X455397Y135795D01*
X452005Y137200D01*
X451892Y137227D01*
X451778Y137255D01*
X451772Y137255D01*
X451766Y137256D01*
X451649Y137245D01*
X451533Y137236D01*
X451527Y137234D01*
X451521Y137233D01*
X451413Y137185D01*
X451307Y137140D01*
X451301Y137135D01*
X451296Y137133D01*
X451282Y137121D01*
X451176Y137035D01*
X436345Y122204D01*
X436303Y122146D01*
X436254Y122094D01*
X436232Y122047D01*
X436201Y122005D01*
X436180Y121936D01*
X436150Y121871D01*
X436144Y121819D01*
X436129Y121769D01*
X436131Y121698D01*
X436123Y121627D01*
X436134Y121576D01*
X436135Y121524D01*
X436160Y121456D01*
X436175Y121386D01*
X436202Y121341D01*
X436220Y121293D01*
X436265Y121237D01*
X436301Y121175D01*
X436341Y121141D01*
X436373Y121101D01*
X436434Y121062D01*
X436488Y121015D01*
X436537Y120996D01*
X436580Y120968D01*
X436650Y120950D01*
X436716Y120923D01*
X436788Y120915D01*
X436819Y120907D01*
X436842Y120909D01*
X436883Y120905D01*
X619249Y120905D01*
X619339Y120919D01*
X619430Y120927D01*
X619460Y120939D01*
X619492Y120944D01*
X619572Y120987D01*
X619656Y121023D01*
X619688Y121049D01*
X619709Y121060D01*
X619731Y121083D01*
X619787Y121128D01*
X651112Y152453D01*
X651165Y152527D01*
X651225Y152596D01*
X651237Y152626D01*
X651256Y152653D01*
X651283Y152740D01*
X651317Y152824D01*
X651321Y152865D01*
X651328Y152888D01*
X651327Y152920D01*
X651335Y152991D01*
X651335Y161743D01*
X652715Y165075D01*
X655265Y167625D01*
X658597Y169005D01*
X662203Y169005D01*
X665535Y167625D01*
X668085Y165075D01*
X669465Y161743D01*
X669465Y143057D01*
X668085Y139725D01*
X665535Y137175D01*
X662203Y135795D01*
X658597Y135795D01*
X655205Y137200D01*
X655092Y137227D01*
X654978Y137255D01*
X654972Y137255D01*
X654966Y137256D01*
X654849Y137245D01*
X654733Y137236D01*
X654727Y137234D01*
X654721Y137233D01*
X654613Y137185D01*
X654507Y137140D01*
X654501Y137135D01*
X654496Y137133D01*
X654482Y137121D01*
X654376Y137035D01*
X639545Y122204D01*
X639503Y122146D01*
X639454Y122094D01*
X639432Y122047D01*
X639401Y122005D01*
X639380Y121936D01*
X639350Y121871D01*
X639344Y121819D01*
X639329Y121769D01*
X639331Y121698D01*
X639323Y121627D01*
X639334Y121576D01*
X639335Y121524D01*
X639360Y121456D01*
X639375Y121386D01*
X639402Y121342D01*
X639420Y121293D01*
X639465Y121237D01*
X639501Y121175D01*
X639541Y121141D01*
X639573Y121101D01*
X639634Y121062D01*
X639688Y121015D01*
X639737Y120996D01*
X639780Y120968D01*
X639850Y120950D01*
X639916Y120923D01*
X639988Y120915D01*
X640019Y120907D01*
X640042Y120909D01*
X640083Y120905D01*
X822449Y120905D01*
X822539Y120919D01*
X822630Y120927D01*
X822660Y120939D01*
X822692Y120944D01*
X822772Y120987D01*
X822856Y121023D01*
X822888Y121049D01*
X822909Y121060D01*
X822931Y121083D01*
X822987Y121128D01*
X854312Y152453D01*
X854365Y152527D01*
X854425Y152596D01*
X854437Y152626D01*
X854456Y152653D01*
X854483Y152740D01*
X854517Y152824D01*
X854521Y152865D01*
X854528Y152888D01*
X854527Y152920D01*
X854535Y152991D01*
X854535Y161743D01*
X855915Y165075D01*
X858465Y167625D01*
X861797Y169005D01*
X865403Y169005D01*
X868735Y167625D01*
X871285Y165075D01*
X872665Y161743D01*
X872665Y143057D01*
X871285Y139725D01*
X868735Y137175D01*
X865403Y135795D01*
X861797Y135795D01*
X858405Y137200D01*
X858292Y137227D01*
X858178Y137255D01*
X858172Y137255D01*
X858166Y137256D01*
X858049Y137245D01*
X857933Y137236D01*
X857927Y137234D01*
X857921Y137233D01*
X857813Y137185D01*
X857707Y137140D01*
X857701Y137135D01*
X857696Y137133D01*
X857682Y137121D01*
X857576Y137035D01*
X842745Y122204D01*
X842703Y122146D01*
X842654Y122094D01*
X842632Y122047D01*
X842601Y122005D01*
X842580Y121936D01*
X842550Y121871D01*
X842544Y121819D01*
X842529Y121769D01*
X842531Y121698D01*
X842523Y121627D01*
X842534Y121576D01*
X842535Y121524D01*
X842560Y121456D01*
X842575Y121386D01*
X842602Y121342D01*
X842620Y121293D01*
X842665Y121237D01*
X842701Y121175D01*
X842741Y121141D01*
X842773Y121101D01*
X842834Y121062D01*
X842888Y121015D01*
X842937Y120996D01*
X842980Y120968D01*
X843050Y120950D01*
X843116Y120923D01*
X843188Y120915D01*
X843219Y120907D01*
X843242Y120909D01*
X843283Y120905D01*
X1038349Y120905D01*
X1038439Y120919D01*
X1038530Y120927D01*
X1038560Y120939D01*
X1038592Y120944D01*
X1038672Y120987D01*
X1038756Y121023D01*
X1038788Y121049D01*
X1038809Y121060D01*
X1038831Y121083D01*
X1038887Y121128D01*
X1070212Y152453D01*
X1070265Y152527D01*
X1070325Y152596D01*
X1070337Y152626D01*
X1070356Y152653D01*
X1070383Y152740D01*
X1070417Y152824D01*
X1070421Y152865D01*
X1070428Y152888D01*
X1070427Y152920D01*
X1070435Y152991D01*
X1070435Y161743D01*
X1071815Y165075D01*
X1074365Y167625D01*
X1077697Y169005D01*
X1081303Y169005D01*
X1084635Y167625D01*
X1087185Y165075D01*
X1088565Y161743D01*
X1088565Y143057D01*
X1087185Y139725D01*
X1084635Y137175D01*
X1081303Y135795D01*
X1077697Y135795D01*
X1074305Y137200D01*
X1074192Y137227D01*
X1074078Y137255D01*
X1074072Y137255D01*
X1074066Y137256D01*
X1073949Y137245D01*
X1073833Y137236D01*
X1073827Y137234D01*
X1073821Y137233D01*
X1073713Y137185D01*
X1073607Y137140D01*
X1073601Y137135D01*
X1073596Y137133D01*
X1073582Y137121D01*
X1073476Y137035D01*
X1045141Y108701D01*
X1042714Y107695D01*
X201886Y107695D01*
G37*
%LPD*%
%LPC*%
G36*
X290297Y135795D02*
X290297Y135795D01*
X286965Y137175D01*
X284415Y139725D01*
X283035Y143057D01*
X283035Y161743D01*
X283743Y163452D01*
X283770Y163565D01*
X283798Y163679D01*
X283798Y163685D01*
X283799Y163691D01*
X283788Y163808D01*
X283779Y163924D01*
X283777Y163930D01*
X283776Y163936D01*
X283728Y164044D01*
X283683Y164150D01*
X283678Y164156D01*
X283676Y164161D01*
X283663Y164175D01*
X283578Y164281D01*
X235701Y212159D01*
X234695Y214586D01*
X234695Y280714D01*
X235701Y283141D01*
X259872Y307313D01*
X259925Y307387D01*
X259985Y307456D01*
X259997Y307486D01*
X260016Y307513D01*
X260043Y307600D01*
X260077Y307684D01*
X260081Y307725D01*
X260088Y307748D01*
X260087Y307780D01*
X260095Y307851D01*
X260095Y315937D01*
X260081Y316027D01*
X260073Y316118D01*
X260061Y316148D01*
X260056Y316180D01*
X260013Y316260D01*
X259977Y316344D01*
X259951Y316376D01*
X259940Y316397D01*
X259917Y316419D01*
X259872Y316475D01*
X258947Y317400D01*
X257555Y320761D01*
X257555Y339639D01*
X258947Y343000D01*
X261520Y345573D01*
X264881Y346965D01*
X268519Y346965D01*
X271880Y345573D01*
X274453Y343000D01*
X275845Y339639D01*
X275845Y320761D01*
X274453Y317400D01*
X273528Y316475D01*
X273475Y316401D01*
X273415Y316332D01*
X273403Y316302D01*
X273384Y316275D01*
X273357Y316188D01*
X273323Y316104D01*
X273319Y316063D01*
X273312Y316040D01*
X273313Y316008D01*
X273305Y315937D01*
X273305Y303486D01*
X272299Y301059D01*
X248128Y276887D01*
X248075Y276813D01*
X248015Y276744D01*
X248003Y276714D01*
X247984Y276687D01*
X247957Y276600D01*
X247923Y276516D01*
X247919Y276475D01*
X247912Y276452D01*
X247913Y276420D01*
X247905Y276349D01*
X247905Y218951D01*
X247919Y218861D01*
X247927Y218770D01*
X247939Y218740D01*
X247944Y218708D01*
X247987Y218628D01*
X248023Y218544D01*
X248049Y218512D01*
X248060Y218491D01*
X248083Y218469D01*
X248128Y218413D01*
X297699Y168841D01*
X298720Y166378D01*
X298727Y166289D01*
X298739Y166259D01*
X298744Y166227D01*
X298787Y166147D01*
X298823Y166063D01*
X298849Y166031D01*
X298860Y166010D01*
X298883Y165988D01*
X298928Y165932D01*
X299785Y165075D01*
X301165Y161743D01*
X301165Y143057D01*
X299785Y139725D01*
X297235Y137175D01*
X293903Y135795D01*
X290297Y135795D01*
G37*
%LPD*%
%LPC*%
G36*
X887197Y135795D02*
X887197Y135795D01*
X883865Y137175D01*
X881315Y139725D01*
X879935Y143057D01*
X879935Y161743D01*
X881315Y165075D01*
X882172Y165932D01*
X882225Y166006D01*
X882285Y166075D01*
X882297Y166105D01*
X882316Y166132D01*
X882343Y166218D01*
X882377Y166303D01*
X882381Y166344D01*
X882388Y166367D01*
X882387Y166399D01*
X882395Y166470D01*
X882395Y187449D01*
X882381Y187539D01*
X882373Y187630D01*
X882361Y187660D01*
X882356Y187692D01*
X882313Y187772D01*
X882277Y187856D01*
X882251Y187888D01*
X882240Y187909D01*
X882217Y187931D01*
X882172Y187987D01*
X845301Y224859D01*
X844295Y227286D01*
X844295Y268014D01*
X845301Y270441D01*
X869472Y294613D01*
X869525Y294687D01*
X869585Y294756D01*
X869597Y294786D01*
X869616Y294813D01*
X869643Y294900D01*
X869677Y294984D01*
X869681Y295025D01*
X869688Y295048D01*
X869687Y295080D01*
X869695Y295151D01*
X869695Y315937D01*
X869681Y316027D01*
X869673Y316118D01*
X869661Y316148D01*
X869656Y316180D01*
X869613Y316260D01*
X869577Y316344D01*
X869551Y316376D01*
X869540Y316397D01*
X869517Y316419D01*
X869472Y316475D01*
X868547Y317400D01*
X867155Y320761D01*
X867155Y339639D01*
X868547Y343000D01*
X871120Y345573D01*
X874481Y346965D01*
X878119Y346965D01*
X881480Y345573D01*
X884053Y343000D01*
X885445Y339639D01*
X885445Y320761D01*
X884053Y317400D01*
X883128Y316475D01*
X883075Y316401D01*
X883015Y316332D01*
X883003Y316302D01*
X882984Y316275D01*
X882957Y316188D01*
X882923Y316104D01*
X882919Y316063D01*
X882912Y316040D01*
X882913Y316008D01*
X882905Y315937D01*
X882905Y290786D01*
X881899Y288359D01*
X857728Y264187D01*
X857675Y264113D01*
X857615Y264044D01*
X857603Y264014D01*
X857584Y263987D01*
X857557Y263900D01*
X857523Y263816D01*
X857519Y263775D01*
X857512Y263752D01*
X857513Y263720D01*
X857505Y263649D01*
X857505Y231651D01*
X857519Y231561D01*
X857527Y231470D01*
X857539Y231440D01*
X857544Y231408D01*
X857587Y231328D01*
X857623Y231244D01*
X857649Y231212D01*
X857660Y231191D01*
X857683Y231169D01*
X857728Y231113D01*
X894599Y194241D01*
X895605Y191814D01*
X895605Y166470D01*
X895619Y166380D01*
X895627Y166289D01*
X895639Y166259D01*
X895644Y166227D01*
X895687Y166147D01*
X895723Y166063D01*
X895749Y166031D01*
X895760Y166010D01*
X895783Y165988D01*
X895828Y165932D01*
X896685Y165075D01*
X898065Y161743D01*
X898065Y143057D01*
X896685Y139725D01*
X894135Y137175D01*
X890803Y135795D01*
X887197Y135795D01*
G37*
%LPD*%
%LPC*%
G36*
X683997Y135795D02*
X683997Y135795D01*
X680665Y137175D01*
X678115Y139725D01*
X676735Y143057D01*
X676735Y161743D01*
X678115Y165075D01*
X678972Y165932D01*
X679025Y166006D01*
X679085Y166075D01*
X679097Y166105D01*
X679116Y166131D01*
X679143Y166219D01*
X679177Y166303D01*
X679181Y166344D01*
X679188Y166367D01*
X679187Y166399D01*
X679195Y166470D01*
X679195Y174749D01*
X679181Y174839D01*
X679173Y174930D01*
X679161Y174960D01*
X679156Y174992D01*
X679113Y175072D01*
X679077Y175156D01*
X679051Y175188D01*
X679040Y175209D01*
X679017Y175231D01*
X678972Y175287D01*
X642101Y212159D01*
X641095Y214586D01*
X641095Y255314D01*
X642101Y257741D01*
X666272Y281913D01*
X666325Y281987D01*
X666385Y282056D01*
X666397Y282086D01*
X666416Y282113D01*
X666443Y282200D01*
X666477Y282284D01*
X666481Y282325D01*
X666488Y282348D01*
X666487Y282380D01*
X666495Y282451D01*
X666495Y315937D01*
X666481Y316027D01*
X666473Y316118D01*
X666461Y316148D01*
X666456Y316180D01*
X666413Y316260D01*
X666377Y316344D01*
X666351Y316376D01*
X666340Y316397D01*
X666317Y316419D01*
X666272Y316475D01*
X665347Y317400D01*
X663955Y320761D01*
X663955Y339639D01*
X665347Y343000D01*
X667920Y345573D01*
X671281Y346965D01*
X674919Y346965D01*
X678280Y345573D01*
X680853Y343000D01*
X682245Y339639D01*
X682245Y320761D01*
X680853Y317400D01*
X679928Y316475D01*
X679875Y316401D01*
X679815Y316332D01*
X679803Y316302D01*
X679784Y316275D01*
X679757Y316188D01*
X679723Y316104D01*
X679719Y316063D01*
X679712Y316040D01*
X679713Y316008D01*
X679705Y315937D01*
X679705Y278086D01*
X678699Y275659D01*
X654528Y251487D01*
X654475Y251413D01*
X654415Y251344D01*
X654403Y251314D01*
X654384Y251287D01*
X654357Y251200D01*
X654323Y251116D01*
X654319Y251075D01*
X654312Y251052D01*
X654313Y251020D01*
X654305Y250949D01*
X654305Y218951D01*
X654319Y218861D01*
X654327Y218770D01*
X654339Y218740D01*
X654344Y218708D01*
X654387Y218628D01*
X654423Y218544D01*
X654449Y218512D01*
X654460Y218491D01*
X654483Y218469D01*
X654528Y218413D01*
X691399Y181541D01*
X692405Y179114D01*
X692405Y166470D01*
X692419Y166380D01*
X692427Y166289D01*
X692439Y166259D01*
X692444Y166227D01*
X692487Y166147D01*
X692523Y166063D01*
X692549Y166031D01*
X692560Y166010D01*
X692583Y165988D01*
X692628Y165932D01*
X693485Y165075D01*
X694865Y161743D01*
X694865Y143057D01*
X693485Y139725D01*
X690935Y137175D01*
X687603Y135795D01*
X683997Y135795D01*
G37*
%LPD*%
%LPC*%
G36*
X480797Y135795D02*
X480797Y135795D01*
X477465Y137175D01*
X474915Y139725D01*
X473535Y143057D01*
X473535Y161743D01*
X474915Y165075D01*
X475772Y165932D01*
X475825Y166006D01*
X475885Y166075D01*
X475897Y166105D01*
X475916Y166132D01*
X475943Y166218D01*
X475977Y166303D01*
X475981Y166344D01*
X475988Y166367D01*
X475987Y166399D01*
X475995Y166470D01*
X475995Y174749D01*
X475981Y174839D01*
X475973Y174930D01*
X475961Y174960D01*
X475956Y174992D01*
X475913Y175072D01*
X475877Y175156D01*
X475851Y175188D01*
X475840Y175209D01*
X475817Y175231D01*
X475772Y175287D01*
X438901Y212159D01*
X437895Y214586D01*
X437895Y255314D01*
X438901Y257741D01*
X440866Y259706D01*
X463072Y281913D01*
X463125Y281987D01*
X463185Y282056D01*
X463197Y282086D01*
X463216Y282113D01*
X463243Y282200D01*
X463277Y282284D01*
X463281Y282325D01*
X463288Y282348D01*
X463287Y282380D01*
X463295Y282451D01*
X463295Y315937D01*
X463281Y316027D01*
X463273Y316118D01*
X463261Y316148D01*
X463256Y316180D01*
X463213Y316260D01*
X463177Y316344D01*
X463151Y316376D01*
X463140Y316397D01*
X463117Y316419D01*
X463072Y316475D01*
X462147Y317400D01*
X460755Y320761D01*
X460755Y339639D01*
X462147Y343000D01*
X464720Y345573D01*
X468081Y346965D01*
X471719Y346965D01*
X475080Y345573D01*
X477653Y343000D01*
X479045Y339639D01*
X479045Y320761D01*
X477653Y317400D01*
X476728Y316475D01*
X476675Y316401D01*
X476615Y316332D01*
X476603Y316302D01*
X476584Y316275D01*
X476557Y316188D01*
X476523Y316104D01*
X476519Y316063D01*
X476512Y316040D01*
X476513Y316008D01*
X476505Y315937D01*
X476505Y278086D01*
X475499Y275659D01*
X451328Y251487D01*
X451275Y251413D01*
X451215Y251344D01*
X451203Y251314D01*
X451184Y251287D01*
X451157Y251200D01*
X451123Y251116D01*
X451119Y251075D01*
X451112Y251052D01*
X451113Y251020D01*
X451105Y250949D01*
X451105Y218951D01*
X451119Y218861D01*
X451127Y218770D01*
X451139Y218740D01*
X451144Y218708D01*
X451187Y218628D01*
X451223Y218544D01*
X451249Y218512D01*
X451260Y218491D01*
X451283Y218469D01*
X451328Y218413D01*
X488199Y181541D01*
X489205Y179114D01*
X489205Y166470D01*
X489219Y166380D01*
X489227Y166289D01*
X489239Y166259D01*
X489244Y166227D01*
X489287Y166147D01*
X489323Y166063D01*
X489349Y166031D01*
X489360Y166010D01*
X489383Y165988D01*
X489428Y165932D01*
X490285Y165075D01*
X491665Y161743D01*
X491665Y143057D01*
X490285Y139725D01*
X487735Y137175D01*
X484403Y135795D01*
X480797Y135795D01*
G37*
%LPD*%
%LPC*%
G36*
X734797Y135795D02*
X734797Y135795D01*
X731465Y137175D01*
X728915Y139725D01*
X727535Y143057D01*
X727535Y161743D01*
X728915Y165075D01*
X731465Y167625D01*
X734797Y169005D01*
X738403Y169005D01*
X741795Y167600D01*
X741908Y167573D01*
X742022Y167545D01*
X742028Y167545D01*
X742034Y167544D01*
X742151Y167555D01*
X742267Y167564D01*
X742273Y167566D01*
X742279Y167567D01*
X742387Y167615D01*
X742493Y167660D01*
X742499Y167665D01*
X742504Y167667D01*
X742518Y167679D01*
X742624Y167765D01*
X767872Y193013D01*
X767925Y193087D01*
X767985Y193156D01*
X767997Y193186D01*
X768016Y193213D01*
X768043Y193300D01*
X768077Y193384D01*
X768081Y193425D01*
X768088Y193448D01*
X768087Y193480D01*
X768095Y193551D01*
X768095Y315937D01*
X768081Y316027D01*
X768073Y316118D01*
X768061Y316148D01*
X768056Y316180D01*
X768013Y316260D01*
X767977Y316344D01*
X767951Y316376D01*
X767940Y316397D01*
X767917Y316419D01*
X767872Y316475D01*
X766947Y317400D01*
X765555Y320761D01*
X765555Y339639D01*
X766947Y343000D01*
X769520Y345573D01*
X772881Y346965D01*
X776519Y346965D01*
X779880Y345573D01*
X782453Y343000D01*
X783845Y339639D01*
X783845Y320761D01*
X782453Y317400D01*
X781528Y316475D01*
X781475Y316401D01*
X781415Y316332D01*
X781403Y316302D01*
X781384Y316275D01*
X781357Y316188D01*
X781323Y316104D01*
X781319Y316063D01*
X781312Y316040D01*
X781313Y316008D01*
X781305Y315937D01*
X781305Y189186D01*
X780299Y186759D01*
X745888Y152347D01*
X745835Y152273D01*
X745775Y152204D01*
X745763Y152174D01*
X745744Y152147D01*
X745717Y152060D01*
X745683Y151976D01*
X745679Y151935D01*
X745672Y151912D01*
X745673Y151880D01*
X745665Y151809D01*
X745665Y143057D01*
X744285Y139725D01*
X741735Y137175D01*
X738403Y135795D01*
X734797Y135795D01*
G37*
%LPD*%
%LPC*%
G36*
X1153897Y135795D02*
X1153897Y135795D01*
X1150565Y137175D01*
X1148015Y139725D01*
X1146635Y143057D01*
X1146635Y161743D01*
X1148015Y165075D01*
X1150565Y167625D01*
X1153897Y169005D01*
X1157503Y169005D01*
X1160895Y167600D01*
X1161008Y167573D01*
X1161122Y167545D01*
X1161128Y167545D01*
X1161134Y167544D01*
X1161251Y167555D01*
X1161367Y167564D01*
X1161373Y167566D01*
X1161379Y167567D01*
X1161487Y167615D01*
X1161593Y167660D01*
X1161599Y167665D01*
X1161604Y167667D01*
X1161618Y167679D01*
X1161724Y167765D01*
X1186972Y193013D01*
X1187025Y193087D01*
X1187085Y193156D01*
X1187097Y193186D01*
X1187116Y193213D01*
X1187143Y193300D01*
X1187177Y193384D01*
X1187181Y193425D01*
X1187188Y193448D01*
X1187187Y193480D01*
X1187195Y193551D01*
X1187195Y315937D01*
X1187181Y316027D01*
X1187173Y316118D01*
X1187161Y316148D01*
X1187156Y316180D01*
X1187113Y316260D01*
X1187077Y316344D01*
X1187051Y316376D01*
X1187040Y316397D01*
X1187017Y316419D01*
X1186972Y316475D01*
X1186047Y317400D01*
X1184655Y320761D01*
X1184655Y339639D01*
X1186047Y343000D01*
X1188620Y345573D01*
X1191981Y346965D01*
X1195619Y346965D01*
X1198980Y345573D01*
X1201553Y343000D01*
X1202945Y339639D01*
X1202945Y320761D01*
X1201553Y317400D01*
X1200628Y316475D01*
X1200575Y316401D01*
X1200515Y316332D01*
X1200503Y316302D01*
X1200484Y316275D01*
X1200457Y316188D01*
X1200423Y316104D01*
X1200419Y316063D01*
X1200412Y316040D01*
X1200413Y316008D01*
X1200405Y315937D01*
X1200405Y189186D01*
X1199399Y186759D01*
X1164988Y152347D01*
X1164935Y152273D01*
X1164875Y152204D01*
X1164863Y152174D01*
X1164844Y152147D01*
X1164817Y152060D01*
X1164783Y151976D01*
X1164779Y151935D01*
X1164772Y151912D01*
X1164773Y151880D01*
X1164765Y151809D01*
X1164765Y143057D01*
X1163385Y139725D01*
X1160835Y137175D01*
X1157503Y135795D01*
X1153897Y135795D01*
G37*
%LPD*%
%LPC*%
G36*
X937997Y135795D02*
X937997Y135795D01*
X934665Y137175D01*
X932115Y139725D01*
X930735Y143057D01*
X930735Y161743D01*
X932115Y165075D01*
X934665Y167625D01*
X937997Y169005D01*
X941603Y169005D01*
X944995Y167600D01*
X945108Y167573D01*
X945222Y167545D01*
X945228Y167545D01*
X945234Y167544D01*
X945351Y167555D01*
X945467Y167564D01*
X945473Y167566D01*
X945479Y167567D01*
X945587Y167615D01*
X945693Y167660D01*
X945699Y167665D01*
X945704Y167667D01*
X945718Y167679D01*
X945824Y167765D01*
X971072Y193013D01*
X971125Y193087D01*
X971185Y193156D01*
X971197Y193186D01*
X971216Y193213D01*
X971243Y193300D01*
X971277Y193384D01*
X971281Y193425D01*
X971288Y193448D01*
X971287Y193480D01*
X971295Y193551D01*
X971295Y315937D01*
X971281Y316027D01*
X971273Y316118D01*
X971261Y316148D01*
X971256Y316180D01*
X971213Y316260D01*
X971177Y316344D01*
X971151Y316376D01*
X971140Y316397D01*
X971117Y316419D01*
X971072Y316475D01*
X970147Y317400D01*
X968755Y320761D01*
X968755Y339639D01*
X970147Y343000D01*
X972720Y345573D01*
X976081Y346965D01*
X979719Y346965D01*
X983080Y345573D01*
X985653Y343000D01*
X987045Y339639D01*
X987045Y320761D01*
X985653Y317400D01*
X984728Y316475D01*
X984675Y316401D01*
X984615Y316332D01*
X984603Y316302D01*
X984584Y316275D01*
X984557Y316188D01*
X984523Y316104D01*
X984519Y316063D01*
X984512Y316040D01*
X984513Y316008D01*
X984505Y315937D01*
X984505Y189186D01*
X983499Y186759D01*
X949088Y152347D01*
X949035Y152273D01*
X948975Y152204D01*
X948963Y152174D01*
X948944Y152147D01*
X948917Y152060D01*
X948883Y151976D01*
X948879Y151935D01*
X948872Y151912D01*
X948873Y151880D01*
X948865Y151809D01*
X948865Y143057D01*
X947485Y139725D01*
X944935Y137175D01*
X941603Y135795D01*
X937997Y135795D01*
G37*
%LPD*%
%LPC*%
G36*
X531597Y135795D02*
X531597Y135795D01*
X528265Y137175D01*
X525715Y139725D01*
X524335Y143057D01*
X524335Y161743D01*
X525715Y165075D01*
X528265Y167625D01*
X531597Y169005D01*
X535203Y169005D01*
X538595Y167600D01*
X538708Y167573D01*
X538822Y167545D01*
X538828Y167545D01*
X538834Y167544D01*
X538951Y167555D01*
X539067Y167564D01*
X539073Y167566D01*
X539079Y167567D01*
X539187Y167615D01*
X539293Y167660D01*
X539299Y167665D01*
X539304Y167667D01*
X539318Y167679D01*
X539424Y167765D01*
X564672Y193013D01*
X564725Y193087D01*
X564785Y193156D01*
X564797Y193186D01*
X564816Y193213D01*
X564843Y193300D01*
X564877Y193384D01*
X564881Y193425D01*
X564888Y193448D01*
X564887Y193480D01*
X564895Y193551D01*
X564895Y315937D01*
X564881Y316027D01*
X564873Y316118D01*
X564861Y316148D01*
X564856Y316180D01*
X564813Y316260D01*
X564777Y316344D01*
X564751Y316376D01*
X564740Y316397D01*
X564717Y316419D01*
X564672Y316475D01*
X563747Y317400D01*
X562355Y320761D01*
X562355Y339639D01*
X563747Y343000D01*
X566320Y345573D01*
X569681Y346965D01*
X573319Y346965D01*
X576680Y345573D01*
X579253Y343000D01*
X580645Y339639D01*
X580645Y320761D01*
X579253Y317400D01*
X578328Y316475D01*
X578275Y316401D01*
X578215Y316332D01*
X578203Y316302D01*
X578184Y316275D01*
X578157Y316188D01*
X578123Y316104D01*
X578119Y316063D01*
X578112Y316040D01*
X578113Y316008D01*
X578105Y315937D01*
X578105Y189186D01*
X577099Y186759D01*
X542688Y152347D01*
X542635Y152273D01*
X542575Y152204D01*
X542563Y152174D01*
X542544Y152147D01*
X542517Y152061D01*
X542483Y151976D01*
X542479Y151935D01*
X542472Y151912D01*
X542473Y151880D01*
X542465Y151809D01*
X542465Y143057D01*
X541085Y139725D01*
X538535Y137175D01*
X535203Y135795D01*
X531597Y135795D01*
G37*
%LPD*%
%LPC*%
G36*
X341097Y135795D02*
X341097Y135795D01*
X337765Y137175D01*
X335215Y139725D01*
X333835Y143057D01*
X333835Y161743D01*
X335215Y165075D01*
X337765Y167625D01*
X341097Y169005D01*
X344703Y169005D01*
X348095Y167600D01*
X348208Y167573D01*
X348322Y167545D01*
X348328Y167545D01*
X348334Y167544D01*
X348451Y167555D01*
X348567Y167564D01*
X348573Y167566D01*
X348579Y167567D01*
X348687Y167615D01*
X348793Y167660D01*
X348799Y167665D01*
X348804Y167667D01*
X348818Y167679D01*
X348924Y167765D01*
X361472Y180313D01*
X361525Y180387D01*
X361585Y180456D01*
X361597Y180486D01*
X361616Y180513D01*
X361643Y180600D01*
X361677Y180684D01*
X361681Y180725D01*
X361688Y180748D01*
X361687Y180780D01*
X361695Y180851D01*
X361695Y315937D01*
X361681Y316027D01*
X361673Y316118D01*
X361661Y316148D01*
X361656Y316180D01*
X361613Y316260D01*
X361577Y316344D01*
X361551Y316376D01*
X361540Y316397D01*
X361517Y316419D01*
X361472Y316475D01*
X360547Y317400D01*
X359155Y320761D01*
X359155Y339639D01*
X360547Y343000D01*
X363120Y345573D01*
X366481Y346965D01*
X370119Y346965D01*
X373480Y345573D01*
X376053Y343000D01*
X377445Y339639D01*
X377445Y320761D01*
X376053Y317400D01*
X375128Y316475D01*
X375075Y316401D01*
X375015Y316332D01*
X375003Y316302D01*
X374984Y316275D01*
X374957Y316188D01*
X374923Y316104D01*
X374919Y316063D01*
X374912Y316040D01*
X374913Y316008D01*
X374905Y315937D01*
X374905Y176486D01*
X373899Y174059D01*
X352188Y152347D01*
X352135Y152273D01*
X352075Y152204D01*
X352063Y152174D01*
X352044Y152147D01*
X352017Y152061D01*
X351983Y151976D01*
X351979Y151935D01*
X351972Y151912D01*
X351973Y151880D01*
X351965Y151809D01*
X351965Y143057D01*
X350585Y139725D01*
X348035Y137175D01*
X344703Y135795D01*
X341097Y135795D01*
G37*
%LPD*%
%LPC*%
G36*
X1103097Y135795D02*
X1103097Y135795D01*
X1099765Y137175D01*
X1097215Y139725D01*
X1095835Y143057D01*
X1095835Y161743D01*
X1097215Y165075D01*
X1098072Y165932D01*
X1098125Y166006D01*
X1098185Y166075D01*
X1098197Y166105D01*
X1098216Y166131D01*
X1098243Y166219D01*
X1098277Y166303D01*
X1098281Y166344D01*
X1098288Y166367D01*
X1098287Y166399D01*
X1098295Y166470D01*
X1098295Y187449D01*
X1098281Y187539D01*
X1098273Y187630D01*
X1098261Y187660D01*
X1098256Y187692D01*
X1098213Y187772D01*
X1098177Y187856D01*
X1098151Y187888D01*
X1098140Y187909D01*
X1098117Y187931D01*
X1098072Y187987D01*
X1073901Y212159D01*
X1072895Y214586D01*
X1072895Y315937D01*
X1072881Y316027D01*
X1072873Y316118D01*
X1072861Y316148D01*
X1072856Y316180D01*
X1072813Y316260D01*
X1072777Y316344D01*
X1072751Y316376D01*
X1072740Y316397D01*
X1072717Y316419D01*
X1072672Y316475D01*
X1071747Y317400D01*
X1070355Y320761D01*
X1070355Y339639D01*
X1071747Y343000D01*
X1074320Y345573D01*
X1077681Y346965D01*
X1081319Y346965D01*
X1084680Y345573D01*
X1087253Y343000D01*
X1088645Y339639D01*
X1088645Y320761D01*
X1087253Y317400D01*
X1086328Y316475D01*
X1086275Y316401D01*
X1086215Y316332D01*
X1086203Y316302D01*
X1086184Y316275D01*
X1086157Y316188D01*
X1086123Y316104D01*
X1086119Y316063D01*
X1086112Y316040D01*
X1086113Y316008D01*
X1086105Y315937D01*
X1086105Y218951D01*
X1086119Y218861D01*
X1086127Y218770D01*
X1086139Y218740D01*
X1086144Y218708D01*
X1086187Y218628D01*
X1086223Y218544D01*
X1086249Y218512D01*
X1086260Y218491D01*
X1086283Y218469D01*
X1086328Y218413D01*
X1110499Y194241D01*
X1111505Y191814D01*
X1111505Y166470D01*
X1111519Y166380D01*
X1111527Y166289D01*
X1111539Y166259D01*
X1111544Y166227D01*
X1111587Y166147D01*
X1111623Y166063D01*
X1111649Y166031D01*
X1111660Y166010D01*
X1111683Y165988D01*
X1111728Y165932D01*
X1112585Y165075D01*
X1113965Y161743D01*
X1113965Y143057D01*
X1112585Y139725D01*
X1110035Y137175D01*
X1106703Y135795D01*
X1103097Y135795D01*
G37*
%LPD*%
%LPC*%
G36*
X1151341Y224535D02*
X1151341Y224535D01*
X1147980Y225927D01*
X1145407Y228500D01*
X1144015Y231861D01*
X1144015Y250739D01*
X1145407Y254100D01*
X1146332Y255025D01*
X1146385Y255099D01*
X1146445Y255168D01*
X1146457Y255198D01*
X1146476Y255225D01*
X1146503Y255312D01*
X1146537Y255396D01*
X1146541Y255437D01*
X1146548Y255460D01*
X1146547Y255492D01*
X1146555Y255563D01*
X1146555Y278889D01*
X1146541Y278979D01*
X1146533Y279070D01*
X1146521Y279100D01*
X1146516Y279132D01*
X1146473Y279212D01*
X1146437Y279296D01*
X1146411Y279328D01*
X1146400Y279349D01*
X1146377Y279371D01*
X1146332Y279427D01*
X1124701Y301059D01*
X1123695Y303486D01*
X1123695Y373814D01*
X1123717Y373867D01*
X1123732Y373931D01*
X1123757Y373992D01*
X1123766Y374074D01*
X1123773Y374106D01*
X1123772Y374126D01*
X1123775Y374158D01*
X1123775Y378632D01*
X1124668Y379525D01*
X1135932Y379525D01*
X1136825Y378632D01*
X1136825Y374158D01*
X1136835Y374094D01*
X1136836Y374028D01*
X1136859Y373948D01*
X1136864Y373916D01*
X1136874Y373898D01*
X1136883Y373867D01*
X1136905Y373814D01*
X1136905Y307851D01*
X1136919Y307761D01*
X1136927Y307670D01*
X1136939Y307640D01*
X1136944Y307608D01*
X1136987Y307528D01*
X1137023Y307444D01*
X1137049Y307412D01*
X1137060Y307391D01*
X1137083Y307369D01*
X1137128Y307313D01*
X1158759Y285681D01*
X1159765Y283254D01*
X1159765Y255563D01*
X1159779Y255473D01*
X1159787Y255382D01*
X1159799Y255352D01*
X1159804Y255320D01*
X1159847Y255240D01*
X1159883Y255156D01*
X1159909Y255124D01*
X1159920Y255103D01*
X1159943Y255081D01*
X1159988Y255025D01*
X1160913Y254100D01*
X1162305Y250739D01*
X1162305Y231861D01*
X1160913Y228500D01*
X1158340Y225927D01*
X1154979Y224535D01*
X1151341Y224535D01*
G37*
%LPD*%
%LPC*%
G36*
X325841Y224535D02*
X325841Y224535D01*
X322480Y225927D01*
X319907Y228500D01*
X318515Y231861D01*
X318515Y250739D01*
X319907Y254100D01*
X322480Y256673D01*
X323125Y256940D01*
X323225Y257001D01*
X323325Y257061D01*
X323329Y257066D01*
X323334Y257069D01*
X323409Y257160D01*
X323485Y257248D01*
X323487Y257254D01*
X323491Y257259D01*
X323533Y257367D01*
X323577Y257476D01*
X323578Y257484D01*
X323579Y257489D01*
X323580Y257507D01*
X323595Y257643D01*
X323595Y263649D01*
X323581Y263739D01*
X323573Y263830D01*
X323561Y263860D01*
X323556Y263892D01*
X323513Y263972D01*
X323477Y264056D01*
X323451Y264088D01*
X323440Y264109D01*
X323417Y264131D01*
X323372Y264187D01*
X311901Y275659D01*
X310895Y278086D01*
X310895Y373814D01*
X310917Y373867D01*
X310932Y373931D01*
X310957Y373992D01*
X310966Y374074D01*
X310973Y374106D01*
X310972Y374126D01*
X310975Y374158D01*
X310975Y378632D01*
X311868Y379525D01*
X323132Y379525D01*
X324025Y378632D01*
X324025Y374158D01*
X324035Y374094D01*
X324036Y374028D01*
X324059Y373948D01*
X324064Y373916D01*
X324074Y373898D01*
X324083Y373867D01*
X324105Y373814D01*
X324105Y282451D01*
X324119Y282361D01*
X324127Y282270D01*
X324139Y282240D01*
X324144Y282208D01*
X324187Y282128D01*
X324223Y282044D01*
X324249Y282012D01*
X324260Y281991D01*
X324283Y281969D01*
X324328Y281913D01*
X335799Y270441D01*
X336805Y268014D01*
X336805Y231861D01*
X335413Y228500D01*
X332840Y225927D01*
X329479Y224535D01*
X325841Y224535D01*
G37*
%LPD*%
%LPC*%
G36*
X935441Y224535D02*
X935441Y224535D01*
X932080Y225927D01*
X929507Y228500D01*
X928115Y231861D01*
X928115Y250739D01*
X929507Y254100D01*
X932080Y256673D01*
X932725Y256940D01*
X932825Y257001D01*
X932925Y257061D01*
X932929Y257066D01*
X932934Y257069D01*
X933009Y257160D01*
X933085Y257248D01*
X933087Y257254D01*
X933091Y257259D01*
X933133Y257367D01*
X933177Y257476D01*
X933178Y257484D01*
X933179Y257489D01*
X933180Y257507D01*
X933195Y257643D01*
X933195Y289049D01*
X933181Y289139D01*
X933173Y289230D01*
X933161Y289260D01*
X933156Y289292D01*
X933113Y289372D01*
X933077Y289456D01*
X933051Y289488D01*
X933040Y289509D01*
X933017Y289531D01*
X932972Y289587D01*
X921501Y301059D01*
X920495Y303486D01*
X920495Y373814D01*
X920517Y373867D01*
X920532Y373931D01*
X920557Y373992D01*
X920566Y374074D01*
X920573Y374106D01*
X920572Y374126D01*
X920575Y374158D01*
X920575Y378632D01*
X921468Y379525D01*
X932732Y379525D01*
X933625Y378632D01*
X933625Y374158D01*
X933635Y374094D01*
X933636Y374028D01*
X933659Y373948D01*
X933664Y373916D01*
X933674Y373898D01*
X933683Y373867D01*
X933705Y373814D01*
X933705Y307851D01*
X933719Y307761D01*
X933727Y307670D01*
X933739Y307640D01*
X933744Y307608D01*
X933787Y307528D01*
X933823Y307444D01*
X933849Y307412D01*
X933860Y307391D01*
X933883Y307369D01*
X933928Y307313D01*
X945399Y295841D01*
X946405Y293414D01*
X946405Y231861D01*
X945013Y228500D01*
X942440Y225927D01*
X939079Y224535D01*
X935441Y224535D01*
G37*
%LPD*%
%LPC*%
G36*
X529041Y224535D02*
X529041Y224535D01*
X525680Y225927D01*
X523107Y228500D01*
X521715Y231861D01*
X521715Y250739D01*
X523107Y254100D01*
X524032Y255025D01*
X524085Y255099D01*
X524145Y255168D01*
X524157Y255198D01*
X524176Y255225D01*
X524203Y255312D01*
X524237Y255396D01*
X524241Y255437D01*
X524248Y255460D01*
X524247Y255492D01*
X524255Y255563D01*
X524255Y291589D01*
X524241Y291679D01*
X524233Y291770D01*
X524221Y291800D01*
X524216Y291832D01*
X524173Y291912D01*
X524137Y291996D01*
X524111Y292028D01*
X524100Y292049D01*
X524077Y292071D01*
X524032Y292127D01*
X515101Y301059D01*
X514095Y303486D01*
X514095Y373814D01*
X514117Y373867D01*
X514132Y373931D01*
X514157Y373992D01*
X514166Y374074D01*
X514173Y374106D01*
X514172Y374126D01*
X514175Y374158D01*
X514175Y378632D01*
X515068Y379525D01*
X526332Y379525D01*
X527225Y378632D01*
X527225Y374158D01*
X527235Y374094D01*
X527236Y374028D01*
X527259Y373948D01*
X527264Y373916D01*
X527274Y373898D01*
X527283Y373867D01*
X527305Y373814D01*
X527305Y307851D01*
X527319Y307761D01*
X527327Y307670D01*
X527339Y307640D01*
X527344Y307608D01*
X527387Y307528D01*
X527423Y307444D01*
X527449Y307412D01*
X527460Y307391D01*
X527483Y307369D01*
X527528Y307313D01*
X536459Y298381D01*
X537465Y295954D01*
X537465Y255563D01*
X537479Y255473D01*
X537487Y255382D01*
X537499Y255352D01*
X537504Y255320D01*
X537547Y255240D01*
X537583Y255156D01*
X537609Y255124D01*
X537620Y255103D01*
X537643Y255081D01*
X537688Y255025D01*
X538613Y254100D01*
X540005Y250739D01*
X540005Y231861D01*
X538613Y228500D01*
X536040Y225927D01*
X532679Y224535D01*
X529041Y224535D01*
G37*
%LPD*%
%LPC*%
G36*
X732241Y224535D02*
X732241Y224535D01*
X728880Y225927D01*
X726307Y228500D01*
X724915Y231861D01*
X724915Y250739D01*
X726307Y254100D01*
X727232Y255025D01*
X727285Y255099D01*
X727345Y255168D01*
X727357Y255198D01*
X727376Y255225D01*
X727403Y255312D01*
X727437Y255396D01*
X727441Y255437D01*
X727448Y255460D01*
X727447Y255492D01*
X727455Y255563D01*
X727455Y291589D01*
X727441Y291679D01*
X727433Y291770D01*
X727421Y291800D01*
X727416Y291832D01*
X727373Y291912D01*
X727337Y291996D01*
X727311Y292028D01*
X727300Y292049D01*
X727277Y292071D01*
X727232Y292127D01*
X718301Y301059D01*
X717295Y303486D01*
X717295Y373814D01*
X717317Y373867D01*
X717332Y373931D01*
X717357Y373992D01*
X717366Y374074D01*
X717373Y374106D01*
X717372Y374126D01*
X717375Y374158D01*
X717375Y378632D01*
X718268Y379525D01*
X729532Y379525D01*
X730425Y378632D01*
X730425Y374158D01*
X730435Y374094D01*
X730436Y374028D01*
X730459Y373948D01*
X730464Y373916D01*
X730474Y373898D01*
X730483Y373867D01*
X730505Y373814D01*
X730505Y307851D01*
X730519Y307761D01*
X730527Y307670D01*
X730539Y307640D01*
X730544Y307608D01*
X730587Y307528D01*
X730623Y307444D01*
X730649Y307412D01*
X730660Y307391D01*
X730683Y307369D01*
X730728Y307313D01*
X739659Y298381D01*
X740665Y295954D01*
X740665Y255563D01*
X740679Y255473D01*
X740687Y255382D01*
X740699Y255352D01*
X740704Y255320D01*
X740747Y255240D01*
X740783Y255156D01*
X740809Y255124D01*
X740820Y255103D01*
X740843Y255081D01*
X740888Y255025D01*
X741813Y254100D01*
X743205Y250739D01*
X743205Y231861D01*
X741813Y228500D01*
X739240Y225927D01*
X735879Y224535D01*
X732241Y224535D01*
G37*
%LPD*%
%LPC*%
G36*
X315697Y135795D02*
X315697Y135795D01*
X312365Y137175D01*
X309815Y139725D01*
X308435Y143057D01*
X308435Y161743D01*
X309815Y165075D01*
X310672Y165932D01*
X310725Y166006D01*
X310785Y166075D01*
X310797Y166105D01*
X310816Y166132D01*
X310843Y166218D01*
X310877Y166303D01*
X310881Y166344D01*
X310888Y166367D01*
X310887Y166399D01*
X310895Y166470D01*
X310895Y187449D01*
X310881Y187539D01*
X310873Y187630D01*
X310861Y187660D01*
X310856Y187692D01*
X310813Y187772D01*
X310777Y187856D01*
X310751Y187888D01*
X310740Y187909D01*
X310717Y187931D01*
X310672Y187987D01*
X299201Y199459D01*
X298195Y201886D01*
X298195Y227037D01*
X298181Y227127D01*
X298173Y227218D01*
X298161Y227248D01*
X298156Y227280D01*
X298113Y227360D01*
X298077Y227444D01*
X298051Y227476D01*
X298040Y227497D01*
X298017Y227519D01*
X297972Y227575D01*
X297047Y228500D01*
X295655Y231861D01*
X295655Y250739D01*
X297047Y254100D01*
X299620Y256673D01*
X302981Y258065D01*
X306619Y258065D01*
X309980Y256673D01*
X312553Y254100D01*
X313945Y250739D01*
X313945Y231861D01*
X312553Y228500D01*
X311628Y227575D01*
X311575Y227501D01*
X311515Y227432D01*
X311503Y227402D01*
X311484Y227375D01*
X311457Y227288D01*
X311423Y227204D01*
X311419Y227163D01*
X311412Y227140D01*
X311413Y227108D01*
X311405Y227037D01*
X311405Y206251D01*
X311419Y206161D01*
X311427Y206070D01*
X311439Y206040D01*
X311444Y206008D01*
X311487Y205928D01*
X311523Y205844D01*
X311549Y205812D01*
X311560Y205791D01*
X311583Y205769D01*
X311628Y205713D01*
X323099Y194241D01*
X324105Y191814D01*
X324105Y166470D01*
X324119Y166380D01*
X324127Y166289D01*
X324139Y166259D01*
X324144Y166227D01*
X324187Y166147D01*
X324223Y166063D01*
X324249Y166031D01*
X324260Y166010D01*
X324283Y165988D01*
X324328Y165932D01*
X325185Y165075D01*
X326565Y161743D01*
X326565Y143057D01*
X325185Y139725D01*
X322635Y137175D01*
X319303Y135795D01*
X315697Y135795D01*
G37*
%LPD*%
%LPC*%
G36*
X506197Y135795D02*
X506197Y135795D01*
X502865Y137175D01*
X500315Y139725D01*
X498935Y143057D01*
X498935Y161743D01*
X500315Y165075D01*
X501172Y165932D01*
X501225Y166006D01*
X501285Y166075D01*
X501297Y166105D01*
X501316Y166132D01*
X501343Y166218D01*
X501377Y166303D01*
X501381Y166344D01*
X501388Y166367D01*
X501387Y166399D01*
X501395Y166470D01*
X501395Y227037D01*
X501381Y227127D01*
X501373Y227218D01*
X501361Y227248D01*
X501356Y227280D01*
X501313Y227360D01*
X501277Y227444D01*
X501251Y227476D01*
X501240Y227497D01*
X501217Y227519D01*
X501172Y227575D01*
X500247Y228500D01*
X498855Y231861D01*
X498855Y250739D01*
X500247Y254100D01*
X502820Y256673D01*
X506181Y258065D01*
X509819Y258065D01*
X513180Y256673D01*
X515753Y254100D01*
X517145Y250739D01*
X517145Y231861D01*
X515753Y228500D01*
X514828Y227575D01*
X514775Y227501D01*
X514715Y227432D01*
X514703Y227402D01*
X514684Y227375D01*
X514657Y227288D01*
X514623Y227204D01*
X514619Y227163D01*
X514612Y227140D01*
X514613Y227108D01*
X514605Y227037D01*
X514605Y166470D01*
X514619Y166380D01*
X514627Y166289D01*
X514639Y166259D01*
X514644Y166227D01*
X514687Y166147D01*
X514723Y166063D01*
X514749Y166031D01*
X514760Y166010D01*
X514783Y165988D01*
X514828Y165932D01*
X515685Y165075D01*
X517065Y161743D01*
X517065Y143057D01*
X515685Y139725D01*
X513135Y137175D01*
X509803Y135795D01*
X506197Y135795D01*
G37*
%LPD*%
%LPC*%
G36*
X912597Y135795D02*
X912597Y135795D01*
X909265Y137175D01*
X906715Y139725D01*
X905335Y143057D01*
X905335Y161743D01*
X906715Y165075D01*
X907572Y165932D01*
X907625Y166006D01*
X907685Y166075D01*
X907697Y166105D01*
X907716Y166132D01*
X907743Y166218D01*
X907777Y166303D01*
X907781Y166344D01*
X907788Y166367D01*
X907787Y166399D01*
X907795Y166470D01*
X907795Y227037D01*
X907781Y227127D01*
X907773Y227218D01*
X907761Y227248D01*
X907756Y227280D01*
X907713Y227360D01*
X907677Y227444D01*
X907651Y227476D01*
X907640Y227497D01*
X907617Y227519D01*
X907572Y227575D01*
X906647Y228500D01*
X905255Y231861D01*
X905255Y250739D01*
X906647Y254100D01*
X909220Y256673D01*
X912581Y258065D01*
X916219Y258065D01*
X919580Y256673D01*
X922153Y254100D01*
X923545Y250739D01*
X923545Y231861D01*
X922153Y228500D01*
X921228Y227575D01*
X921175Y227501D01*
X921115Y227432D01*
X921103Y227402D01*
X921084Y227375D01*
X921057Y227288D01*
X921023Y227204D01*
X921019Y227163D01*
X921012Y227140D01*
X921013Y227108D01*
X921005Y227037D01*
X921005Y166470D01*
X921019Y166380D01*
X921027Y166289D01*
X921039Y166259D01*
X921044Y166227D01*
X921087Y166147D01*
X921123Y166063D01*
X921149Y166031D01*
X921160Y166010D01*
X921183Y165988D01*
X921228Y165932D01*
X922085Y165075D01*
X923465Y161743D01*
X923465Y143057D01*
X922085Y139725D01*
X919535Y137175D01*
X916203Y135795D01*
X912597Y135795D01*
G37*
%LPD*%
%LPC*%
G36*
X709397Y135795D02*
X709397Y135795D01*
X706065Y137175D01*
X703515Y139725D01*
X702135Y143057D01*
X702135Y161743D01*
X703515Y165075D01*
X704372Y165932D01*
X704425Y166006D01*
X704485Y166075D01*
X704497Y166105D01*
X704516Y166131D01*
X704543Y166219D01*
X704577Y166303D01*
X704581Y166344D01*
X704588Y166367D01*
X704587Y166399D01*
X704595Y166470D01*
X704595Y227037D01*
X704581Y227127D01*
X704573Y227218D01*
X704561Y227248D01*
X704556Y227280D01*
X704513Y227360D01*
X704477Y227444D01*
X704451Y227476D01*
X704440Y227497D01*
X704417Y227519D01*
X704372Y227575D01*
X703447Y228500D01*
X702055Y231861D01*
X702055Y250739D01*
X703447Y254100D01*
X706020Y256673D01*
X709381Y258065D01*
X713019Y258065D01*
X716380Y256673D01*
X718953Y254100D01*
X720345Y250739D01*
X720345Y231861D01*
X718953Y228500D01*
X718028Y227575D01*
X717975Y227501D01*
X717915Y227432D01*
X717903Y227402D01*
X717884Y227375D01*
X717857Y227288D01*
X717823Y227204D01*
X717819Y227163D01*
X717812Y227140D01*
X717813Y227108D01*
X717805Y227037D01*
X717805Y166470D01*
X717819Y166380D01*
X717827Y166289D01*
X717839Y166259D01*
X717844Y166227D01*
X717887Y166147D01*
X717923Y166063D01*
X717949Y166031D01*
X717960Y166010D01*
X717983Y165988D01*
X718028Y165932D01*
X718885Y165075D01*
X720265Y161743D01*
X720265Y143057D01*
X718885Y139725D01*
X716335Y137175D01*
X713003Y135795D01*
X709397Y135795D01*
G37*
%LPD*%
%LPC*%
G36*
X1128497Y135795D02*
X1128497Y135795D01*
X1125165Y137175D01*
X1122615Y139725D01*
X1121235Y143057D01*
X1121235Y161743D01*
X1122615Y165075D01*
X1123472Y165932D01*
X1123525Y166006D01*
X1123585Y166075D01*
X1123597Y166105D01*
X1123616Y166131D01*
X1123643Y166219D01*
X1123677Y166303D01*
X1123681Y166344D01*
X1123688Y166367D01*
X1123687Y166399D01*
X1123695Y166470D01*
X1123695Y227037D01*
X1123681Y227127D01*
X1123673Y227218D01*
X1123661Y227248D01*
X1123656Y227280D01*
X1123613Y227360D01*
X1123577Y227444D01*
X1123551Y227476D01*
X1123540Y227497D01*
X1123517Y227519D01*
X1123472Y227575D01*
X1122547Y228500D01*
X1121155Y231861D01*
X1121155Y250739D01*
X1122547Y254100D01*
X1125120Y256673D01*
X1128481Y258065D01*
X1132119Y258065D01*
X1135480Y256673D01*
X1138053Y254100D01*
X1139445Y250739D01*
X1139445Y231861D01*
X1138053Y228500D01*
X1137128Y227575D01*
X1137075Y227501D01*
X1137015Y227432D01*
X1137003Y227402D01*
X1136984Y227375D01*
X1136957Y227288D01*
X1136923Y227204D01*
X1136919Y227163D01*
X1136912Y227140D01*
X1136913Y227108D01*
X1136905Y227037D01*
X1136905Y166470D01*
X1136919Y166380D01*
X1136927Y166289D01*
X1136939Y166259D01*
X1136944Y166227D01*
X1136987Y166147D01*
X1137023Y166063D01*
X1137049Y166031D01*
X1137060Y166010D01*
X1137083Y165988D01*
X1137128Y165932D01*
X1137985Y165075D01*
X1139365Y161743D01*
X1139365Y143057D01*
X1137985Y139725D01*
X1135435Y137175D01*
X1132103Y135795D01*
X1128497Y135795D01*
G37*
%LPD*%
%LPC*%
G36*
X1214841Y313435D02*
X1214841Y313435D01*
X1211480Y314827D01*
X1208907Y317400D01*
X1207515Y320761D01*
X1207515Y339639D01*
X1208907Y343000D01*
X1209832Y343925D01*
X1209885Y343999D01*
X1209945Y344068D01*
X1209957Y344098D01*
X1209976Y344125D01*
X1210003Y344212D01*
X1210037Y344296D01*
X1210041Y344337D01*
X1210048Y344360D01*
X1210047Y344392D01*
X1210055Y344463D01*
X1210055Y355089D01*
X1210041Y355179D01*
X1210033Y355270D01*
X1210021Y355300D01*
X1210016Y355332D01*
X1209973Y355412D01*
X1209937Y355496D01*
X1209911Y355528D01*
X1209900Y355549D01*
X1209877Y355571D01*
X1209832Y355627D01*
X1199787Y365672D01*
X1199713Y365725D01*
X1199644Y365785D01*
X1199614Y365797D01*
X1199587Y365816D01*
X1199501Y365843D01*
X1199416Y365877D01*
X1199375Y365881D01*
X1199352Y365888D01*
X1199320Y365887D01*
X1199249Y365895D01*
X1162067Y365895D01*
X1161977Y365881D01*
X1161886Y365873D01*
X1161856Y365861D01*
X1161824Y365856D01*
X1161743Y365813D01*
X1161660Y365777D01*
X1161627Y365751D01*
X1161607Y365740D01*
X1161585Y365717D01*
X1161529Y365672D01*
X1161332Y365475D01*
X1150068Y365475D01*
X1149175Y366368D01*
X1149175Y370842D01*
X1149165Y370906D01*
X1149164Y370972D01*
X1149141Y371052D01*
X1149136Y371084D01*
X1149126Y371102D01*
X1149117Y371133D01*
X1149095Y371186D01*
X1149095Y373814D01*
X1149117Y373867D01*
X1149132Y373931D01*
X1149157Y373992D01*
X1149166Y374074D01*
X1149173Y374106D01*
X1149172Y374126D01*
X1149175Y374158D01*
X1149175Y378632D01*
X1150068Y379525D01*
X1161332Y379525D01*
X1161529Y379328D01*
X1161603Y379275D01*
X1161672Y379215D01*
X1161702Y379203D01*
X1161728Y379184D01*
X1161815Y379157D01*
X1161900Y379123D01*
X1161941Y379119D01*
X1161963Y379112D01*
X1161996Y379113D01*
X1162067Y379105D01*
X1203614Y379105D01*
X1206041Y378099D01*
X1208006Y376134D01*
X1220294Y363846D01*
X1222259Y361881D01*
X1223265Y359454D01*
X1223265Y344463D01*
X1223279Y344373D01*
X1223287Y344282D01*
X1223299Y344252D01*
X1223304Y344220D01*
X1223347Y344140D01*
X1223383Y344056D01*
X1223409Y344024D01*
X1223420Y344003D01*
X1223443Y343981D01*
X1223488Y343925D01*
X1224413Y343000D01*
X1225805Y339639D01*
X1225805Y320761D01*
X1224413Y317400D01*
X1221840Y314827D01*
X1218479Y313435D01*
X1214841Y313435D01*
G37*
%LPD*%
%LPC*%
G36*
X389341Y313435D02*
X389341Y313435D01*
X385980Y314827D01*
X383407Y317400D01*
X382015Y320761D01*
X382015Y339639D01*
X383407Y343000D01*
X384332Y343925D01*
X384385Y343999D01*
X384445Y344068D01*
X384457Y344098D01*
X384476Y344125D01*
X384503Y344212D01*
X384537Y344296D01*
X384541Y344337D01*
X384548Y344360D01*
X384547Y344392D01*
X384555Y344463D01*
X384555Y355089D01*
X384541Y355179D01*
X384533Y355270D01*
X384521Y355300D01*
X384516Y355332D01*
X384473Y355412D01*
X384437Y355496D01*
X384411Y355528D01*
X384400Y355549D01*
X384377Y355571D01*
X384332Y355627D01*
X378487Y361472D01*
X378413Y361525D01*
X378344Y361585D01*
X378314Y361597D01*
X378287Y361616D01*
X378200Y361643D01*
X378116Y361677D01*
X378075Y361681D01*
X378052Y361688D01*
X378020Y361687D01*
X377949Y361695D01*
X345786Y361695D01*
X343359Y362701D01*
X340807Y365252D01*
X340733Y365305D01*
X340664Y365365D01*
X340634Y365377D01*
X340607Y365396D01*
X340520Y365423D01*
X340436Y365457D01*
X340395Y365461D01*
X340372Y365468D01*
X340340Y365467D01*
X340269Y365475D01*
X337268Y365475D01*
X336375Y366368D01*
X336375Y370842D01*
X336365Y370906D01*
X336364Y370972D01*
X336341Y371052D01*
X336336Y371084D01*
X336326Y371102D01*
X336317Y371133D01*
X336295Y371186D01*
X336295Y373814D01*
X336317Y373867D01*
X336332Y373931D01*
X336357Y373992D01*
X336366Y374075D01*
X336373Y374107D01*
X336372Y374126D01*
X336375Y374158D01*
X336375Y378632D01*
X337268Y379525D01*
X348532Y379525D01*
X349425Y378632D01*
X349425Y375666D01*
X349428Y375646D01*
X349426Y375627D01*
X349448Y375525D01*
X349464Y375423D01*
X349474Y375406D01*
X349478Y375386D01*
X349531Y375297D01*
X349580Y375206D01*
X349594Y375192D01*
X349604Y375175D01*
X349683Y375108D01*
X349758Y375036D01*
X349776Y375028D01*
X349791Y375015D01*
X349887Y374976D01*
X349981Y374933D01*
X350001Y374931D01*
X350019Y374923D01*
X350186Y374905D01*
X382314Y374905D01*
X384741Y373899D01*
X396759Y361881D01*
X397765Y359454D01*
X397765Y344463D01*
X397779Y344373D01*
X397787Y344282D01*
X397799Y344252D01*
X397804Y344220D01*
X397847Y344140D01*
X397883Y344056D01*
X397909Y344024D01*
X397920Y344003D01*
X397943Y343981D01*
X397988Y343925D01*
X398913Y343000D01*
X400305Y339639D01*
X400305Y320761D01*
X398913Y317400D01*
X396340Y314827D01*
X392979Y313435D01*
X389341Y313435D01*
G37*
%LPD*%
%LPC*%
G36*
X795741Y313435D02*
X795741Y313435D01*
X792380Y314827D01*
X789807Y317400D01*
X788415Y320761D01*
X788415Y339639D01*
X789807Y343000D01*
X790732Y343925D01*
X790785Y343999D01*
X790845Y344068D01*
X790857Y344098D01*
X790876Y344125D01*
X790903Y344212D01*
X790937Y344296D01*
X790941Y344337D01*
X790948Y344360D01*
X790947Y344392D01*
X790955Y344463D01*
X790955Y355089D01*
X790941Y355179D01*
X790933Y355270D01*
X790921Y355300D01*
X790916Y355332D01*
X790873Y355412D01*
X790837Y355496D01*
X790811Y355528D01*
X790800Y355549D01*
X790777Y355571D01*
X790732Y355627D01*
X780687Y365672D01*
X780613Y365725D01*
X780544Y365785D01*
X780514Y365797D01*
X780487Y365816D01*
X780400Y365843D01*
X780316Y365877D01*
X780275Y365881D01*
X780252Y365888D01*
X780220Y365887D01*
X780149Y365895D01*
X755667Y365895D01*
X755577Y365881D01*
X755486Y365873D01*
X755456Y365861D01*
X755424Y365856D01*
X755343Y365813D01*
X755260Y365777D01*
X755227Y365751D01*
X755207Y365740D01*
X755185Y365717D01*
X755129Y365672D01*
X754932Y365475D01*
X743668Y365475D01*
X742775Y366368D01*
X742775Y370842D01*
X742765Y370906D01*
X742764Y370972D01*
X742741Y371052D01*
X742736Y371084D01*
X742726Y371102D01*
X742717Y371133D01*
X742695Y371186D01*
X742695Y373814D01*
X742717Y373867D01*
X742732Y373931D01*
X742757Y373992D01*
X742766Y374074D01*
X742773Y374106D01*
X742772Y374126D01*
X742775Y374158D01*
X742775Y378632D01*
X743668Y379525D01*
X754932Y379525D01*
X755129Y379328D01*
X755203Y379275D01*
X755272Y379215D01*
X755302Y379203D01*
X755328Y379184D01*
X755415Y379157D01*
X755500Y379123D01*
X755541Y379119D01*
X755563Y379112D01*
X755596Y379113D01*
X755667Y379105D01*
X784514Y379105D01*
X786941Y378099D01*
X803159Y361881D01*
X804165Y359454D01*
X804165Y344463D01*
X804179Y344373D01*
X804187Y344282D01*
X804199Y344252D01*
X804204Y344220D01*
X804247Y344140D01*
X804283Y344056D01*
X804309Y344024D01*
X804320Y344003D01*
X804343Y343981D01*
X804388Y343925D01*
X805313Y343000D01*
X806705Y339639D01*
X806705Y320761D01*
X805313Y317400D01*
X802740Y314827D01*
X799379Y313435D01*
X795741Y313435D01*
G37*
%LPD*%
%LPC*%
G36*
X998941Y313435D02*
X998941Y313435D01*
X995580Y314827D01*
X993007Y317400D01*
X991615Y320761D01*
X991615Y339639D01*
X993007Y343000D01*
X993932Y343925D01*
X993985Y343999D01*
X994045Y344068D01*
X994057Y344098D01*
X994076Y344125D01*
X994103Y344212D01*
X994137Y344296D01*
X994141Y344337D01*
X994148Y344360D01*
X994147Y344392D01*
X994155Y344463D01*
X994155Y355089D01*
X994141Y355179D01*
X994133Y355270D01*
X994121Y355300D01*
X994116Y355332D01*
X994073Y355412D01*
X994037Y355496D01*
X994011Y355528D01*
X994000Y355549D01*
X993977Y355571D01*
X993932Y355627D01*
X983887Y365672D01*
X983813Y365725D01*
X983744Y365785D01*
X983714Y365797D01*
X983687Y365816D01*
X983600Y365843D01*
X983516Y365877D01*
X983475Y365881D01*
X983452Y365888D01*
X983420Y365887D01*
X983349Y365895D01*
X958867Y365895D01*
X958777Y365881D01*
X958686Y365873D01*
X958656Y365861D01*
X958624Y365856D01*
X958543Y365813D01*
X958460Y365777D01*
X958427Y365751D01*
X958407Y365740D01*
X958385Y365717D01*
X958329Y365672D01*
X958132Y365475D01*
X946868Y365475D01*
X945975Y366368D01*
X945975Y370842D01*
X945965Y370906D01*
X945964Y370972D01*
X945941Y371052D01*
X945936Y371084D01*
X945926Y371102D01*
X945917Y371133D01*
X945895Y371186D01*
X945895Y373814D01*
X945917Y373867D01*
X945932Y373931D01*
X945957Y373992D01*
X945966Y374074D01*
X945973Y374106D01*
X945972Y374126D01*
X945975Y374158D01*
X945975Y378632D01*
X946868Y379525D01*
X958132Y379525D01*
X958329Y379328D01*
X958403Y379275D01*
X958472Y379215D01*
X958502Y379203D01*
X958528Y379184D01*
X958615Y379157D01*
X958700Y379123D01*
X958741Y379119D01*
X958763Y379112D01*
X958796Y379113D01*
X958867Y379105D01*
X987714Y379105D01*
X990141Y378099D01*
X1006359Y361881D01*
X1007365Y359454D01*
X1007365Y344463D01*
X1007379Y344373D01*
X1007387Y344282D01*
X1007399Y344252D01*
X1007404Y344220D01*
X1007447Y344140D01*
X1007483Y344056D01*
X1007509Y344024D01*
X1007520Y344003D01*
X1007543Y343981D01*
X1007588Y343925D01*
X1008513Y343000D01*
X1009905Y339639D01*
X1009905Y320761D01*
X1008513Y317400D01*
X1005940Y314827D01*
X1002579Y313435D01*
X998941Y313435D01*
G37*
%LPD*%
%LPC*%
G36*
X592541Y313435D02*
X592541Y313435D01*
X589180Y314827D01*
X586607Y317400D01*
X585215Y320761D01*
X585215Y339639D01*
X586607Y343000D01*
X587532Y343925D01*
X587585Y343999D01*
X587645Y344068D01*
X587657Y344098D01*
X587676Y344125D01*
X587703Y344212D01*
X587737Y344296D01*
X587741Y344337D01*
X587748Y344360D01*
X587747Y344392D01*
X587755Y344463D01*
X587755Y355089D01*
X587741Y355179D01*
X587733Y355270D01*
X587721Y355300D01*
X587716Y355332D01*
X587673Y355412D01*
X587637Y355496D01*
X587611Y355528D01*
X587600Y355549D01*
X587577Y355571D01*
X587532Y355627D01*
X577487Y365672D01*
X577413Y365725D01*
X577344Y365785D01*
X577314Y365797D01*
X577287Y365816D01*
X577200Y365843D01*
X577116Y365877D01*
X577075Y365881D01*
X577052Y365888D01*
X577020Y365887D01*
X576949Y365895D01*
X552467Y365895D01*
X552377Y365881D01*
X552286Y365873D01*
X552256Y365861D01*
X552224Y365856D01*
X552143Y365813D01*
X552060Y365777D01*
X552027Y365751D01*
X552007Y365740D01*
X551985Y365717D01*
X551929Y365672D01*
X551732Y365475D01*
X540468Y365475D01*
X539575Y366368D01*
X539575Y370842D01*
X539565Y370906D01*
X539564Y370972D01*
X539541Y371052D01*
X539536Y371084D01*
X539526Y371102D01*
X539517Y371133D01*
X539495Y371186D01*
X539495Y373814D01*
X539517Y373867D01*
X539532Y373931D01*
X539557Y373992D01*
X539566Y374074D01*
X539573Y374106D01*
X539572Y374126D01*
X539575Y374158D01*
X539575Y378632D01*
X540468Y379525D01*
X551732Y379525D01*
X551929Y379328D01*
X552003Y379275D01*
X552072Y379215D01*
X552102Y379203D01*
X552128Y379184D01*
X552215Y379157D01*
X552300Y379123D01*
X552341Y379119D01*
X552363Y379112D01*
X552396Y379113D01*
X552467Y379105D01*
X581314Y379105D01*
X583741Y378099D01*
X599959Y361881D01*
X600965Y359454D01*
X600965Y344463D01*
X600979Y344373D01*
X600987Y344282D01*
X600999Y344252D01*
X601004Y344220D01*
X601047Y344140D01*
X601083Y344056D01*
X601109Y344024D01*
X601120Y344003D01*
X601143Y343981D01*
X601188Y343925D01*
X602113Y343000D01*
X603505Y339639D01*
X603505Y320761D01*
X602113Y317400D01*
X599540Y314827D01*
X596179Y313435D01*
X592541Y313435D01*
G37*
%LPD*%
%LPC*%
G36*
X311868Y382475D02*
X311868Y382475D01*
X310975Y383368D01*
X310975Y387842D01*
X310965Y387906D01*
X310964Y387972D01*
X310941Y388052D01*
X310936Y388084D01*
X310926Y388102D01*
X310917Y388133D01*
X310895Y388186D01*
X310895Y430237D01*
X310881Y430327D01*
X310873Y430418D01*
X310861Y430448D01*
X310856Y430480D01*
X310813Y430560D01*
X310777Y430644D01*
X310751Y430676D01*
X310740Y430697D01*
X310717Y430719D01*
X310672Y430775D01*
X309747Y431700D01*
X308355Y435061D01*
X308355Y453939D01*
X309747Y457300D01*
X312320Y459873D01*
X315681Y461265D01*
X319319Y461265D01*
X322680Y459873D01*
X325253Y457300D01*
X326645Y453939D01*
X326645Y435061D01*
X325253Y431700D01*
X324328Y430775D01*
X324275Y430701D01*
X324215Y430632D01*
X324203Y430602D01*
X324184Y430575D01*
X324157Y430488D01*
X324123Y430404D01*
X324119Y430363D01*
X324112Y430340D01*
X324113Y430308D01*
X324105Y430237D01*
X324105Y388186D01*
X324083Y388133D01*
X324068Y388069D01*
X324043Y388008D01*
X324034Y387926D01*
X324027Y387894D01*
X324028Y387874D01*
X324025Y387842D01*
X324025Y383368D01*
X323132Y382475D01*
X311868Y382475D01*
G37*
%LPD*%
%LPC*%
G36*
X337268Y382475D02*
X337268Y382475D01*
X336375Y383368D01*
X336375Y387842D01*
X336365Y387906D01*
X336364Y387972D01*
X336341Y388052D01*
X336336Y388084D01*
X336326Y388102D01*
X336317Y388133D01*
X336295Y388186D01*
X336295Y430237D01*
X336281Y430327D01*
X336273Y430418D01*
X336261Y430448D01*
X336256Y430480D01*
X336213Y430560D01*
X336177Y430644D01*
X336151Y430676D01*
X336140Y430697D01*
X336117Y430719D01*
X336072Y430775D01*
X335147Y431700D01*
X333755Y435061D01*
X333755Y453939D01*
X335147Y457300D01*
X337720Y459873D01*
X341081Y461265D01*
X344719Y461265D01*
X348080Y459873D01*
X350653Y457300D01*
X352045Y453939D01*
X352045Y435061D01*
X350653Y431700D01*
X349728Y430775D01*
X349675Y430701D01*
X349615Y430632D01*
X349603Y430602D01*
X349584Y430575D01*
X349557Y430488D01*
X349523Y430404D01*
X349519Y430363D01*
X349512Y430340D01*
X349513Y430308D01*
X349505Y430237D01*
X349505Y388186D01*
X349483Y388133D01*
X349468Y388069D01*
X349443Y388008D01*
X349434Y387926D01*
X349427Y387894D01*
X349428Y387874D01*
X349425Y387842D01*
X349425Y383368D01*
X348532Y382475D01*
X337268Y382475D01*
G37*
%LPD*%
%LPC*%
G36*
X540468Y382475D02*
X540468Y382475D01*
X539575Y383368D01*
X539575Y387842D01*
X539565Y387906D01*
X539564Y387972D01*
X539541Y388052D01*
X539536Y388084D01*
X539526Y388102D01*
X539517Y388133D01*
X539495Y388186D01*
X539495Y430237D01*
X539481Y430327D01*
X539473Y430418D01*
X539461Y430448D01*
X539456Y430480D01*
X539413Y430560D01*
X539377Y430644D01*
X539351Y430676D01*
X539340Y430697D01*
X539317Y430719D01*
X539272Y430775D01*
X538347Y431700D01*
X536955Y435061D01*
X536955Y453939D01*
X538347Y457300D01*
X540920Y459873D01*
X544281Y461265D01*
X547919Y461265D01*
X551280Y459873D01*
X553853Y457300D01*
X555245Y453939D01*
X555245Y435061D01*
X553853Y431700D01*
X552928Y430775D01*
X552875Y430701D01*
X552815Y430632D01*
X552803Y430602D01*
X552784Y430575D01*
X552757Y430488D01*
X552723Y430404D01*
X552719Y430363D01*
X552712Y430340D01*
X552713Y430308D01*
X552705Y430237D01*
X552705Y388186D01*
X552683Y388133D01*
X552668Y388069D01*
X552643Y388008D01*
X552634Y387926D01*
X552627Y387894D01*
X552628Y387874D01*
X552625Y387842D01*
X552625Y383368D01*
X551732Y382475D01*
X540468Y382475D01*
G37*
%LPD*%
%LPC*%
G36*
X946868Y382475D02*
X946868Y382475D01*
X945975Y383368D01*
X945975Y387842D01*
X945965Y387906D01*
X945964Y387972D01*
X945941Y388052D01*
X945936Y388084D01*
X945926Y388102D01*
X945917Y388133D01*
X945895Y388186D01*
X945895Y430237D01*
X945881Y430327D01*
X945873Y430418D01*
X945861Y430448D01*
X945856Y430480D01*
X945813Y430560D01*
X945777Y430644D01*
X945751Y430676D01*
X945740Y430697D01*
X945717Y430719D01*
X945672Y430775D01*
X944747Y431700D01*
X943355Y435061D01*
X943355Y453939D01*
X944747Y457300D01*
X947320Y459873D01*
X950681Y461265D01*
X954319Y461265D01*
X957680Y459873D01*
X960253Y457300D01*
X961645Y453939D01*
X961645Y435061D01*
X960253Y431700D01*
X959328Y430775D01*
X959275Y430701D01*
X959215Y430632D01*
X959203Y430602D01*
X959184Y430575D01*
X959157Y430488D01*
X959123Y430404D01*
X959119Y430363D01*
X959112Y430340D01*
X959113Y430308D01*
X959105Y430237D01*
X959105Y388186D01*
X959083Y388133D01*
X959068Y388069D01*
X959043Y388008D01*
X959034Y387926D01*
X959027Y387894D01*
X959028Y387874D01*
X959025Y387842D01*
X959025Y383368D01*
X958132Y382475D01*
X946868Y382475D01*
G37*
%LPD*%
%LPC*%
G36*
X896068Y382475D02*
X896068Y382475D01*
X895175Y383368D01*
X895175Y387842D01*
X895165Y387906D01*
X895164Y387972D01*
X895141Y388052D01*
X895136Y388084D01*
X895126Y388102D01*
X895117Y388133D01*
X895095Y388186D01*
X895095Y430237D01*
X895081Y430327D01*
X895073Y430418D01*
X895061Y430448D01*
X895056Y430480D01*
X895013Y430560D01*
X894977Y430644D01*
X894951Y430676D01*
X894940Y430697D01*
X894917Y430719D01*
X894872Y430775D01*
X893947Y431700D01*
X892555Y435061D01*
X892555Y453939D01*
X893947Y457300D01*
X896520Y459873D01*
X899881Y461265D01*
X903519Y461265D01*
X906880Y459873D01*
X909453Y457300D01*
X910845Y453939D01*
X910845Y435061D01*
X909453Y431700D01*
X908528Y430775D01*
X908475Y430701D01*
X908415Y430632D01*
X908403Y430602D01*
X908384Y430575D01*
X908357Y430488D01*
X908323Y430404D01*
X908319Y430363D01*
X908312Y430340D01*
X908313Y430308D01*
X908305Y430237D01*
X908305Y388186D01*
X908283Y388133D01*
X908268Y388069D01*
X908243Y388008D01*
X908234Y387926D01*
X908227Y387894D01*
X908228Y387874D01*
X908225Y387842D01*
X908225Y383368D01*
X907332Y382475D01*
X896068Y382475D01*
G37*
%LPD*%
%LPC*%
G36*
X921468Y382475D02*
X921468Y382475D01*
X920575Y383368D01*
X920575Y387842D01*
X920565Y387906D01*
X920564Y387972D01*
X920541Y388052D01*
X920536Y388084D01*
X920526Y388102D01*
X920517Y388133D01*
X920495Y388186D01*
X920495Y430237D01*
X920481Y430327D01*
X920473Y430418D01*
X920461Y430448D01*
X920456Y430480D01*
X920413Y430560D01*
X920377Y430644D01*
X920351Y430676D01*
X920340Y430697D01*
X920317Y430719D01*
X920272Y430775D01*
X919347Y431700D01*
X917955Y435061D01*
X917955Y453939D01*
X919347Y457300D01*
X921920Y459873D01*
X925281Y461265D01*
X928919Y461265D01*
X932280Y459873D01*
X934853Y457300D01*
X936245Y453939D01*
X936245Y435061D01*
X934853Y431700D01*
X933928Y430775D01*
X933875Y430701D01*
X933815Y430632D01*
X933803Y430602D01*
X933784Y430575D01*
X933757Y430488D01*
X933723Y430404D01*
X933719Y430363D01*
X933712Y430340D01*
X933713Y430308D01*
X933705Y430237D01*
X933705Y388186D01*
X933683Y388133D01*
X933668Y388069D01*
X933643Y388008D01*
X933634Y387926D01*
X933627Y387894D01*
X933628Y387874D01*
X933625Y387842D01*
X933625Y383368D01*
X932732Y382475D01*
X921468Y382475D01*
G37*
%LPD*%
%LPC*%
G36*
X515068Y382475D02*
X515068Y382475D01*
X514175Y383368D01*
X514175Y387842D01*
X514165Y387906D01*
X514164Y387972D01*
X514141Y388052D01*
X514136Y388084D01*
X514126Y388102D01*
X514117Y388133D01*
X514095Y388186D01*
X514095Y430237D01*
X514081Y430327D01*
X514073Y430418D01*
X514061Y430448D01*
X514056Y430480D01*
X514013Y430560D01*
X513977Y430644D01*
X513951Y430676D01*
X513940Y430697D01*
X513917Y430719D01*
X513872Y430775D01*
X512947Y431700D01*
X511555Y435061D01*
X511555Y453939D01*
X512947Y457300D01*
X515520Y459873D01*
X518881Y461265D01*
X522519Y461265D01*
X525880Y459873D01*
X528453Y457300D01*
X529845Y453939D01*
X529845Y435061D01*
X528453Y431700D01*
X527528Y430775D01*
X527475Y430701D01*
X527415Y430632D01*
X527403Y430602D01*
X527384Y430575D01*
X527357Y430488D01*
X527323Y430404D01*
X527319Y430363D01*
X527312Y430340D01*
X527313Y430308D01*
X527305Y430237D01*
X527305Y388186D01*
X527283Y388133D01*
X527268Y388069D01*
X527243Y388008D01*
X527234Y387926D01*
X527227Y387894D01*
X527228Y387874D01*
X527225Y387842D01*
X527225Y383368D01*
X526332Y382475D01*
X515068Y382475D01*
G37*
%LPD*%
%LPC*%
G36*
X286468Y382475D02*
X286468Y382475D01*
X285575Y383368D01*
X285575Y387842D01*
X285565Y387906D01*
X285564Y387972D01*
X285541Y388052D01*
X285536Y388084D01*
X285526Y388102D01*
X285517Y388133D01*
X285495Y388186D01*
X285495Y430237D01*
X285481Y430327D01*
X285473Y430418D01*
X285461Y430448D01*
X285456Y430480D01*
X285413Y430560D01*
X285377Y430644D01*
X285351Y430676D01*
X285340Y430697D01*
X285317Y430719D01*
X285272Y430775D01*
X284347Y431700D01*
X282955Y435061D01*
X282955Y453939D01*
X284347Y457300D01*
X286920Y459873D01*
X290281Y461265D01*
X293919Y461265D01*
X297280Y459873D01*
X299853Y457300D01*
X301245Y453939D01*
X301245Y435061D01*
X299853Y431700D01*
X298928Y430775D01*
X298875Y430701D01*
X298815Y430632D01*
X298803Y430602D01*
X298784Y430575D01*
X298757Y430488D01*
X298723Y430404D01*
X298719Y430363D01*
X298712Y430340D01*
X298713Y430308D01*
X298705Y430237D01*
X298705Y388186D01*
X298683Y388133D01*
X298668Y388069D01*
X298643Y388008D01*
X298634Y387926D01*
X298627Y387894D01*
X298628Y387874D01*
X298625Y387842D01*
X298625Y383368D01*
X297732Y382475D01*
X286468Y382475D01*
G37*
%LPD*%
%LPC*%
G36*
X692868Y382475D02*
X692868Y382475D01*
X691975Y383368D01*
X691975Y387842D01*
X691965Y387906D01*
X691964Y387972D01*
X691941Y388052D01*
X691936Y388084D01*
X691926Y388102D01*
X691917Y388133D01*
X691895Y388186D01*
X691895Y430237D01*
X691881Y430327D01*
X691873Y430418D01*
X691861Y430448D01*
X691856Y430480D01*
X691813Y430560D01*
X691777Y430644D01*
X691751Y430676D01*
X691740Y430697D01*
X691717Y430719D01*
X691672Y430775D01*
X690747Y431700D01*
X689355Y435061D01*
X689355Y453939D01*
X690747Y457300D01*
X693320Y459873D01*
X696681Y461265D01*
X700319Y461265D01*
X703680Y459873D01*
X706253Y457300D01*
X707645Y453939D01*
X707645Y435061D01*
X706253Y431700D01*
X705328Y430775D01*
X705275Y430701D01*
X705215Y430632D01*
X705203Y430602D01*
X705184Y430575D01*
X705157Y430488D01*
X705123Y430404D01*
X705119Y430363D01*
X705112Y430340D01*
X705113Y430308D01*
X705105Y430237D01*
X705105Y388186D01*
X705083Y388133D01*
X705068Y388069D01*
X705043Y388008D01*
X705034Y387926D01*
X705027Y387894D01*
X705028Y387874D01*
X705025Y387842D01*
X705025Y383368D01*
X704132Y382475D01*
X692868Y382475D01*
G37*
%LPD*%
%LPC*%
G36*
X718268Y382475D02*
X718268Y382475D01*
X717375Y383368D01*
X717375Y387842D01*
X717365Y387906D01*
X717364Y387972D01*
X717341Y388052D01*
X717336Y388084D01*
X717326Y388102D01*
X717317Y388133D01*
X717295Y388186D01*
X717295Y430237D01*
X717281Y430327D01*
X717273Y430418D01*
X717261Y430448D01*
X717256Y430480D01*
X717213Y430560D01*
X717177Y430644D01*
X717151Y430676D01*
X717140Y430697D01*
X717117Y430719D01*
X717072Y430775D01*
X716147Y431700D01*
X714755Y435061D01*
X714755Y453939D01*
X716147Y457300D01*
X718720Y459873D01*
X722081Y461265D01*
X725719Y461265D01*
X729080Y459873D01*
X731653Y457300D01*
X733045Y453939D01*
X733045Y435061D01*
X731653Y431700D01*
X730728Y430775D01*
X730675Y430701D01*
X730615Y430632D01*
X730603Y430602D01*
X730584Y430575D01*
X730557Y430488D01*
X730523Y430404D01*
X730519Y430363D01*
X730512Y430340D01*
X730513Y430308D01*
X730505Y430237D01*
X730505Y388186D01*
X730483Y388133D01*
X730468Y388069D01*
X730443Y388008D01*
X730434Y387926D01*
X730427Y387894D01*
X730428Y387874D01*
X730425Y387842D01*
X730425Y383368D01*
X729532Y382475D01*
X718268Y382475D01*
G37*
%LPD*%
%LPC*%
G36*
X743668Y382475D02*
X743668Y382475D01*
X742775Y383368D01*
X742775Y387842D01*
X742765Y387906D01*
X742764Y387972D01*
X742741Y388052D01*
X742736Y388084D01*
X742726Y388102D01*
X742717Y388133D01*
X742695Y388186D01*
X742695Y430237D01*
X742681Y430327D01*
X742673Y430418D01*
X742661Y430448D01*
X742656Y430480D01*
X742613Y430560D01*
X742577Y430644D01*
X742551Y430676D01*
X742540Y430697D01*
X742517Y430719D01*
X742472Y430775D01*
X741547Y431700D01*
X740155Y435061D01*
X740155Y453939D01*
X741547Y457300D01*
X744120Y459873D01*
X747481Y461265D01*
X751119Y461265D01*
X754480Y459873D01*
X757053Y457300D01*
X758445Y453939D01*
X758445Y435061D01*
X757053Y431700D01*
X756128Y430775D01*
X756075Y430701D01*
X756015Y430632D01*
X756003Y430602D01*
X755984Y430575D01*
X755957Y430488D01*
X755923Y430404D01*
X755919Y430363D01*
X755912Y430340D01*
X755913Y430308D01*
X755905Y430237D01*
X755905Y388186D01*
X755883Y388133D01*
X755868Y388069D01*
X755843Y388008D01*
X755834Y387926D01*
X755827Y387894D01*
X755828Y387874D01*
X755825Y387842D01*
X755825Y383368D01*
X754932Y382475D01*
X743668Y382475D01*
G37*
%LPD*%
%LPC*%
G36*
X1099268Y382475D02*
X1099268Y382475D01*
X1098375Y383368D01*
X1098375Y387842D01*
X1098365Y387906D01*
X1098364Y387972D01*
X1098341Y388052D01*
X1098336Y388084D01*
X1098326Y388102D01*
X1098317Y388133D01*
X1098295Y388186D01*
X1098295Y430237D01*
X1098281Y430327D01*
X1098273Y430418D01*
X1098261Y430448D01*
X1098256Y430480D01*
X1098213Y430560D01*
X1098177Y430644D01*
X1098151Y430676D01*
X1098140Y430697D01*
X1098117Y430719D01*
X1098072Y430775D01*
X1097147Y431700D01*
X1095755Y435061D01*
X1095755Y453939D01*
X1097147Y457300D01*
X1099720Y459873D01*
X1103081Y461265D01*
X1106719Y461265D01*
X1110080Y459873D01*
X1112653Y457300D01*
X1114045Y453939D01*
X1114045Y435061D01*
X1112653Y431700D01*
X1111728Y430775D01*
X1111675Y430701D01*
X1111615Y430632D01*
X1111603Y430602D01*
X1111584Y430575D01*
X1111557Y430488D01*
X1111523Y430404D01*
X1111519Y430363D01*
X1111512Y430340D01*
X1111513Y430308D01*
X1111505Y430237D01*
X1111505Y388186D01*
X1111483Y388133D01*
X1111468Y388069D01*
X1111443Y388008D01*
X1111434Y387926D01*
X1111427Y387894D01*
X1111428Y387874D01*
X1111425Y387842D01*
X1111425Y383368D01*
X1110532Y382475D01*
X1099268Y382475D01*
G37*
%LPD*%
%LPC*%
G36*
X1124668Y382475D02*
X1124668Y382475D01*
X1123775Y383368D01*
X1123775Y387842D01*
X1123765Y387906D01*
X1123764Y387972D01*
X1123741Y388052D01*
X1123736Y388084D01*
X1123726Y388102D01*
X1123717Y388133D01*
X1123695Y388186D01*
X1123695Y430237D01*
X1123681Y430327D01*
X1123673Y430418D01*
X1123661Y430448D01*
X1123656Y430480D01*
X1123613Y430560D01*
X1123577Y430644D01*
X1123551Y430676D01*
X1123540Y430697D01*
X1123517Y430719D01*
X1123472Y430775D01*
X1122547Y431700D01*
X1121155Y435061D01*
X1121155Y453939D01*
X1122547Y457300D01*
X1125120Y459873D01*
X1128481Y461265D01*
X1132119Y461265D01*
X1135480Y459873D01*
X1138053Y457300D01*
X1139445Y453939D01*
X1139445Y435061D01*
X1138053Y431700D01*
X1137128Y430775D01*
X1137075Y430701D01*
X1137015Y430632D01*
X1137003Y430602D01*
X1136984Y430575D01*
X1136957Y430488D01*
X1136923Y430404D01*
X1136919Y430363D01*
X1136912Y430340D01*
X1136913Y430308D01*
X1136905Y430237D01*
X1136905Y388186D01*
X1136883Y388133D01*
X1136868Y388069D01*
X1136843Y388008D01*
X1136834Y387926D01*
X1136827Y387894D01*
X1136828Y387874D01*
X1136825Y387842D01*
X1136825Y383368D01*
X1135932Y382475D01*
X1124668Y382475D01*
G37*
%LPD*%
%LPC*%
G36*
X1150068Y382475D02*
X1150068Y382475D01*
X1149175Y383368D01*
X1149175Y387842D01*
X1149165Y387906D01*
X1149164Y387972D01*
X1149141Y388052D01*
X1149136Y388084D01*
X1149126Y388102D01*
X1149117Y388133D01*
X1149095Y388186D01*
X1149095Y430237D01*
X1149081Y430327D01*
X1149073Y430418D01*
X1149061Y430448D01*
X1149056Y430480D01*
X1149013Y430560D01*
X1148977Y430644D01*
X1148951Y430676D01*
X1148940Y430697D01*
X1148917Y430719D01*
X1148872Y430775D01*
X1147947Y431700D01*
X1146555Y435061D01*
X1146555Y453939D01*
X1147947Y457300D01*
X1150520Y459873D01*
X1153881Y461265D01*
X1157519Y461265D01*
X1160880Y459873D01*
X1163453Y457300D01*
X1164845Y453939D01*
X1164845Y435061D01*
X1163453Y431700D01*
X1162528Y430775D01*
X1162475Y430701D01*
X1162415Y430632D01*
X1162403Y430602D01*
X1162384Y430575D01*
X1162357Y430488D01*
X1162323Y430404D01*
X1162319Y430363D01*
X1162312Y430340D01*
X1162313Y430308D01*
X1162305Y430237D01*
X1162305Y388186D01*
X1162283Y388133D01*
X1162268Y388069D01*
X1162243Y388008D01*
X1162234Y387926D01*
X1162227Y387894D01*
X1162228Y387874D01*
X1162225Y387842D01*
X1162225Y383368D01*
X1161332Y382475D01*
X1150068Y382475D01*
G37*
%LPD*%
%LPC*%
G36*
X489668Y382475D02*
X489668Y382475D01*
X488775Y383368D01*
X488775Y387842D01*
X488765Y387906D01*
X488764Y387972D01*
X488741Y388052D01*
X488736Y388084D01*
X488726Y388102D01*
X488717Y388133D01*
X488695Y388186D01*
X488695Y430237D01*
X488681Y430327D01*
X488673Y430418D01*
X488661Y430448D01*
X488656Y430480D01*
X488613Y430560D01*
X488577Y430644D01*
X488551Y430676D01*
X488540Y430697D01*
X488517Y430719D01*
X488472Y430775D01*
X487547Y431700D01*
X486155Y435061D01*
X486155Y453939D01*
X487547Y457300D01*
X490120Y459873D01*
X493481Y461265D01*
X497119Y461265D01*
X500480Y459873D01*
X503053Y457300D01*
X504445Y453939D01*
X504445Y435061D01*
X503053Y431700D01*
X502128Y430775D01*
X502075Y430701D01*
X502015Y430632D01*
X502003Y430602D01*
X501984Y430575D01*
X501957Y430488D01*
X501923Y430404D01*
X501919Y430363D01*
X501912Y430340D01*
X501913Y430308D01*
X501905Y430237D01*
X501905Y388186D01*
X501883Y388133D01*
X501868Y388069D01*
X501843Y388008D01*
X501834Y387926D01*
X501827Y387894D01*
X501828Y387874D01*
X501825Y387842D01*
X501825Y383368D01*
X500932Y382475D01*
X489668Y382475D01*
G37*
%LPD*%
%LPC*%
G36*
X490941Y313435D02*
X490941Y313435D01*
X487580Y314827D01*
X485007Y317400D01*
X483615Y320761D01*
X483615Y339639D01*
X485007Y343000D01*
X485932Y343925D01*
X485985Y343999D01*
X486045Y344068D01*
X486057Y344098D01*
X486076Y344125D01*
X486103Y344212D01*
X486137Y344296D01*
X486141Y344337D01*
X486148Y344360D01*
X486147Y344392D01*
X486155Y344463D01*
X486155Y371274D01*
X487161Y373701D01*
X488552Y375093D01*
X488605Y375167D01*
X488665Y375236D01*
X488677Y375266D01*
X488696Y375293D01*
X488723Y375380D01*
X488757Y375464D01*
X488761Y375505D01*
X488768Y375528D01*
X488767Y375560D01*
X488775Y375631D01*
X488775Y378632D01*
X489668Y379525D01*
X500932Y379525D01*
X501825Y378632D01*
X501825Y374158D01*
X501835Y374094D01*
X501836Y374028D01*
X501859Y373948D01*
X501864Y373916D01*
X501874Y373898D01*
X501883Y373867D01*
X501905Y373814D01*
X501905Y371186D01*
X501883Y371133D01*
X501868Y371069D01*
X501843Y371008D01*
X501834Y370926D01*
X501827Y370894D01*
X501828Y370874D01*
X501825Y370842D01*
X501825Y366368D01*
X500932Y365475D01*
X500126Y365475D01*
X500106Y365472D01*
X500087Y365474D01*
X499985Y365452D01*
X499883Y365436D01*
X499866Y365426D01*
X499846Y365422D01*
X499757Y365369D01*
X499666Y365320D01*
X499652Y365306D01*
X499635Y365296D01*
X499568Y365217D01*
X499496Y365142D01*
X499488Y365124D01*
X499475Y365109D01*
X499436Y365013D01*
X499393Y364919D01*
X499391Y364899D01*
X499383Y364881D01*
X499365Y364714D01*
X499365Y344463D01*
X499379Y344373D01*
X499387Y344282D01*
X499399Y344252D01*
X499404Y344220D01*
X499447Y344140D01*
X499483Y344056D01*
X499509Y344024D01*
X499520Y344003D01*
X499543Y343981D01*
X499588Y343925D01*
X500513Y343000D01*
X501905Y339639D01*
X501905Y320761D01*
X500513Y317400D01*
X497940Y314827D01*
X494579Y313435D01*
X490941Y313435D01*
G37*
%LPD*%
%LPC*%
G36*
X694141Y313435D02*
X694141Y313435D01*
X690780Y314827D01*
X688207Y317400D01*
X686815Y320761D01*
X686815Y339639D01*
X688207Y343000D01*
X689132Y343925D01*
X689185Y343999D01*
X689245Y344068D01*
X689257Y344098D01*
X689276Y344125D01*
X689303Y344212D01*
X689337Y344296D01*
X689341Y344337D01*
X689348Y344360D01*
X689347Y344392D01*
X689355Y344463D01*
X689355Y371274D01*
X690361Y373701D01*
X691752Y375093D01*
X691805Y375167D01*
X691865Y375236D01*
X691877Y375266D01*
X691896Y375293D01*
X691923Y375380D01*
X691957Y375464D01*
X691961Y375505D01*
X691968Y375528D01*
X691967Y375560D01*
X691975Y375631D01*
X691975Y378632D01*
X692868Y379525D01*
X704132Y379525D01*
X705025Y378632D01*
X705025Y374158D01*
X705035Y374094D01*
X705036Y374028D01*
X705059Y373948D01*
X705064Y373916D01*
X705074Y373898D01*
X705083Y373867D01*
X705105Y373814D01*
X705105Y371186D01*
X705083Y371133D01*
X705068Y371069D01*
X705043Y371008D01*
X705034Y370926D01*
X705027Y370894D01*
X705028Y370874D01*
X705025Y370842D01*
X705025Y366368D01*
X704132Y365475D01*
X703326Y365475D01*
X703306Y365472D01*
X703287Y365474D01*
X703185Y365452D01*
X703083Y365436D01*
X703066Y365426D01*
X703046Y365422D01*
X702957Y365369D01*
X702866Y365320D01*
X702852Y365306D01*
X702835Y365296D01*
X702768Y365217D01*
X702696Y365142D01*
X702688Y365124D01*
X702675Y365109D01*
X702636Y365013D01*
X702593Y364919D01*
X702591Y364899D01*
X702583Y364881D01*
X702565Y364714D01*
X702565Y344463D01*
X702579Y344373D01*
X702587Y344282D01*
X702599Y344252D01*
X702604Y344220D01*
X702647Y344140D01*
X702683Y344056D01*
X702709Y344024D01*
X702720Y344003D01*
X702743Y343981D01*
X702788Y343925D01*
X703713Y343000D01*
X705105Y339639D01*
X705105Y320761D01*
X703713Y317400D01*
X701140Y314827D01*
X697779Y313435D01*
X694141Y313435D01*
G37*
%LPD*%
%LPC*%
G36*
X1100541Y313435D02*
X1100541Y313435D01*
X1097180Y314827D01*
X1094607Y317400D01*
X1093215Y320761D01*
X1093215Y339639D01*
X1094607Y343000D01*
X1095532Y343925D01*
X1095585Y343999D01*
X1095645Y344068D01*
X1095657Y344098D01*
X1095676Y344125D01*
X1095703Y344212D01*
X1095737Y344296D01*
X1095741Y344337D01*
X1095748Y344360D01*
X1095747Y344392D01*
X1095755Y344463D01*
X1095755Y371274D01*
X1096761Y373701D01*
X1098152Y375093D01*
X1098205Y375167D01*
X1098265Y375236D01*
X1098277Y375266D01*
X1098296Y375293D01*
X1098323Y375380D01*
X1098357Y375464D01*
X1098361Y375505D01*
X1098368Y375528D01*
X1098367Y375560D01*
X1098375Y375631D01*
X1098375Y378632D01*
X1099268Y379525D01*
X1110532Y379525D01*
X1111425Y378632D01*
X1111425Y374158D01*
X1111435Y374094D01*
X1111436Y374028D01*
X1111459Y373948D01*
X1111464Y373916D01*
X1111474Y373898D01*
X1111483Y373867D01*
X1111505Y373814D01*
X1111505Y371186D01*
X1111483Y371133D01*
X1111468Y371069D01*
X1111443Y371008D01*
X1111434Y370926D01*
X1111427Y370894D01*
X1111428Y370874D01*
X1111425Y370842D01*
X1111425Y366368D01*
X1110532Y365475D01*
X1109726Y365475D01*
X1109706Y365472D01*
X1109687Y365474D01*
X1109585Y365452D01*
X1109483Y365436D01*
X1109466Y365426D01*
X1109446Y365422D01*
X1109357Y365369D01*
X1109266Y365320D01*
X1109252Y365306D01*
X1109235Y365296D01*
X1109168Y365217D01*
X1109096Y365142D01*
X1109088Y365124D01*
X1109075Y365109D01*
X1109036Y365013D01*
X1108993Y364919D01*
X1108991Y364899D01*
X1108983Y364881D01*
X1108965Y364714D01*
X1108965Y344463D01*
X1108979Y344373D01*
X1108987Y344282D01*
X1108999Y344252D01*
X1109004Y344220D01*
X1109047Y344140D01*
X1109083Y344056D01*
X1109109Y344024D01*
X1109120Y344003D01*
X1109143Y343981D01*
X1109188Y343925D01*
X1110113Y343000D01*
X1111505Y339639D01*
X1111505Y320761D01*
X1110113Y317400D01*
X1107540Y314827D01*
X1104179Y313435D01*
X1100541Y313435D01*
G37*
%LPD*%
%LPC*%
G36*
X287741Y313435D02*
X287741Y313435D01*
X284380Y314827D01*
X281807Y317400D01*
X280415Y320761D01*
X280415Y339639D01*
X281807Y343000D01*
X284380Y345573D01*
X285025Y345840D01*
X285125Y345901D01*
X285225Y345961D01*
X285229Y345966D01*
X285234Y345969D01*
X285309Y346060D01*
X285385Y346148D01*
X285387Y346154D01*
X285391Y346159D01*
X285433Y346267D01*
X285477Y346376D01*
X285478Y346384D01*
X285479Y346389D01*
X285480Y346407D01*
X285495Y346543D01*
X285495Y373814D01*
X285517Y373867D01*
X285532Y373931D01*
X285557Y373992D01*
X285566Y374074D01*
X285573Y374106D01*
X285572Y374126D01*
X285575Y374158D01*
X285575Y378632D01*
X286468Y379525D01*
X297732Y379525D01*
X298625Y378632D01*
X298625Y374158D01*
X298635Y374094D01*
X298636Y374028D01*
X298659Y373948D01*
X298664Y373916D01*
X298674Y373898D01*
X298683Y373867D01*
X298705Y373814D01*
X298705Y320761D01*
X297313Y317400D01*
X294740Y314827D01*
X291379Y313435D01*
X287741Y313435D01*
G37*
%LPD*%
%LPC*%
G36*
X897341Y313435D02*
X897341Y313435D01*
X893980Y314827D01*
X891407Y317400D01*
X890015Y320761D01*
X890015Y339639D01*
X891407Y343000D01*
X893980Y345573D01*
X894625Y345840D01*
X894725Y345901D01*
X894825Y345961D01*
X894829Y345966D01*
X894834Y345969D01*
X894909Y346060D01*
X894985Y346148D01*
X894987Y346154D01*
X894991Y346159D01*
X895033Y346267D01*
X895077Y346376D01*
X895078Y346384D01*
X895079Y346389D01*
X895080Y346407D01*
X895095Y346543D01*
X895095Y373814D01*
X895117Y373867D01*
X895132Y373931D01*
X895157Y373992D01*
X895166Y374074D01*
X895173Y374106D01*
X895172Y374126D01*
X895175Y374158D01*
X895175Y378632D01*
X896068Y379525D01*
X907332Y379525D01*
X908225Y378632D01*
X908225Y374158D01*
X908235Y374094D01*
X908236Y374028D01*
X908259Y373948D01*
X908264Y373916D01*
X908274Y373898D01*
X908283Y373867D01*
X908305Y373814D01*
X908305Y320761D01*
X906913Y317400D01*
X904340Y314827D01*
X900979Y313435D01*
X897341Y313435D01*
G37*
%LPD*%
%LPC*%
G36*
X192023Y427723D02*
X192023Y427723D01*
X192023Y441491D01*
X204453Y441491D01*
X206831Y441114D01*
X209120Y440370D01*
X211264Y439278D01*
X213211Y437863D01*
X214913Y436161D01*
X216328Y434214D01*
X217420Y432070D01*
X218164Y429781D01*
X218490Y427723D01*
X192023Y427723D01*
G37*
%LPD*%
%LPC*%
G36*
X162510Y427723D02*
X162510Y427723D01*
X162836Y429781D01*
X163580Y432070D01*
X164672Y434214D01*
X166087Y436161D01*
X167789Y437863D01*
X169736Y439278D01*
X171880Y440370D01*
X174169Y441114D01*
X176547Y441491D01*
X188977Y441491D01*
X188977Y427723D01*
X162510Y427723D01*
G37*
%LPD*%
%LPC*%
G36*
X192023Y410909D02*
X192023Y410909D01*
X192023Y424677D01*
X218490Y424677D01*
X218164Y422619D01*
X217420Y420330D01*
X216328Y418186D01*
X214913Y416239D01*
X213211Y414537D01*
X211264Y413122D01*
X209120Y412030D01*
X206831Y411286D01*
X204453Y410909D01*
X192023Y410909D01*
G37*
%LPD*%
%LPC*%
G36*
X176547Y410909D02*
X176547Y410909D01*
X174169Y411286D01*
X171880Y412030D01*
X169736Y413122D01*
X167789Y414537D01*
X166087Y416239D01*
X164672Y418186D01*
X163580Y420330D01*
X162836Y422619D01*
X162510Y424677D01*
X188977Y424677D01*
X188977Y410909D01*
X176547Y410909D01*
G37*
%LPD*%
%LPC*%
G36*
X854963Y331723D02*
X854963Y331723D01*
X854963Y347866D01*
X855819Y347731D01*
X857340Y347236D01*
X858765Y346510D01*
X860059Y345570D01*
X861190Y344439D01*
X862130Y343145D01*
X862856Y341720D01*
X863351Y340199D01*
X863601Y338620D01*
X863601Y331723D01*
X854963Y331723D01*
G37*
%LPD*%
%LPC*%
G36*
X550163Y331723D02*
X550163Y331723D01*
X550163Y347866D01*
X551019Y347731D01*
X552540Y347236D01*
X553965Y346510D01*
X555259Y345570D01*
X556390Y344439D01*
X557330Y343145D01*
X558056Y341720D01*
X558551Y340199D01*
X558801Y338620D01*
X558801Y331723D01*
X550163Y331723D01*
G37*
%LPD*%
%LPC*%
G36*
X956563Y331723D02*
X956563Y331723D01*
X956563Y347866D01*
X957419Y347731D01*
X958940Y347236D01*
X960365Y346510D01*
X961659Y345570D01*
X962790Y344439D01*
X963730Y343145D01*
X964456Y341720D01*
X964951Y340199D01*
X965201Y338620D01*
X965201Y331723D01*
X956563Y331723D01*
G37*
%LPD*%
%LPC*%
G36*
X651763Y331723D02*
X651763Y331723D01*
X651763Y347866D01*
X652619Y347731D01*
X654140Y347236D01*
X655565Y346510D01*
X656859Y345570D01*
X657990Y344439D01*
X658930Y343145D01*
X659656Y341720D01*
X660151Y340199D01*
X660401Y338620D01*
X660401Y331723D01*
X651763Y331723D01*
G37*
%LPD*%
%LPC*%
G36*
X346963Y331723D02*
X346963Y331723D01*
X346963Y347866D01*
X347819Y347731D01*
X349340Y347236D01*
X350765Y346510D01*
X352059Y345570D01*
X353190Y344439D01*
X354130Y343145D01*
X354856Y341720D01*
X355351Y340199D01*
X355601Y338620D01*
X355601Y331723D01*
X346963Y331723D01*
G37*
%LPD*%
%LPC*%
G36*
X689863Y242823D02*
X689863Y242823D01*
X689863Y258966D01*
X690719Y258831D01*
X692240Y258336D01*
X693665Y257610D01*
X694959Y256670D01*
X696090Y255539D01*
X697030Y254245D01*
X697756Y252820D01*
X698251Y251299D01*
X698501Y249720D01*
X698501Y242823D01*
X689863Y242823D01*
G37*
%LPD*%
%LPC*%
G36*
X448563Y331723D02*
X448563Y331723D01*
X448563Y347866D01*
X449419Y347731D01*
X450940Y347236D01*
X452365Y346510D01*
X453659Y345570D01*
X454790Y344439D01*
X455730Y343145D01*
X456456Y341720D01*
X456951Y340199D01*
X457201Y338620D01*
X457201Y331723D01*
X448563Y331723D01*
G37*
%LPD*%
%LPC*%
G36*
X893063Y242823D02*
X893063Y242823D01*
X893063Y258966D01*
X893919Y258831D01*
X895440Y258336D01*
X896865Y257610D01*
X898159Y256670D01*
X899290Y255539D01*
X900230Y254245D01*
X900956Y252820D01*
X901451Y251299D01*
X901701Y249720D01*
X901701Y242823D01*
X893063Y242823D01*
G37*
%LPD*%
%LPC*%
G36*
X283463Y242823D02*
X283463Y242823D01*
X283463Y258966D01*
X284319Y258831D01*
X285840Y258336D01*
X287265Y257610D01*
X288559Y256670D01*
X289690Y255539D01*
X290630Y254245D01*
X291356Y252820D01*
X291851Y251299D01*
X292101Y249720D01*
X292101Y242823D01*
X283463Y242823D01*
G37*
%LPD*%
%LPC*%
G36*
X486663Y242823D02*
X486663Y242823D01*
X486663Y258966D01*
X487519Y258831D01*
X489040Y258336D01*
X490465Y257610D01*
X491759Y256670D01*
X492890Y255539D01*
X493830Y254245D01*
X494556Y252820D01*
X495051Y251299D01*
X495301Y249720D01*
X495301Y242823D01*
X486663Y242823D01*
G37*
%LPD*%
%LPC*%
G36*
X1108963Y242823D02*
X1108963Y242823D01*
X1108963Y258966D01*
X1109819Y258831D01*
X1111340Y258336D01*
X1112765Y257610D01*
X1114059Y256670D01*
X1115190Y255539D01*
X1116130Y254245D01*
X1116856Y252820D01*
X1117351Y251299D01*
X1117601Y249720D01*
X1117601Y242823D01*
X1108963Y242823D01*
G37*
%LPD*%
%LPC*%
G36*
X1058163Y331723D02*
X1058163Y331723D01*
X1058163Y347866D01*
X1059019Y347731D01*
X1060540Y347236D01*
X1061965Y346510D01*
X1063259Y345570D01*
X1064390Y344439D01*
X1065330Y343145D01*
X1066056Y341720D01*
X1066551Y340199D01*
X1066801Y338620D01*
X1066801Y331723D01*
X1058163Y331723D01*
G37*
%LPD*%
%LPC*%
G36*
X753363Y331723D02*
X753363Y331723D01*
X753363Y347866D01*
X754219Y347731D01*
X755740Y347236D01*
X757165Y346510D01*
X758459Y345570D01*
X759590Y344439D01*
X760530Y343145D01*
X761256Y341720D01*
X761751Y340199D01*
X762001Y338620D01*
X762001Y331723D01*
X753363Y331723D01*
G37*
%LPD*%
%LPC*%
G36*
X245363Y331723D02*
X245363Y331723D01*
X245363Y347866D01*
X246219Y347731D01*
X247740Y347236D01*
X249165Y346510D01*
X250459Y345570D01*
X251590Y344439D01*
X252530Y343145D01*
X253256Y341720D01*
X253751Y340199D01*
X254001Y338620D01*
X254001Y331723D01*
X245363Y331723D01*
G37*
%LPD*%
%LPC*%
G36*
X1172463Y331723D02*
X1172463Y331723D01*
X1172463Y347866D01*
X1173319Y347731D01*
X1174840Y347236D01*
X1176265Y346510D01*
X1177559Y345570D01*
X1178690Y344439D01*
X1179630Y343145D01*
X1180356Y341720D01*
X1180851Y340199D01*
X1181101Y338620D01*
X1181101Y331723D01*
X1172463Y331723D01*
G37*
%LPD*%
%LPC*%
G36*
X1172463Y328677D02*
X1172463Y328677D01*
X1181101Y328677D01*
X1181101Y321780D01*
X1180851Y320201D01*
X1180356Y318680D01*
X1179630Y317255D01*
X1178690Y315961D01*
X1177559Y314830D01*
X1176265Y313890D01*
X1174840Y313164D01*
X1173319Y312669D01*
X1172463Y312534D01*
X1172463Y328677D01*
G37*
%LPD*%
%LPC*%
G36*
X1108963Y239777D02*
X1108963Y239777D01*
X1117601Y239777D01*
X1117601Y232880D01*
X1117351Y231301D01*
X1116856Y229780D01*
X1116130Y228355D01*
X1115190Y227061D01*
X1114059Y225930D01*
X1112765Y224990D01*
X1111340Y224264D01*
X1109819Y223769D01*
X1108963Y223634D01*
X1108963Y239777D01*
G37*
%LPD*%
%LPC*%
G36*
X1058163Y328677D02*
X1058163Y328677D01*
X1066801Y328677D01*
X1066801Y321780D01*
X1066551Y320201D01*
X1066056Y318680D01*
X1065330Y317255D01*
X1064390Y315961D01*
X1063259Y314830D01*
X1061965Y313890D01*
X1060540Y313164D01*
X1059019Y312669D01*
X1058163Y312534D01*
X1058163Y328677D01*
G37*
%LPD*%
%LPC*%
G36*
X956563Y328677D02*
X956563Y328677D01*
X965201Y328677D01*
X965201Y321780D01*
X964951Y320201D01*
X964456Y318680D01*
X963730Y317255D01*
X962790Y315961D01*
X961659Y314830D01*
X960365Y313890D01*
X958940Y313164D01*
X957419Y312669D01*
X956563Y312534D01*
X956563Y328677D01*
G37*
%LPD*%
%LPC*%
G36*
X854963Y328677D02*
X854963Y328677D01*
X863601Y328677D01*
X863601Y321780D01*
X863351Y320201D01*
X862856Y318680D01*
X862130Y317255D01*
X861190Y315961D01*
X860059Y314830D01*
X858765Y313890D01*
X857340Y313164D01*
X855819Y312669D01*
X854963Y312534D01*
X854963Y328677D01*
G37*
%LPD*%
%LPC*%
G36*
X753363Y328677D02*
X753363Y328677D01*
X762001Y328677D01*
X762001Y321780D01*
X761751Y320201D01*
X761256Y318680D01*
X760530Y317255D01*
X759590Y315961D01*
X758459Y314830D01*
X757165Y313890D01*
X755740Y313164D01*
X754219Y312669D01*
X753363Y312534D01*
X753363Y328677D01*
G37*
%LPD*%
%LPC*%
G36*
X651763Y328677D02*
X651763Y328677D01*
X660401Y328677D01*
X660401Y321780D01*
X660151Y320201D01*
X659656Y318680D01*
X658930Y317255D01*
X657990Y315961D01*
X656859Y314830D01*
X655565Y313890D01*
X654140Y313164D01*
X652619Y312669D01*
X651763Y312534D01*
X651763Y328677D01*
G37*
%LPD*%
%LPC*%
G36*
X550163Y328677D02*
X550163Y328677D01*
X558801Y328677D01*
X558801Y321780D01*
X558551Y320201D01*
X558056Y318680D01*
X557330Y317255D01*
X556390Y315961D01*
X555259Y314830D01*
X553965Y313890D01*
X552540Y313164D01*
X551019Y312669D01*
X550163Y312534D01*
X550163Y328677D01*
G37*
%LPD*%
%LPC*%
G36*
X448563Y328677D02*
X448563Y328677D01*
X457201Y328677D01*
X457201Y321780D01*
X456951Y320201D01*
X456456Y318680D01*
X455730Y317255D01*
X454790Y315961D01*
X453659Y314830D01*
X452365Y313890D01*
X450940Y313164D01*
X449419Y312669D01*
X448563Y312534D01*
X448563Y328677D01*
G37*
%LPD*%
%LPC*%
G36*
X346963Y328677D02*
X346963Y328677D01*
X355601Y328677D01*
X355601Y321780D01*
X355351Y320201D01*
X354856Y318680D01*
X354130Y317255D01*
X353190Y315961D01*
X352059Y314830D01*
X350765Y313890D01*
X349340Y313164D01*
X347819Y312669D01*
X346963Y312534D01*
X346963Y328677D01*
G37*
%LPD*%
%LPC*%
G36*
X245363Y328677D02*
X245363Y328677D01*
X254001Y328677D01*
X254001Y321780D01*
X253751Y320201D01*
X253256Y318680D01*
X252530Y317255D01*
X251590Y315961D01*
X250459Y314830D01*
X249165Y313890D01*
X247740Y313164D01*
X246219Y312669D01*
X245363Y312534D01*
X245363Y328677D01*
G37*
%LPD*%
%LPC*%
G36*
X893063Y239777D02*
X893063Y239777D01*
X901701Y239777D01*
X901701Y232880D01*
X901451Y231301D01*
X900956Y229780D01*
X900230Y228355D01*
X899290Y227061D01*
X898159Y225930D01*
X896865Y224990D01*
X895440Y224264D01*
X893919Y223769D01*
X893063Y223634D01*
X893063Y239777D01*
G37*
%LPD*%
%LPC*%
G36*
X689863Y239777D02*
X689863Y239777D01*
X698501Y239777D01*
X698501Y232880D01*
X698251Y231301D01*
X697756Y229780D01*
X697030Y228355D01*
X696090Y227061D01*
X694959Y225930D01*
X693665Y224990D01*
X692240Y224264D01*
X690719Y223769D01*
X689863Y223634D01*
X689863Y239777D01*
G37*
%LPD*%
%LPC*%
G36*
X486663Y239777D02*
X486663Y239777D01*
X495301Y239777D01*
X495301Y232880D01*
X495051Y231301D01*
X494556Y229780D01*
X493830Y228355D01*
X492890Y227061D01*
X491759Y225930D01*
X490465Y224990D01*
X489040Y224264D01*
X487519Y223769D01*
X486663Y223634D01*
X486663Y239777D01*
G37*
%LPD*%
%LPC*%
G36*
X283463Y239777D02*
X283463Y239777D01*
X292101Y239777D01*
X292101Y232880D01*
X291851Y231301D01*
X291356Y229780D01*
X290630Y228355D01*
X289690Y227061D01*
X288559Y225930D01*
X287265Y224990D01*
X285840Y224264D01*
X284319Y223769D01*
X283463Y223634D01*
X283463Y239777D01*
G37*
%LPD*%
%LPC*%
G36*
X474979Y242823D02*
X474979Y242823D01*
X474979Y249720D01*
X475229Y251299D01*
X475724Y252820D01*
X476450Y254245D01*
X477390Y255539D01*
X478521Y256670D01*
X479815Y257610D01*
X481240Y258336D01*
X482761Y258831D01*
X483617Y258966D01*
X483617Y242823D01*
X474979Y242823D01*
G37*
%LPD*%
%LPC*%
G36*
X843279Y331723D02*
X843279Y331723D01*
X843279Y338620D01*
X843529Y340199D01*
X844024Y341720D01*
X844750Y343145D01*
X845690Y344439D01*
X846821Y345570D01*
X848115Y346510D01*
X849540Y347236D01*
X851061Y347731D01*
X851917Y347866D01*
X851917Y331723D01*
X843279Y331723D01*
G37*
%LPD*%
%LPC*%
G36*
X678179Y242823D02*
X678179Y242823D01*
X678179Y249720D01*
X678429Y251299D01*
X678924Y252820D01*
X679650Y254245D01*
X680590Y255539D01*
X681721Y256670D01*
X683015Y257610D01*
X684440Y258336D01*
X685961Y258831D01*
X686817Y258966D01*
X686817Y242823D01*
X678179Y242823D01*
G37*
%LPD*%
%LPC*%
G36*
X1046479Y331723D02*
X1046479Y331723D01*
X1046479Y338620D01*
X1046729Y340199D01*
X1047224Y341720D01*
X1047950Y343145D01*
X1048890Y344439D01*
X1050021Y345570D01*
X1051315Y346510D01*
X1052740Y347236D01*
X1054261Y347731D01*
X1055117Y347866D01*
X1055117Y331723D01*
X1046479Y331723D01*
G37*
%LPD*%
%LPC*%
G36*
X1097279Y242823D02*
X1097279Y242823D01*
X1097279Y249720D01*
X1097529Y251299D01*
X1098024Y252820D01*
X1098750Y254245D01*
X1099690Y255539D01*
X1100821Y256670D01*
X1102115Y257610D01*
X1103540Y258336D01*
X1105061Y258831D01*
X1105917Y258966D01*
X1105917Y242823D01*
X1097279Y242823D01*
G37*
%LPD*%
%LPC*%
G36*
X436879Y331723D02*
X436879Y331723D01*
X436879Y338620D01*
X437129Y340199D01*
X437624Y341720D01*
X438350Y343145D01*
X439290Y344439D01*
X440421Y345570D01*
X441715Y346510D01*
X443140Y347236D01*
X444661Y347731D01*
X445517Y347866D01*
X445517Y331723D01*
X436879Y331723D01*
G37*
%LPD*%
%LPC*%
G36*
X1160779Y331723D02*
X1160779Y331723D01*
X1160779Y338620D01*
X1161029Y340199D01*
X1161524Y341720D01*
X1162250Y343145D01*
X1163190Y344439D01*
X1164321Y345570D01*
X1165615Y346510D01*
X1167040Y347236D01*
X1168561Y347731D01*
X1169417Y347866D01*
X1169417Y331723D01*
X1160779Y331723D01*
G37*
%LPD*%
%LPC*%
G36*
X944879Y331723D02*
X944879Y331723D01*
X944879Y338620D01*
X945129Y340199D01*
X945624Y341720D01*
X946350Y343145D01*
X947290Y344439D01*
X948421Y345570D01*
X949715Y346510D01*
X951140Y347236D01*
X952661Y347731D01*
X953517Y347866D01*
X953517Y331723D01*
X944879Y331723D01*
G37*
%LPD*%
%LPC*%
G36*
X335279Y331723D02*
X335279Y331723D01*
X335279Y338620D01*
X335529Y340199D01*
X336024Y341720D01*
X336750Y343145D01*
X337690Y344439D01*
X338821Y345570D01*
X340115Y346510D01*
X341540Y347236D01*
X343061Y347731D01*
X343917Y347866D01*
X343917Y331723D01*
X335279Y331723D01*
G37*
%LPD*%
%LPC*%
G36*
X233679Y331723D02*
X233679Y331723D01*
X233679Y338620D01*
X233929Y340199D01*
X234424Y341720D01*
X235150Y343145D01*
X236090Y344439D01*
X237221Y345570D01*
X238515Y346510D01*
X239940Y347236D01*
X241461Y347731D01*
X242317Y347866D01*
X242317Y331723D01*
X233679Y331723D01*
G37*
%LPD*%
%LPC*%
G36*
X538479Y331723D02*
X538479Y331723D01*
X538479Y338620D01*
X538729Y340199D01*
X539224Y341720D01*
X539950Y343145D01*
X540890Y344439D01*
X542021Y345570D01*
X543315Y346510D01*
X544740Y347236D01*
X546261Y347731D01*
X547117Y347866D01*
X547117Y331723D01*
X538479Y331723D01*
G37*
%LPD*%
%LPC*%
G36*
X881379Y242823D02*
X881379Y242823D01*
X881379Y249720D01*
X881629Y251299D01*
X882124Y252820D01*
X882850Y254245D01*
X883790Y255539D01*
X884921Y256670D01*
X886215Y257610D01*
X887640Y258336D01*
X889161Y258831D01*
X890017Y258966D01*
X890017Y242823D01*
X881379Y242823D01*
G37*
%LPD*%
%LPC*%
G36*
X640079Y331723D02*
X640079Y331723D01*
X640079Y338620D01*
X640329Y340199D01*
X640824Y341720D01*
X641550Y343145D01*
X642490Y344439D01*
X643621Y345570D01*
X644915Y346510D01*
X646340Y347236D01*
X647861Y347731D01*
X648717Y347866D01*
X648717Y331723D01*
X640079Y331723D01*
G37*
%LPD*%
%LPC*%
G36*
X271779Y242823D02*
X271779Y242823D01*
X271779Y249720D01*
X272029Y251299D01*
X272524Y252820D01*
X273250Y254245D01*
X274190Y255539D01*
X275321Y256670D01*
X276615Y257610D01*
X278040Y258336D01*
X279561Y258831D01*
X280417Y258966D01*
X280417Y242823D01*
X271779Y242823D01*
G37*
%LPD*%
%LPC*%
G36*
X741679Y331723D02*
X741679Y331723D01*
X741679Y338620D01*
X741929Y340199D01*
X742424Y341720D01*
X743150Y343145D01*
X744090Y344439D01*
X745221Y345570D01*
X746515Y346510D01*
X747940Y347236D01*
X749461Y347731D01*
X750317Y347866D01*
X750317Y331723D01*
X741679Y331723D01*
G37*
%LPD*%
%LPC*%
G36*
X1168561Y312669D02*
X1168561Y312669D01*
X1167040Y313164D01*
X1165615Y313890D01*
X1164321Y314830D01*
X1163190Y315961D01*
X1162250Y317255D01*
X1161524Y318680D01*
X1161029Y320201D01*
X1160779Y321780D01*
X1160779Y328677D01*
X1169417Y328677D01*
X1169417Y312534D01*
X1168561Y312669D01*
G37*
%LPD*%
%LPC*%
G36*
X1054261Y312669D02*
X1054261Y312669D01*
X1052740Y313164D01*
X1051315Y313890D01*
X1050021Y314830D01*
X1048890Y315961D01*
X1047950Y317255D01*
X1047224Y318680D01*
X1046729Y320201D01*
X1046479Y321780D01*
X1046479Y328677D01*
X1055117Y328677D01*
X1055117Y312534D01*
X1054261Y312669D01*
G37*
%LPD*%
%LPC*%
G36*
X952661Y312669D02*
X952661Y312669D01*
X951140Y313164D01*
X949715Y313890D01*
X948421Y314830D01*
X947290Y315961D01*
X946350Y317255D01*
X945624Y318680D01*
X945129Y320201D01*
X944879Y321780D01*
X944879Y328677D01*
X953517Y328677D01*
X953517Y312534D01*
X952661Y312669D01*
G37*
%LPD*%
%LPC*%
G36*
X851061Y312669D02*
X851061Y312669D01*
X849540Y313164D01*
X848115Y313890D01*
X846821Y314830D01*
X845690Y315961D01*
X844750Y317255D01*
X844024Y318680D01*
X843529Y320201D01*
X843279Y321780D01*
X843279Y328677D01*
X851917Y328677D01*
X851917Y312534D01*
X851061Y312669D01*
G37*
%LPD*%
%LPC*%
G36*
X749461Y312669D02*
X749461Y312669D01*
X747940Y313164D01*
X746515Y313890D01*
X745221Y314830D01*
X744090Y315961D01*
X743150Y317255D01*
X742424Y318680D01*
X741929Y320201D01*
X741679Y321780D01*
X741679Y328677D01*
X750317Y328677D01*
X750317Y312534D01*
X749461Y312669D01*
G37*
%LPD*%
%LPC*%
G36*
X647861Y312669D02*
X647861Y312669D01*
X646340Y313164D01*
X644915Y313890D01*
X643621Y314830D01*
X642490Y315961D01*
X641550Y317255D01*
X640824Y318680D01*
X640329Y320201D01*
X640079Y321780D01*
X640079Y328677D01*
X648717Y328677D01*
X648717Y312534D01*
X647861Y312669D01*
G37*
%LPD*%
%LPC*%
G36*
X546261Y312669D02*
X546261Y312669D01*
X544740Y313164D01*
X543315Y313890D01*
X542021Y314830D01*
X540890Y315961D01*
X539950Y317255D01*
X539224Y318680D01*
X538729Y320201D01*
X538479Y321780D01*
X538479Y328677D01*
X547117Y328677D01*
X547117Y312534D01*
X546261Y312669D01*
G37*
%LPD*%
%LPC*%
G36*
X241461Y312669D02*
X241461Y312669D01*
X239940Y313164D01*
X238515Y313890D01*
X237221Y314830D01*
X236090Y315961D01*
X235150Y317255D01*
X234424Y318680D01*
X233929Y320201D01*
X233679Y321780D01*
X233679Y328677D01*
X242317Y328677D01*
X242317Y312534D01*
X241461Y312669D01*
G37*
%LPD*%
%LPC*%
G36*
X1105061Y223769D02*
X1105061Y223769D01*
X1103540Y224264D01*
X1102115Y224990D01*
X1100821Y225930D01*
X1099690Y227061D01*
X1098750Y228355D01*
X1098024Y229780D01*
X1097529Y231301D01*
X1097279Y232880D01*
X1097279Y239777D01*
X1105917Y239777D01*
X1105917Y223634D01*
X1105061Y223769D01*
G37*
%LPD*%
%LPC*%
G36*
X889161Y223769D02*
X889161Y223769D01*
X887640Y224264D01*
X886215Y224990D01*
X884921Y225930D01*
X883790Y227061D01*
X882850Y228355D01*
X882124Y229780D01*
X881629Y231301D01*
X881379Y232880D01*
X881379Y239777D01*
X890017Y239777D01*
X890017Y223634D01*
X889161Y223769D01*
G37*
%LPD*%
%LPC*%
G36*
X444661Y312669D02*
X444661Y312669D01*
X443140Y313164D01*
X441715Y313890D01*
X440421Y314830D01*
X439290Y315961D01*
X438350Y317255D01*
X437624Y318680D01*
X437129Y320201D01*
X436879Y321780D01*
X436879Y328677D01*
X445517Y328677D01*
X445517Y312534D01*
X444661Y312669D01*
G37*
%LPD*%
%LPC*%
G36*
X685961Y223769D02*
X685961Y223769D01*
X684440Y224264D01*
X683015Y224990D01*
X681721Y225930D01*
X680590Y227061D01*
X679650Y228355D01*
X678924Y229780D01*
X678429Y231301D01*
X678179Y232880D01*
X678179Y239777D01*
X686817Y239777D01*
X686817Y223634D01*
X685961Y223769D01*
G37*
%LPD*%
%LPC*%
G36*
X343061Y312669D02*
X343061Y312669D01*
X341540Y313164D01*
X340115Y313890D01*
X338821Y314830D01*
X337690Y315961D01*
X336750Y317255D01*
X336024Y318680D01*
X335529Y320201D01*
X335279Y321780D01*
X335279Y328677D01*
X343917Y328677D01*
X343917Y312534D01*
X343061Y312669D01*
G37*
%LPD*%
%LPC*%
G36*
X482761Y223769D02*
X482761Y223769D01*
X481240Y224264D01*
X479815Y224990D01*
X478521Y225930D01*
X477390Y227061D01*
X476450Y228355D01*
X475724Y229780D01*
X475229Y231301D01*
X474979Y232880D01*
X474979Y239777D01*
X483617Y239777D01*
X483617Y223634D01*
X482761Y223769D01*
G37*
%LPD*%
%LPC*%
G36*
X279561Y223769D02*
X279561Y223769D01*
X278040Y224264D01*
X276615Y224990D01*
X275321Y225930D01*
X274190Y227061D01*
X273250Y228355D01*
X272524Y229780D01*
X272029Y231301D01*
X271779Y232880D01*
X271779Y239777D01*
X280417Y239777D01*
X280417Y223634D01*
X279561Y223769D01*
G37*
%LPD*%
%LPC*%
G36*
X243839Y330199D02*
X243839Y330199D01*
X243839Y330201D01*
X243841Y330201D01*
X243841Y330199D01*
X243839Y330199D01*
G37*
%LPD*%
%LPC*%
G36*
X190499Y426199D02*
X190499Y426199D01*
X190499Y426201D01*
X190501Y426201D01*
X190501Y426199D01*
X190499Y426199D01*
G37*
%LPD*%
%LPC*%
G36*
X1170939Y330199D02*
X1170939Y330199D01*
X1170939Y330201D01*
X1170941Y330201D01*
X1170941Y330199D01*
X1170939Y330199D01*
G37*
%LPD*%
%LPC*%
G36*
X1056639Y330199D02*
X1056639Y330199D01*
X1056639Y330201D01*
X1056641Y330201D01*
X1056641Y330199D01*
X1056639Y330199D01*
G37*
%LPD*%
%LPC*%
G36*
X955039Y330199D02*
X955039Y330199D01*
X955039Y330201D01*
X955041Y330201D01*
X955041Y330199D01*
X955039Y330199D01*
G37*
%LPD*%
%LPC*%
G36*
X853439Y330199D02*
X853439Y330199D01*
X853439Y330201D01*
X853441Y330201D01*
X853441Y330199D01*
X853439Y330199D01*
G37*
%LPD*%
%LPC*%
G36*
X751839Y330199D02*
X751839Y330199D01*
X751839Y330201D01*
X751841Y330201D01*
X751841Y330199D01*
X751839Y330199D01*
G37*
%LPD*%
%LPC*%
G36*
X650239Y330199D02*
X650239Y330199D01*
X650239Y330201D01*
X650241Y330201D01*
X650241Y330199D01*
X650239Y330199D01*
G37*
%LPD*%
%LPC*%
G36*
X1107439Y241299D02*
X1107439Y241299D01*
X1107439Y241301D01*
X1107441Y241301D01*
X1107441Y241299D01*
X1107439Y241299D01*
G37*
%LPD*%
%LPC*%
G36*
X891539Y241299D02*
X891539Y241299D01*
X891539Y241301D01*
X891541Y241301D01*
X891541Y241299D01*
X891539Y241299D01*
G37*
%LPD*%
%LPC*%
G36*
X688339Y241299D02*
X688339Y241299D01*
X688339Y241301D01*
X688341Y241301D01*
X688341Y241299D01*
X688339Y241299D01*
G37*
%LPD*%
%LPC*%
G36*
X485139Y241299D02*
X485139Y241299D01*
X485139Y241301D01*
X485141Y241301D01*
X485141Y241299D01*
X485139Y241299D01*
G37*
%LPD*%
%LPC*%
G36*
X281939Y241299D02*
X281939Y241299D01*
X281939Y241301D01*
X281941Y241301D01*
X281941Y241299D01*
X281939Y241299D01*
G37*
%LPD*%
%LPC*%
G36*
X548639Y330199D02*
X548639Y330199D01*
X548639Y330201D01*
X548641Y330201D01*
X548641Y330199D01*
X548639Y330199D01*
G37*
%LPD*%
%LPC*%
G36*
X447039Y330199D02*
X447039Y330199D01*
X447039Y330201D01*
X447041Y330201D01*
X447041Y330199D01*
X447039Y330199D01*
G37*
%LPD*%
%LPC*%
G36*
X345439Y330199D02*
X345439Y330199D01*
X345439Y330201D01*
X345441Y330201D01*
X345441Y330199D01*
X345439Y330199D01*
G37*
%LPD*%
D10*
X243840Y322580D02*
X243840Y337820D01*
X266700Y337820D02*
X266700Y322580D01*
X289560Y322580D02*
X289560Y337820D01*
X342900Y436880D02*
X342900Y452120D01*
X317500Y452120D02*
X317500Y436880D01*
X292100Y436880D02*
X292100Y452120D01*
D11*
X266700Y159940D02*
X266700Y144860D01*
X292100Y144860D02*
X292100Y159940D01*
X317500Y159940D02*
X317500Y144860D01*
X342900Y144860D02*
X342900Y159940D01*
D10*
X281940Y233680D02*
X281940Y248920D01*
X304800Y248920D02*
X304800Y233680D01*
X327660Y233680D02*
X327660Y248920D01*
X345440Y322580D02*
X345440Y337820D01*
X368300Y337820D02*
X368300Y322580D01*
X391160Y322580D02*
X391160Y337820D01*
D12*
X292100Y389500D03*
X292100Y372500D03*
X317500Y389500D03*
X317500Y372500D03*
X342900Y389500D03*
X342900Y372500D03*
D10*
X447040Y337820D02*
X447040Y322580D01*
X469900Y322580D02*
X469900Y337820D01*
X492760Y337820D02*
X492760Y322580D01*
X546100Y436880D02*
X546100Y452120D01*
X520700Y452120D02*
X520700Y436880D01*
X495300Y436880D02*
X495300Y452120D01*
D11*
X457200Y159940D02*
X457200Y144860D01*
X482600Y144860D02*
X482600Y159940D01*
X508000Y159940D02*
X508000Y144860D01*
X533400Y144860D02*
X533400Y159940D01*
D10*
X485140Y233680D02*
X485140Y248920D01*
X508000Y248920D02*
X508000Y233680D01*
X530860Y233680D02*
X530860Y248920D01*
X548640Y322580D02*
X548640Y337820D01*
X571500Y337820D02*
X571500Y322580D01*
X594360Y322580D02*
X594360Y337820D01*
D12*
X495300Y389500D03*
X495300Y372500D03*
X520700Y389500D03*
X520700Y372500D03*
X546100Y389500D03*
X546100Y372500D03*
D10*
X650240Y337820D02*
X650240Y322580D01*
X673100Y322580D02*
X673100Y337820D01*
X695960Y337820D02*
X695960Y322580D01*
X749300Y436880D02*
X749300Y452120D01*
X723900Y452120D02*
X723900Y436880D01*
X698500Y436880D02*
X698500Y452120D01*
D11*
X660400Y159940D02*
X660400Y144860D01*
X685800Y144860D02*
X685800Y159940D01*
X711200Y159940D02*
X711200Y144860D01*
X736600Y144860D02*
X736600Y159940D01*
D10*
X688340Y233680D02*
X688340Y248920D01*
X711200Y248920D02*
X711200Y233680D01*
X734060Y233680D02*
X734060Y248920D01*
X751840Y322580D02*
X751840Y337820D01*
X774700Y337820D02*
X774700Y322580D01*
X797560Y322580D02*
X797560Y337820D01*
D12*
X698500Y389500D03*
X698500Y372500D03*
X723900Y389500D03*
X723900Y372500D03*
X749300Y389500D03*
X749300Y372500D03*
D10*
X853440Y337820D02*
X853440Y322580D01*
X876300Y322580D02*
X876300Y337820D01*
X899160Y337820D02*
X899160Y322580D01*
X952500Y436880D02*
X952500Y452120D01*
X927100Y452120D02*
X927100Y436880D01*
X901700Y436880D02*
X901700Y452120D01*
D11*
X863600Y159940D02*
X863600Y144860D01*
X889000Y144860D02*
X889000Y159940D01*
X914400Y159940D02*
X914400Y144860D01*
X939800Y144860D02*
X939800Y159940D01*
D10*
X891540Y233680D02*
X891540Y248920D01*
X914400Y248920D02*
X914400Y233680D01*
X937260Y233680D02*
X937260Y248920D01*
X955040Y322580D02*
X955040Y337820D01*
X977900Y337820D02*
X977900Y322580D01*
X1000760Y322580D02*
X1000760Y337820D01*
D12*
X901700Y389500D03*
X901700Y372500D03*
X927100Y389500D03*
X927100Y372500D03*
X952500Y389500D03*
X952500Y372500D03*
D10*
X1056640Y337820D02*
X1056640Y322580D01*
X1079500Y322580D02*
X1079500Y337820D01*
X1102360Y337820D02*
X1102360Y322580D01*
X1155700Y436880D02*
X1155700Y452120D01*
X1130300Y452120D02*
X1130300Y436880D01*
X1104900Y436880D02*
X1104900Y452120D01*
D11*
X1079500Y159940D02*
X1079500Y144860D01*
X1104900Y144860D02*
X1104900Y159940D01*
X1130300Y159940D02*
X1130300Y144860D01*
X1155700Y144860D02*
X1155700Y159940D01*
D10*
X1107440Y233680D02*
X1107440Y248920D01*
X1130300Y248920D02*
X1130300Y233680D01*
X1153160Y233680D02*
X1153160Y248920D01*
X1170940Y322580D02*
X1170940Y337820D01*
X1193800Y337820D02*
X1193800Y322580D01*
X1216660Y322580D02*
X1216660Y337820D01*
D12*
X1104900Y389500D03*
X1104900Y372500D03*
X1130300Y389500D03*
X1130300Y372500D03*
X1155700Y389500D03*
X1155700Y372500D03*
D13*
X203250Y386600D02*
X177750Y386600D01*
X177750Y426200D02*
X203250Y426200D01*
D14*
X292100Y444500D02*
X292100Y389500D01*
X317500Y389500D02*
X317500Y444500D01*
X342900Y444500D02*
X342900Y389500D01*
X266700Y330200D02*
X266700Y304800D01*
X241300Y279400D01*
X241300Y215900D01*
X292100Y165100D01*
X292100Y152400D01*
X317500Y190500D02*
X304800Y203200D01*
X317500Y190500D02*
X317500Y152400D01*
X304800Y203200D02*
X304800Y241300D01*
X368300Y177800D02*
X368300Y330200D01*
X368300Y177800D02*
X342900Y152400D01*
X190500Y127000D02*
X190500Y386600D01*
X190500Y127000D02*
X203200Y114300D01*
X228600Y114300D01*
X419100Y114300D01*
X622300Y114300D01*
X825500Y114300D01*
X1041400Y114300D01*
X1079500Y152400D01*
X266700Y152400D02*
X228600Y114300D01*
X419100Y114300D02*
X457200Y152400D01*
X622300Y114300D02*
X660400Y152400D01*
X825500Y114300D02*
X863600Y152400D01*
X292100Y332740D02*
X292100Y372500D01*
X292100Y332740D02*
X289560Y330200D01*
X317500Y372500D02*
X317500Y279400D01*
X330200Y266700D01*
X330200Y243840D01*
X327660Y241300D01*
X347100Y368300D02*
X342900Y372500D01*
X347100Y368300D02*
X381000Y368300D01*
X391160Y358140D01*
X391160Y330200D01*
X495300Y389500D02*
X495300Y444500D01*
X520700Y444500D02*
X520700Y389500D01*
X546100Y389500D02*
X546100Y444500D01*
X469900Y330200D02*
X469900Y279400D01*
X444500Y254000D01*
X444500Y215900D01*
X482600Y177800D01*
X482600Y152400D01*
X508000Y152400D02*
X508000Y241300D01*
X571500Y190500D02*
X571500Y330200D01*
X571500Y190500D02*
X533400Y152400D01*
X492760Y330200D02*
X492760Y369960D01*
X495300Y372500D01*
X530860Y294640D02*
X530860Y241300D01*
X530860Y294640D02*
X520700Y304800D01*
X520700Y372500D01*
X594360Y358140D02*
X594360Y330200D01*
X594360Y358140D02*
X580000Y372500D01*
X546100Y372500D01*
X698500Y389500D02*
X698500Y444500D01*
X723900Y444500D02*
X723900Y389500D01*
X749300Y389500D02*
X749300Y444500D01*
X673100Y330200D02*
X673100Y279400D01*
X647700Y254000D02*
X647700Y215900D01*
X685800Y177800D02*
X685800Y152400D01*
X647700Y254000D02*
X673100Y279400D01*
X647700Y215900D02*
X685800Y177800D01*
X711200Y152400D02*
X711200Y241300D01*
X774700Y190500D02*
X774700Y330200D01*
X774700Y190500D02*
X736600Y152400D01*
X695960Y330200D02*
X695960Y369960D01*
X698500Y372500D01*
X734060Y294640D02*
X734060Y241300D01*
X734060Y294640D02*
X723900Y304800D01*
X723900Y372500D01*
X797560Y358140D02*
X797560Y330200D01*
X783200Y372500D02*
X749300Y372500D01*
X783200Y372500D02*
X797560Y358140D01*
X901700Y389500D02*
X901700Y444500D01*
X927100Y444500D02*
X927100Y389500D01*
X952500Y389500D02*
X952500Y444500D01*
X876300Y330200D02*
X876300Y292100D01*
X850900Y266700D01*
X850900Y228600D01*
X889000Y190500D01*
X889000Y152400D01*
X914400Y152400D02*
X914400Y241300D01*
X977900Y190500D02*
X977900Y330200D01*
X977900Y190500D02*
X939800Y152400D01*
X899160Y330200D02*
X901700Y332740D01*
X901700Y372500D01*
X927100Y304800D02*
X939800Y292100D01*
X939800Y243840D01*
X937260Y241300D01*
X927100Y304800D02*
X927100Y372500D01*
X1000760Y358140D02*
X1000760Y330200D01*
X986400Y372500D02*
X952500Y372500D01*
X986400Y372500D02*
X1000760Y358140D01*
X1104900Y389500D02*
X1104900Y444500D01*
X1130300Y444500D02*
X1130300Y389500D01*
X1155700Y389500D02*
X1155700Y444500D01*
X1079500Y215900D02*
X1104900Y190500D01*
X1104900Y152400D01*
X1079500Y215900D02*
X1079500Y330200D01*
X1130300Y241300D02*
X1130300Y152400D01*
X1193800Y190500D02*
X1193800Y330200D01*
X1193800Y190500D02*
X1155700Y152400D01*
X1102360Y330200D02*
X1102360Y369960D01*
X1104900Y372500D01*
X1153160Y281940D02*
X1153160Y241300D01*
X1130300Y304800D02*
X1130300Y372500D01*
X1130300Y304800D02*
X1153160Y281940D01*
X1216660Y330200D02*
X1216660Y358140D01*
X1202300Y372500D02*
X1155700Y372500D01*
X1202300Y372500D02*
X1216660Y358140D01*
M02*
