G04 EAGLE Gerber RS-274X export*
G75*
%MOMM*%
%FSLAX34Y34*%
%LPD*%
%INSilkscreen Top*%
%IPPOS*%
%AMOC8*
5,1,8,0,0,1.08239X$1,22.5*%
G01*
%ADD10C,0.101600*%
%ADD11C,0.152400*%
%ADD12R,0.762000X0.381000*%
%ADD13R,0.508000X0.381000*%
%ADD14C,0.127000*%
%ADD15C,0.254000*%
%ADD16C,0.203200*%


D10*
X260999Y439448D02*
X260999Y437501D01*
X254508Y437501D01*
X254508Y441396D01*
X254510Y441495D01*
X254516Y441595D01*
X254525Y441694D01*
X254538Y441792D01*
X254555Y441890D01*
X254576Y441988D01*
X254601Y442084D01*
X254629Y442179D01*
X254661Y442273D01*
X254696Y442366D01*
X254735Y442458D01*
X254778Y442548D01*
X254823Y442636D01*
X254873Y442723D01*
X254925Y442807D01*
X254981Y442890D01*
X255039Y442970D01*
X255101Y443048D01*
X255166Y443123D01*
X255234Y443196D01*
X255304Y443266D01*
X255377Y443334D01*
X255452Y443399D01*
X255530Y443461D01*
X255610Y443519D01*
X255693Y443575D01*
X255777Y443627D01*
X255864Y443677D01*
X255952Y443722D01*
X256042Y443765D01*
X256134Y443804D01*
X256227Y443839D01*
X256321Y443871D01*
X256416Y443899D01*
X256512Y443924D01*
X256610Y443945D01*
X256708Y443962D01*
X256806Y443975D01*
X256905Y443984D01*
X257005Y443990D01*
X257104Y443992D01*
X263596Y443992D01*
X263695Y443990D01*
X263795Y443984D01*
X263894Y443975D01*
X263992Y443962D01*
X264090Y443945D01*
X264188Y443924D01*
X264284Y443899D01*
X264379Y443871D01*
X264473Y443839D01*
X264566Y443804D01*
X264658Y443765D01*
X264748Y443722D01*
X264836Y443677D01*
X264923Y443627D01*
X265007Y443575D01*
X265090Y443519D01*
X265170Y443461D01*
X265248Y443399D01*
X265323Y443334D01*
X265396Y443266D01*
X265466Y443196D01*
X265534Y443123D01*
X265599Y443048D01*
X265661Y442970D01*
X265719Y442890D01*
X265775Y442807D01*
X265827Y442723D01*
X265877Y442636D01*
X265922Y442548D01*
X265965Y442458D01*
X266004Y442366D01*
X266039Y442274D01*
X266071Y442179D01*
X266099Y442084D01*
X266124Y441988D01*
X266145Y441890D01*
X266162Y441792D01*
X266175Y441694D01*
X266184Y441595D01*
X266190Y441495D01*
X266192Y441396D01*
X266192Y437501D01*
X266192Y431800D02*
X254508Y431800D01*
X254508Y425309D02*
X266192Y431800D01*
X266192Y425309D02*
X254508Y425309D01*
X254508Y419608D02*
X266192Y419608D01*
X266192Y416363D01*
X266190Y416250D01*
X266184Y416137D01*
X266174Y416024D01*
X266160Y415911D01*
X266143Y415799D01*
X266121Y415688D01*
X266096Y415578D01*
X266066Y415468D01*
X266033Y415360D01*
X265996Y415253D01*
X265956Y415147D01*
X265911Y415043D01*
X265863Y414940D01*
X265812Y414839D01*
X265757Y414740D01*
X265699Y414643D01*
X265637Y414548D01*
X265572Y414455D01*
X265504Y414365D01*
X265433Y414277D01*
X265358Y414191D01*
X265281Y414108D01*
X265201Y414028D01*
X265118Y413951D01*
X265032Y413876D01*
X264944Y413805D01*
X264854Y413737D01*
X264761Y413672D01*
X264666Y413610D01*
X264569Y413552D01*
X264470Y413497D01*
X264369Y413446D01*
X264266Y413398D01*
X264162Y413353D01*
X264056Y413313D01*
X263949Y413276D01*
X263841Y413243D01*
X263731Y413213D01*
X263621Y413188D01*
X263510Y413166D01*
X263398Y413149D01*
X263285Y413135D01*
X263172Y413125D01*
X263059Y413119D01*
X262946Y413117D01*
X257754Y413117D01*
X257641Y413119D01*
X257528Y413125D01*
X257415Y413135D01*
X257302Y413149D01*
X257190Y413166D01*
X257079Y413188D01*
X256969Y413213D01*
X256859Y413243D01*
X256751Y413276D01*
X256644Y413313D01*
X256538Y413353D01*
X256434Y413398D01*
X256331Y413446D01*
X256230Y413497D01*
X256131Y413552D01*
X256034Y413610D01*
X255939Y413672D01*
X255846Y413737D01*
X255756Y413805D01*
X255668Y413876D01*
X255582Y413951D01*
X255499Y414028D01*
X255419Y414108D01*
X255342Y414191D01*
X255267Y414277D01*
X255196Y414365D01*
X255128Y414455D01*
X255063Y414548D01*
X255001Y414643D01*
X254943Y414740D01*
X254888Y414839D01*
X254837Y414940D01*
X254789Y415043D01*
X254744Y415147D01*
X254704Y415253D01*
X254667Y415360D01*
X254634Y415468D01*
X254604Y415578D01*
X254579Y415688D01*
X254557Y415799D01*
X254540Y415911D01*
X254526Y416024D01*
X254516Y416137D01*
X254510Y416250D01*
X254508Y416363D01*
X254508Y419608D01*
X263596Y389509D02*
X266192Y386264D01*
X254508Y386264D01*
X254508Y389509D02*
X254508Y383018D01*
X263271Y371588D02*
X263378Y371590D01*
X263484Y371596D01*
X263590Y371606D01*
X263696Y371619D01*
X263802Y371637D01*
X263906Y371658D01*
X264010Y371683D01*
X264113Y371712D01*
X264214Y371744D01*
X264314Y371781D01*
X264413Y371821D01*
X264511Y371864D01*
X264607Y371911D01*
X264701Y371962D01*
X264793Y372016D01*
X264883Y372073D01*
X264971Y372133D01*
X265056Y372197D01*
X265139Y372264D01*
X265220Y372334D01*
X265298Y372406D01*
X265374Y372482D01*
X265446Y372560D01*
X265516Y372641D01*
X265583Y372724D01*
X265647Y372809D01*
X265707Y372897D01*
X265764Y372987D01*
X265818Y373079D01*
X265869Y373173D01*
X265916Y373269D01*
X265959Y373367D01*
X265999Y373466D01*
X266036Y373566D01*
X266068Y373667D01*
X266097Y373770D01*
X266122Y373874D01*
X266143Y373978D01*
X266161Y374084D01*
X266174Y374190D01*
X266184Y374296D01*
X266190Y374402D01*
X266192Y374509D01*
X266190Y374630D01*
X266184Y374751D01*
X266174Y374871D01*
X266161Y374992D01*
X266143Y375111D01*
X266122Y375231D01*
X266097Y375349D01*
X266068Y375466D01*
X266035Y375583D01*
X265999Y375698D01*
X265958Y375812D01*
X265915Y375925D01*
X265867Y376037D01*
X265816Y376146D01*
X265761Y376254D01*
X265703Y376361D01*
X265642Y376465D01*
X265577Y376567D01*
X265509Y376667D01*
X265438Y376765D01*
X265364Y376861D01*
X265287Y376954D01*
X265206Y377044D01*
X265123Y377132D01*
X265037Y377217D01*
X264948Y377300D01*
X264857Y377379D01*
X264763Y377456D01*
X264667Y377529D01*
X264569Y377599D01*
X264468Y377666D01*
X264365Y377730D01*
X264260Y377791D01*
X264153Y377848D01*
X264045Y377901D01*
X263935Y377951D01*
X263823Y377997D01*
X263710Y378040D01*
X263595Y378079D01*
X260999Y372563D02*
X261077Y372484D01*
X261157Y372408D01*
X261240Y372335D01*
X261326Y372265D01*
X261413Y372198D01*
X261504Y372134D01*
X261596Y372074D01*
X261690Y372016D01*
X261787Y371962D01*
X261885Y371912D01*
X261985Y371865D01*
X262086Y371821D01*
X262189Y371781D01*
X262294Y371745D01*
X262399Y371713D01*
X262506Y371684D01*
X262613Y371659D01*
X262722Y371637D01*
X262831Y371620D01*
X262940Y371606D01*
X263050Y371597D01*
X263161Y371591D01*
X263271Y371589D01*
X260999Y372562D02*
X254508Y378079D01*
X254508Y371588D01*
X254508Y363404D02*
X266192Y367298D01*
X266192Y359509D02*
X254508Y363404D01*
X257754Y101092D02*
X254508Y98496D01*
X257754Y101092D02*
X257754Y89408D01*
X260999Y89408D02*
X254508Y89408D01*
X269508Y101092D02*
X269615Y101090D01*
X269721Y101084D01*
X269827Y101074D01*
X269933Y101061D01*
X270039Y101043D01*
X270143Y101022D01*
X270247Y100997D01*
X270350Y100968D01*
X270451Y100936D01*
X270551Y100899D01*
X270650Y100859D01*
X270748Y100816D01*
X270844Y100769D01*
X270938Y100718D01*
X271030Y100664D01*
X271120Y100607D01*
X271208Y100547D01*
X271293Y100483D01*
X271376Y100416D01*
X271457Y100346D01*
X271535Y100274D01*
X271611Y100198D01*
X271683Y100120D01*
X271753Y100039D01*
X271820Y99956D01*
X271884Y99871D01*
X271944Y99783D01*
X272001Y99693D01*
X272055Y99601D01*
X272106Y99507D01*
X272153Y99411D01*
X272196Y99313D01*
X272236Y99214D01*
X272273Y99114D01*
X272305Y99013D01*
X272334Y98910D01*
X272359Y98806D01*
X272380Y98702D01*
X272398Y98596D01*
X272411Y98490D01*
X272421Y98384D01*
X272427Y98278D01*
X272429Y98171D01*
X269508Y101092D02*
X269387Y101090D01*
X269266Y101084D01*
X269146Y101074D01*
X269025Y101061D01*
X268906Y101043D01*
X268786Y101022D01*
X268668Y100997D01*
X268551Y100968D01*
X268434Y100935D01*
X268319Y100899D01*
X268205Y100858D01*
X268092Y100815D01*
X267980Y100767D01*
X267871Y100716D01*
X267763Y100661D01*
X267656Y100603D01*
X267552Y100542D01*
X267450Y100477D01*
X267350Y100409D01*
X267252Y100338D01*
X267156Y100264D01*
X267063Y100187D01*
X266973Y100106D01*
X266885Y100023D01*
X266800Y99937D01*
X266717Y99848D01*
X266638Y99757D01*
X266561Y99663D01*
X266488Y99567D01*
X266418Y99469D01*
X266351Y99368D01*
X266287Y99265D01*
X266227Y99160D01*
X266170Y99053D01*
X266116Y98945D01*
X266066Y98835D01*
X266020Y98723D01*
X265977Y98610D01*
X265938Y98495D01*
X271456Y95899D02*
X271535Y95976D01*
X271611Y96057D01*
X271684Y96140D01*
X271754Y96225D01*
X271821Y96313D01*
X271885Y96403D01*
X271945Y96495D01*
X272002Y96590D01*
X272056Y96686D01*
X272107Y96784D01*
X272154Y96884D01*
X272198Y96986D01*
X272238Y97089D01*
X272274Y97193D01*
X272306Y97299D01*
X272335Y97405D01*
X272360Y97513D01*
X272382Y97621D01*
X272399Y97731D01*
X272413Y97840D01*
X272422Y97950D01*
X272428Y98061D01*
X272430Y98171D01*
X271455Y95899D02*
X265938Y89408D01*
X272429Y89408D01*
X280614Y89408D02*
X276719Y101092D01*
X284508Y101092D02*
X280614Y89408D01*
X295349Y89408D02*
X295349Y101092D01*
X298594Y101092D01*
X298707Y101090D01*
X298820Y101084D01*
X298933Y101074D01*
X299046Y101060D01*
X299158Y101043D01*
X299269Y101021D01*
X299379Y100996D01*
X299489Y100966D01*
X299597Y100933D01*
X299704Y100896D01*
X299810Y100856D01*
X299914Y100811D01*
X300017Y100763D01*
X300118Y100712D01*
X300217Y100657D01*
X300314Y100599D01*
X300409Y100537D01*
X300502Y100472D01*
X300592Y100404D01*
X300680Y100333D01*
X300766Y100258D01*
X300849Y100181D01*
X300929Y100101D01*
X301006Y100018D01*
X301081Y99932D01*
X301152Y99844D01*
X301220Y99754D01*
X301285Y99661D01*
X301347Y99566D01*
X301405Y99469D01*
X301460Y99370D01*
X301511Y99269D01*
X301559Y99166D01*
X301604Y99062D01*
X301644Y98956D01*
X301681Y98849D01*
X301714Y98741D01*
X301744Y98631D01*
X301769Y98521D01*
X301791Y98410D01*
X301808Y98298D01*
X301822Y98185D01*
X301832Y98072D01*
X301838Y97959D01*
X301840Y97846D01*
X301838Y97733D01*
X301832Y97620D01*
X301822Y97507D01*
X301808Y97394D01*
X301791Y97282D01*
X301769Y97171D01*
X301744Y97061D01*
X301714Y96951D01*
X301681Y96843D01*
X301644Y96736D01*
X301604Y96630D01*
X301559Y96526D01*
X301511Y96423D01*
X301460Y96322D01*
X301405Y96223D01*
X301347Y96126D01*
X301285Y96031D01*
X301220Y95938D01*
X301152Y95848D01*
X301081Y95760D01*
X301006Y95674D01*
X300929Y95591D01*
X300849Y95511D01*
X300766Y95434D01*
X300680Y95359D01*
X300592Y95288D01*
X300502Y95220D01*
X300409Y95155D01*
X300314Y95093D01*
X300217Y95035D01*
X300118Y94980D01*
X300017Y94929D01*
X299914Y94881D01*
X299810Y94836D01*
X299704Y94796D01*
X299597Y94759D01*
X299489Y94726D01*
X299379Y94696D01*
X299269Y94671D01*
X299158Y94649D01*
X299046Y94632D01*
X298933Y94618D01*
X298820Y94608D01*
X298707Y94602D01*
X298594Y94600D01*
X298594Y94601D02*
X295349Y94601D01*
X299243Y94601D02*
X301840Y89408D01*
X329918Y95899D02*
X331865Y95899D01*
X331865Y89408D01*
X327970Y89408D01*
X327871Y89410D01*
X327771Y89416D01*
X327672Y89425D01*
X327574Y89438D01*
X327476Y89455D01*
X327378Y89476D01*
X327282Y89501D01*
X327187Y89529D01*
X327093Y89561D01*
X327000Y89596D01*
X326908Y89635D01*
X326818Y89678D01*
X326730Y89723D01*
X326643Y89773D01*
X326559Y89825D01*
X326476Y89881D01*
X326396Y89939D01*
X326318Y90001D01*
X326243Y90066D01*
X326170Y90134D01*
X326100Y90204D01*
X326032Y90277D01*
X325967Y90352D01*
X325905Y90430D01*
X325847Y90510D01*
X325791Y90593D01*
X325739Y90677D01*
X325689Y90764D01*
X325644Y90852D01*
X325601Y90942D01*
X325562Y91034D01*
X325527Y91127D01*
X325495Y91221D01*
X325467Y91316D01*
X325442Y91412D01*
X325421Y91510D01*
X325404Y91608D01*
X325391Y91706D01*
X325382Y91805D01*
X325376Y91905D01*
X325374Y92004D01*
X325374Y98496D01*
X325376Y98595D01*
X325382Y98695D01*
X325391Y98794D01*
X325404Y98892D01*
X325421Y98990D01*
X325442Y99088D01*
X325467Y99184D01*
X325495Y99279D01*
X325527Y99373D01*
X325562Y99466D01*
X325601Y99558D01*
X325644Y99648D01*
X325689Y99736D01*
X325739Y99823D01*
X325791Y99907D01*
X325847Y99990D01*
X325905Y100070D01*
X325967Y100148D01*
X326032Y100223D01*
X326100Y100296D01*
X326170Y100366D01*
X326243Y100434D01*
X326318Y100499D01*
X326396Y100561D01*
X326476Y100619D01*
X326559Y100675D01*
X326643Y100727D01*
X326730Y100777D01*
X326818Y100822D01*
X326908Y100865D01*
X327000Y100904D01*
X327092Y100939D01*
X327187Y100971D01*
X327282Y100999D01*
X327378Y101024D01*
X327476Y101045D01*
X327574Y101062D01*
X327672Y101075D01*
X327771Y101084D01*
X327871Y101090D01*
X327970Y101092D01*
X331865Y101092D01*
X356023Y95899D02*
X359269Y95899D01*
X359269Y95900D02*
X359382Y95898D01*
X359495Y95892D01*
X359608Y95882D01*
X359721Y95868D01*
X359833Y95851D01*
X359944Y95829D01*
X360054Y95804D01*
X360164Y95774D01*
X360272Y95741D01*
X360379Y95704D01*
X360485Y95664D01*
X360589Y95619D01*
X360692Y95571D01*
X360793Y95520D01*
X360892Y95465D01*
X360989Y95407D01*
X361084Y95345D01*
X361177Y95280D01*
X361267Y95212D01*
X361355Y95141D01*
X361441Y95066D01*
X361524Y94989D01*
X361604Y94909D01*
X361681Y94826D01*
X361756Y94740D01*
X361827Y94652D01*
X361895Y94562D01*
X361960Y94469D01*
X362022Y94374D01*
X362080Y94277D01*
X362135Y94178D01*
X362186Y94077D01*
X362234Y93974D01*
X362279Y93870D01*
X362319Y93764D01*
X362356Y93657D01*
X362389Y93549D01*
X362419Y93439D01*
X362444Y93329D01*
X362466Y93218D01*
X362483Y93106D01*
X362497Y92993D01*
X362507Y92880D01*
X362513Y92767D01*
X362515Y92654D01*
X362513Y92541D01*
X362507Y92428D01*
X362497Y92315D01*
X362483Y92202D01*
X362466Y92090D01*
X362444Y91979D01*
X362419Y91869D01*
X362389Y91759D01*
X362356Y91651D01*
X362319Y91544D01*
X362279Y91438D01*
X362234Y91334D01*
X362186Y91231D01*
X362135Y91130D01*
X362080Y91031D01*
X362022Y90934D01*
X361960Y90839D01*
X361895Y90746D01*
X361827Y90656D01*
X361756Y90568D01*
X361681Y90482D01*
X361604Y90399D01*
X361524Y90319D01*
X361441Y90242D01*
X361355Y90167D01*
X361267Y90096D01*
X361177Y90028D01*
X361084Y89963D01*
X360989Y89901D01*
X360892Y89843D01*
X360793Y89788D01*
X360692Y89737D01*
X360589Y89689D01*
X360485Y89644D01*
X360379Y89604D01*
X360272Y89567D01*
X360164Y89534D01*
X360054Y89504D01*
X359944Y89479D01*
X359833Y89457D01*
X359721Y89440D01*
X359608Y89426D01*
X359495Y89416D01*
X359382Y89410D01*
X359269Y89408D01*
X356023Y89408D01*
X356023Y101092D01*
X359269Y101092D01*
X359370Y101090D01*
X359470Y101084D01*
X359570Y101074D01*
X359670Y101061D01*
X359769Y101043D01*
X359868Y101022D01*
X359965Y100997D01*
X360062Y100968D01*
X360157Y100935D01*
X360251Y100899D01*
X360343Y100859D01*
X360434Y100816D01*
X360523Y100769D01*
X360610Y100719D01*
X360696Y100665D01*
X360779Y100608D01*
X360859Y100548D01*
X360938Y100485D01*
X361014Y100418D01*
X361087Y100349D01*
X361157Y100277D01*
X361225Y100203D01*
X361290Y100126D01*
X361351Y100046D01*
X361410Y99964D01*
X361465Y99880D01*
X361517Y99794D01*
X361566Y99706D01*
X361611Y99616D01*
X361653Y99524D01*
X361691Y99431D01*
X361725Y99336D01*
X361756Y99241D01*
X361783Y99144D01*
X361806Y99046D01*
X361826Y98947D01*
X361841Y98847D01*
X361853Y98747D01*
X361861Y98647D01*
X361865Y98546D01*
X361865Y98446D01*
X361861Y98345D01*
X361853Y98245D01*
X361841Y98145D01*
X361826Y98045D01*
X361806Y97946D01*
X361783Y97848D01*
X361756Y97751D01*
X361725Y97656D01*
X361691Y97561D01*
X361653Y97468D01*
X361611Y97376D01*
X361566Y97286D01*
X361517Y97198D01*
X361465Y97112D01*
X361410Y97028D01*
X361351Y96946D01*
X361290Y96866D01*
X361225Y96789D01*
X361157Y96715D01*
X361087Y96643D01*
X361014Y96574D01*
X360938Y96507D01*
X360859Y96444D01*
X360779Y96384D01*
X360696Y96327D01*
X360610Y96273D01*
X360523Y96223D01*
X360434Y96176D01*
X360343Y96133D01*
X360251Y96093D01*
X360157Y96057D01*
X360062Y96024D01*
X359965Y95995D01*
X359868Y95970D01*
X359769Y95949D01*
X359670Y95931D01*
X359570Y95918D01*
X359470Y95908D01*
X359370Y95902D01*
X359269Y95900D01*
X445008Y98496D02*
X448254Y101092D01*
X448254Y89408D01*
X451499Y89408D02*
X445008Y89408D01*
X460008Y101092D02*
X460115Y101090D01*
X460221Y101084D01*
X460327Y101074D01*
X460433Y101061D01*
X460539Y101043D01*
X460643Y101022D01*
X460747Y100997D01*
X460850Y100968D01*
X460951Y100936D01*
X461051Y100899D01*
X461150Y100859D01*
X461248Y100816D01*
X461344Y100769D01*
X461438Y100718D01*
X461530Y100664D01*
X461620Y100607D01*
X461708Y100547D01*
X461793Y100483D01*
X461876Y100416D01*
X461957Y100346D01*
X462035Y100274D01*
X462111Y100198D01*
X462183Y100120D01*
X462253Y100039D01*
X462320Y99956D01*
X462384Y99871D01*
X462444Y99783D01*
X462501Y99693D01*
X462555Y99601D01*
X462606Y99507D01*
X462653Y99411D01*
X462696Y99313D01*
X462736Y99214D01*
X462773Y99114D01*
X462805Y99013D01*
X462834Y98910D01*
X462859Y98806D01*
X462880Y98702D01*
X462898Y98596D01*
X462911Y98490D01*
X462921Y98384D01*
X462927Y98278D01*
X462929Y98171D01*
X460008Y101092D02*
X459887Y101090D01*
X459766Y101084D01*
X459646Y101074D01*
X459525Y101061D01*
X459406Y101043D01*
X459286Y101022D01*
X459168Y100997D01*
X459051Y100968D01*
X458934Y100935D01*
X458819Y100899D01*
X458705Y100858D01*
X458592Y100815D01*
X458480Y100767D01*
X458371Y100716D01*
X458263Y100661D01*
X458156Y100603D01*
X458052Y100542D01*
X457950Y100477D01*
X457850Y100409D01*
X457752Y100338D01*
X457656Y100264D01*
X457563Y100187D01*
X457473Y100106D01*
X457385Y100023D01*
X457300Y99937D01*
X457217Y99848D01*
X457138Y99757D01*
X457061Y99663D01*
X456988Y99567D01*
X456918Y99469D01*
X456851Y99368D01*
X456787Y99265D01*
X456727Y99160D01*
X456670Y99053D01*
X456616Y98945D01*
X456566Y98835D01*
X456520Y98723D01*
X456477Y98610D01*
X456438Y98495D01*
X461956Y95899D02*
X462035Y95976D01*
X462111Y96057D01*
X462184Y96140D01*
X462254Y96225D01*
X462321Y96313D01*
X462385Y96403D01*
X462445Y96495D01*
X462502Y96590D01*
X462556Y96686D01*
X462607Y96784D01*
X462654Y96884D01*
X462698Y96986D01*
X462738Y97089D01*
X462774Y97193D01*
X462806Y97299D01*
X462835Y97405D01*
X462860Y97513D01*
X462882Y97621D01*
X462899Y97731D01*
X462913Y97840D01*
X462922Y97950D01*
X462928Y98061D01*
X462930Y98171D01*
X461955Y95899D02*
X456438Y89408D01*
X462929Y89408D01*
X471114Y89408D02*
X467219Y101092D01*
X475008Y101092D02*
X471114Y89408D01*
X485849Y89408D02*
X485849Y101092D01*
X489094Y101092D01*
X489207Y101090D01*
X489320Y101084D01*
X489433Y101074D01*
X489546Y101060D01*
X489658Y101043D01*
X489769Y101021D01*
X489879Y100996D01*
X489989Y100966D01*
X490097Y100933D01*
X490204Y100896D01*
X490310Y100856D01*
X490414Y100811D01*
X490517Y100763D01*
X490618Y100712D01*
X490717Y100657D01*
X490814Y100599D01*
X490909Y100537D01*
X491002Y100472D01*
X491092Y100404D01*
X491180Y100333D01*
X491266Y100258D01*
X491349Y100181D01*
X491429Y100101D01*
X491506Y100018D01*
X491581Y99932D01*
X491652Y99844D01*
X491720Y99754D01*
X491785Y99661D01*
X491847Y99566D01*
X491905Y99469D01*
X491960Y99370D01*
X492011Y99269D01*
X492059Y99166D01*
X492104Y99062D01*
X492144Y98956D01*
X492181Y98849D01*
X492214Y98741D01*
X492244Y98631D01*
X492269Y98521D01*
X492291Y98410D01*
X492308Y98298D01*
X492322Y98185D01*
X492332Y98072D01*
X492338Y97959D01*
X492340Y97846D01*
X492338Y97733D01*
X492332Y97620D01*
X492322Y97507D01*
X492308Y97394D01*
X492291Y97282D01*
X492269Y97171D01*
X492244Y97061D01*
X492214Y96951D01*
X492181Y96843D01*
X492144Y96736D01*
X492104Y96630D01*
X492059Y96526D01*
X492011Y96423D01*
X491960Y96322D01*
X491905Y96223D01*
X491847Y96126D01*
X491785Y96031D01*
X491720Y95938D01*
X491652Y95848D01*
X491581Y95760D01*
X491506Y95674D01*
X491429Y95591D01*
X491349Y95511D01*
X491266Y95434D01*
X491180Y95359D01*
X491092Y95288D01*
X491002Y95220D01*
X490909Y95155D01*
X490814Y95093D01*
X490717Y95035D01*
X490618Y94980D01*
X490517Y94929D01*
X490414Y94881D01*
X490310Y94836D01*
X490204Y94796D01*
X490097Y94759D01*
X489989Y94726D01*
X489879Y94696D01*
X489769Y94671D01*
X489658Y94649D01*
X489546Y94632D01*
X489433Y94618D01*
X489320Y94608D01*
X489207Y94602D01*
X489094Y94600D01*
X489094Y94601D02*
X485849Y94601D01*
X489743Y94601D02*
X492340Y89408D01*
X520418Y95899D02*
X522365Y95899D01*
X522365Y89408D01*
X518470Y89408D01*
X518371Y89410D01*
X518271Y89416D01*
X518172Y89425D01*
X518074Y89438D01*
X517976Y89455D01*
X517878Y89476D01*
X517782Y89501D01*
X517687Y89529D01*
X517593Y89561D01*
X517500Y89596D01*
X517408Y89635D01*
X517318Y89678D01*
X517230Y89723D01*
X517143Y89773D01*
X517059Y89825D01*
X516976Y89881D01*
X516896Y89939D01*
X516818Y90001D01*
X516743Y90066D01*
X516670Y90134D01*
X516600Y90204D01*
X516532Y90277D01*
X516467Y90352D01*
X516405Y90430D01*
X516347Y90510D01*
X516291Y90593D01*
X516239Y90677D01*
X516189Y90764D01*
X516144Y90852D01*
X516101Y90942D01*
X516062Y91034D01*
X516027Y91127D01*
X515995Y91221D01*
X515967Y91316D01*
X515942Y91412D01*
X515921Y91510D01*
X515904Y91608D01*
X515891Y91706D01*
X515882Y91805D01*
X515876Y91905D01*
X515874Y92004D01*
X515874Y98496D01*
X515876Y98595D01*
X515882Y98695D01*
X515891Y98794D01*
X515904Y98892D01*
X515921Y98990D01*
X515942Y99088D01*
X515967Y99184D01*
X515995Y99279D01*
X516027Y99373D01*
X516062Y99466D01*
X516101Y99558D01*
X516144Y99648D01*
X516189Y99736D01*
X516239Y99823D01*
X516291Y99907D01*
X516347Y99990D01*
X516405Y100070D01*
X516467Y100148D01*
X516532Y100223D01*
X516600Y100296D01*
X516670Y100366D01*
X516743Y100434D01*
X516818Y100499D01*
X516896Y100561D01*
X516976Y100619D01*
X517059Y100675D01*
X517143Y100727D01*
X517230Y100777D01*
X517318Y100822D01*
X517408Y100865D01*
X517500Y100904D01*
X517592Y100939D01*
X517687Y100971D01*
X517782Y100999D01*
X517878Y101024D01*
X517976Y101045D01*
X518074Y101062D01*
X518172Y101075D01*
X518271Y101084D01*
X518371Y101090D01*
X518470Y101092D01*
X522365Y101092D01*
X546523Y95899D02*
X549769Y95899D01*
X549769Y95900D02*
X549882Y95898D01*
X549995Y95892D01*
X550108Y95882D01*
X550221Y95868D01*
X550333Y95851D01*
X550444Y95829D01*
X550554Y95804D01*
X550664Y95774D01*
X550772Y95741D01*
X550879Y95704D01*
X550985Y95664D01*
X551089Y95619D01*
X551192Y95571D01*
X551293Y95520D01*
X551392Y95465D01*
X551489Y95407D01*
X551584Y95345D01*
X551677Y95280D01*
X551767Y95212D01*
X551855Y95141D01*
X551941Y95066D01*
X552024Y94989D01*
X552104Y94909D01*
X552181Y94826D01*
X552256Y94740D01*
X552327Y94652D01*
X552395Y94562D01*
X552460Y94469D01*
X552522Y94374D01*
X552580Y94277D01*
X552635Y94178D01*
X552686Y94077D01*
X552734Y93974D01*
X552779Y93870D01*
X552819Y93764D01*
X552856Y93657D01*
X552889Y93549D01*
X552919Y93439D01*
X552944Y93329D01*
X552966Y93218D01*
X552983Y93106D01*
X552997Y92993D01*
X553007Y92880D01*
X553013Y92767D01*
X553015Y92654D01*
X553013Y92541D01*
X553007Y92428D01*
X552997Y92315D01*
X552983Y92202D01*
X552966Y92090D01*
X552944Y91979D01*
X552919Y91869D01*
X552889Y91759D01*
X552856Y91651D01*
X552819Y91544D01*
X552779Y91438D01*
X552734Y91334D01*
X552686Y91231D01*
X552635Y91130D01*
X552580Y91031D01*
X552522Y90934D01*
X552460Y90839D01*
X552395Y90746D01*
X552327Y90656D01*
X552256Y90568D01*
X552181Y90482D01*
X552104Y90399D01*
X552024Y90319D01*
X551941Y90242D01*
X551855Y90167D01*
X551767Y90096D01*
X551677Y90028D01*
X551584Y89963D01*
X551489Y89901D01*
X551392Y89843D01*
X551293Y89788D01*
X551192Y89737D01*
X551089Y89689D01*
X550985Y89644D01*
X550879Y89604D01*
X550772Y89567D01*
X550664Y89534D01*
X550554Y89504D01*
X550444Y89479D01*
X550333Y89457D01*
X550221Y89440D01*
X550108Y89426D01*
X549995Y89416D01*
X549882Y89410D01*
X549769Y89408D01*
X546523Y89408D01*
X546523Y101092D01*
X549769Y101092D01*
X549870Y101090D01*
X549970Y101084D01*
X550070Y101074D01*
X550170Y101061D01*
X550269Y101043D01*
X550368Y101022D01*
X550465Y100997D01*
X550562Y100968D01*
X550657Y100935D01*
X550751Y100899D01*
X550843Y100859D01*
X550934Y100816D01*
X551023Y100769D01*
X551110Y100719D01*
X551196Y100665D01*
X551279Y100608D01*
X551359Y100548D01*
X551438Y100485D01*
X551514Y100418D01*
X551587Y100349D01*
X551657Y100277D01*
X551725Y100203D01*
X551790Y100126D01*
X551851Y100046D01*
X551910Y99964D01*
X551965Y99880D01*
X552017Y99794D01*
X552066Y99706D01*
X552111Y99616D01*
X552153Y99524D01*
X552191Y99431D01*
X552225Y99336D01*
X552256Y99241D01*
X552283Y99144D01*
X552306Y99046D01*
X552326Y98947D01*
X552341Y98847D01*
X552353Y98747D01*
X552361Y98647D01*
X552365Y98546D01*
X552365Y98446D01*
X552361Y98345D01*
X552353Y98245D01*
X552341Y98145D01*
X552326Y98045D01*
X552306Y97946D01*
X552283Y97848D01*
X552256Y97751D01*
X552225Y97656D01*
X552191Y97561D01*
X552153Y97468D01*
X552111Y97376D01*
X552066Y97286D01*
X552017Y97198D01*
X551965Y97112D01*
X551910Y97028D01*
X551851Y96946D01*
X551790Y96866D01*
X551725Y96789D01*
X551657Y96715D01*
X551587Y96643D01*
X551514Y96574D01*
X551438Y96507D01*
X551359Y96444D01*
X551279Y96384D01*
X551196Y96327D01*
X551110Y96273D01*
X551023Y96223D01*
X550934Y96176D01*
X550843Y96133D01*
X550751Y96093D01*
X550657Y96057D01*
X550562Y96024D01*
X550465Y95995D01*
X550368Y95970D01*
X550269Y95949D01*
X550170Y95931D01*
X550070Y95918D01*
X549970Y95908D01*
X549870Y95902D01*
X549769Y95900D01*
X648208Y98496D02*
X651454Y101092D01*
X651454Y89408D01*
X654699Y89408D02*
X648208Y89408D01*
X663208Y101092D02*
X663315Y101090D01*
X663421Y101084D01*
X663527Y101074D01*
X663633Y101061D01*
X663739Y101043D01*
X663843Y101022D01*
X663947Y100997D01*
X664050Y100968D01*
X664151Y100936D01*
X664251Y100899D01*
X664350Y100859D01*
X664448Y100816D01*
X664544Y100769D01*
X664638Y100718D01*
X664730Y100664D01*
X664820Y100607D01*
X664908Y100547D01*
X664993Y100483D01*
X665076Y100416D01*
X665157Y100346D01*
X665235Y100274D01*
X665311Y100198D01*
X665383Y100120D01*
X665453Y100039D01*
X665520Y99956D01*
X665584Y99871D01*
X665644Y99783D01*
X665701Y99693D01*
X665755Y99601D01*
X665806Y99507D01*
X665853Y99411D01*
X665896Y99313D01*
X665936Y99214D01*
X665973Y99114D01*
X666005Y99013D01*
X666034Y98910D01*
X666059Y98806D01*
X666080Y98702D01*
X666098Y98596D01*
X666111Y98490D01*
X666121Y98384D01*
X666127Y98278D01*
X666129Y98171D01*
X663208Y101092D02*
X663087Y101090D01*
X662966Y101084D01*
X662846Y101074D01*
X662725Y101061D01*
X662606Y101043D01*
X662486Y101022D01*
X662368Y100997D01*
X662251Y100968D01*
X662134Y100935D01*
X662019Y100899D01*
X661905Y100858D01*
X661792Y100815D01*
X661680Y100767D01*
X661571Y100716D01*
X661463Y100661D01*
X661356Y100603D01*
X661252Y100542D01*
X661150Y100477D01*
X661050Y100409D01*
X660952Y100338D01*
X660856Y100264D01*
X660763Y100187D01*
X660673Y100106D01*
X660585Y100023D01*
X660500Y99937D01*
X660417Y99848D01*
X660338Y99757D01*
X660261Y99663D01*
X660188Y99567D01*
X660118Y99469D01*
X660051Y99368D01*
X659987Y99265D01*
X659927Y99160D01*
X659870Y99053D01*
X659816Y98945D01*
X659766Y98835D01*
X659720Y98723D01*
X659677Y98610D01*
X659638Y98495D01*
X665156Y95899D02*
X665235Y95976D01*
X665311Y96057D01*
X665384Y96140D01*
X665454Y96225D01*
X665521Y96313D01*
X665585Y96403D01*
X665645Y96495D01*
X665702Y96590D01*
X665756Y96686D01*
X665807Y96784D01*
X665854Y96884D01*
X665898Y96986D01*
X665938Y97089D01*
X665974Y97193D01*
X666006Y97299D01*
X666035Y97405D01*
X666060Y97513D01*
X666082Y97621D01*
X666099Y97731D01*
X666113Y97840D01*
X666122Y97950D01*
X666128Y98061D01*
X666130Y98171D01*
X665155Y95899D02*
X659638Y89408D01*
X666129Y89408D01*
X674314Y89408D02*
X670419Y101092D01*
X678208Y101092D02*
X674314Y89408D01*
X689049Y89408D02*
X689049Y101092D01*
X692294Y101092D01*
X692407Y101090D01*
X692520Y101084D01*
X692633Y101074D01*
X692746Y101060D01*
X692858Y101043D01*
X692969Y101021D01*
X693079Y100996D01*
X693189Y100966D01*
X693297Y100933D01*
X693404Y100896D01*
X693510Y100856D01*
X693614Y100811D01*
X693717Y100763D01*
X693818Y100712D01*
X693917Y100657D01*
X694014Y100599D01*
X694109Y100537D01*
X694202Y100472D01*
X694292Y100404D01*
X694380Y100333D01*
X694466Y100258D01*
X694549Y100181D01*
X694629Y100101D01*
X694706Y100018D01*
X694781Y99932D01*
X694852Y99844D01*
X694920Y99754D01*
X694985Y99661D01*
X695047Y99566D01*
X695105Y99469D01*
X695160Y99370D01*
X695211Y99269D01*
X695259Y99166D01*
X695304Y99062D01*
X695344Y98956D01*
X695381Y98849D01*
X695414Y98741D01*
X695444Y98631D01*
X695469Y98521D01*
X695491Y98410D01*
X695508Y98298D01*
X695522Y98185D01*
X695532Y98072D01*
X695538Y97959D01*
X695540Y97846D01*
X695538Y97733D01*
X695532Y97620D01*
X695522Y97507D01*
X695508Y97394D01*
X695491Y97282D01*
X695469Y97171D01*
X695444Y97061D01*
X695414Y96951D01*
X695381Y96843D01*
X695344Y96736D01*
X695304Y96630D01*
X695259Y96526D01*
X695211Y96423D01*
X695160Y96322D01*
X695105Y96223D01*
X695047Y96126D01*
X694985Y96031D01*
X694920Y95938D01*
X694852Y95848D01*
X694781Y95760D01*
X694706Y95674D01*
X694629Y95591D01*
X694549Y95511D01*
X694466Y95434D01*
X694380Y95359D01*
X694292Y95288D01*
X694202Y95220D01*
X694109Y95155D01*
X694014Y95093D01*
X693917Y95035D01*
X693818Y94980D01*
X693717Y94929D01*
X693614Y94881D01*
X693510Y94836D01*
X693404Y94796D01*
X693297Y94759D01*
X693189Y94726D01*
X693079Y94696D01*
X692969Y94671D01*
X692858Y94649D01*
X692746Y94632D01*
X692633Y94618D01*
X692520Y94608D01*
X692407Y94602D01*
X692294Y94600D01*
X692294Y94601D02*
X689049Y94601D01*
X692943Y94601D02*
X695540Y89408D01*
X723618Y95899D02*
X725565Y95899D01*
X725565Y89408D01*
X721670Y89408D01*
X721571Y89410D01*
X721471Y89416D01*
X721372Y89425D01*
X721274Y89438D01*
X721176Y89455D01*
X721078Y89476D01*
X720982Y89501D01*
X720887Y89529D01*
X720793Y89561D01*
X720700Y89596D01*
X720608Y89635D01*
X720518Y89678D01*
X720430Y89723D01*
X720343Y89773D01*
X720259Y89825D01*
X720176Y89881D01*
X720096Y89939D01*
X720018Y90001D01*
X719943Y90066D01*
X719870Y90134D01*
X719800Y90204D01*
X719732Y90277D01*
X719667Y90352D01*
X719605Y90430D01*
X719547Y90510D01*
X719491Y90593D01*
X719439Y90677D01*
X719389Y90764D01*
X719344Y90852D01*
X719301Y90942D01*
X719262Y91034D01*
X719227Y91127D01*
X719195Y91221D01*
X719167Y91316D01*
X719142Y91412D01*
X719121Y91510D01*
X719104Y91608D01*
X719091Y91706D01*
X719082Y91805D01*
X719076Y91905D01*
X719074Y92004D01*
X719074Y98496D01*
X719076Y98595D01*
X719082Y98695D01*
X719091Y98794D01*
X719104Y98892D01*
X719121Y98990D01*
X719142Y99088D01*
X719167Y99184D01*
X719195Y99279D01*
X719227Y99373D01*
X719262Y99466D01*
X719301Y99558D01*
X719344Y99648D01*
X719389Y99736D01*
X719439Y99823D01*
X719491Y99907D01*
X719547Y99990D01*
X719605Y100070D01*
X719667Y100148D01*
X719732Y100223D01*
X719800Y100296D01*
X719870Y100366D01*
X719943Y100434D01*
X720018Y100499D01*
X720096Y100561D01*
X720176Y100619D01*
X720259Y100675D01*
X720343Y100727D01*
X720430Y100777D01*
X720518Y100822D01*
X720608Y100865D01*
X720700Y100904D01*
X720792Y100939D01*
X720887Y100971D01*
X720982Y100999D01*
X721078Y101024D01*
X721176Y101045D01*
X721274Y101062D01*
X721372Y101075D01*
X721471Y101084D01*
X721571Y101090D01*
X721670Y101092D01*
X725565Y101092D01*
X749723Y95899D02*
X752969Y95899D01*
X752969Y95900D02*
X753082Y95898D01*
X753195Y95892D01*
X753308Y95882D01*
X753421Y95868D01*
X753533Y95851D01*
X753644Y95829D01*
X753754Y95804D01*
X753864Y95774D01*
X753972Y95741D01*
X754079Y95704D01*
X754185Y95664D01*
X754289Y95619D01*
X754392Y95571D01*
X754493Y95520D01*
X754592Y95465D01*
X754689Y95407D01*
X754784Y95345D01*
X754877Y95280D01*
X754967Y95212D01*
X755055Y95141D01*
X755141Y95066D01*
X755224Y94989D01*
X755304Y94909D01*
X755381Y94826D01*
X755456Y94740D01*
X755527Y94652D01*
X755595Y94562D01*
X755660Y94469D01*
X755722Y94374D01*
X755780Y94277D01*
X755835Y94178D01*
X755886Y94077D01*
X755934Y93974D01*
X755979Y93870D01*
X756019Y93764D01*
X756056Y93657D01*
X756089Y93549D01*
X756119Y93439D01*
X756144Y93329D01*
X756166Y93218D01*
X756183Y93106D01*
X756197Y92993D01*
X756207Y92880D01*
X756213Y92767D01*
X756215Y92654D01*
X756213Y92541D01*
X756207Y92428D01*
X756197Y92315D01*
X756183Y92202D01*
X756166Y92090D01*
X756144Y91979D01*
X756119Y91869D01*
X756089Y91759D01*
X756056Y91651D01*
X756019Y91544D01*
X755979Y91438D01*
X755934Y91334D01*
X755886Y91231D01*
X755835Y91130D01*
X755780Y91031D01*
X755722Y90934D01*
X755660Y90839D01*
X755595Y90746D01*
X755527Y90656D01*
X755456Y90568D01*
X755381Y90482D01*
X755304Y90399D01*
X755224Y90319D01*
X755141Y90242D01*
X755055Y90167D01*
X754967Y90096D01*
X754877Y90028D01*
X754784Y89963D01*
X754689Y89901D01*
X754592Y89843D01*
X754493Y89788D01*
X754392Y89737D01*
X754289Y89689D01*
X754185Y89644D01*
X754079Y89604D01*
X753972Y89567D01*
X753864Y89534D01*
X753754Y89504D01*
X753644Y89479D01*
X753533Y89457D01*
X753421Y89440D01*
X753308Y89426D01*
X753195Y89416D01*
X753082Y89410D01*
X752969Y89408D01*
X749723Y89408D01*
X749723Y101092D01*
X752969Y101092D01*
X753070Y101090D01*
X753170Y101084D01*
X753270Y101074D01*
X753370Y101061D01*
X753469Y101043D01*
X753568Y101022D01*
X753665Y100997D01*
X753762Y100968D01*
X753857Y100935D01*
X753951Y100899D01*
X754043Y100859D01*
X754134Y100816D01*
X754223Y100769D01*
X754310Y100719D01*
X754396Y100665D01*
X754479Y100608D01*
X754559Y100548D01*
X754638Y100485D01*
X754714Y100418D01*
X754787Y100349D01*
X754857Y100277D01*
X754925Y100203D01*
X754990Y100126D01*
X755051Y100046D01*
X755110Y99964D01*
X755165Y99880D01*
X755217Y99794D01*
X755266Y99706D01*
X755311Y99616D01*
X755353Y99524D01*
X755391Y99431D01*
X755425Y99336D01*
X755456Y99241D01*
X755483Y99144D01*
X755506Y99046D01*
X755526Y98947D01*
X755541Y98847D01*
X755553Y98747D01*
X755561Y98647D01*
X755565Y98546D01*
X755565Y98446D01*
X755561Y98345D01*
X755553Y98245D01*
X755541Y98145D01*
X755526Y98045D01*
X755506Y97946D01*
X755483Y97848D01*
X755456Y97751D01*
X755425Y97656D01*
X755391Y97561D01*
X755353Y97468D01*
X755311Y97376D01*
X755266Y97286D01*
X755217Y97198D01*
X755165Y97112D01*
X755110Y97028D01*
X755051Y96946D01*
X754990Y96866D01*
X754925Y96789D01*
X754857Y96715D01*
X754787Y96643D01*
X754714Y96574D01*
X754638Y96507D01*
X754559Y96444D01*
X754479Y96384D01*
X754396Y96327D01*
X754310Y96273D01*
X754223Y96223D01*
X754134Y96176D01*
X754043Y96133D01*
X753951Y96093D01*
X753857Y96057D01*
X753762Y96024D01*
X753665Y95995D01*
X753568Y95970D01*
X753469Y95949D01*
X753370Y95931D01*
X753270Y95918D01*
X753170Y95908D01*
X753070Y95902D01*
X752969Y95900D01*
X851408Y98496D02*
X854654Y101092D01*
X854654Y89408D01*
X857899Y89408D02*
X851408Y89408D01*
X866408Y101092D02*
X866515Y101090D01*
X866621Y101084D01*
X866727Y101074D01*
X866833Y101061D01*
X866939Y101043D01*
X867043Y101022D01*
X867147Y100997D01*
X867250Y100968D01*
X867351Y100936D01*
X867451Y100899D01*
X867550Y100859D01*
X867648Y100816D01*
X867744Y100769D01*
X867838Y100718D01*
X867930Y100664D01*
X868020Y100607D01*
X868108Y100547D01*
X868193Y100483D01*
X868276Y100416D01*
X868357Y100346D01*
X868435Y100274D01*
X868511Y100198D01*
X868583Y100120D01*
X868653Y100039D01*
X868720Y99956D01*
X868784Y99871D01*
X868844Y99783D01*
X868901Y99693D01*
X868955Y99601D01*
X869006Y99507D01*
X869053Y99411D01*
X869096Y99313D01*
X869136Y99214D01*
X869173Y99114D01*
X869205Y99013D01*
X869234Y98910D01*
X869259Y98806D01*
X869280Y98702D01*
X869298Y98596D01*
X869311Y98490D01*
X869321Y98384D01*
X869327Y98278D01*
X869329Y98171D01*
X866408Y101092D02*
X866287Y101090D01*
X866166Y101084D01*
X866046Y101074D01*
X865925Y101061D01*
X865806Y101043D01*
X865686Y101022D01*
X865568Y100997D01*
X865451Y100968D01*
X865334Y100935D01*
X865219Y100899D01*
X865105Y100858D01*
X864992Y100815D01*
X864880Y100767D01*
X864771Y100716D01*
X864663Y100661D01*
X864556Y100603D01*
X864452Y100542D01*
X864350Y100477D01*
X864250Y100409D01*
X864152Y100338D01*
X864056Y100264D01*
X863963Y100187D01*
X863873Y100106D01*
X863785Y100023D01*
X863700Y99937D01*
X863617Y99848D01*
X863538Y99757D01*
X863461Y99663D01*
X863388Y99567D01*
X863318Y99469D01*
X863251Y99368D01*
X863187Y99265D01*
X863127Y99160D01*
X863070Y99053D01*
X863016Y98945D01*
X862966Y98835D01*
X862920Y98723D01*
X862877Y98610D01*
X862838Y98495D01*
X868356Y95899D02*
X868435Y95976D01*
X868511Y96057D01*
X868584Y96140D01*
X868654Y96225D01*
X868721Y96313D01*
X868785Y96403D01*
X868845Y96495D01*
X868902Y96590D01*
X868956Y96686D01*
X869007Y96784D01*
X869054Y96884D01*
X869098Y96986D01*
X869138Y97089D01*
X869174Y97193D01*
X869206Y97299D01*
X869235Y97405D01*
X869260Y97513D01*
X869282Y97621D01*
X869299Y97731D01*
X869313Y97840D01*
X869322Y97950D01*
X869328Y98061D01*
X869330Y98171D01*
X868355Y95899D02*
X862838Y89408D01*
X869329Y89408D01*
X877514Y89408D02*
X873619Y101092D01*
X881408Y101092D02*
X877514Y89408D01*
X892249Y89408D02*
X892249Y101092D01*
X895494Y101092D01*
X895607Y101090D01*
X895720Y101084D01*
X895833Y101074D01*
X895946Y101060D01*
X896058Y101043D01*
X896169Y101021D01*
X896279Y100996D01*
X896389Y100966D01*
X896497Y100933D01*
X896604Y100896D01*
X896710Y100856D01*
X896814Y100811D01*
X896917Y100763D01*
X897018Y100712D01*
X897117Y100657D01*
X897214Y100599D01*
X897309Y100537D01*
X897402Y100472D01*
X897492Y100404D01*
X897580Y100333D01*
X897666Y100258D01*
X897749Y100181D01*
X897829Y100101D01*
X897906Y100018D01*
X897981Y99932D01*
X898052Y99844D01*
X898120Y99754D01*
X898185Y99661D01*
X898247Y99566D01*
X898305Y99469D01*
X898360Y99370D01*
X898411Y99269D01*
X898459Y99166D01*
X898504Y99062D01*
X898544Y98956D01*
X898581Y98849D01*
X898614Y98741D01*
X898644Y98631D01*
X898669Y98521D01*
X898691Y98410D01*
X898708Y98298D01*
X898722Y98185D01*
X898732Y98072D01*
X898738Y97959D01*
X898740Y97846D01*
X898738Y97733D01*
X898732Y97620D01*
X898722Y97507D01*
X898708Y97394D01*
X898691Y97282D01*
X898669Y97171D01*
X898644Y97061D01*
X898614Y96951D01*
X898581Y96843D01*
X898544Y96736D01*
X898504Y96630D01*
X898459Y96526D01*
X898411Y96423D01*
X898360Y96322D01*
X898305Y96223D01*
X898247Y96126D01*
X898185Y96031D01*
X898120Y95938D01*
X898052Y95848D01*
X897981Y95760D01*
X897906Y95674D01*
X897829Y95591D01*
X897749Y95511D01*
X897666Y95434D01*
X897580Y95359D01*
X897492Y95288D01*
X897402Y95220D01*
X897309Y95155D01*
X897214Y95093D01*
X897117Y95035D01*
X897018Y94980D01*
X896917Y94929D01*
X896814Y94881D01*
X896710Y94836D01*
X896604Y94796D01*
X896497Y94759D01*
X896389Y94726D01*
X896279Y94696D01*
X896169Y94671D01*
X896058Y94649D01*
X895946Y94632D01*
X895833Y94618D01*
X895720Y94608D01*
X895607Y94602D01*
X895494Y94600D01*
X895494Y94601D02*
X892249Y94601D01*
X896143Y94601D02*
X898740Y89408D01*
X926818Y95899D02*
X928765Y95899D01*
X928765Y89408D01*
X924870Y89408D01*
X924771Y89410D01*
X924671Y89416D01*
X924572Y89425D01*
X924474Y89438D01*
X924376Y89455D01*
X924278Y89476D01*
X924182Y89501D01*
X924087Y89529D01*
X923993Y89561D01*
X923900Y89596D01*
X923808Y89635D01*
X923718Y89678D01*
X923630Y89723D01*
X923543Y89773D01*
X923459Y89825D01*
X923376Y89881D01*
X923296Y89939D01*
X923218Y90001D01*
X923143Y90066D01*
X923070Y90134D01*
X923000Y90204D01*
X922932Y90277D01*
X922867Y90352D01*
X922805Y90430D01*
X922747Y90510D01*
X922691Y90593D01*
X922639Y90677D01*
X922589Y90764D01*
X922544Y90852D01*
X922501Y90942D01*
X922462Y91034D01*
X922427Y91127D01*
X922395Y91221D01*
X922367Y91316D01*
X922342Y91412D01*
X922321Y91510D01*
X922304Y91608D01*
X922291Y91706D01*
X922282Y91805D01*
X922276Y91905D01*
X922274Y92004D01*
X922274Y98496D01*
X922276Y98595D01*
X922282Y98695D01*
X922291Y98794D01*
X922304Y98892D01*
X922321Y98990D01*
X922342Y99088D01*
X922367Y99184D01*
X922395Y99279D01*
X922427Y99373D01*
X922462Y99466D01*
X922501Y99558D01*
X922544Y99648D01*
X922589Y99736D01*
X922639Y99823D01*
X922691Y99907D01*
X922747Y99990D01*
X922805Y100070D01*
X922867Y100148D01*
X922932Y100223D01*
X923000Y100296D01*
X923070Y100366D01*
X923143Y100434D01*
X923218Y100499D01*
X923296Y100561D01*
X923376Y100619D01*
X923459Y100675D01*
X923543Y100727D01*
X923630Y100777D01*
X923718Y100822D01*
X923808Y100865D01*
X923900Y100904D01*
X923992Y100939D01*
X924087Y100971D01*
X924182Y100999D01*
X924278Y101024D01*
X924376Y101045D01*
X924474Y101062D01*
X924572Y101075D01*
X924671Y101084D01*
X924771Y101090D01*
X924870Y101092D01*
X928765Y101092D01*
X952923Y95899D02*
X956169Y95899D01*
X956169Y95900D02*
X956282Y95898D01*
X956395Y95892D01*
X956508Y95882D01*
X956621Y95868D01*
X956733Y95851D01*
X956844Y95829D01*
X956954Y95804D01*
X957064Y95774D01*
X957172Y95741D01*
X957279Y95704D01*
X957385Y95664D01*
X957489Y95619D01*
X957592Y95571D01*
X957693Y95520D01*
X957792Y95465D01*
X957889Y95407D01*
X957984Y95345D01*
X958077Y95280D01*
X958167Y95212D01*
X958255Y95141D01*
X958341Y95066D01*
X958424Y94989D01*
X958504Y94909D01*
X958581Y94826D01*
X958656Y94740D01*
X958727Y94652D01*
X958795Y94562D01*
X958860Y94469D01*
X958922Y94374D01*
X958980Y94277D01*
X959035Y94178D01*
X959086Y94077D01*
X959134Y93974D01*
X959179Y93870D01*
X959219Y93764D01*
X959256Y93657D01*
X959289Y93549D01*
X959319Y93439D01*
X959344Y93329D01*
X959366Y93218D01*
X959383Y93106D01*
X959397Y92993D01*
X959407Y92880D01*
X959413Y92767D01*
X959415Y92654D01*
X959413Y92541D01*
X959407Y92428D01*
X959397Y92315D01*
X959383Y92202D01*
X959366Y92090D01*
X959344Y91979D01*
X959319Y91869D01*
X959289Y91759D01*
X959256Y91651D01*
X959219Y91544D01*
X959179Y91438D01*
X959134Y91334D01*
X959086Y91231D01*
X959035Y91130D01*
X958980Y91031D01*
X958922Y90934D01*
X958860Y90839D01*
X958795Y90746D01*
X958727Y90656D01*
X958656Y90568D01*
X958581Y90482D01*
X958504Y90399D01*
X958424Y90319D01*
X958341Y90242D01*
X958255Y90167D01*
X958167Y90096D01*
X958077Y90028D01*
X957984Y89963D01*
X957889Y89901D01*
X957792Y89843D01*
X957693Y89788D01*
X957592Y89737D01*
X957489Y89689D01*
X957385Y89644D01*
X957279Y89604D01*
X957172Y89567D01*
X957064Y89534D01*
X956954Y89504D01*
X956844Y89479D01*
X956733Y89457D01*
X956621Y89440D01*
X956508Y89426D01*
X956395Y89416D01*
X956282Y89410D01*
X956169Y89408D01*
X952923Y89408D01*
X952923Y101092D01*
X956169Y101092D01*
X956270Y101090D01*
X956370Y101084D01*
X956470Y101074D01*
X956570Y101061D01*
X956669Y101043D01*
X956768Y101022D01*
X956865Y100997D01*
X956962Y100968D01*
X957057Y100935D01*
X957151Y100899D01*
X957243Y100859D01*
X957334Y100816D01*
X957423Y100769D01*
X957510Y100719D01*
X957596Y100665D01*
X957679Y100608D01*
X957759Y100548D01*
X957838Y100485D01*
X957914Y100418D01*
X957987Y100349D01*
X958057Y100277D01*
X958125Y100203D01*
X958190Y100126D01*
X958251Y100046D01*
X958310Y99964D01*
X958365Y99880D01*
X958417Y99794D01*
X958466Y99706D01*
X958511Y99616D01*
X958553Y99524D01*
X958591Y99431D01*
X958625Y99336D01*
X958656Y99241D01*
X958683Y99144D01*
X958706Y99046D01*
X958726Y98947D01*
X958741Y98847D01*
X958753Y98747D01*
X958761Y98647D01*
X958765Y98546D01*
X958765Y98446D01*
X958761Y98345D01*
X958753Y98245D01*
X958741Y98145D01*
X958726Y98045D01*
X958706Y97946D01*
X958683Y97848D01*
X958656Y97751D01*
X958625Y97656D01*
X958591Y97561D01*
X958553Y97468D01*
X958511Y97376D01*
X958466Y97286D01*
X958417Y97198D01*
X958365Y97112D01*
X958310Y97028D01*
X958251Y96946D01*
X958190Y96866D01*
X958125Y96789D01*
X958057Y96715D01*
X957987Y96643D01*
X957914Y96574D01*
X957838Y96507D01*
X957759Y96444D01*
X957679Y96384D01*
X957596Y96327D01*
X957510Y96273D01*
X957423Y96223D01*
X957334Y96176D01*
X957243Y96133D01*
X957151Y96093D01*
X957057Y96057D01*
X956962Y96024D01*
X956865Y95995D01*
X956768Y95970D01*
X956669Y95949D01*
X956570Y95931D01*
X956470Y95918D01*
X956370Y95908D01*
X956270Y95902D01*
X956169Y95900D01*
X1067308Y98496D02*
X1070554Y101092D01*
X1070554Y89408D01*
X1073799Y89408D02*
X1067308Y89408D01*
X1082308Y101092D02*
X1082415Y101090D01*
X1082521Y101084D01*
X1082627Y101074D01*
X1082733Y101061D01*
X1082839Y101043D01*
X1082943Y101022D01*
X1083047Y100997D01*
X1083150Y100968D01*
X1083251Y100936D01*
X1083351Y100899D01*
X1083450Y100859D01*
X1083548Y100816D01*
X1083644Y100769D01*
X1083738Y100718D01*
X1083830Y100664D01*
X1083920Y100607D01*
X1084008Y100547D01*
X1084093Y100483D01*
X1084176Y100416D01*
X1084257Y100346D01*
X1084335Y100274D01*
X1084411Y100198D01*
X1084483Y100120D01*
X1084553Y100039D01*
X1084620Y99956D01*
X1084684Y99871D01*
X1084744Y99783D01*
X1084801Y99693D01*
X1084855Y99601D01*
X1084906Y99507D01*
X1084953Y99411D01*
X1084996Y99313D01*
X1085036Y99214D01*
X1085073Y99114D01*
X1085105Y99013D01*
X1085134Y98910D01*
X1085159Y98806D01*
X1085180Y98702D01*
X1085198Y98596D01*
X1085211Y98490D01*
X1085221Y98384D01*
X1085227Y98278D01*
X1085229Y98171D01*
X1082308Y101092D02*
X1082187Y101090D01*
X1082066Y101084D01*
X1081946Y101074D01*
X1081825Y101061D01*
X1081706Y101043D01*
X1081586Y101022D01*
X1081468Y100997D01*
X1081351Y100968D01*
X1081234Y100935D01*
X1081119Y100899D01*
X1081005Y100858D01*
X1080892Y100815D01*
X1080780Y100767D01*
X1080671Y100716D01*
X1080563Y100661D01*
X1080456Y100603D01*
X1080352Y100542D01*
X1080250Y100477D01*
X1080150Y100409D01*
X1080052Y100338D01*
X1079956Y100264D01*
X1079863Y100187D01*
X1079773Y100106D01*
X1079685Y100023D01*
X1079600Y99937D01*
X1079517Y99848D01*
X1079438Y99757D01*
X1079361Y99663D01*
X1079288Y99567D01*
X1079218Y99469D01*
X1079151Y99368D01*
X1079087Y99265D01*
X1079027Y99160D01*
X1078970Y99053D01*
X1078916Y98945D01*
X1078866Y98835D01*
X1078820Y98723D01*
X1078777Y98610D01*
X1078738Y98495D01*
X1084256Y95899D02*
X1084335Y95976D01*
X1084411Y96057D01*
X1084484Y96140D01*
X1084554Y96225D01*
X1084621Y96313D01*
X1084685Y96403D01*
X1084745Y96495D01*
X1084802Y96590D01*
X1084856Y96686D01*
X1084907Y96784D01*
X1084954Y96884D01*
X1084998Y96986D01*
X1085038Y97089D01*
X1085074Y97193D01*
X1085106Y97299D01*
X1085135Y97405D01*
X1085160Y97513D01*
X1085182Y97621D01*
X1085199Y97731D01*
X1085213Y97840D01*
X1085222Y97950D01*
X1085228Y98061D01*
X1085230Y98171D01*
X1084255Y95899D02*
X1078738Y89408D01*
X1085229Y89408D01*
X1093414Y89408D02*
X1089519Y101092D01*
X1097308Y101092D02*
X1093414Y89408D01*
X1108149Y89408D02*
X1108149Y101092D01*
X1111394Y101092D01*
X1111507Y101090D01*
X1111620Y101084D01*
X1111733Y101074D01*
X1111846Y101060D01*
X1111958Y101043D01*
X1112069Y101021D01*
X1112179Y100996D01*
X1112289Y100966D01*
X1112397Y100933D01*
X1112504Y100896D01*
X1112610Y100856D01*
X1112714Y100811D01*
X1112817Y100763D01*
X1112918Y100712D01*
X1113017Y100657D01*
X1113114Y100599D01*
X1113209Y100537D01*
X1113302Y100472D01*
X1113392Y100404D01*
X1113480Y100333D01*
X1113566Y100258D01*
X1113649Y100181D01*
X1113729Y100101D01*
X1113806Y100018D01*
X1113881Y99932D01*
X1113952Y99844D01*
X1114020Y99754D01*
X1114085Y99661D01*
X1114147Y99566D01*
X1114205Y99469D01*
X1114260Y99370D01*
X1114311Y99269D01*
X1114359Y99166D01*
X1114404Y99062D01*
X1114444Y98956D01*
X1114481Y98849D01*
X1114514Y98741D01*
X1114544Y98631D01*
X1114569Y98521D01*
X1114591Y98410D01*
X1114608Y98298D01*
X1114622Y98185D01*
X1114632Y98072D01*
X1114638Y97959D01*
X1114640Y97846D01*
X1114638Y97733D01*
X1114632Y97620D01*
X1114622Y97507D01*
X1114608Y97394D01*
X1114591Y97282D01*
X1114569Y97171D01*
X1114544Y97061D01*
X1114514Y96951D01*
X1114481Y96843D01*
X1114444Y96736D01*
X1114404Y96630D01*
X1114359Y96526D01*
X1114311Y96423D01*
X1114260Y96322D01*
X1114205Y96223D01*
X1114147Y96126D01*
X1114085Y96031D01*
X1114020Y95938D01*
X1113952Y95848D01*
X1113881Y95760D01*
X1113806Y95674D01*
X1113729Y95591D01*
X1113649Y95511D01*
X1113566Y95434D01*
X1113480Y95359D01*
X1113392Y95288D01*
X1113302Y95220D01*
X1113209Y95155D01*
X1113114Y95093D01*
X1113017Y95035D01*
X1112918Y94980D01*
X1112817Y94929D01*
X1112714Y94881D01*
X1112610Y94836D01*
X1112504Y94796D01*
X1112397Y94759D01*
X1112289Y94726D01*
X1112179Y94696D01*
X1112069Y94671D01*
X1111958Y94649D01*
X1111846Y94632D01*
X1111733Y94618D01*
X1111620Y94608D01*
X1111507Y94602D01*
X1111394Y94600D01*
X1111394Y94601D02*
X1108149Y94601D01*
X1112043Y94601D02*
X1114640Y89408D01*
X1142718Y95899D02*
X1144665Y95899D01*
X1144665Y89408D01*
X1140770Y89408D01*
X1140671Y89410D01*
X1140571Y89416D01*
X1140472Y89425D01*
X1140374Y89438D01*
X1140276Y89455D01*
X1140178Y89476D01*
X1140082Y89501D01*
X1139987Y89529D01*
X1139893Y89561D01*
X1139800Y89596D01*
X1139708Y89635D01*
X1139618Y89678D01*
X1139530Y89723D01*
X1139443Y89773D01*
X1139359Y89825D01*
X1139276Y89881D01*
X1139196Y89939D01*
X1139118Y90001D01*
X1139043Y90066D01*
X1138970Y90134D01*
X1138900Y90204D01*
X1138832Y90277D01*
X1138767Y90352D01*
X1138705Y90430D01*
X1138647Y90510D01*
X1138591Y90593D01*
X1138539Y90677D01*
X1138489Y90764D01*
X1138444Y90852D01*
X1138401Y90942D01*
X1138362Y91034D01*
X1138327Y91127D01*
X1138295Y91221D01*
X1138267Y91316D01*
X1138242Y91412D01*
X1138221Y91510D01*
X1138204Y91608D01*
X1138191Y91706D01*
X1138182Y91805D01*
X1138176Y91905D01*
X1138174Y92004D01*
X1138174Y98496D01*
X1138176Y98595D01*
X1138182Y98695D01*
X1138191Y98794D01*
X1138204Y98892D01*
X1138221Y98990D01*
X1138242Y99088D01*
X1138267Y99184D01*
X1138295Y99279D01*
X1138327Y99373D01*
X1138362Y99466D01*
X1138401Y99558D01*
X1138444Y99648D01*
X1138489Y99736D01*
X1138539Y99823D01*
X1138591Y99907D01*
X1138647Y99990D01*
X1138705Y100070D01*
X1138767Y100148D01*
X1138832Y100223D01*
X1138900Y100296D01*
X1138970Y100366D01*
X1139043Y100434D01*
X1139118Y100499D01*
X1139196Y100561D01*
X1139276Y100619D01*
X1139359Y100675D01*
X1139443Y100727D01*
X1139530Y100777D01*
X1139618Y100822D01*
X1139708Y100865D01*
X1139800Y100904D01*
X1139892Y100939D01*
X1139987Y100971D01*
X1140082Y100999D01*
X1140178Y101024D01*
X1140276Y101045D01*
X1140374Y101062D01*
X1140472Y101075D01*
X1140571Y101084D01*
X1140671Y101090D01*
X1140770Y101092D01*
X1144665Y101092D01*
X1168823Y95899D02*
X1172069Y95899D01*
X1172069Y95900D02*
X1172182Y95898D01*
X1172295Y95892D01*
X1172408Y95882D01*
X1172521Y95868D01*
X1172633Y95851D01*
X1172744Y95829D01*
X1172854Y95804D01*
X1172964Y95774D01*
X1173072Y95741D01*
X1173179Y95704D01*
X1173285Y95664D01*
X1173389Y95619D01*
X1173492Y95571D01*
X1173593Y95520D01*
X1173692Y95465D01*
X1173789Y95407D01*
X1173884Y95345D01*
X1173977Y95280D01*
X1174067Y95212D01*
X1174155Y95141D01*
X1174241Y95066D01*
X1174324Y94989D01*
X1174404Y94909D01*
X1174481Y94826D01*
X1174556Y94740D01*
X1174627Y94652D01*
X1174695Y94562D01*
X1174760Y94469D01*
X1174822Y94374D01*
X1174880Y94277D01*
X1174935Y94178D01*
X1174986Y94077D01*
X1175034Y93974D01*
X1175079Y93870D01*
X1175119Y93764D01*
X1175156Y93657D01*
X1175189Y93549D01*
X1175219Y93439D01*
X1175244Y93329D01*
X1175266Y93218D01*
X1175283Y93106D01*
X1175297Y92993D01*
X1175307Y92880D01*
X1175313Y92767D01*
X1175315Y92654D01*
X1175313Y92541D01*
X1175307Y92428D01*
X1175297Y92315D01*
X1175283Y92202D01*
X1175266Y92090D01*
X1175244Y91979D01*
X1175219Y91869D01*
X1175189Y91759D01*
X1175156Y91651D01*
X1175119Y91544D01*
X1175079Y91438D01*
X1175034Y91334D01*
X1174986Y91231D01*
X1174935Y91130D01*
X1174880Y91031D01*
X1174822Y90934D01*
X1174760Y90839D01*
X1174695Y90746D01*
X1174627Y90656D01*
X1174556Y90568D01*
X1174481Y90482D01*
X1174404Y90399D01*
X1174324Y90319D01*
X1174241Y90242D01*
X1174155Y90167D01*
X1174067Y90096D01*
X1173977Y90028D01*
X1173884Y89963D01*
X1173789Y89901D01*
X1173692Y89843D01*
X1173593Y89788D01*
X1173492Y89737D01*
X1173389Y89689D01*
X1173285Y89644D01*
X1173179Y89604D01*
X1173072Y89567D01*
X1172964Y89534D01*
X1172854Y89504D01*
X1172744Y89479D01*
X1172633Y89457D01*
X1172521Y89440D01*
X1172408Y89426D01*
X1172295Y89416D01*
X1172182Y89410D01*
X1172069Y89408D01*
X1168823Y89408D01*
X1168823Y101092D01*
X1172069Y101092D01*
X1172170Y101090D01*
X1172270Y101084D01*
X1172370Y101074D01*
X1172470Y101061D01*
X1172569Y101043D01*
X1172668Y101022D01*
X1172765Y100997D01*
X1172862Y100968D01*
X1172957Y100935D01*
X1173051Y100899D01*
X1173143Y100859D01*
X1173234Y100816D01*
X1173323Y100769D01*
X1173410Y100719D01*
X1173496Y100665D01*
X1173579Y100608D01*
X1173659Y100548D01*
X1173738Y100485D01*
X1173814Y100418D01*
X1173887Y100349D01*
X1173957Y100277D01*
X1174025Y100203D01*
X1174090Y100126D01*
X1174151Y100046D01*
X1174210Y99964D01*
X1174265Y99880D01*
X1174317Y99794D01*
X1174366Y99706D01*
X1174411Y99616D01*
X1174453Y99524D01*
X1174491Y99431D01*
X1174525Y99336D01*
X1174556Y99241D01*
X1174583Y99144D01*
X1174606Y99046D01*
X1174626Y98947D01*
X1174641Y98847D01*
X1174653Y98747D01*
X1174661Y98647D01*
X1174665Y98546D01*
X1174665Y98446D01*
X1174661Y98345D01*
X1174653Y98245D01*
X1174641Y98145D01*
X1174626Y98045D01*
X1174606Y97946D01*
X1174583Y97848D01*
X1174556Y97751D01*
X1174525Y97656D01*
X1174491Y97561D01*
X1174453Y97468D01*
X1174411Y97376D01*
X1174366Y97286D01*
X1174317Y97198D01*
X1174265Y97112D01*
X1174210Y97028D01*
X1174151Y96946D01*
X1174090Y96866D01*
X1174025Y96789D01*
X1173957Y96715D01*
X1173887Y96643D01*
X1173814Y96574D01*
X1173738Y96507D01*
X1173659Y96444D01*
X1173579Y96384D01*
X1173496Y96327D01*
X1173410Y96273D01*
X1173323Y96223D01*
X1173234Y96176D01*
X1173143Y96133D01*
X1173051Y96093D01*
X1172957Y96057D01*
X1172862Y96024D01*
X1172765Y95995D01*
X1172668Y95970D01*
X1172569Y95949D01*
X1172470Y95931D01*
X1172370Y95918D01*
X1172270Y95908D01*
X1172170Y95902D01*
X1172069Y95900D01*
D11*
X227330Y330200D02*
X227330Y341630D01*
X227330Y330200D02*
X229870Y314960D01*
X303530Y314960D02*
X306070Y330200D01*
X306070Y341630D01*
X238760Y314960D02*
X229870Y314960D01*
X248920Y314960D02*
X261620Y314960D01*
X271780Y314960D02*
X284480Y314960D01*
X294640Y314960D02*
X303530Y314960D01*
D12*
X231140Y340995D03*
D13*
X255270Y340995D03*
X278130Y340995D03*
D12*
X302260Y340995D03*
D11*
X336550Y431800D02*
X349250Y431800D01*
X336550Y431800D02*
X330200Y438150D01*
X330200Y450850D02*
X336550Y457200D01*
X330200Y438150D02*
X323850Y431800D01*
X311150Y431800D01*
X304800Y438150D01*
X304800Y450850D02*
X311150Y457200D01*
X323850Y457200D01*
X330200Y450850D01*
X355600Y450850D02*
X355600Y438150D01*
X349250Y431800D01*
X355600Y450850D02*
X349250Y457200D01*
X336550Y457200D01*
X304800Y438150D02*
X298450Y431800D01*
X285750Y431800D01*
X279400Y438150D01*
X279400Y450850D02*
X285750Y457200D01*
X298450Y457200D01*
X304800Y450850D01*
X279400Y450850D02*
X279400Y438150D01*
D14*
X361315Y447675D02*
X364490Y450215D01*
X364490Y438785D01*
X361315Y438785D02*
X367665Y438785D01*
X313646Y427355D02*
X313646Y415925D01*
X313646Y427355D02*
X316821Y427355D01*
X316932Y427353D01*
X317042Y427347D01*
X317153Y427338D01*
X317263Y427324D01*
X317372Y427307D01*
X317481Y427286D01*
X317589Y427261D01*
X317696Y427232D01*
X317802Y427200D01*
X317907Y427164D01*
X318010Y427124D01*
X318112Y427081D01*
X318213Y427034D01*
X318312Y426983D01*
X318409Y426930D01*
X318503Y426873D01*
X318596Y426812D01*
X318687Y426749D01*
X318776Y426682D01*
X318862Y426612D01*
X318945Y426539D01*
X319027Y426464D01*
X319105Y426386D01*
X319180Y426304D01*
X319253Y426221D01*
X319323Y426135D01*
X319390Y426046D01*
X319453Y425955D01*
X319514Y425862D01*
X319571Y425767D01*
X319624Y425671D01*
X319675Y425572D01*
X319722Y425471D01*
X319765Y425369D01*
X319805Y425266D01*
X319841Y425161D01*
X319873Y425055D01*
X319902Y424948D01*
X319927Y424840D01*
X319948Y424731D01*
X319965Y424622D01*
X319979Y424512D01*
X319988Y424401D01*
X319994Y424291D01*
X319996Y424180D01*
X319994Y424069D01*
X319988Y423959D01*
X319979Y423848D01*
X319965Y423738D01*
X319948Y423629D01*
X319927Y423520D01*
X319902Y423412D01*
X319873Y423305D01*
X319841Y423199D01*
X319805Y423094D01*
X319765Y422991D01*
X319722Y422889D01*
X319675Y422788D01*
X319624Y422689D01*
X319571Y422592D01*
X319514Y422498D01*
X319453Y422405D01*
X319390Y422314D01*
X319323Y422225D01*
X319253Y422139D01*
X319180Y422056D01*
X319105Y421974D01*
X319027Y421896D01*
X318945Y421821D01*
X318862Y421748D01*
X318776Y421678D01*
X318687Y421611D01*
X318596Y421548D01*
X318503Y421487D01*
X318409Y421430D01*
X318312Y421377D01*
X318213Y421326D01*
X318112Y421279D01*
X318010Y421236D01*
X317907Y421196D01*
X317802Y421160D01*
X317696Y421128D01*
X317589Y421099D01*
X317481Y421074D01*
X317372Y421053D01*
X317263Y421036D01*
X317153Y421022D01*
X317042Y421013D01*
X316932Y421007D01*
X316821Y421005D01*
X313646Y421005D01*
X317456Y421005D02*
X319996Y415925D01*
X329819Y422275D02*
X331724Y422275D01*
X331724Y415925D01*
X327914Y415925D01*
X327814Y415927D01*
X327715Y415933D01*
X327615Y415943D01*
X327517Y415956D01*
X327418Y415974D01*
X327321Y415995D01*
X327225Y416020D01*
X327129Y416049D01*
X327035Y416082D01*
X326942Y416118D01*
X326851Y416158D01*
X326761Y416202D01*
X326673Y416249D01*
X326587Y416299D01*
X326503Y416353D01*
X326421Y416410D01*
X326342Y416470D01*
X326264Y416534D01*
X326190Y416600D01*
X326118Y416669D01*
X326049Y416741D01*
X325983Y416815D01*
X325919Y416893D01*
X325859Y416972D01*
X325802Y417054D01*
X325748Y417138D01*
X325698Y417224D01*
X325651Y417312D01*
X325607Y417402D01*
X325567Y417493D01*
X325531Y417586D01*
X325498Y417680D01*
X325469Y417776D01*
X325444Y417872D01*
X325423Y417969D01*
X325405Y418068D01*
X325392Y418166D01*
X325382Y418266D01*
X325376Y418365D01*
X325374Y418465D01*
X325374Y424815D01*
X325376Y424915D01*
X325382Y425014D01*
X325392Y425114D01*
X325405Y425212D01*
X325423Y425311D01*
X325444Y425408D01*
X325469Y425504D01*
X325498Y425600D01*
X325531Y425694D01*
X325567Y425787D01*
X325607Y425878D01*
X325651Y425968D01*
X325698Y426056D01*
X325748Y426142D01*
X325802Y426226D01*
X325859Y426308D01*
X325919Y426387D01*
X325983Y426465D01*
X326049Y426539D01*
X326118Y426611D01*
X326190Y426680D01*
X326264Y426746D01*
X326342Y426810D01*
X326421Y426870D01*
X326503Y426927D01*
X326587Y426981D01*
X326673Y427031D01*
X326761Y427078D01*
X326851Y427122D01*
X326942Y427162D01*
X327035Y427198D01*
X327129Y427231D01*
X327225Y427260D01*
X327321Y427285D01*
X327418Y427306D01*
X327517Y427324D01*
X327615Y427337D01*
X327715Y427347D01*
X327814Y427353D01*
X327914Y427355D01*
X331724Y427355D01*
X337757Y422275D02*
X340932Y422275D01*
X341043Y422273D01*
X341153Y422267D01*
X341264Y422258D01*
X341374Y422244D01*
X341483Y422227D01*
X341592Y422206D01*
X341700Y422181D01*
X341807Y422152D01*
X341913Y422120D01*
X342018Y422084D01*
X342121Y422044D01*
X342223Y422001D01*
X342324Y421954D01*
X342423Y421903D01*
X342520Y421850D01*
X342614Y421793D01*
X342707Y421732D01*
X342798Y421669D01*
X342887Y421602D01*
X342973Y421532D01*
X343056Y421459D01*
X343138Y421384D01*
X343216Y421306D01*
X343291Y421224D01*
X343364Y421141D01*
X343434Y421055D01*
X343501Y420966D01*
X343564Y420875D01*
X343625Y420782D01*
X343682Y420687D01*
X343735Y420591D01*
X343786Y420492D01*
X343833Y420391D01*
X343876Y420289D01*
X343916Y420186D01*
X343952Y420081D01*
X343984Y419975D01*
X344013Y419868D01*
X344038Y419760D01*
X344059Y419651D01*
X344076Y419542D01*
X344090Y419432D01*
X344099Y419321D01*
X344105Y419211D01*
X344107Y419100D01*
X344105Y418989D01*
X344099Y418879D01*
X344090Y418768D01*
X344076Y418658D01*
X344059Y418549D01*
X344038Y418440D01*
X344013Y418332D01*
X343984Y418225D01*
X343952Y418119D01*
X343916Y418014D01*
X343876Y417911D01*
X343833Y417809D01*
X343786Y417708D01*
X343735Y417609D01*
X343682Y417512D01*
X343625Y417418D01*
X343564Y417325D01*
X343501Y417234D01*
X343434Y417145D01*
X343364Y417059D01*
X343291Y416976D01*
X343216Y416894D01*
X343138Y416816D01*
X343056Y416741D01*
X342973Y416668D01*
X342887Y416598D01*
X342798Y416531D01*
X342707Y416468D01*
X342614Y416407D01*
X342520Y416350D01*
X342423Y416297D01*
X342324Y416246D01*
X342223Y416199D01*
X342121Y416156D01*
X342018Y416116D01*
X341913Y416080D01*
X341807Y416048D01*
X341700Y416019D01*
X341592Y415994D01*
X341483Y415973D01*
X341374Y415956D01*
X341264Y415942D01*
X341153Y415933D01*
X341043Y415927D01*
X340932Y415925D01*
X337757Y415925D01*
X337757Y427355D01*
X340932Y427355D01*
X341032Y427353D01*
X341131Y427347D01*
X341231Y427337D01*
X341329Y427324D01*
X341428Y427306D01*
X341525Y427285D01*
X341621Y427260D01*
X341717Y427231D01*
X341811Y427198D01*
X341904Y427162D01*
X341995Y427122D01*
X342085Y427078D01*
X342173Y427031D01*
X342259Y426981D01*
X342343Y426927D01*
X342425Y426870D01*
X342504Y426810D01*
X342582Y426746D01*
X342656Y426680D01*
X342728Y426611D01*
X342797Y426539D01*
X342863Y426465D01*
X342927Y426387D01*
X342987Y426308D01*
X343044Y426226D01*
X343098Y426142D01*
X343148Y426056D01*
X343195Y425968D01*
X343239Y425878D01*
X343279Y425787D01*
X343315Y425694D01*
X343348Y425600D01*
X343377Y425504D01*
X343402Y425408D01*
X343423Y425311D01*
X343441Y425212D01*
X343454Y425114D01*
X343464Y425014D01*
X343470Y424915D01*
X343472Y424815D01*
X343470Y424715D01*
X343464Y424616D01*
X343454Y424516D01*
X343441Y424418D01*
X343423Y424319D01*
X343402Y424222D01*
X343377Y424126D01*
X343348Y424030D01*
X343315Y423936D01*
X343279Y423843D01*
X343239Y423752D01*
X343195Y423662D01*
X343148Y423574D01*
X343098Y423488D01*
X343044Y423404D01*
X342987Y423322D01*
X342927Y423243D01*
X342863Y423165D01*
X342797Y423091D01*
X342728Y423019D01*
X342656Y422950D01*
X342582Y422884D01*
X342504Y422820D01*
X342425Y422760D01*
X342343Y422703D01*
X342259Y422649D01*
X342173Y422599D01*
X342085Y422552D01*
X341995Y422508D01*
X341904Y422468D01*
X341811Y422432D01*
X341717Y422399D01*
X341621Y422370D01*
X341525Y422345D01*
X341428Y422324D01*
X341329Y422306D01*
X341231Y422293D01*
X341131Y422283D01*
X341032Y422277D01*
X340932Y422275D01*
X348615Y424815D02*
X351790Y427355D01*
X351790Y415925D01*
X348615Y415925D02*
X354965Y415925D01*
D15*
X355600Y184150D02*
X254000Y184150D01*
X355600Y184150D02*
X355600Y165100D01*
X355600Y120650D01*
X254000Y120650D01*
X254000Y165100D01*
X254000Y184150D01*
X254000Y165100D02*
X355600Y165100D01*
D11*
X265430Y241300D02*
X265430Y252730D01*
X265430Y241300D02*
X267970Y226060D01*
X341630Y226060D02*
X344170Y241300D01*
X344170Y252730D01*
X276860Y226060D02*
X267970Y226060D01*
X287020Y226060D02*
X299720Y226060D01*
X309880Y226060D02*
X322580Y226060D01*
X332740Y226060D02*
X341630Y226060D01*
D12*
X269240Y252095D03*
D13*
X293370Y252095D03*
X316230Y252095D03*
D12*
X340360Y252095D03*
D11*
X328930Y330200D02*
X328930Y341630D01*
X328930Y330200D02*
X331470Y314960D01*
X405130Y314960D02*
X407670Y330200D01*
X407670Y341630D01*
X340360Y314960D02*
X331470Y314960D01*
X350520Y314960D02*
X363220Y314960D01*
X373380Y314960D02*
X386080Y314960D01*
X396240Y314960D02*
X405130Y314960D01*
D12*
X332740Y340995D03*
D13*
X356870Y340995D03*
X379730Y340995D03*
D12*
X403860Y340995D03*
D11*
X430530Y341630D02*
X430530Y330200D01*
X433070Y314960D01*
X506730Y314960D02*
X509270Y330200D01*
X509270Y341630D01*
X441960Y314960D02*
X433070Y314960D01*
X452120Y314960D02*
X464820Y314960D01*
X474980Y314960D02*
X487680Y314960D01*
X497840Y314960D02*
X506730Y314960D01*
D12*
X434340Y340995D03*
D13*
X458470Y340995D03*
X481330Y340995D03*
D12*
X505460Y340995D03*
D11*
X539750Y431800D02*
X552450Y431800D01*
X539750Y431800D02*
X533400Y438150D01*
X533400Y450850D02*
X539750Y457200D01*
X533400Y438150D02*
X527050Y431800D01*
X514350Y431800D01*
X508000Y438150D01*
X508000Y450850D02*
X514350Y457200D01*
X527050Y457200D01*
X533400Y450850D01*
X558800Y450850D02*
X558800Y438150D01*
X552450Y431800D01*
X558800Y450850D02*
X552450Y457200D01*
X539750Y457200D01*
X508000Y438150D02*
X501650Y431800D01*
X488950Y431800D01*
X482600Y438150D01*
X482600Y450850D02*
X488950Y457200D01*
X501650Y457200D01*
X508000Y450850D01*
X482600Y450850D02*
X482600Y438150D01*
D14*
X564515Y447675D02*
X567690Y450215D01*
X567690Y438785D01*
X564515Y438785D02*
X570865Y438785D01*
X516846Y427355D02*
X516846Y415925D01*
X516846Y427355D02*
X520021Y427355D01*
X520132Y427353D01*
X520242Y427347D01*
X520353Y427338D01*
X520463Y427324D01*
X520572Y427307D01*
X520681Y427286D01*
X520789Y427261D01*
X520896Y427232D01*
X521002Y427200D01*
X521107Y427164D01*
X521210Y427124D01*
X521312Y427081D01*
X521413Y427034D01*
X521512Y426983D01*
X521609Y426930D01*
X521703Y426873D01*
X521796Y426812D01*
X521887Y426749D01*
X521976Y426682D01*
X522062Y426612D01*
X522145Y426539D01*
X522227Y426464D01*
X522305Y426386D01*
X522380Y426304D01*
X522453Y426221D01*
X522523Y426135D01*
X522590Y426046D01*
X522653Y425955D01*
X522714Y425862D01*
X522771Y425767D01*
X522824Y425671D01*
X522875Y425572D01*
X522922Y425471D01*
X522965Y425369D01*
X523005Y425266D01*
X523041Y425161D01*
X523073Y425055D01*
X523102Y424948D01*
X523127Y424840D01*
X523148Y424731D01*
X523165Y424622D01*
X523179Y424512D01*
X523188Y424401D01*
X523194Y424291D01*
X523196Y424180D01*
X523194Y424069D01*
X523188Y423959D01*
X523179Y423848D01*
X523165Y423738D01*
X523148Y423629D01*
X523127Y423520D01*
X523102Y423412D01*
X523073Y423305D01*
X523041Y423199D01*
X523005Y423094D01*
X522965Y422991D01*
X522922Y422889D01*
X522875Y422788D01*
X522824Y422689D01*
X522771Y422592D01*
X522714Y422498D01*
X522653Y422405D01*
X522590Y422314D01*
X522523Y422225D01*
X522453Y422139D01*
X522380Y422056D01*
X522305Y421974D01*
X522227Y421896D01*
X522145Y421821D01*
X522062Y421748D01*
X521976Y421678D01*
X521887Y421611D01*
X521796Y421548D01*
X521703Y421487D01*
X521609Y421430D01*
X521512Y421377D01*
X521413Y421326D01*
X521312Y421279D01*
X521210Y421236D01*
X521107Y421196D01*
X521002Y421160D01*
X520896Y421128D01*
X520789Y421099D01*
X520681Y421074D01*
X520572Y421053D01*
X520463Y421036D01*
X520353Y421022D01*
X520242Y421013D01*
X520132Y421007D01*
X520021Y421005D01*
X516846Y421005D01*
X520656Y421005D02*
X523196Y415925D01*
X533019Y422275D02*
X534924Y422275D01*
X534924Y415925D01*
X531114Y415925D01*
X531014Y415927D01*
X530915Y415933D01*
X530815Y415943D01*
X530717Y415956D01*
X530618Y415974D01*
X530521Y415995D01*
X530425Y416020D01*
X530329Y416049D01*
X530235Y416082D01*
X530142Y416118D01*
X530051Y416158D01*
X529961Y416202D01*
X529873Y416249D01*
X529787Y416299D01*
X529703Y416353D01*
X529621Y416410D01*
X529542Y416470D01*
X529464Y416534D01*
X529390Y416600D01*
X529318Y416669D01*
X529249Y416741D01*
X529183Y416815D01*
X529119Y416893D01*
X529059Y416972D01*
X529002Y417054D01*
X528948Y417138D01*
X528898Y417224D01*
X528851Y417312D01*
X528807Y417402D01*
X528767Y417493D01*
X528731Y417586D01*
X528698Y417680D01*
X528669Y417776D01*
X528644Y417872D01*
X528623Y417969D01*
X528605Y418068D01*
X528592Y418166D01*
X528582Y418266D01*
X528576Y418365D01*
X528574Y418465D01*
X528574Y424815D01*
X528576Y424915D01*
X528582Y425014D01*
X528592Y425114D01*
X528605Y425212D01*
X528623Y425311D01*
X528644Y425408D01*
X528669Y425504D01*
X528698Y425600D01*
X528731Y425694D01*
X528767Y425787D01*
X528807Y425878D01*
X528851Y425968D01*
X528898Y426056D01*
X528948Y426142D01*
X529002Y426226D01*
X529059Y426308D01*
X529119Y426387D01*
X529183Y426465D01*
X529249Y426539D01*
X529318Y426611D01*
X529390Y426680D01*
X529464Y426746D01*
X529542Y426810D01*
X529621Y426870D01*
X529703Y426927D01*
X529787Y426981D01*
X529873Y427031D01*
X529961Y427078D01*
X530051Y427122D01*
X530142Y427162D01*
X530235Y427198D01*
X530329Y427231D01*
X530425Y427260D01*
X530521Y427285D01*
X530618Y427306D01*
X530717Y427324D01*
X530815Y427337D01*
X530915Y427347D01*
X531014Y427353D01*
X531114Y427355D01*
X534924Y427355D01*
X540957Y422275D02*
X544132Y422275D01*
X544243Y422273D01*
X544353Y422267D01*
X544464Y422258D01*
X544574Y422244D01*
X544683Y422227D01*
X544792Y422206D01*
X544900Y422181D01*
X545007Y422152D01*
X545113Y422120D01*
X545218Y422084D01*
X545321Y422044D01*
X545423Y422001D01*
X545524Y421954D01*
X545623Y421903D01*
X545720Y421850D01*
X545814Y421793D01*
X545907Y421732D01*
X545998Y421669D01*
X546087Y421602D01*
X546173Y421532D01*
X546256Y421459D01*
X546338Y421384D01*
X546416Y421306D01*
X546491Y421224D01*
X546564Y421141D01*
X546634Y421055D01*
X546701Y420966D01*
X546764Y420875D01*
X546825Y420782D01*
X546882Y420687D01*
X546935Y420591D01*
X546986Y420492D01*
X547033Y420391D01*
X547076Y420289D01*
X547116Y420186D01*
X547152Y420081D01*
X547184Y419975D01*
X547213Y419868D01*
X547238Y419760D01*
X547259Y419651D01*
X547276Y419542D01*
X547290Y419432D01*
X547299Y419321D01*
X547305Y419211D01*
X547307Y419100D01*
X547305Y418989D01*
X547299Y418879D01*
X547290Y418768D01*
X547276Y418658D01*
X547259Y418549D01*
X547238Y418440D01*
X547213Y418332D01*
X547184Y418225D01*
X547152Y418119D01*
X547116Y418014D01*
X547076Y417911D01*
X547033Y417809D01*
X546986Y417708D01*
X546935Y417609D01*
X546882Y417512D01*
X546825Y417418D01*
X546764Y417325D01*
X546701Y417234D01*
X546634Y417145D01*
X546564Y417059D01*
X546491Y416976D01*
X546416Y416894D01*
X546338Y416816D01*
X546256Y416741D01*
X546173Y416668D01*
X546087Y416598D01*
X545998Y416531D01*
X545907Y416468D01*
X545814Y416407D01*
X545720Y416350D01*
X545623Y416297D01*
X545524Y416246D01*
X545423Y416199D01*
X545321Y416156D01*
X545218Y416116D01*
X545113Y416080D01*
X545007Y416048D01*
X544900Y416019D01*
X544792Y415994D01*
X544683Y415973D01*
X544574Y415956D01*
X544464Y415942D01*
X544353Y415933D01*
X544243Y415927D01*
X544132Y415925D01*
X540957Y415925D01*
X540957Y427355D01*
X544132Y427355D01*
X544232Y427353D01*
X544331Y427347D01*
X544431Y427337D01*
X544529Y427324D01*
X544628Y427306D01*
X544725Y427285D01*
X544821Y427260D01*
X544917Y427231D01*
X545011Y427198D01*
X545104Y427162D01*
X545195Y427122D01*
X545285Y427078D01*
X545373Y427031D01*
X545459Y426981D01*
X545543Y426927D01*
X545625Y426870D01*
X545704Y426810D01*
X545782Y426746D01*
X545856Y426680D01*
X545928Y426611D01*
X545997Y426539D01*
X546063Y426465D01*
X546127Y426387D01*
X546187Y426308D01*
X546244Y426226D01*
X546298Y426142D01*
X546348Y426056D01*
X546395Y425968D01*
X546439Y425878D01*
X546479Y425787D01*
X546515Y425694D01*
X546548Y425600D01*
X546577Y425504D01*
X546602Y425408D01*
X546623Y425311D01*
X546641Y425212D01*
X546654Y425114D01*
X546664Y425014D01*
X546670Y424915D01*
X546672Y424815D01*
X546670Y424715D01*
X546664Y424616D01*
X546654Y424516D01*
X546641Y424418D01*
X546623Y424319D01*
X546602Y424222D01*
X546577Y424126D01*
X546548Y424030D01*
X546515Y423936D01*
X546479Y423843D01*
X546439Y423752D01*
X546395Y423662D01*
X546348Y423574D01*
X546298Y423488D01*
X546244Y423404D01*
X546187Y423322D01*
X546127Y423243D01*
X546063Y423165D01*
X545997Y423091D01*
X545928Y423019D01*
X545856Y422950D01*
X545782Y422884D01*
X545704Y422820D01*
X545625Y422760D01*
X545543Y422703D01*
X545459Y422649D01*
X545373Y422599D01*
X545285Y422552D01*
X545195Y422508D01*
X545104Y422468D01*
X545011Y422432D01*
X544917Y422399D01*
X544821Y422370D01*
X544725Y422345D01*
X544628Y422324D01*
X544529Y422306D01*
X544431Y422293D01*
X544331Y422283D01*
X544232Y422277D01*
X544132Y422275D01*
X555308Y427356D02*
X555412Y427354D01*
X555517Y427348D01*
X555621Y427339D01*
X555724Y427326D01*
X555827Y427308D01*
X555929Y427288D01*
X556031Y427263D01*
X556131Y427235D01*
X556231Y427203D01*
X556329Y427167D01*
X556426Y427128D01*
X556521Y427086D01*
X556615Y427040D01*
X556707Y426990D01*
X556797Y426938D01*
X556885Y426882D01*
X556971Y426822D01*
X557055Y426760D01*
X557136Y426695D01*
X557215Y426627D01*
X557292Y426555D01*
X557365Y426482D01*
X557437Y426405D01*
X557505Y426326D01*
X557570Y426245D01*
X557632Y426161D01*
X557692Y426075D01*
X557748Y425987D01*
X557800Y425897D01*
X557850Y425805D01*
X557896Y425711D01*
X557938Y425616D01*
X557977Y425519D01*
X558013Y425421D01*
X558045Y425321D01*
X558073Y425221D01*
X558098Y425119D01*
X558118Y425017D01*
X558136Y424914D01*
X558149Y424811D01*
X558158Y424707D01*
X558164Y424602D01*
X558166Y424498D01*
X555308Y427355D02*
X555190Y427353D01*
X555071Y427347D01*
X554953Y427338D01*
X554836Y427325D01*
X554719Y427307D01*
X554602Y427287D01*
X554486Y427262D01*
X554371Y427234D01*
X554258Y427201D01*
X554145Y427166D01*
X554033Y427126D01*
X553923Y427084D01*
X553814Y427037D01*
X553706Y426987D01*
X553601Y426934D01*
X553497Y426877D01*
X553395Y426817D01*
X553295Y426754D01*
X553197Y426687D01*
X553101Y426618D01*
X553008Y426545D01*
X552917Y426469D01*
X552828Y426391D01*
X552742Y426309D01*
X552659Y426225D01*
X552578Y426139D01*
X552501Y426049D01*
X552426Y425958D01*
X552354Y425864D01*
X552285Y425767D01*
X552220Y425669D01*
X552157Y425568D01*
X552098Y425465D01*
X552042Y425361D01*
X551990Y425255D01*
X551941Y425147D01*
X551896Y425038D01*
X551854Y424927D01*
X551816Y424815D01*
X557213Y422276D02*
X557289Y422351D01*
X557364Y422430D01*
X557435Y422511D01*
X557504Y422595D01*
X557569Y422681D01*
X557631Y422769D01*
X557691Y422859D01*
X557747Y422951D01*
X557800Y423046D01*
X557849Y423142D01*
X557895Y423240D01*
X557938Y423339D01*
X557977Y423440D01*
X558012Y423542D01*
X558044Y423645D01*
X558072Y423749D01*
X558097Y423854D01*
X558118Y423961D01*
X558135Y424067D01*
X558148Y424174D01*
X558157Y424282D01*
X558163Y424390D01*
X558165Y424498D01*
X557213Y422275D02*
X551815Y415925D01*
X558165Y415925D01*
D15*
X546100Y184150D02*
X444500Y184150D01*
X546100Y184150D02*
X546100Y165100D01*
X546100Y120650D01*
X444500Y120650D01*
X444500Y165100D01*
X444500Y184150D01*
X444500Y165100D02*
X546100Y165100D01*
D11*
X468630Y241300D02*
X468630Y252730D01*
X468630Y241300D02*
X471170Y226060D01*
X544830Y226060D02*
X547370Y241300D01*
X547370Y252730D01*
X480060Y226060D02*
X471170Y226060D01*
X490220Y226060D02*
X502920Y226060D01*
X513080Y226060D02*
X525780Y226060D01*
X535940Y226060D02*
X544830Y226060D01*
D12*
X472440Y252095D03*
D13*
X496570Y252095D03*
X519430Y252095D03*
D12*
X543560Y252095D03*
D11*
X532130Y330200D02*
X532130Y341630D01*
X532130Y330200D02*
X534670Y314960D01*
X608330Y314960D02*
X610870Y330200D01*
X610870Y341630D01*
X543560Y314960D02*
X534670Y314960D01*
X553720Y314960D02*
X566420Y314960D01*
X576580Y314960D02*
X589280Y314960D01*
X599440Y314960D02*
X608330Y314960D01*
D12*
X535940Y340995D03*
D13*
X560070Y340995D03*
X582930Y340995D03*
D12*
X607060Y340995D03*
D11*
X633730Y341630D02*
X633730Y330200D01*
X636270Y314960D01*
X709930Y314960D02*
X712470Y330200D01*
X712470Y341630D01*
X645160Y314960D02*
X636270Y314960D01*
X655320Y314960D02*
X668020Y314960D01*
X678180Y314960D02*
X690880Y314960D01*
X701040Y314960D02*
X709930Y314960D01*
D12*
X637540Y340995D03*
D13*
X661670Y340995D03*
X684530Y340995D03*
D12*
X708660Y340995D03*
D11*
X742950Y431800D02*
X755650Y431800D01*
X742950Y431800D02*
X736600Y438150D01*
X736600Y450850D02*
X742950Y457200D01*
X736600Y438150D02*
X730250Y431800D01*
X717550Y431800D01*
X711200Y438150D01*
X711200Y450850D02*
X717550Y457200D01*
X730250Y457200D01*
X736600Y450850D01*
X762000Y450850D02*
X762000Y438150D01*
X755650Y431800D01*
X762000Y450850D02*
X755650Y457200D01*
X742950Y457200D01*
X711200Y438150D02*
X704850Y431800D01*
X692150Y431800D01*
X685800Y438150D01*
X685800Y450850D02*
X692150Y457200D01*
X704850Y457200D01*
X711200Y450850D01*
X685800Y450850D02*
X685800Y438150D01*
D14*
X767715Y447675D02*
X770890Y450215D01*
X770890Y438785D01*
X767715Y438785D02*
X774065Y438785D01*
X720046Y427355D02*
X720046Y415925D01*
X720046Y427355D02*
X723221Y427355D01*
X723332Y427353D01*
X723442Y427347D01*
X723553Y427338D01*
X723663Y427324D01*
X723772Y427307D01*
X723881Y427286D01*
X723989Y427261D01*
X724096Y427232D01*
X724202Y427200D01*
X724307Y427164D01*
X724410Y427124D01*
X724512Y427081D01*
X724613Y427034D01*
X724712Y426983D01*
X724809Y426930D01*
X724903Y426873D01*
X724996Y426812D01*
X725087Y426749D01*
X725176Y426682D01*
X725262Y426612D01*
X725345Y426539D01*
X725427Y426464D01*
X725505Y426386D01*
X725580Y426304D01*
X725653Y426221D01*
X725723Y426135D01*
X725790Y426046D01*
X725853Y425955D01*
X725914Y425862D01*
X725971Y425767D01*
X726024Y425671D01*
X726075Y425572D01*
X726122Y425471D01*
X726165Y425369D01*
X726205Y425266D01*
X726241Y425161D01*
X726273Y425055D01*
X726302Y424948D01*
X726327Y424840D01*
X726348Y424731D01*
X726365Y424622D01*
X726379Y424512D01*
X726388Y424401D01*
X726394Y424291D01*
X726396Y424180D01*
X726394Y424069D01*
X726388Y423959D01*
X726379Y423848D01*
X726365Y423738D01*
X726348Y423629D01*
X726327Y423520D01*
X726302Y423412D01*
X726273Y423305D01*
X726241Y423199D01*
X726205Y423094D01*
X726165Y422991D01*
X726122Y422889D01*
X726075Y422788D01*
X726024Y422689D01*
X725971Y422592D01*
X725914Y422498D01*
X725853Y422405D01*
X725790Y422314D01*
X725723Y422225D01*
X725653Y422139D01*
X725580Y422056D01*
X725505Y421974D01*
X725427Y421896D01*
X725345Y421821D01*
X725262Y421748D01*
X725176Y421678D01*
X725087Y421611D01*
X724996Y421548D01*
X724903Y421487D01*
X724809Y421430D01*
X724712Y421377D01*
X724613Y421326D01*
X724512Y421279D01*
X724410Y421236D01*
X724307Y421196D01*
X724202Y421160D01*
X724096Y421128D01*
X723989Y421099D01*
X723881Y421074D01*
X723772Y421053D01*
X723663Y421036D01*
X723553Y421022D01*
X723442Y421013D01*
X723332Y421007D01*
X723221Y421005D01*
X720046Y421005D01*
X723856Y421005D02*
X726396Y415925D01*
X736219Y422275D02*
X738124Y422275D01*
X738124Y415925D01*
X734314Y415925D01*
X734214Y415927D01*
X734115Y415933D01*
X734015Y415943D01*
X733917Y415956D01*
X733818Y415974D01*
X733721Y415995D01*
X733625Y416020D01*
X733529Y416049D01*
X733435Y416082D01*
X733342Y416118D01*
X733251Y416158D01*
X733161Y416202D01*
X733073Y416249D01*
X732987Y416299D01*
X732903Y416353D01*
X732821Y416410D01*
X732742Y416470D01*
X732664Y416534D01*
X732590Y416600D01*
X732518Y416669D01*
X732449Y416741D01*
X732383Y416815D01*
X732319Y416893D01*
X732259Y416972D01*
X732202Y417054D01*
X732148Y417138D01*
X732098Y417224D01*
X732051Y417312D01*
X732007Y417402D01*
X731967Y417493D01*
X731931Y417586D01*
X731898Y417680D01*
X731869Y417776D01*
X731844Y417872D01*
X731823Y417969D01*
X731805Y418068D01*
X731792Y418166D01*
X731782Y418266D01*
X731776Y418365D01*
X731774Y418465D01*
X731774Y424815D01*
X731776Y424915D01*
X731782Y425014D01*
X731792Y425114D01*
X731805Y425212D01*
X731823Y425311D01*
X731844Y425408D01*
X731869Y425504D01*
X731898Y425600D01*
X731931Y425694D01*
X731967Y425787D01*
X732007Y425878D01*
X732051Y425968D01*
X732098Y426056D01*
X732148Y426142D01*
X732202Y426226D01*
X732259Y426308D01*
X732319Y426387D01*
X732383Y426465D01*
X732449Y426539D01*
X732518Y426611D01*
X732590Y426680D01*
X732664Y426746D01*
X732742Y426810D01*
X732821Y426870D01*
X732903Y426927D01*
X732987Y426981D01*
X733073Y427031D01*
X733161Y427078D01*
X733251Y427122D01*
X733342Y427162D01*
X733435Y427198D01*
X733529Y427231D01*
X733625Y427260D01*
X733721Y427285D01*
X733818Y427306D01*
X733917Y427324D01*
X734015Y427337D01*
X734115Y427347D01*
X734214Y427353D01*
X734314Y427355D01*
X738124Y427355D01*
X744157Y422275D02*
X747332Y422275D01*
X747443Y422273D01*
X747553Y422267D01*
X747664Y422258D01*
X747774Y422244D01*
X747883Y422227D01*
X747992Y422206D01*
X748100Y422181D01*
X748207Y422152D01*
X748313Y422120D01*
X748418Y422084D01*
X748521Y422044D01*
X748623Y422001D01*
X748724Y421954D01*
X748823Y421903D01*
X748920Y421850D01*
X749014Y421793D01*
X749107Y421732D01*
X749198Y421669D01*
X749287Y421602D01*
X749373Y421532D01*
X749456Y421459D01*
X749538Y421384D01*
X749616Y421306D01*
X749691Y421224D01*
X749764Y421141D01*
X749834Y421055D01*
X749901Y420966D01*
X749964Y420875D01*
X750025Y420782D01*
X750082Y420687D01*
X750135Y420591D01*
X750186Y420492D01*
X750233Y420391D01*
X750276Y420289D01*
X750316Y420186D01*
X750352Y420081D01*
X750384Y419975D01*
X750413Y419868D01*
X750438Y419760D01*
X750459Y419651D01*
X750476Y419542D01*
X750490Y419432D01*
X750499Y419321D01*
X750505Y419211D01*
X750507Y419100D01*
X750505Y418989D01*
X750499Y418879D01*
X750490Y418768D01*
X750476Y418658D01*
X750459Y418549D01*
X750438Y418440D01*
X750413Y418332D01*
X750384Y418225D01*
X750352Y418119D01*
X750316Y418014D01*
X750276Y417911D01*
X750233Y417809D01*
X750186Y417708D01*
X750135Y417609D01*
X750082Y417512D01*
X750025Y417418D01*
X749964Y417325D01*
X749901Y417234D01*
X749834Y417145D01*
X749764Y417059D01*
X749691Y416976D01*
X749616Y416894D01*
X749538Y416816D01*
X749456Y416741D01*
X749373Y416668D01*
X749287Y416598D01*
X749198Y416531D01*
X749107Y416468D01*
X749014Y416407D01*
X748920Y416350D01*
X748823Y416297D01*
X748724Y416246D01*
X748623Y416199D01*
X748521Y416156D01*
X748418Y416116D01*
X748313Y416080D01*
X748207Y416048D01*
X748100Y416019D01*
X747992Y415994D01*
X747883Y415973D01*
X747774Y415956D01*
X747664Y415942D01*
X747553Y415933D01*
X747443Y415927D01*
X747332Y415925D01*
X744157Y415925D01*
X744157Y427355D01*
X747332Y427355D01*
X747432Y427353D01*
X747531Y427347D01*
X747631Y427337D01*
X747729Y427324D01*
X747828Y427306D01*
X747925Y427285D01*
X748021Y427260D01*
X748117Y427231D01*
X748211Y427198D01*
X748304Y427162D01*
X748395Y427122D01*
X748485Y427078D01*
X748573Y427031D01*
X748659Y426981D01*
X748743Y426927D01*
X748825Y426870D01*
X748904Y426810D01*
X748982Y426746D01*
X749056Y426680D01*
X749128Y426611D01*
X749197Y426539D01*
X749263Y426465D01*
X749327Y426387D01*
X749387Y426308D01*
X749444Y426226D01*
X749498Y426142D01*
X749548Y426056D01*
X749595Y425968D01*
X749639Y425878D01*
X749679Y425787D01*
X749715Y425694D01*
X749748Y425600D01*
X749777Y425504D01*
X749802Y425408D01*
X749823Y425311D01*
X749841Y425212D01*
X749854Y425114D01*
X749864Y425014D01*
X749870Y424915D01*
X749872Y424815D01*
X749870Y424715D01*
X749864Y424616D01*
X749854Y424516D01*
X749841Y424418D01*
X749823Y424319D01*
X749802Y424222D01*
X749777Y424126D01*
X749748Y424030D01*
X749715Y423936D01*
X749679Y423843D01*
X749639Y423752D01*
X749595Y423662D01*
X749548Y423574D01*
X749498Y423488D01*
X749444Y423404D01*
X749387Y423322D01*
X749327Y423243D01*
X749263Y423165D01*
X749197Y423091D01*
X749128Y423019D01*
X749056Y422950D01*
X748982Y422884D01*
X748904Y422820D01*
X748825Y422760D01*
X748743Y422703D01*
X748659Y422649D01*
X748573Y422599D01*
X748485Y422552D01*
X748395Y422508D01*
X748304Y422468D01*
X748211Y422432D01*
X748117Y422399D01*
X748021Y422370D01*
X747925Y422345D01*
X747828Y422324D01*
X747729Y422306D01*
X747631Y422293D01*
X747531Y422283D01*
X747432Y422277D01*
X747332Y422275D01*
X755015Y415925D02*
X758190Y415925D01*
X758301Y415927D01*
X758411Y415933D01*
X758522Y415942D01*
X758632Y415956D01*
X758741Y415973D01*
X758850Y415994D01*
X758958Y416019D01*
X759065Y416048D01*
X759171Y416080D01*
X759276Y416116D01*
X759379Y416156D01*
X759481Y416199D01*
X759582Y416246D01*
X759681Y416297D01*
X759778Y416350D01*
X759872Y416407D01*
X759965Y416468D01*
X760056Y416531D01*
X760145Y416598D01*
X760231Y416668D01*
X760314Y416741D01*
X760396Y416816D01*
X760474Y416894D01*
X760549Y416976D01*
X760622Y417059D01*
X760692Y417145D01*
X760759Y417234D01*
X760822Y417325D01*
X760883Y417418D01*
X760940Y417512D01*
X760993Y417609D01*
X761044Y417708D01*
X761091Y417809D01*
X761134Y417911D01*
X761174Y418014D01*
X761210Y418119D01*
X761242Y418225D01*
X761271Y418332D01*
X761296Y418440D01*
X761317Y418549D01*
X761334Y418658D01*
X761348Y418768D01*
X761357Y418879D01*
X761363Y418989D01*
X761365Y419100D01*
X761363Y419211D01*
X761357Y419321D01*
X761348Y419432D01*
X761334Y419542D01*
X761317Y419651D01*
X761296Y419760D01*
X761271Y419868D01*
X761242Y419975D01*
X761210Y420081D01*
X761174Y420186D01*
X761134Y420289D01*
X761091Y420391D01*
X761044Y420492D01*
X760993Y420591D01*
X760940Y420687D01*
X760883Y420782D01*
X760822Y420875D01*
X760759Y420966D01*
X760692Y421055D01*
X760622Y421141D01*
X760549Y421224D01*
X760474Y421306D01*
X760396Y421384D01*
X760314Y421459D01*
X760231Y421532D01*
X760145Y421602D01*
X760056Y421669D01*
X759965Y421732D01*
X759872Y421793D01*
X759778Y421850D01*
X759681Y421903D01*
X759582Y421954D01*
X759481Y422001D01*
X759379Y422044D01*
X759276Y422084D01*
X759171Y422120D01*
X759065Y422152D01*
X758958Y422181D01*
X758850Y422206D01*
X758741Y422227D01*
X758632Y422244D01*
X758522Y422258D01*
X758411Y422267D01*
X758301Y422273D01*
X758190Y422275D01*
X758825Y427355D02*
X755015Y427355D01*
X758825Y427355D02*
X758925Y427353D01*
X759024Y427347D01*
X759124Y427337D01*
X759222Y427324D01*
X759321Y427306D01*
X759418Y427285D01*
X759514Y427260D01*
X759610Y427231D01*
X759704Y427198D01*
X759797Y427162D01*
X759888Y427122D01*
X759978Y427078D01*
X760066Y427031D01*
X760152Y426981D01*
X760236Y426927D01*
X760318Y426870D01*
X760397Y426810D01*
X760475Y426746D01*
X760549Y426680D01*
X760621Y426611D01*
X760690Y426539D01*
X760756Y426465D01*
X760820Y426387D01*
X760880Y426308D01*
X760937Y426226D01*
X760991Y426142D01*
X761041Y426056D01*
X761088Y425968D01*
X761132Y425878D01*
X761172Y425787D01*
X761208Y425694D01*
X761241Y425600D01*
X761270Y425504D01*
X761295Y425408D01*
X761316Y425311D01*
X761334Y425212D01*
X761347Y425114D01*
X761357Y425014D01*
X761363Y424915D01*
X761365Y424815D01*
X761363Y424715D01*
X761357Y424616D01*
X761347Y424516D01*
X761334Y424418D01*
X761316Y424319D01*
X761295Y424222D01*
X761270Y424126D01*
X761241Y424030D01*
X761208Y423936D01*
X761172Y423843D01*
X761132Y423752D01*
X761088Y423662D01*
X761041Y423574D01*
X760991Y423488D01*
X760937Y423404D01*
X760880Y423322D01*
X760820Y423243D01*
X760756Y423165D01*
X760690Y423091D01*
X760621Y423019D01*
X760549Y422950D01*
X760475Y422884D01*
X760397Y422820D01*
X760318Y422760D01*
X760236Y422703D01*
X760152Y422649D01*
X760066Y422599D01*
X759978Y422552D01*
X759888Y422508D01*
X759797Y422468D01*
X759704Y422432D01*
X759610Y422399D01*
X759514Y422370D01*
X759418Y422345D01*
X759321Y422324D01*
X759222Y422306D01*
X759124Y422293D01*
X759024Y422283D01*
X758925Y422277D01*
X758825Y422275D01*
X756285Y422275D01*
D15*
X749300Y184150D02*
X647700Y184150D01*
X749300Y184150D02*
X749300Y165100D01*
X749300Y120650D01*
X647700Y120650D01*
X647700Y165100D01*
X647700Y184150D01*
X647700Y165100D02*
X749300Y165100D01*
D11*
X671830Y241300D02*
X671830Y252730D01*
X671830Y241300D02*
X674370Y226060D01*
X748030Y226060D02*
X750570Y241300D01*
X750570Y252730D01*
X683260Y226060D02*
X674370Y226060D01*
X693420Y226060D02*
X706120Y226060D01*
X716280Y226060D02*
X728980Y226060D01*
X739140Y226060D02*
X748030Y226060D01*
D12*
X675640Y252095D03*
D13*
X699770Y252095D03*
X722630Y252095D03*
D12*
X746760Y252095D03*
D11*
X735330Y330200D02*
X735330Y341630D01*
X735330Y330200D02*
X737870Y314960D01*
X811530Y314960D02*
X814070Y330200D01*
X814070Y341630D01*
X746760Y314960D02*
X737870Y314960D01*
X756920Y314960D02*
X769620Y314960D01*
X779780Y314960D02*
X792480Y314960D01*
X802640Y314960D02*
X811530Y314960D01*
D12*
X739140Y340995D03*
D13*
X763270Y340995D03*
X786130Y340995D03*
D12*
X810260Y340995D03*
D11*
X836930Y341630D02*
X836930Y330200D01*
X839470Y314960D01*
X913130Y314960D02*
X915670Y330200D01*
X915670Y341630D01*
X848360Y314960D02*
X839470Y314960D01*
X858520Y314960D02*
X871220Y314960D01*
X881380Y314960D02*
X894080Y314960D01*
X904240Y314960D02*
X913130Y314960D01*
D12*
X840740Y340995D03*
D13*
X864870Y340995D03*
X887730Y340995D03*
D12*
X911860Y340995D03*
D11*
X946150Y431800D02*
X958850Y431800D01*
X946150Y431800D02*
X939800Y438150D01*
X939800Y450850D02*
X946150Y457200D01*
X939800Y438150D02*
X933450Y431800D01*
X920750Y431800D01*
X914400Y438150D01*
X914400Y450850D02*
X920750Y457200D01*
X933450Y457200D01*
X939800Y450850D01*
X965200Y450850D02*
X965200Y438150D01*
X958850Y431800D01*
X965200Y450850D02*
X958850Y457200D01*
X946150Y457200D01*
X914400Y438150D02*
X908050Y431800D01*
X895350Y431800D01*
X889000Y438150D01*
X889000Y450850D02*
X895350Y457200D01*
X908050Y457200D01*
X914400Y450850D01*
X889000Y450850D02*
X889000Y438150D01*
D14*
X970915Y447675D02*
X974090Y450215D01*
X974090Y438785D01*
X970915Y438785D02*
X977265Y438785D01*
X923246Y427355D02*
X923246Y415925D01*
X923246Y427355D02*
X926421Y427355D01*
X926532Y427353D01*
X926642Y427347D01*
X926753Y427338D01*
X926863Y427324D01*
X926972Y427307D01*
X927081Y427286D01*
X927189Y427261D01*
X927296Y427232D01*
X927402Y427200D01*
X927507Y427164D01*
X927610Y427124D01*
X927712Y427081D01*
X927813Y427034D01*
X927912Y426983D01*
X928009Y426930D01*
X928103Y426873D01*
X928196Y426812D01*
X928287Y426749D01*
X928376Y426682D01*
X928462Y426612D01*
X928545Y426539D01*
X928627Y426464D01*
X928705Y426386D01*
X928780Y426304D01*
X928853Y426221D01*
X928923Y426135D01*
X928990Y426046D01*
X929053Y425955D01*
X929114Y425862D01*
X929171Y425767D01*
X929224Y425671D01*
X929275Y425572D01*
X929322Y425471D01*
X929365Y425369D01*
X929405Y425266D01*
X929441Y425161D01*
X929473Y425055D01*
X929502Y424948D01*
X929527Y424840D01*
X929548Y424731D01*
X929565Y424622D01*
X929579Y424512D01*
X929588Y424401D01*
X929594Y424291D01*
X929596Y424180D01*
X929594Y424069D01*
X929588Y423959D01*
X929579Y423848D01*
X929565Y423738D01*
X929548Y423629D01*
X929527Y423520D01*
X929502Y423412D01*
X929473Y423305D01*
X929441Y423199D01*
X929405Y423094D01*
X929365Y422991D01*
X929322Y422889D01*
X929275Y422788D01*
X929224Y422689D01*
X929171Y422592D01*
X929114Y422498D01*
X929053Y422405D01*
X928990Y422314D01*
X928923Y422225D01*
X928853Y422139D01*
X928780Y422056D01*
X928705Y421974D01*
X928627Y421896D01*
X928545Y421821D01*
X928462Y421748D01*
X928376Y421678D01*
X928287Y421611D01*
X928196Y421548D01*
X928103Y421487D01*
X928009Y421430D01*
X927912Y421377D01*
X927813Y421326D01*
X927712Y421279D01*
X927610Y421236D01*
X927507Y421196D01*
X927402Y421160D01*
X927296Y421128D01*
X927189Y421099D01*
X927081Y421074D01*
X926972Y421053D01*
X926863Y421036D01*
X926753Y421022D01*
X926642Y421013D01*
X926532Y421007D01*
X926421Y421005D01*
X923246Y421005D01*
X927056Y421005D02*
X929596Y415925D01*
X939419Y422275D02*
X941324Y422275D01*
X941324Y415925D01*
X937514Y415925D01*
X937414Y415927D01*
X937315Y415933D01*
X937215Y415943D01*
X937117Y415956D01*
X937018Y415974D01*
X936921Y415995D01*
X936825Y416020D01*
X936729Y416049D01*
X936635Y416082D01*
X936542Y416118D01*
X936451Y416158D01*
X936361Y416202D01*
X936273Y416249D01*
X936187Y416299D01*
X936103Y416353D01*
X936021Y416410D01*
X935942Y416470D01*
X935864Y416534D01*
X935790Y416600D01*
X935718Y416669D01*
X935649Y416741D01*
X935583Y416815D01*
X935519Y416893D01*
X935459Y416972D01*
X935402Y417054D01*
X935348Y417138D01*
X935298Y417224D01*
X935251Y417312D01*
X935207Y417402D01*
X935167Y417493D01*
X935131Y417586D01*
X935098Y417680D01*
X935069Y417776D01*
X935044Y417872D01*
X935023Y417969D01*
X935005Y418068D01*
X934992Y418166D01*
X934982Y418266D01*
X934976Y418365D01*
X934974Y418465D01*
X934974Y424815D01*
X934976Y424915D01*
X934982Y425014D01*
X934992Y425114D01*
X935005Y425212D01*
X935023Y425311D01*
X935044Y425408D01*
X935069Y425504D01*
X935098Y425600D01*
X935131Y425694D01*
X935167Y425787D01*
X935207Y425878D01*
X935251Y425968D01*
X935298Y426056D01*
X935348Y426142D01*
X935402Y426226D01*
X935459Y426308D01*
X935519Y426387D01*
X935583Y426465D01*
X935649Y426539D01*
X935718Y426611D01*
X935790Y426680D01*
X935864Y426746D01*
X935942Y426810D01*
X936021Y426870D01*
X936103Y426927D01*
X936187Y426981D01*
X936273Y427031D01*
X936361Y427078D01*
X936451Y427122D01*
X936542Y427162D01*
X936635Y427198D01*
X936729Y427231D01*
X936825Y427260D01*
X936921Y427285D01*
X937018Y427306D01*
X937117Y427324D01*
X937215Y427337D01*
X937315Y427347D01*
X937414Y427353D01*
X937514Y427355D01*
X941324Y427355D01*
X947357Y422275D02*
X950532Y422275D01*
X950643Y422273D01*
X950753Y422267D01*
X950864Y422258D01*
X950974Y422244D01*
X951083Y422227D01*
X951192Y422206D01*
X951300Y422181D01*
X951407Y422152D01*
X951513Y422120D01*
X951618Y422084D01*
X951721Y422044D01*
X951823Y422001D01*
X951924Y421954D01*
X952023Y421903D01*
X952120Y421850D01*
X952214Y421793D01*
X952307Y421732D01*
X952398Y421669D01*
X952487Y421602D01*
X952573Y421532D01*
X952656Y421459D01*
X952738Y421384D01*
X952816Y421306D01*
X952891Y421224D01*
X952964Y421141D01*
X953034Y421055D01*
X953101Y420966D01*
X953164Y420875D01*
X953225Y420782D01*
X953282Y420687D01*
X953335Y420591D01*
X953386Y420492D01*
X953433Y420391D01*
X953476Y420289D01*
X953516Y420186D01*
X953552Y420081D01*
X953584Y419975D01*
X953613Y419868D01*
X953638Y419760D01*
X953659Y419651D01*
X953676Y419542D01*
X953690Y419432D01*
X953699Y419321D01*
X953705Y419211D01*
X953707Y419100D01*
X953705Y418989D01*
X953699Y418879D01*
X953690Y418768D01*
X953676Y418658D01*
X953659Y418549D01*
X953638Y418440D01*
X953613Y418332D01*
X953584Y418225D01*
X953552Y418119D01*
X953516Y418014D01*
X953476Y417911D01*
X953433Y417809D01*
X953386Y417708D01*
X953335Y417609D01*
X953282Y417512D01*
X953225Y417418D01*
X953164Y417325D01*
X953101Y417234D01*
X953034Y417145D01*
X952964Y417059D01*
X952891Y416976D01*
X952816Y416894D01*
X952738Y416816D01*
X952656Y416741D01*
X952573Y416668D01*
X952487Y416598D01*
X952398Y416531D01*
X952307Y416468D01*
X952214Y416407D01*
X952120Y416350D01*
X952023Y416297D01*
X951924Y416246D01*
X951823Y416199D01*
X951721Y416156D01*
X951618Y416116D01*
X951513Y416080D01*
X951407Y416048D01*
X951300Y416019D01*
X951192Y415994D01*
X951083Y415973D01*
X950974Y415956D01*
X950864Y415942D01*
X950753Y415933D01*
X950643Y415927D01*
X950532Y415925D01*
X947357Y415925D01*
X947357Y427355D01*
X950532Y427355D01*
X950632Y427353D01*
X950731Y427347D01*
X950831Y427337D01*
X950929Y427324D01*
X951028Y427306D01*
X951125Y427285D01*
X951221Y427260D01*
X951317Y427231D01*
X951411Y427198D01*
X951504Y427162D01*
X951595Y427122D01*
X951685Y427078D01*
X951773Y427031D01*
X951859Y426981D01*
X951943Y426927D01*
X952025Y426870D01*
X952104Y426810D01*
X952182Y426746D01*
X952256Y426680D01*
X952328Y426611D01*
X952397Y426539D01*
X952463Y426465D01*
X952527Y426387D01*
X952587Y426308D01*
X952644Y426226D01*
X952698Y426142D01*
X952748Y426056D01*
X952795Y425968D01*
X952839Y425878D01*
X952879Y425787D01*
X952915Y425694D01*
X952948Y425600D01*
X952977Y425504D01*
X953002Y425408D01*
X953023Y425311D01*
X953041Y425212D01*
X953054Y425114D01*
X953064Y425014D01*
X953070Y424915D01*
X953072Y424815D01*
X953070Y424715D01*
X953064Y424616D01*
X953054Y424516D01*
X953041Y424418D01*
X953023Y424319D01*
X953002Y424222D01*
X952977Y424126D01*
X952948Y424030D01*
X952915Y423936D01*
X952879Y423843D01*
X952839Y423752D01*
X952795Y423662D01*
X952748Y423574D01*
X952698Y423488D01*
X952644Y423404D01*
X952587Y423322D01*
X952527Y423243D01*
X952463Y423165D01*
X952397Y423091D01*
X952328Y423019D01*
X952256Y422950D01*
X952182Y422884D01*
X952104Y422820D01*
X952025Y422760D01*
X951943Y422703D01*
X951859Y422649D01*
X951773Y422599D01*
X951685Y422552D01*
X951595Y422508D01*
X951504Y422468D01*
X951411Y422432D01*
X951317Y422399D01*
X951221Y422370D01*
X951125Y422345D01*
X951028Y422324D01*
X950929Y422306D01*
X950831Y422293D01*
X950731Y422283D01*
X950632Y422277D01*
X950532Y422275D01*
X958215Y418465D02*
X960755Y427355D01*
X958215Y418465D02*
X964565Y418465D01*
X962660Y421005D02*
X962660Y415925D01*
D15*
X952500Y184150D02*
X850900Y184150D01*
X952500Y184150D02*
X952500Y165100D01*
X952500Y120650D01*
X850900Y120650D01*
X850900Y165100D01*
X850900Y184150D01*
X850900Y165100D02*
X952500Y165100D01*
D11*
X875030Y241300D02*
X875030Y252730D01*
X875030Y241300D02*
X877570Y226060D01*
X951230Y226060D02*
X953770Y241300D01*
X953770Y252730D01*
X886460Y226060D02*
X877570Y226060D01*
X896620Y226060D02*
X909320Y226060D01*
X919480Y226060D02*
X932180Y226060D01*
X942340Y226060D02*
X951230Y226060D01*
D12*
X878840Y252095D03*
D13*
X902970Y252095D03*
X925830Y252095D03*
D12*
X949960Y252095D03*
D11*
X938530Y330200D02*
X938530Y341630D01*
X938530Y330200D02*
X941070Y314960D01*
X1014730Y314960D02*
X1017270Y330200D01*
X1017270Y341630D01*
X949960Y314960D02*
X941070Y314960D01*
X960120Y314960D02*
X972820Y314960D01*
X982980Y314960D02*
X995680Y314960D01*
X1005840Y314960D02*
X1014730Y314960D01*
D12*
X942340Y340995D03*
D13*
X966470Y340995D03*
X989330Y340995D03*
D12*
X1013460Y340995D03*
D11*
X1040130Y341630D02*
X1040130Y330200D01*
X1042670Y314960D01*
X1116330Y314960D02*
X1118870Y330200D01*
X1118870Y341630D01*
X1051560Y314960D02*
X1042670Y314960D01*
X1061720Y314960D02*
X1074420Y314960D01*
X1084580Y314960D02*
X1097280Y314960D01*
X1107440Y314960D02*
X1116330Y314960D01*
D12*
X1043940Y340995D03*
D13*
X1068070Y340995D03*
X1090930Y340995D03*
D12*
X1115060Y340995D03*
D11*
X1149350Y431800D02*
X1162050Y431800D01*
X1149350Y431800D02*
X1143000Y438150D01*
X1143000Y450850D02*
X1149350Y457200D01*
X1143000Y438150D02*
X1136650Y431800D01*
X1123950Y431800D01*
X1117600Y438150D01*
X1117600Y450850D02*
X1123950Y457200D01*
X1136650Y457200D01*
X1143000Y450850D01*
X1168400Y450850D02*
X1168400Y438150D01*
X1162050Y431800D01*
X1168400Y450850D02*
X1162050Y457200D01*
X1149350Y457200D01*
X1117600Y438150D02*
X1111250Y431800D01*
X1098550Y431800D01*
X1092200Y438150D01*
X1092200Y450850D02*
X1098550Y457200D01*
X1111250Y457200D01*
X1117600Y450850D01*
X1092200Y450850D02*
X1092200Y438150D01*
D14*
X1174115Y447675D02*
X1177290Y450215D01*
X1177290Y438785D01*
X1174115Y438785D02*
X1180465Y438785D01*
X1126446Y427355D02*
X1126446Y415925D01*
X1126446Y427355D02*
X1129621Y427355D01*
X1129732Y427353D01*
X1129842Y427347D01*
X1129953Y427338D01*
X1130063Y427324D01*
X1130172Y427307D01*
X1130281Y427286D01*
X1130389Y427261D01*
X1130496Y427232D01*
X1130602Y427200D01*
X1130707Y427164D01*
X1130810Y427124D01*
X1130912Y427081D01*
X1131013Y427034D01*
X1131112Y426983D01*
X1131209Y426930D01*
X1131303Y426873D01*
X1131396Y426812D01*
X1131487Y426749D01*
X1131576Y426682D01*
X1131662Y426612D01*
X1131745Y426539D01*
X1131827Y426464D01*
X1131905Y426386D01*
X1131980Y426304D01*
X1132053Y426221D01*
X1132123Y426135D01*
X1132190Y426046D01*
X1132253Y425955D01*
X1132314Y425862D01*
X1132371Y425767D01*
X1132424Y425671D01*
X1132475Y425572D01*
X1132522Y425471D01*
X1132565Y425369D01*
X1132605Y425266D01*
X1132641Y425161D01*
X1132673Y425055D01*
X1132702Y424948D01*
X1132727Y424840D01*
X1132748Y424731D01*
X1132765Y424622D01*
X1132779Y424512D01*
X1132788Y424401D01*
X1132794Y424291D01*
X1132796Y424180D01*
X1132794Y424069D01*
X1132788Y423959D01*
X1132779Y423848D01*
X1132765Y423738D01*
X1132748Y423629D01*
X1132727Y423520D01*
X1132702Y423412D01*
X1132673Y423305D01*
X1132641Y423199D01*
X1132605Y423094D01*
X1132565Y422991D01*
X1132522Y422889D01*
X1132475Y422788D01*
X1132424Y422689D01*
X1132371Y422592D01*
X1132314Y422498D01*
X1132253Y422405D01*
X1132190Y422314D01*
X1132123Y422225D01*
X1132053Y422139D01*
X1131980Y422056D01*
X1131905Y421974D01*
X1131827Y421896D01*
X1131745Y421821D01*
X1131662Y421748D01*
X1131576Y421678D01*
X1131487Y421611D01*
X1131396Y421548D01*
X1131303Y421487D01*
X1131209Y421430D01*
X1131112Y421377D01*
X1131013Y421326D01*
X1130912Y421279D01*
X1130810Y421236D01*
X1130707Y421196D01*
X1130602Y421160D01*
X1130496Y421128D01*
X1130389Y421099D01*
X1130281Y421074D01*
X1130172Y421053D01*
X1130063Y421036D01*
X1129953Y421022D01*
X1129842Y421013D01*
X1129732Y421007D01*
X1129621Y421005D01*
X1126446Y421005D01*
X1130256Y421005D02*
X1132796Y415925D01*
X1142619Y422275D02*
X1144524Y422275D01*
X1144524Y415925D01*
X1140714Y415925D01*
X1140614Y415927D01*
X1140515Y415933D01*
X1140415Y415943D01*
X1140317Y415956D01*
X1140218Y415974D01*
X1140121Y415995D01*
X1140025Y416020D01*
X1139929Y416049D01*
X1139835Y416082D01*
X1139742Y416118D01*
X1139651Y416158D01*
X1139561Y416202D01*
X1139473Y416249D01*
X1139387Y416299D01*
X1139303Y416353D01*
X1139221Y416410D01*
X1139142Y416470D01*
X1139064Y416534D01*
X1138990Y416600D01*
X1138918Y416669D01*
X1138849Y416741D01*
X1138783Y416815D01*
X1138719Y416893D01*
X1138659Y416972D01*
X1138602Y417054D01*
X1138548Y417138D01*
X1138498Y417224D01*
X1138451Y417312D01*
X1138407Y417402D01*
X1138367Y417493D01*
X1138331Y417586D01*
X1138298Y417680D01*
X1138269Y417776D01*
X1138244Y417872D01*
X1138223Y417969D01*
X1138205Y418068D01*
X1138192Y418166D01*
X1138182Y418266D01*
X1138176Y418365D01*
X1138174Y418465D01*
X1138174Y424815D01*
X1138176Y424915D01*
X1138182Y425014D01*
X1138192Y425114D01*
X1138205Y425212D01*
X1138223Y425311D01*
X1138244Y425408D01*
X1138269Y425504D01*
X1138298Y425600D01*
X1138331Y425694D01*
X1138367Y425787D01*
X1138407Y425878D01*
X1138451Y425968D01*
X1138498Y426056D01*
X1138548Y426142D01*
X1138602Y426226D01*
X1138659Y426308D01*
X1138719Y426387D01*
X1138783Y426465D01*
X1138849Y426539D01*
X1138918Y426611D01*
X1138990Y426680D01*
X1139064Y426746D01*
X1139142Y426810D01*
X1139221Y426870D01*
X1139303Y426927D01*
X1139387Y426981D01*
X1139473Y427031D01*
X1139561Y427078D01*
X1139651Y427122D01*
X1139742Y427162D01*
X1139835Y427198D01*
X1139929Y427231D01*
X1140025Y427260D01*
X1140121Y427285D01*
X1140218Y427306D01*
X1140317Y427324D01*
X1140415Y427337D01*
X1140515Y427347D01*
X1140614Y427353D01*
X1140714Y427355D01*
X1144524Y427355D01*
X1150557Y422275D02*
X1153732Y422275D01*
X1153843Y422273D01*
X1153953Y422267D01*
X1154064Y422258D01*
X1154174Y422244D01*
X1154283Y422227D01*
X1154392Y422206D01*
X1154500Y422181D01*
X1154607Y422152D01*
X1154713Y422120D01*
X1154818Y422084D01*
X1154921Y422044D01*
X1155023Y422001D01*
X1155124Y421954D01*
X1155223Y421903D01*
X1155320Y421850D01*
X1155414Y421793D01*
X1155507Y421732D01*
X1155598Y421669D01*
X1155687Y421602D01*
X1155773Y421532D01*
X1155856Y421459D01*
X1155938Y421384D01*
X1156016Y421306D01*
X1156091Y421224D01*
X1156164Y421141D01*
X1156234Y421055D01*
X1156301Y420966D01*
X1156364Y420875D01*
X1156425Y420782D01*
X1156482Y420687D01*
X1156535Y420591D01*
X1156586Y420492D01*
X1156633Y420391D01*
X1156676Y420289D01*
X1156716Y420186D01*
X1156752Y420081D01*
X1156784Y419975D01*
X1156813Y419868D01*
X1156838Y419760D01*
X1156859Y419651D01*
X1156876Y419542D01*
X1156890Y419432D01*
X1156899Y419321D01*
X1156905Y419211D01*
X1156907Y419100D01*
X1156905Y418989D01*
X1156899Y418879D01*
X1156890Y418768D01*
X1156876Y418658D01*
X1156859Y418549D01*
X1156838Y418440D01*
X1156813Y418332D01*
X1156784Y418225D01*
X1156752Y418119D01*
X1156716Y418014D01*
X1156676Y417911D01*
X1156633Y417809D01*
X1156586Y417708D01*
X1156535Y417609D01*
X1156482Y417512D01*
X1156425Y417418D01*
X1156364Y417325D01*
X1156301Y417234D01*
X1156234Y417145D01*
X1156164Y417059D01*
X1156091Y416976D01*
X1156016Y416894D01*
X1155938Y416816D01*
X1155856Y416741D01*
X1155773Y416668D01*
X1155687Y416598D01*
X1155598Y416531D01*
X1155507Y416468D01*
X1155414Y416407D01*
X1155320Y416350D01*
X1155223Y416297D01*
X1155124Y416246D01*
X1155023Y416199D01*
X1154921Y416156D01*
X1154818Y416116D01*
X1154713Y416080D01*
X1154607Y416048D01*
X1154500Y416019D01*
X1154392Y415994D01*
X1154283Y415973D01*
X1154174Y415956D01*
X1154064Y415942D01*
X1153953Y415933D01*
X1153843Y415927D01*
X1153732Y415925D01*
X1150557Y415925D01*
X1150557Y427355D01*
X1153732Y427355D01*
X1153832Y427353D01*
X1153931Y427347D01*
X1154031Y427337D01*
X1154129Y427324D01*
X1154228Y427306D01*
X1154325Y427285D01*
X1154421Y427260D01*
X1154517Y427231D01*
X1154611Y427198D01*
X1154704Y427162D01*
X1154795Y427122D01*
X1154885Y427078D01*
X1154973Y427031D01*
X1155059Y426981D01*
X1155143Y426927D01*
X1155225Y426870D01*
X1155304Y426810D01*
X1155382Y426746D01*
X1155456Y426680D01*
X1155528Y426611D01*
X1155597Y426539D01*
X1155663Y426465D01*
X1155727Y426387D01*
X1155787Y426308D01*
X1155844Y426226D01*
X1155898Y426142D01*
X1155948Y426056D01*
X1155995Y425968D01*
X1156039Y425878D01*
X1156079Y425787D01*
X1156115Y425694D01*
X1156148Y425600D01*
X1156177Y425504D01*
X1156202Y425408D01*
X1156223Y425311D01*
X1156241Y425212D01*
X1156254Y425114D01*
X1156264Y425014D01*
X1156270Y424915D01*
X1156272Y424815D01*
X1156270Y424715D01*
X1156264Y424616D01*
X1156254Y424516D01*
X1156241Y424418D01*
X1156223Y424319D01*
X1156202Y424222D01*
X1156177Y424126D01*
X1156148Y424030D01*
X1156115Y423936D01*
X1156079Y423843D01*
X1156039Y423752D01*
X1155995Y423662D01*
X1155948Y423574D01*
X1155898Y423488D01*
X1155844Y423404D01*
X1155787Y423322D01*
X1155727Y423243D01*
X1155663Y423165D01*
X1155597Y423091D01*
X1155528Y423019D01*
X1155456Y422950D01*
X1155382Y422884D01*
X1155304Y422820D01*
X1155225Y422760D01*
X1155143Y422703D01*
X1155059Y422649D01*
X1154973Y422599D01*
X1154885Y422552D01*
X1154795Y422508D01*
X1154704Y422468D01*
X1154611Y422432D01*
X1154517Y422399D01*
X1154421Y422370D01*
X1154325Y422345D01*
X1154228Y422324D01*
X1154129Y422306D01*
X1154031Y422293D01*
X1153931Y422283D01*
X1153832Y422277D01*
X1153732Y422275D01*
X1161415Y415925D02*
X1165225Y415925D01*
X1165325Y415927D01*
X1165424Y415933D01*
X1165524Y415943D01*
X1165622Y415956D01*
X1165721Y415974D01*
X1165818Y415995D01*
X1165914Y416020D01*
X1166010Y416049D01*
X1166104Y416082D01*
X1166197Y416118D01*
X1166288Y416158D01*
X1166378Y416202D01*
X1166466Y416249D01*
X1166552Y416299D01*
X1166636Y416353D01*
X1166718Y416410D01*
X1166797Y416470D01*
X1166875Y416534D01*
X1166949Y416600D01*
X1167021Y416669D01*
X1167090Y416741D01*
X1167156Y416815D01*
X1167220Y416893D01*
X1167280Y416972D01*
X1167337Y417054D01*
X1167391Y417138D01*
X1167441Y417224D01*
X1167488Y417312D01*
X1167532Y417402D01*
X1167572Y417493D01*
X1167608Y417586D01*
X1167641Y417680D01*
X1167670Y417776D01*
X1167695Y417872D01*
X1167716Y417969D01*
X1167734Y418068D01*
X1167747Y418166D01*
X1167757Y418266D01*
X1167763Y418365D01*
X1167765Y418465D01*
X1167765Y419735D01*
X1167763Y419835D01*
X1167757Y419934D01*
X1167747Y420034D01*
X1167734Y420132D01*
X1167716Y420231D01*
X1167695Y420328D01*
X1167670Y420424D01*
X1167641Y420520D01*
X1167608Y420614D01*
X1167572Y420707D01*
X1167532Y420798D01*
X1167488Y420888D01*
X1167441Y420976D01*
X1167391Y421062D01*
X1167337Y421146D01*
X1167280Y421228D01*
X1167220Y421307D01*
X1167156Y421385D01*
X1167090Y421459D01*
X1167021Y421531D01*
X1166949Y421600D01*
X1166875Y421666D01*
X1166797Y421730D01*
X1166718Y421790D01*
X1166636Y421847D01*
X1166552Y421901D01*
X1166466Y421951D01*
X1166378Y421998D01*
X1166288Y422042D01*
X1166197Y422082D01*
X1166104Y422118D01*
X1166010Y422151D01*
X1165914Y422180D01*
X1165818Y422205D01*
X1165721Y422226D01*
X1165622Y422244D01*
X1165524Y422257D01*
X1165424Y422267D01*
X1165325Y422273D01*
X1165225Y422275D01*
X1161415Y422275D01*
X1161415Y427355D01*
X1167765Y427355D01*
D15*
X1168400Y184150D02*
X1066800Y184150D01*
X1168400Y184150D02*
X1168400Y165100D01*
X1168400Y120650D01*
X1066800Y120650D01*
X1066800Y165100D01*
X1066800Y184150D01*
X1066800Y165100D02*
X1168400Y165100D01*
D11*
X1090930Y241300D02*
X1090930Y252730D01*
X1090930Y241300D02*
X1093470Y226060D01*
X1167130Y226060D02*
X1169670Y241300D01*
X1169670Y252730D01*
X1102360Y226060D02*
X1093470Y226060D01*
X1112520Y226060D02*
X1125220Y226060D01*
X1135380Y226060D02*
X1148080Y226060D01*
X1158240Y226060D02*
X1167130Y226060D01*
D12*
X1094740Y252095D03*
D13*
X1118870Y252095D03*
X1141730Y252095D03*
D12*
X1165860Y252095D03*
D11*
X1154430Y330200D02*
X1154430Y341630D01*
X1154430Y330200D02*
X1156970Y314960D01*
X1230630Y314960D02*
X1233170Y330200D01*
X1233170Y341630D01*
X1165860Y314960D02*
X1156970Y314960D01*
X1176020Y314960D02*
X1188720Y314960D01*
X1198880Y314960D02*
X1211580Y314960D01*
X1221740Y314960D02*
X1230630Y314960D01*
D12*
X1158240Y340995D03*
D13*
X1182370Y340995D03*
X1205230Y340995D03*
D12*
X1229360Y340995D03*
D16*
X141000Y426500D02*
X141000Y444500D01*
X141000Y426500D02*
X141000Y386550D01*
X141000Y368550D01*
X238750Y368550D01*
X238750Y444500D01*
X141000Y444500D01*
X165250Y426500D02*
X165250Y386550D01*
X165250Y426500D02*
X141000Y426500D01*
X141000Y386550D02*
X165250Y386550D01*
M02*
