G04 EAGLE Gerber RS-274X export*
G75*
%MOMM*%
%FSLAX34Y34*%
%LPD*%
%INSilkscreen Bottom*%
%IPPOS*%
%AMOC8*
5,1,8,0,0,1.08239X$1,22.5*%
G01*
%ADD10C,0.127000*%


D10*
X279019Y376948D02*
X283845Y376948D01*
X283845Y378289D01*
X283843Y378360D01*
X283837Y378432D01*
X283828Y378502D01*
X283815Y378572D01*
X283798Y378642D01*
X283777Y378710D01*
X283753Y378777D01*
X283725Y378843D01*
X283694Y378907D01*
X283659Y378970D01*
X283621Y379030D01*
X283580Y379089D01*
X283536Y379145D01*
X283489Y379199D01*
X283440Y379250D01*
X283387Y379298D01*
X283332Y379344D01*
X283275Y379386D01*
X283215Y379426D01*
X283154Y379462D01*
X283090Y379495D01*
X283025Y379524D01*
X282959Y379550D01*
X282891Y379573D01*
X282822Y379592D01*
X282752Y379607D01*
X282682Y379618D01*
X282611Y379626D01*
X282540Y379630D01*
X282468Y379630D01*
X282397Y379626D01*
X282326Y379618D01*
X282256Y379607D01*
X282186Y379592D01*
X282117Y379573D01*
X282049Y379550D01*
X281983Y379524D01*
X281918Y379495D01*
X281854Y379462D01*
X281793Y379426D01*
X281733Y379386D01*
X281676Y379344D01*
X281621Y379298D01*
X281568Y379250D01*
X281519Y379199D01*
X281472Y379145D01*
X281428Y379089D01*
X281387Y379030D01*
X281349Y378970D01*
X281314Y378907D01*
X281283Y378843D01*
X281255Y378777D01*
X281231Y378710D01*
X281210Y378642D01*
X281193Y378572D01*
X281180Y378502D01*
X281171Y378432D01*
X281165Y378360D01*
X281163Y378289D01*
X281164Y378289D02*
X281164Y376948D01*
X281164Y378557D02*
X279019Y379629D01*
X279019Y382371D02*
X279019Y383711D01*
X279021Y383782D01*
X279027Y383854D01*
X279036Y383924D01*
X279049Y383994D01*
X279066Y384064D01*
X279087Y384132D01*
X279111Y384199D01*
X279139Y384265D01*
X279170Y384329D01*
X279205Y384392D01*
X279243Y384452D01*
X279284Y384511D01*
X279328Y384567D01*
X279375Y384621D01*
X279424Y384672D01*
X279477Y384720D01*
X279532Y384766D01*
X279589Y384808D01*
X279649Y384848D01*
X279710Y384884D01*
X279774Y384917D01*
X279839Y384946D01*
X279905Y384972D01*
X279973Y384995D01*
X280042Y385014D01*
X280112Y385029D01*
X280182Y385040D01*
X280253Y385048D01*
X280324Y385052D01*
X280396Y385052D01*
X280467Y385048D01*
X280538Y385040D01*
X280608Y385029D01*
X280678Y385014D01*
X280747Y384995D01*
X280815Y384972D01*
X280881Y384946D01*
X280946Y384917D01*
X281010Y384884D01*
X281071Y384848D01*
X281131Y384808D01*
X281188Y384766D01*
X281243Y384720D01*
X281296Y384672D01*
X281345Y384621D01*
X281392Y384567D01*
X281436Y384511D01*
X281477Y384452D01*
X281515Y384392D01*
X281550Y384329D01*
X281581Y384265D01*
X281609Y384199D01*
X281633Y384132D01*
X281654Y384064D01*
X281671Y383994D01*
X281684Y383924D01*
X281693Y383854D01*
X281699Y383782D01*
X281701Y383711D01*
X283845Y383979D02*
X283845Y382371D01*
X283845Y383979D02*
X283843Y384044D01*
X283837Y384108D01*
X283827Y384172D01*
X283814Y384236D01*
X283796Y384298D01*
X283775Y384359D01*
X283751Y384419D01*
X283722Y384477D01*
X283690Y384534D01*
X283655Y384588D01*
X283617Y384640D01*
X283575Y384690D01*
X283531Y384737D01*
X283484Y384781D01*
X283434Y384823D01*
X283382Y384861D01*
X283328Y384896D01*
X283271Y384928D01*
X283213Y384957D01*
X283153Y384981D01*
X283092Y385002D01*
X283030Y385020D01*
X282966Y385033D01*
X282902Y385043D01*
X282838Y385049D01*
X282773Y385051D01*
X282708Y385049D01*
X282644Y385043D01*
X282580Y385033D01*
X282516Y385020D01*
X282454Y385002D01*
X282393Y384981D01*
X282333Y384957D01*
X282275Y384928D01*
X282218Y384896D01*
X282164Y384861D01*
X282112Y384823D01*
X282062Y384781D01*
X282015Y384737D01*
X281971Y384690D01*
X281929Y384640D01*
X281891Y384588D01*
X281856Y384534D01*
X281824Y384477D01*
X281795Y384419D01*
X281771Y384359D01*
X281750Y384298D01*
X281732Y384236D01*
X281719Y384172D01*
X281709Y384108D01*
X281703Y384044D01*
X281701Y383979D01*
X281700Y383979D02*
X281700Y382907D01*
X310515Y376948D02*
X315341Y376948D01*
X315341Y378289D01*
X315339Y378360D01*
X315333Y378432D01*
X315324Y378502D01*
X315311Y378572D01*
X315294Y378642D01*
X315273Y378710D01*
X315249Y378777D01*
X315221Y378843D01*
X315190Y378907D01*
X315155Y378970D01*
X315117Y379030D01*
X315076Y379089D01*
X315032Y379145D01*
X314985Y379199D01*
X314936Y379250D01*
X314883Y379298D01*
X314828Y379344D01*
X314771Y379386D01*
X314711Y379426D01*
X314650Y379462D01*
X314586Y379495D01*
X314521Y379524D01*
X314455Y379550D01*
X314387Y379573D01*
X314318Y379592D01*
X314248Y379607D01*
X314178Y379618D01*
X314107Y379626D01*
X314036Y379630D01*
X313964Y379630D01*
X313893Y379626D01*
X313822Y379618D01*
X313752Y379607D01*
X313682Y379592D01*
X313613Y379573D01*
X313545Y379550D01*
X313479Y379524D01*
X313414Y379495D01*
X313350Y379462D01*
X313289Y379426D01*
X313229Y379386D01*
X313172Y379344D01*
X313117Y379298D01*
X313064Y379250D01*
X313015Y379199D01*
X312968Y379145D01*
X312924Y379089D01*
X312883Y379030D01*
X312845Y378970D01*
X312810Y378907D01*
X312779Y378843D01*
X312751Y378777D01*
X312727Y378710D01*
X312706Y378642D01*
X312689Y378572D01*
X312676Y378502D01*
X312667Y378432D01*
X312661Y378360D01*
X312659Y378289D01*
X312660Y378289D02*
X312660Y376948D01*
X312660Y378557D02*
X310515Y379629D01*
X310515Y382371D02*
X310515Y383979D01*
X310517Y384044D01*
X310523Y384108D01*
X310533Y384172D01*
X310546Y384236D01*
X310564Y384298D01*
X310585Y384359D01*
X310609Y384419D01*
X310638Y384477D01*
X310670Y384534D01*
X310705Y384588D01*
X310743Y384640D01*
X310785Y384690D01*
X310829Y384737D01*
X310876Y384781D01*
X310926Y384823D01*
X310978Y384861D01*
X311032Y384896D01*
X311089Y384928D01*
X311147Y384957D01*
X311207Y384981D01*
X311268Y385002D01*
X311330Y385020D01*
X311394Y385033D01*
X311458Y385043D01*
X311522Y385049D01*
X311587Y385051D01*
X311587Y385052D02*
X312124Y385052D01*
X312124Y385051D02*
X312189Y385049D01*
X312253Y385043D01*
X312317Y385033D01*
X312381Y385020D01*
X312443Y385002D01*
X312504Y384981D01*
X312564Y384957D01*
X312622Y384928D01*
X312679Y384896D01*
X312733Y384861D01*
X312785Y384823D01*
X312835Y384781D01*
X312882Y384737D01*
X312926Y384690D01*
X312968Y384640D01*
X313006Y384588D01*
X313041Y384534D01*
X313073Y384477D01*
X313102Y384419D01*
X313126Y384359D01*
X313147Y384298D01*
X313165Y384236D01*
X313178Y384172D01*
X313188Y384108D01*
X313194Y384044D01*
X313196Y383979D01*
X313196Y382371D01*
X315341Y382371D01*
X315341Y385052D01*
X329819Y376948D02*
X334645Y376948D01*
X334645Y378289D01*
X334643Y378360D01*
X334637Y378432D01*
X334628Y378502D01*
X334615Y378572D01*
X334598Y378642D01*
X334577Y378710D01*
X334553Y378777D01*
X334525Y378843D01*
X334494Y378907D01*
X334459Y378970D01*
X334421Y379030D01*
X334380Y379089D01*
X334336Y379145D01*
X334289Y379199D01*
X334240Y379250D01*
X334187Y379298D01*
X334132Y379344D01*
X334075Y379386D01*
X334015Y379426D01*
X333954Y379462D01*
X333890Y379495D01*
X333825Y379524D01*
X333759Y379550D01*
X333691Y379573D01*
X333622Y379592D01*
X333552Y379607D01*
X333482Y379618D01*
X333411Y379626D01*
X333340Y379630D01*
X333268Y379630D01*
X333197Y379626D01*
X333126Y379618D01*
X333056Y379607D01*
X332986Y379592D01*
X332917Y379573D01*
X332849Y379550D01*
X332783Y379524D01*
X332718Y379495D01*
X332654Y379462D01*
X332593Y379426D01*
X332533Y379386D01*
X332476Y379344D01*
X332421Y379298D01*
X332368Y379250D01*
X332319Y379199D01*
X332272Y379145D01*
X332228Y379089D01*
X332187Y379030D01*
X332149Y378970D01*
X332114Y378907D01*
X332083Y378843D01*
X332055Y378777D01*
X332031Y378710D01*
X332010Y378642D01*
X331993Y378572D01*
X331980Y378502D01*
X331971Y378432D01*
X331965Y378360D01*
X331963Y378289D01*
X331964Y378289D02*
X331964Y376948D01*
X331964Y378557D02*
X329819Y379629D01*
X332500Y382371D02*
X332500Y383979D01*
X332498Y384044D01*
X332492Y384108D01*
X332482Y384172D01*
X332469Y384236D01*
X332451Y384298D01*
X332430Y384359D01*
X332406Y384419D01*
X332377Y384477D01*
X332345Y384534D01*
X332310Y384588D01*
X332272Y384640D01*
X332230Y384690D01*
X332186Y384737D01*
X332139Y384781D01*
X332089Y384823D01*
X332037Y384861D01*
X331983Y384896D01*
X331926Y384928D01*
X331868Y384957D01*
X331808Y384981D01*
X331747Y385002D01*
X331685Y385020D01*
X331621Y385033D01*
X331557Y385043D01*
X331493Y385049D01*
X331428Y385051D01*
X331428Y385052D02*
X331160Y385052D01*
X331089Y385050D01*
X331017Y385044D01*
X330947Y385035D01*
X330877Y385022D01*
X330807Y385005D01*
X330739Y384984D01*
X330672Y384960D01*
X330606Y384932D01*
X330542Y384901D01*
X330479Y384866D01*
X330419Y384828D01*
X330360Y384787D01*
X330304Y384743D01*
X330250Y384696D01*
X330199Y384647D01*
X330151Y384594D01*
X330105Y384539D01*
X330063Y384482D01*
X330023Y384422D01*
X329987Y384361D01*
X329954Y384297D01*
X329925Y384232D01*
X329899Y384166D01*
X329876Y384098D01*
X329857Y384029D01*
X329842Y383959D01*
X329831Y383889D01*
X329823Y383818D01*
X329819Y383747D01*
X329819Y383675D01*
X329823Y383604D01*
X329831Y383533D01*
X329842Y383463D01*
X329857Y383393D01*
X329876Y383324D01*
X329899Y383256D01*
X329925Y383190D01*
X329954Y383125D01*
X329987Y383061D01*
X330023Y383000D01*
X330063Y382940D01*
X330105Y382883D01*
X330151Y382828D01*
X330199Y382775D01*
X330250Y382726D01*
X330304Y382679D01*
X330360Y382635D01*
X330419Y382594D01*
X330479Y382556D01*
X330542Y382521D01*
X330606Y382490D01*
X330672Y382462D01*
X330739Y382438D01*
X330807Y382417D01*
X330877Y382400D01*
X330947Y382387D01*
X331017Y382378D01*
X331089Y382372D01*
X331160Y382370D01*
X331160Y382371D02*
X332500Y382371D01*
X332591Y382373D01*
X332682Y382379D01*
X332772Y382388D01*
X332863Y382402D01*
X332952Y382419D01*
X333040Y382440D01*
X333128Y382465D01*
X333215Y382494D01*
X333300Y382526D01*
X333384Y382561D01*
X333466Y382601D01*
X333546Y382643D01*
X333625Y382689D01*
X333701Y382739D01*
X333775Y382791D01*
X333848Y382847D01*
X333917Y382906D01*
X333984Y382967D01*
X334049Y383032D01*
X334110Y383099D01*
X334169Y383168D01*
X334225Y383240D01*
X334277Y383315D01*
X334327Y383391D01*
X334373Y383470D01*
X334415Y383550D01*
X334455Y383632D01*
X334490Y383716D01*
X334522Y383801D01*
X334551Y383888D01*
X334576Y383975D01*
X334597Y384064D01*
X334614Y384153D01*
X334628Y384244D01*
X334637Y384334D01*
X334643Y384425D01*
X334645Y384516D01*
X483235Y371868D02*
X488061Y371868D01*
X488061Y373209D01*
X488059Y373280D01*
X488053Y373352D01*
X488044Y373422D01*
X488031Y373492D01*
X488014Y373562D01*
X487993Y373630D01*
X487969Y373697D01*
X487941Y373763D01*
X487910Y373827D01*
X487875Y373890D01*
X487837Y373950D01*
X487796Y374009D01*
X487752Y374065D01*
X487705Y374119D01*
X487656Y374170D01*
X487603Y374218D01*
X487548Y374264D01*
X487491Y374306D01*
X487431Y374346D01*
X487370Y374382D01*
X487306Y374415D01*
X487241Y374444D01*
X487175Y374470D01*
X487107Y374493D01*
X487038Y374512D01*
X486968Y374527D01*
X486898Y374538D01*
X486827Y374546D01*
X486756Y374550D01*
X486684Y374550D01*
X486613Y374546D01*
X486542Y374538D01*
X486472Y374527D01*
X486402Y374512D01*
X486333Y374493D01*
X486265Y374470D01*
X486199Y374444D01*
X486134Y374415D01*
X486070Y374382D01*
X486009Y374346D01*
X485949Y374306D01*
X485892Y374264D01*
X485837Y374218D01*
X485784Y374170D01*
X485735Y374119D01*
X485688Y374065D01*
X485644Y374009D01*
X485603Y373950D01*
X485565Y373890D01*
X485530Y373827D01*
X485499Y373763D01*
X485471Y373697D01*
X485447Y373630D01*
X485426Y373562D01*
X485409Y373492D01*
X485396Y373422D01*
X485387Y373352D01*
X485381Y373280D01*
X485379Y373209D01*
X485380Y373209D02*
X485380Y371868D01*
X485380Y373477D02*
X483235Y374549D01*
X486989Y377291D02*
X488061Y378631D01*
X483235Y378631D01*
X483235Y377291D02*
X483235Y379972D01*
X507619Y376948D02*
X512445Y376948D01*
X512445Y378289D01*
X512443Y378360D01*
X512437Y378432D01*
X512428Y378502D01*
X512415Y378572D01*
X512398Y378642D01*
X512377Y378710D01*
X512353Y378777D01*
X512325Y378843D01*
X512294Y378907D01*
X512259Y378970D01*
X512221Y379030D01*
X512180Y379089D01*
X512136Y379145D01*
X512089Y379199D01*
X512040Y379250D01*
X511987Y379298D01*
X511932Y379344D01*
X511875Y379386D01*
X511815Y379426D01*
X511754Y379462D01*
X511690Y379495D01*
X511625Y379524D01*
X511559Y379550D01*
X511491Y379573D01*
X511422Y379592D01*
X511352Y379607D01*
X511282Y379618D01*
X511211Y379626D01*
X511140Y379630D01*
X511068Y379630D01*
X510997Y379626D01*
X510926Y379618D01*
X510856Y379607D01*
X510786Y379592D01*
X510717Y379573D01*
X510649Y379550D01*
X510583Y379524D01*
X510518Y379495D01*
X510454Y379462D01*
X510393Y379426D01*
X510333Y379386D01*
X510276Y379344D01*
X510221Y379298D01*
X510168Y379250D01*
X510119Y379199D01*
X510072Y379145D01*
X510028Y379089D01*
X509987Y379030D01*
X509949Y378970D01*
X509914Y378907D01*
X509883Y378843D01*
X509855Y378777D01*
X509831Y378710D01*
X509810Y378642D01*
X509793Y378572D01*
X509780Y378502D01*
X509771Y378432D01*
X509765Y378360D01*
X509763Y378289D01*
X509764Y378289D02*
X509764Y376948D01*
X509764Y378557D02*
X507619Y379629D01*
X512445Y383845D02*
X512443Y383913D01*
X512437Y383980D01*
X512428Y384047D01*
X512415Y384114D01*
X512398Y384179D01*
X512377Y384244D01*
X512353Y384307D01*
X512325Y384369D01*
X512294Y384429D01*
X512260Y384487D01*
X512222Y384543D01*
X512182Y384598D01*
X512138Y384649D01*
X512091Y384698D01*
X512042Y384745D01*
X511991Y384789D01*
X511936Y384829D01*
X511880Y384867D01*
X511822Y384901D01*
X511762Y384932D01*
X511700Y384960D01*
X511637Y384984D01*
X511572Y385005D01*
X511507Y385022D01*
X511440Y385035D01*
X511373Y385044D01*
X511306Y385050D01*
X511238Y385052D01*
X512445Y383845D02*
X512443Y383767D01*
X512437Y383689D01*
X512427Y383612D01*
X512414Y383535D01*
X512396Y383459D01*
X512375Y383384D01*
X512350Y383310D01*
X512321Y383238D01*
X512289Y383167D01*
X512253Y383098D01*
X512214Y383030D01*
X512171Y382965D01*
X512125Y382902D01*
X512076Y382841D01*
X512024Y382783D01*
X511969Y382728D01*
X511912Y382675D01*
X511852Y382626D01*
X511789Y382579D01*
X511724Y382536D01*
X511658Y382496D01*
X511589Y382459D01*
X511518Y382426D01*
X511446Y382396D01*
X511373Y382370D01*
X510300Y384650D02*
X510349Y384699D01*
X510401Y384746D01*
X510456Y384789D01*
X510513Y384830D01*
X510572Y384868D01*
X510633Y384902D01*
X510696Y384933D01*
X510760Y384961D01*
X510826Y384985D01*
X510892Y385005D01*
X510960Y385022D01*
X511029Y385035D01*
X511098Y385044D01*
X511168Y385050D01*
X511238Y385052D01*
X510300Y384650D02*
X507619Y382371D01*
X507619Y385052D01*
X533019Y376948D02*
X537845Y376948D01*
X537845Y378289D01*
X537843Y378360D01*
X537837Y378432D01*
X537828Y378502D01*
X537815Y378572D01*
X537798Y378642D01*
X537777Y378710D01*
X537753Y378777D01*
X537725Y378843D01*
X537694Y378907D01*
X537659Y378970D01*
X537621Y379030D01*
X537580Y379089D01*
X537536Y379145D01*
X537489Y379199D01*
X537440Y379250D01*
X537387Y379298D01*
X537332Y379344D01*
X537275Y379386D01*
X537215Y379426D01*
X537154Y379462D01*
X537090Y379495D01*
X537025Y379524D01*
X536959Y379550D01*
X536891Y379573D01*
X536822Y379592D01*
X536752Y379607D01*
X536682Y379618D01*
X536611Y379626D01*
X536540Y379630D01*
X536468Y379630D01*
X536397Y379626D01*
X536326Y379618D01*
X536256Y379607D01*
X536186Y379592D01*
X536117Y379573D01*
X536049Y379550D01*
X535983Y379524D01*
X535918Y379495D01*
X535854Y379462D01*
X535793Y379426D01*
X535733Y379386D01*
X535676Y379344D01*
X535621Y379298D01*
X535568Y379250D01*
X535519Y379199D01*
X535472Y379145D01*
X535428Y379089D01*
X535387Y379030D01*
X535349Y378970D01*
X535314Y378907D01*
X535283Y378843D01*
X535255Y378777D01*
X535231Y378710D01*
X535210Y378642D01*
X535193Y378572D01*
X535180Y378502D01*
X535171Y378432D01*
X535165Y378360D01*
X535163Y378289D01*
X535164Y378289D02*
X535164Y376948D01*
X535164Y378557D02*
X533019Y379629D01*
X534091Y382371D02*
X537845Y383443D01*
X534091Y382371D02*
X534091Y385052D01*
X535164Y384248D02*
X533019Y384248D01*
X691515Y376948D02*
X696341Y376948D01*
X696341Y378289D01*
X696339Y378360D01*
X696333Y378432D01*
X696324Y378502D01*
X696311Y378572D01*
X696294Y378642D01*
X696273Y378710D01*
X696249Y378777D01*
X696221Y378843D01*
X696190Y378907D01*
X696155Y378970D01*
X696117Y379030D01*
X696076Y379089D01*
X696032Y379145D01*
X695985Y379199D01*
X695936Y379250D01*
X695883Y379298D01*
X695828Y379344D01*
X695771Y379386D01*
X695711Y379426D01*
X695650Y379462D01*
X695586Y379495D01*
X695521Y379524D01*
X695455Y379550D01*
X695387Y379573D01*
X695318Y379592D01*
X695248Y379607D01*
X695178Y379618D01*
X695107Y379626D01*
X695036Y379630D01*
X694964Y379630D01*
X694893Y379626D01*
X694822Y379618D01*
X694752Y379607D01*
X694682Y379592D01*
X694613Y379573D01*
X694545Y379550D01*
X694479Y379524D01*
X694414Y379495D01*
X694350Y379462D01*
X694289Y379426D01*
X694229Y379386D01*
X694172Y379344D01*
X694117Y379298D01*
X694064Y379250D01*
X694015Y379199D01*
X693968Y379145D01*
X693924Y379089D01*
X693883Y379030D01*
X693845Y378970D01*
X693810Y378907D01*
X693779Y378843D01*
X693751Y378777D01*
X693727Y378710D01*
X693706Y378642D01*
X693689Y378572D01*
X693676Y378502D01*
X693667Y378432D01*
X693661Y378360D01*
X693659Y378289D01*
X693660Y378289D02*
X693660Y376948D01*
X693660Y378557D02*
X691515Y379629D01*
X695805Y382371D02*
X696341Y382371D01*
X696341Y385052D01*
X691515Y383711D01*
X710819Y376948D02*
X715645Y376948D01*
X715645Y378289D01*
X715643Y378360D01*
X715637Y378432D01*
X715628Y378502D01*
X715615Y378572D01*
X715598Y378642D01*
X715577Y378710D01*
X715553Y378777D01*
X715525Y378843D01*
X715494Y378907D01*
X715459Y378970D01*
X715421Y379030D01*
X715380Y379089D01*
X715336Y379145D01*
X715289Y379199D01*
X715240Y379250D01*
X715187Y379298D01*
X715132Y379344D01*
X715075Y379386D01*
X715015Y379426D01*
X714954Y379462D01*
X714890Y379495D01*
X714825Y379524D01*
X714759Y379550D01*
X714691Y379573D01*
X714622Y379592D01*
X714552Y379607D01*
X714482Y379618D01*
X714411Y379626D01*
X714340Y379630D01*
X714268Y379630D01*
X714197Y379626D01*
X714126Y379618D01*
X714056Y379607D01*
X713986Y379592D01*
X713917Y379573D01*
X713849Y379550D01*
X713783Y379524D01*
X713718Y379495D01*
X713654Y379462D01*
X713593Y379426D01*
X713533Y379386D01*
X713476Y379344D01*
X713421Y379298D01*
X713368Y379250D01*
X713319Y379199D01*
X713272Y379145D01*
X713228Y379089D01*
X713187Y379030D01*
X713149Y378970D01*
X713114Y378907D01*
X713083Y378843D01*
X713055Y378777D01*
X713031Y378710D01*
X713010Y378642D01*
X712993Y378572D01*
X712980Y378502D01*
X712971Y378432D01*
X712965Y378360D01*
X712963Y378289D01*
X712964Y378289D02*
X712964Y376948D01*
X712964Y378557D02*
X710819Y379629D01*
X712160Y382370D02*
X712231Y382372D01*
X712303Y382378D01*
X712373Y382387D01*
X712443Y382400D01*
X712513Y382417D01*
X712581Y382438D01*
X712648Y382462D01*
X712714Y382490D01*
X712778Y382521D01*
X712841Y382556D01*
X712901Y382594D01*
X712960Y382635D01*
X713016Y382679D01*
X713070Y382726D01*
X713121Y382775D01*
X713169Y382828D01*
X713215Y382883D01*
X713257Y382940D01*
X713297Y383000D01*
X713333Y383061D01*
X713366Y383125D01*
X713395Y383190D01*
X713421Y383256D01*
X713444Y383324D01*
X713463Y383393D01*
X713478Y383463D01*
X713489Y383533D01*
X713497Y383604D01*
X713501Y383675D01*
X713501Y383747D01*
X713497Y383818D01*
X713489Y383889D01*
X713478Y383959D01*
X713463Y384029D01*
X713444Y384098D01*
X713421Y384166D01*
X713395Y384232D01*
X713366Y384297D01*
X713333Y384361D01*
X713297Y384422D01*
X713257Y384482D01*
X713215Y384539D01*
X713169Y384594D01*
X713121Y384647D01*
X713070Y384696D01*
X713016Y384743D01*
X712960Y384787D01*
X712901Y384828D01*
X712841Y384866D01*
X712778Y384901D01*
X712714Y384932D01*
X712648Y384960D01*
X712581Y384984D01*
X712513Y385005D01*
X712443Y385022D01*
X712373Y385035D01*
X712303Y385044D01*
X712231Y385050D01*
X712160Y385052D01*
X712089Y385050D01*
X712017Y385044D01*
X711947Y385035D01*
X711877Y385022D01*
X711807Y385005D01*
X711739Y384984D01*
X711672Y384960D01*
X711606Y384932D01*
X711542Y384901D01*
X711479Y384866D01*
X711419Y384828D01*
X711360Y384787D01*
X711304Y384743D01*
X711250Y384696D01*
X711199Y384647D01*
X711151Y384594D01*
X711105Y384539D01*
X711063Y384482D01*
X711023Y384422D01*
X710987Y384361D01*
X710954Y384297D01*
X710925Y384232D01*
X710899Y384166D01*
X710876Y384098D01*
X710857Y384029D01*
X710842Y383959D01*
X710831Y383889D01*
X710823Y383818D01*
X710819Y383747D01*
X710819Y383675D01*
X710823Y383604D01*
X710831Y383533D01*
X710842Y383463D01*
X710857Y383393D01*
X710876Y383324D01*
X710899Y383256D01*
X710925Y383190D01*
X710954Y383125D01*
X710987Y383061D01*
X711023Y383000D01*
X711063Y382940D01*
X711105Y382883D01*
X711151Y382828D01*
X711199Y382775D01*
X711250Y382726D01*
X711304Y382679D01*
X711360Y382635D01*
X711419Y382594D01*
X711479Y382556D01*
X711542Y382521D01*
X711606Y382490D01*
X711672Y382462D01*
X711739Y382438D01*
X711807Y382417D01*
X711877Y382400D01*
X711947Y382387D01*
X712017Y382378D01*
X712089Y382372D01*
X712160Y382370D01*
X714573Y382639D02*
X714638Y382641D01*
X714702Y382647D01*
X714766Y382657D01*
X714830Y382670D01*
X714892Y382688D01*
X714953Y382709D01*
X715013Y382733D01*
X715071Y382762D01*
X715128Y382794D01*
X715182Y382829D01*
X715234Y382867D01*
X715284Y382909D01*
X715331Y382953D01*
X715375Y383000D01*
X715417Y383050D01*
X715455Y383102D01*
X715490Y383156D01*
X715522Y383213D01*
X715551Y383271D01*
X715575Y383331D01*
X715596Y383392D01*
X715614Y383454D01*
X715627Y383518D01*
X715637Y383582D01*
X715643Y383646D01*
X715645Y383711D01*
X715643Y383776D01*
X715637Y383840D01*
X715627Y383904D01*
X715614Y383968D01*
X715596Y384030D01*
X715575Y384091D01*
X715551Y384151D01*
X715522Y384209D01*
X715490Y384266D01*
X715455Y384320D01*
X715417Y384372D01*
X715375Y384422D01*
X715331Y384469D01*
X715284Y384513D01*
X715234Y384555D01*
X715182Y384593D01*
X715128Y384628D01*
X715071Y384660D01*
X715013Y384689D01*
X714953Y384713D01*
X714892Y384734D01*
X714830Y384752D01*
X714766Y384765D01*
X714702Y384775D01*
X714638Y384781D01*
X714573Y384783D01*
X714508Y384781D01*
X714444Y384775D01*
X714380Y384765D01*
X714316Y384752D01*
X714254Y384734D01*
X714193Y384713D01*
X714133Y384689D01*
X714075Y384660D01*
X714018Y384628D01*
X713964Y384593D01*
X713912Y384555D01*
X713862Y384513D01*
X713815Y384469D01*
X713771Y384422D01*
X713729Y384372D01*
X713691Y384320D01*
X713656Y384266D01*
X713624Y384209D01*
X713595Y384151D01*
X713571Y384091D01*
X713550Y384030D01*
X713532Y383968D01*
X713519Y383904D01*
X713509Y383840D01*
X713503Y383776D01*
X713501Y383711D01*
X713503Y383646D01*
X713509Y383582D01*
X713519Y383518D01*
X713532Y383454D01*
X713550Y383392D01*
X713571Y383331D01*
X713595Y383271D01*
X713624Y383213D01*
X713656Y383156D01*
X713691Y383102D01*
X713729Y383050D01*
X713771Y383000D01*
X713815Y382953D01*
X713862Y382909D01*
X713912Y382867D01*
X713964Y382829D01*
X714018Y382794D01*
X714075Y382762D01*
X714133Y382733D01*
X714193Y382709D01*
X714254Y382688D01*
X714316Y382670D01*
X714380Y382657D01*
X714444Y382647D01*
X714508Y382641D01*
X714573Y382639D01*
X736219Y376948D02*
X741045Y376948D01*
X741045Y378289D01*
X741043Y378360D01*
X741037Y378432D01*
X741028Y378502D01*
X741015Y378572D01*
X740998Y378642D01*
X740977Y378710D01*
X740953Y378777D01*
X740925Y378843D01*
X740894Y378907D01*
X740859Y378970D01*
X740821Y379030D01*
X740780Y379089D01*
X740736Y379145D01*
X740689Y379199D01*
X740640Y379250D01*
X740587Y379298D01*
X740532Y379344D01*
X740475Y379386D01*
X740415Y379426D01*
X740354Y379462D01*
X740290Y379495D01*
X740225Y379524D01*
X740159Y379550D01*
X740091Y379573D01*
X740022Y379592D01*
X739952Y379607D01*
X739882Y379618D01*
X739811Y379626D01*
X739740Y379630D01*
X739668Y379630D01*
X739597Y379626D01*
X739526Y379618D01*
X739456Y379607D01*
X739386Y379592D01*
X739317Y379573D01*
X739249Y379550D01*
X739183Y379524D01*
X739118Y379495D01*
X739054Y379462D01*
X738993Y379426D01*
X738933Y379386D01*
X738876Y379344D01*
X738821Y379298D01*
X738768Y379250D01*
X738719Y379199D01*
X738672Y379145D01*
X738628Y379089D01*
X738587Y379030D01*
X738549Y378970D01*
X738514Y378907D01*
X738483Y378843D01*
X738455Y378777D01*
X738431Y378710D01*
X738410Y378642D01*
X738393Y378572D01*
X738380Y378502D01*
X738371Y378432D01*
X738365Y378360D01*
X738363Y378289D01*
X738364Y378289D02*
X738364Y376948D01*
X738364Y378557D02*
X736219Y379629D01*
X738364Y383443D02*
X738364Y385052D01*
X738364Y383443D02*
X738366Y383378D01*
X738372Y383314D01*
X738382Y383250D01*
X738395Y383186D01*
X738413Y383124D01*
X738434Y383063D01*
X738458Y383003D01*
X738487Y382945D01*
X738519Y382888D01*
X738554Y382834D01*
X738592Y382782D01*
X738634Y382732D01*
X738678Y382685D01*
X738725Y382641D01*
X738775Y382599D01*
X738827Y382561D01*
X738881Y382526D01*
X738938Y382494D01*
X738996Y382465D01*
X739056Y382441D01*
X739117Y382420D01*
X739179Y382402D01*
X739243Y382389D01*
X739307Y382379D01*
X739371Y382373D01*
X739436Y382371D01*
X739704Y382371D01*
X739704Y382370D02*
X739775Y382372D01*
X739847Y382378D01*
X739917Y382387D01*
X739987Y382400D01*
X740057Y382417D01*
X740125Y382438D01*
X740192Y382462D01*
X740258Y382490D01*
X740322Y382521D01*
X740385Y382556D01*
X740445Y382594D01*
X740504Y382635D01*
X740560Y382679D01*
X740614Y382726D01*
X740665Y382775D01*
X740713Y382828D01*
X740759Y382883D01*
X740801Y382940D01*
X740841Y383000D01*
X740877Y383061D01*
X740910Y383125D01*
X740939Y383190D01*
X740965Y383256D01*
X740988Y383324D01*
X741007Y383393D01*
X741022Y383463D01*
X741033Y383533D01*
X741041Y383604D01*
X741045Y383675D01*
X741045Y383747D01*
X741041Y383818D01*
X741033Y383889D01*
X741022Y383959D01*
X741007Y384029D01*
X740988Y384098D01*
X740965Y384166D01*
X740939Y384232D01*
X740910Y384297D01*
X740877Y384361D01*
X740841Y384422D01*
X740801Y384482D01*
X740759Y384539D01*
X740713Y384594D01*
X740665Y384647D01*
X740614Y384696D01*
X740560Y384743D01*
X740504Y384787D01*
X740445Y384828D01*
X740385Y384866D01*
X740322Y384901D01*
X740258Y384932D01*
X740192Y384960D01*
X740125Y384984D01*
X740057Y385005D01*
X739987Y385022D01*
X739917Y385035D01*
X739847Y385044D01*
X739775Y385050D01*
X739704Y385052D01*
X738364Y385052D01*
X738273Y385050D01*
X738182Y385044D01*
X738092Y385035D01*
X738001Y385021D01*
X737912Y385004D01*
X737824Y384983D01*
X737736Y384958D01*
X737649Y384929D01*
X737564Y384897D01*
X737480Y384862D01*
X737398Y384822D01*
X737318Y384780D01*
X737239Y384734D01*
X737163Y384684D01*
X737089Y384632D01*
X737016Y384576D01*
X736947Y384517D01*
X736880Y384456D01*
X736815Y384391D01*
X736754Y384324D01*
X736695Y384255D01*
X736639Y384182D01*
X736587Y384108D01*
X736537Y384032D01*
X736491Y383953D01*
X736449Y383873D01*
X736409Y383791D01*
X736374Y383707D01*
X736342Y383622D01*
X736313Y383535D01*
X736288Y383447D01*
X736267Y383359D01*
X736250Y383270D01*
X736236Y383179D01*
X736227Y383089D01*
X736221Y382998D01*
X736219Y382907D01*
X894715Y374205D02*
X899541Y374205D01*
X899541Y375546D01*
X899539Y375617D01*
X899533Y375689D01*
X899524Y375759D01*
X899511Y375829D01*
X899494Y375899D01*
X899473Y375967D01*
X899449Y376034D01*
X899421Y376100D01*
X899390Y376164D01*
X899355Y376227D01*
X899317Y376287D01*
X899276Y376346D01*
X899232Y376402D01*
X899185Y376456D01*
X899136Y376507D01*
X899083Y376555D01*
X899028Y376601D01*
X898971Y376643D01*
X898911Y376683D01*
X898850Y376719D01*
X898786Y376752D01*
X898721Y376781D01*
X898655Y376807D01*
X898587Y376830D01*
X898518Y376849D01*
X898448Y376864D01*
X898378Y376875D01*
X898307Y376883D01*
X898236Y376887D01*
X898164Y376887D01*
X898093Y376883D01*
X898022Y376875D01*
X897952Y376864D01*
X897882Y376849D01*
X897813Y376830D01*
X897745Y376807D01*
X897679Y376781D01*
X897614Y376752D01*
X897550Y376719D01*
X897489Y376683D01*
X897429Y376643D01*
X897372Y376601D01*
X897317Y376555D01*
X897264Y376507D01*
X897215Y376456D01*
X897168Y376402D01*
X897124Y376346D01*
X897083Y376287D01*
X897045Y376227D01*
X897010Y376164D01*
X896979Y376100D01*
X896951Y376034D01*
X896927Y375967D01*
X896906Y375899D01*
X896889Y375829D01*
X896876Y375759D01*
X896867Y375689D01*
X896861Y375617D01*
X896859Y375546D01*
X896860Y375546D02*
X896860Y374205D01*
X896860Y375814D02*
X894715Y376886D01*
X898469Y379628D02*
X899541Y380968D01*
X894715Y380968D01*
X894715Y379628D02*
X894715Y382309D01*
X897128Y385114D02*
X897248Y385116D01*
X897368Y385121D01*
X897488Y385130D01*
X897608Y385143D01*
X897727Y385159D01*
X897846Y385179D01*
X897964Y385203D01*
X898081Y385230D01*
X898197Y385260D01*
X898312Y385294D01*
X898427Y385332D01*
X898540Y385373D01*
X898651Y385417D01*
X898762Y385465D01*
X898871Y385516D01*
X898871Y385517D02*
X898928Y385538D01*
X898984Y385564D01*
X899039Y385592D01*
X899091Y385624D01*
X899142Y385660D01*
X899190Y385698D01*
X899236Y385739D01*
X899279Y385783D01*
X899319Y385829D01*
X899356Y385878D01*
X899390Y385930D01*
X899421Y385983D01*
X899449Y386038D01*
X899473Y386094D01*
X899494Y386152D01*
X899511Y386211D01*
X899524Y386271D01*
X899533Y386332D01*
X899539Y386394D01*
X899541Y386455D01*
X899539Y386516D01*
X899533Y386578D01*
X899524Y386639D01*
X899511Y386699D01*
X899494Y386758D01*
X899473Y386816D01*
X899449Y386872D01*
X899421Y386927D01*
X899390Y386980D01*
X899356Y387032D01*
X899319Y387081D01*
X899279Y387127D01*
X899236Y387171D01*
X899190Y387212D01*
X899142Y387250D01*
X899091Y387286D01*
X899039Y387318D01*
X898984Y387346D01*
X898928Y387372D01*
X898871Y387393D01*
X898762Y387444D01*
X898651Y387492D01*
X898540Y387536D01*
X898427Y387577D01*
X898312Y387615D01*
X898197Y387649D01*
X898081Y387679D01*
X897964Y387706D01*
X897846Y387730D01*
X897727Y387750D01*
X897608Y387766D01*
X897488Y387779D01*
X897368Y387788D01*
X897248Y387793D01*
X897128Y387795D01*
X897128Y385114D02*
X897008Y385116D01*
X896888Y385121D01*
X896768Y385130D01*
X896648Y385143D01*
X896529Y385159D01*
X896410Y385179D01*
X896292Y385203D01*
X896175Y385230D01*
X896059Y385260D01*
X895944Y385294D01*
X895829Y385332D01*
X895716Y385373D01*
X895605Y385417D01*
X895494Y385465D01*
X895385Y385516D01*
X895385Y385517D02*
X895328Y385538D01*
X895272Y385564D01*
X895217Y385592D01*
X895165Y385624D01*
X895114Y385660D01*
X895066Y385698D01*
X895020Y385739D01*
X894977Y385783D01*
X894937Y385829D01*
X894900Y385878D01*
X894866Y385930D01*
X894835Y385983D01*
X894807Y386038D01*
X894783Y386094D01*
X894762Y386152D01*
X894745Y386211D01*
X894732Y386271D01*
X894723Y386332D01*
X894717Y386394D01*
X894715Y386455D01*
X895385Y387393D02*
X895494Y387444D01*
X895605Y387492D01*
X895716Y387536D01*
X895829Y387577D01*
X895944Y387615D01*
X896059Y387649D01*
X896175Y387679D01*
X896292Y387706D01*
X896410Y387730D01*
X896529Y387750D01*
X896648Y387766D01*
X896768Y387779D01*
X896888Y387788D01*
X897008Y387793D01*
X897128Y387795D01*
X895385Y387393D02*
X895328Y387372D01*
X895272Y387346D01*
X895217Y387318D01*
X895165Y387286D01*
X895114Y387250D01*
X895066Y387212D01*
X895020Y387171D01*
X894977Y387127D01*
X894937Y387080D01*
X894900Y387032D01*
X894866Y386980D01*
X894835Y386927D01*
X894807Y386872D01*
X894783Y386816D01*
X894762Y386758D01*
X894745Y386699D01*
X894732Y386639D01*
X894723Y386578D01*
X894717Y386516D01*
X894715Y386455D01*
X895787Y385382D02*
X898469Y387527D01*
X914019Y374205D02*
X918845Y374205D01*
X918845Y375545D01*
X918843Y375616D01*
X918837Y375688D01*
X918828Y375758D01*
X918815Y375828D01*
X918798Y375898D01*
X918777Y375966D01*
X918753Y376033D01*
X918725Y376099D01*
X918694Y376163D01*
X918659Y376226D01*
X918621Y376286D01*
X918580Y376345D01*
X918536Y376401D01*
X918489Y376455D01*
X918440Y376506D01*
X918387Y376554D01*
X918332Y376600D01*
X918275Y376642D01*
X918215Y376682D01*
X918154Y376718D01*
X918090Y376751D01*
X918025Y376780D01*
X917959Y376806D01*
X917891Y376829D01*
X917822Y376848D01*
X917752Y376863D01*
X917682Y376874D01*
X917611Y376882D01*
X917540Y376886D01*
X917468Y376886D01*
X917397Y376882D01*
X917326Y376874D01*
X917256Y376863D01*
X917186Y376848D01*
X917117Y376829D01*
X917049Y376806D01*
X916983Y376780D01*
X916918Y376751D01*
X916854Y376718D01*
X916793Y376682D01*
X916733Y376642D01*
X916676Y376600D01*
X916621Y376554D01*
X916568Y376506D01*
X916519Y376455D01*
X916472Y376401D01*
X916428Y376345D01*
X916387Y376286D01*
X916349Y376226D01*
X916314Y376163D01*
X916283Y376099D01*
X916255Y376033D01*
X916231Y375966D01*
X916210Y375898D01*
X916193Y375828D01*
X916180Y375758D01*
X916171Y375688D01*
X916165Y375616D01*
X916163Y375545D01*
X916164Y375545D02*
X916164Y374205D01*
X916164Y375814D02*
X914019Y376886D01*
X917773Y379628D02*
X918845Y380968D01*
X914019Y380968D01*
X914019Y379628D02*
X914019Y382309D01*
X917773Y385114D02*
X918845Y386454D01*
X914019Y386454D01*
X914019Y385114D02*
X914019Y387795D01*
X939419Y374205D02*
X944245Y374205D01*
X944245Y375545D01*
X944243Y375616D01*
X944237Y375688D01*
X944228Y375758D01*
X944215Y375828D01*
X944198Y375898D01*
X944177Y375966D01*
X944153Y376033D01*
X944125Y376099D01*
X944094Y376163D01*
X944059Y376226D01*
X944021Y376286D01*
X943980Y376345D01*
X943936Y376401D01*
X943889Y376455D01*
X943840Y376506D01*
X943787Y376554D01*
X943732Y376600D01*
X943675Y376642D01*
X943615Y376682D01*
X943554Y376718D01*
X943490Y376751D01*
X943425Y376780D01*
X943359Y376806D01*
X943291Y376829D01*
X943222Y376848D01*
X943152Y376863D01*
X943082Y376874D01*
X943011Y376882D01*
X942940Y376886D01*
X942868Y376886D01*
X942797Y376882D01*
X942726Y376874D01*
X942656Y376863D01*
X942586Y376848D01*
X942517Y376829D01*
X942449Y376806D01*
X942383Y376780D01*
X942318Y376751D01*
X942254Y376718D01*
X942193Y376682D01*
X942133Y376642D01*
X942076Y376600D01*
X942021Y376554D01*
X941968Y376506D01*
X941919Y376455D01*
X941872Y376401D01*
X941828Y376345D01*
X941787Y376286D01*
X941749Y376226D01*
X941714Y376163D01*
X941683Y376099D01*
X941655Y376033D01*
X941631Y375966D01*
X941610Y375898D01*
X941593Y375828D01*
X941580Y375758D01*
X941571Y375688D01*
X941565Y375616D01*
X941563Y375545D01*
X941564Y375545D02*
X941564Y374205D01*
X941564Y375814D02*
X939419Y376886D01*
X943173Y379628D02*
X944245Y380968D01*
X939419Y380968D01*
X939419Y379628D02*
X939419Y382309D01*
X944245Y386589D02*
X944243Y386657D01*
X944237Y386724D01*
X944228Y386791D01*
X944215Y386858D01*
X944198Y386923D01*
X944177Y386988D01*
X944153Y387051D01*
X944125Y387113D01*
X944094Y387173D01*
X944060Y387231D01*
X944022Y387287D01*
X943982Y387342D01*
X943938Y387393D01*
X943891Y387442D01*
X943842Y387489D01*
X943791Y387533D01*
X943736Y387573D01*
X943680Y387611D01*
X943622Y387645D01*
X943562Y387676D01*
X943500Y387704D01*
X943437Y387728D01*
X943372Y387749D01*
X943307Y387766D01*
X943240Y387779D01*
X943173Y387788D01*
X943106Y387794D01*
X943038Y387796D01*
X944245Y386589D02*
X944243Y386511D01*
X944237Y386433D01*
X944227Y386356D01*
X944214Y386279D01*
X944196Y386203D01*
X944175Y386128D01*
X944150Y386054D01*
X944121Y385982D01*
X944089Y385911D01*
X944053Y385842D01*
X944014Y385774D01*
X943971Y385709D01*
X943925Y385646D01*
X943876Y385585D01*
X943824Y385527D01*
X943769Y385472D01*
X943712Y385419D01*
X943652Y385370D01*
X943589Y385323D01*
X943524Y385280D01*
X943458Y385240D01*
X943389Y385203D01*
X943318Y385170D01*
X943246Y385140D01*
X943173Y385114D01*
X942100Y387393D02*
X942149Y387442D01*
X942201Y387489D01*
X942256Y387532D01*
X942313Y387573D01*
X942372Y387611D01*
X942433Y387645D01*
X942496Y387676D01*
X942560Y387704D01*
X942626Y387728D01*
X942692Y387748D01*
X942760Y387765D01*
X942829Y387778D01*
X942898Y387787D01*
X942968Y387793D01*
X943038Y387795D01*
X942100Y387393D02*
X939419Y385114D01*
X939419Y387795D01*
X1091819Y374205D02*
X1096645Y374205D01*
X1096645Y375545D01*
X1096643Y375616D01*
X1096637Y375688D01*
X1096628Y375758D01*
X1096615Y375828D01*
X1096598Y375898D01*
X1096577Y375966D01*
X1096553Y376033D01*
X1096525Y376099D01*
X1096494Y376163D01*
X1096459Y376226D01*
X1096421Y376286D01*
X1096380Y376345D01*
X1096336Y376401D01*
X1096289Y376455D01*
X1096240Y376506D01*
X1096187Y376554D01*
X1096132Y376600D01*
X1096075Y376642D01*
X1096015Y376682D01*
X1095954Y376718D01*
X1095890Y376751D01*
X1095825Y376780D01*
X1095759Y376806D01*
X1095691Y376829D01*
X1095622Y376848D01*
X1095552Y376863D01*
X1095482Y376874D01*
X1095411Y376882D01*
X1095340Y376886D01*
X1095268Y376886D01*
X1095197Y376882D01*
X1095126Y376874D01*
X1095056Y376863D01*
X1094986Y376848D01*
X1094917Y376829D01*
X1094849Y376806D01*
X1094783Y376780D01*
X1094718Y376751D01*
X1094654Y376718D01*
X1094593Y376682D01*
X1094533Y376642D01*
X1094476Y376600D01*
X1094421Y376554D01*
X1094368Y376506D01*
X1094319Y376455D01*
X1094272Y376401D01*
X1094228Y376345D01*
X1094187Y376286D01*
X1094149Y376226D01*
X1094114Y376163D01*
X1094083Y376099D01*
X1094055Y376033D01*
X1094031Y375966D01*
X1094010Y375898D01*
X1093993Y375828D01*
X1093980Y375758D01*
X1093971Y375688D01*
X1093965Y375616D01*
X1093963Y375545D01*
X1093964Y375545D02*
X1093964Y374205D01*
X1093964Y375814D02*
X1091819Y376886D01*
X1095573Y379628D02*
X1096645Y380968D01*
X1091819Y380968D01*
X1091819Y379628D02*
X1091819Y382309D01*
X1091819Y385114D02*
X1091819Y386454D01*
X1091821Y386525D01*
X1091827Y386597D01*
X1091836Y386667D01*
X1091849Y386737D01*
X1091866Y386807D01*
X1091887Y386875D01*
X1091911Y386942D01*
X1091939Y387008D01*
X1091970Y387072D01*
X1092005Y387135D01*
X1092043Y387195D01*
X1092084Y387254D01*
X1092128Y387310D01*
X1092175Y387364D01*
X1092224Y387415D01*
X1092277Y387463D01*
X1092332Y387509D01*
X1092389Y387551D01*
X1092449Y387591D01*
X1092510Y387627D01*
X1092574Y387660D01*
X1092639Y387689D01*
X1092705Y387715D01*
X1092773Y387738D01*
X1092842Y387757D01*
X1092912Y387772D01*
X1092982Y387783D01*
X1093053Y387791D01*
X1093124Y387795D01*
X1093196Y387795D01*
X1093267Y387791D01*
X1093338Y387783D01*
X1093408Y387772D01*
X1093478Y387757D01*
X1093547Y387738D01*
X1093615Y387715D01*
X1093681Y387689D01*
X1093746Y387660D01*
X1093810Y387627D01*
X1093871Y387591D01*
X1093931Y387551D01*
X1093988Y387509D01*
X1094043Y387463D01*
X1094096Y387415D01*
X1094145Y387364D01*
X1094192Y387310D01*
X1094236Y387254D01*
X1094277Y387195D01*
X1094315Y387135D01*
X1094350Y387072D01*
X1094381Y387008D01*
X1094409Y386942D01*
X1094433Y386875D01*
X1094454Y386807D01*
X1094471Y386737D01*
X1094484Y386667D01*
X1094493Y386597D01*
X1094499Y386525D01*
X1094501Y386454D01*
X1096645Y386723D02*
X1096645Y385114D01*
X1096645Y386723D02*
X1096643Y386788D01*
X1096637Y386852D01*
X1096627Y386916D01*
X1096614Y386980D01*
X1096596Y387042D01*
X1096575Y387103D01*
X1096551Y387163D01*
X1096522Y387221D01*
X1096490Y387278D01*
X1096455Y387332D01*
X1096417Y387384D01*
X1096375Y387434D01*
X1096331Y387481D01*
X1096284Y387525D01*
X1096234Y387567D01*
X1096182Y387605D01*
X1096128Y387640D01*
X1096071Y387672D01*
X1096013Y387701D01*
X1095953Y387725D01*
X1095892Y387746D01*
X1095830Y387764D01*
X1095766Y387777D01*
X1095702Y387787D01*
X1095638Y387793D01*
X1095573Y387795D01*
X1095508Y387793D01*
X1095444Y387787D01*
X1095380Y387777D01*
X1095316Y387764D01*
X1095254Y387746D01*
X1095193Y387725D01*
X1095133Y387701D01*
X1095075Y387672D01*
X1095018Y387640D01*
X1094964Y387605D01*
X1094912Y387567D01*
X1094862Y387525D01*
X1094815Y387481D01*
X1094771Y387434D01*
X1094729Y387384D01*
X1094691Y387332D01*
X1094656Y387278D01*
X1094624Y387221D01*
X1094595Y387163D01*
X1094571Y387103D01*
X1094550Y387042D01*
X1094532Y386980D01*
X1094519Y386916D01*
X1094509Y386852D01*
X1094503Y386788D01*
X1094501Y386723D01*
X1094500Y386723D02*
X1094500Y385650D01*
X1123315Y374205D02*
X1128141Y374205D01*
X1128141Y375546D01*
X1128139Y375617D01*
X1128133Y375689D01*
X1128124Y375759D01*
X1128111Y375829D01*
X1128094Y375899D01*
X1128073Y375967D01*
X1128049Y376034D01*
X1128021Y376100D01*
X1127990Y376164D01*
X1127955Y376227D01*
X1127917Y376287D01*
X1127876Y376346D01*
X1127832Y376402D01*
X1127785Y376456D01*
X1127736Y376507D01*
X1127683Y376555D01*
X1127628Y376601D01*
X1127571Y376643D01*
X1127511Y376683D01*
X1127450Y376719D01*
X1127386Y376752D01*
X1127321Y376781D01*
X1127255Y376807D01*
X1127187Y376830D01*
X1127118Y376849D01*
X1127048Y376864D01*
X1126978Y376875D01*
X1126907Y376883D01*
X1126836Y376887D01*
X1126764Y376887D01*
X1126693Y376883D01*
X1126622Y376875D01*
X1126552Y376864D01*
X1126482Y376849D01*
X1126413Y376830D01*
X1126345Y376807D01*
X1126279Y376781D01*
X1126214Y376752D01*
X1126150Y376719D01*
X1126089Y376683D01*
X1126029Y376643D01*
X1125972Y376601D01*
X1125917Y376555D01*
X1125864Y376507D01*
X1125815Y376456D01*
X1125768Y376402D01*
X1125724Y376346D01*
X1125683Y376287D01*
X1125645Y376227D01*
X1125610Y376164D01*
X1125579Y376100D01*
X1125551Y376034D01*
X1125527Y375967D01*
X1125506Y375899D01*
X1125489Y375829D01*
X1125476Y375759D01*
X1125467Y375689D01*
X1125461Y375617D01*
X1125459Y375546D01*
X1125460Y375546D02*
X1125460Y374205D01*
X1125460Y375814D02*
X1123315Y376886D01*
X1127069Y379628D02*
X1128141Y380968D01*
X1123315Y380968D01*
X1123315Y379628D02*
X1123315Y382309D01*
X1124387Y385114D02*
X1128141Y386186D01*
X1124387Y385114D02*
X1124387Y387795D01*
X1125460Y386991D02*
X1123315Y386991D01*
X1142619Y374205D02*
X1147445Y374205D01*
X1147445Y375545D01*
X1147443Y375616D01*
X1147437Y375688D01*
X1147428Y375758D01*
X1147415Y375828D01*
X1147398Y375898D01*
X1147377Y375966D01*
X1147353Y376033D01*
X1147325Y376099D01*
X1147294Y376163D01*
X1147259Y376226D01*
X1147221Y376286D01*
X1147180Y376345D01*
X1147136Y376401D01*
X1147089Y376455D01*
X1147040Y376506D01*
X1146987Y376554D01*
X1146932Y376600D01*
X1146875Y376642D01*
X1146815Y376682D01*
X1146754Y376718D01*
X1146690Y376751D01*
X1146625Y376780D01*
X1146559Y376806D01*
X1146491Y376829D01*
X1146422Y376848D01*
X1146352Y376863D01*
X1146282Y376874D01*
X1146211Y376882D01*
X1146140Y376886D01*
X1146068Y376886D01*
X1145997Y376882D01*
X1145926Y376874D01*
X1145856Y376863D01*
X1145786Y376848D01*
X1145717Y376829D01*
X1145649Y376806D01*
X1145583Y376780D01*
X1145518Y376751D01*
X1145454Y376718D01*
X1145393Y376682D01*
X1145333Y376642D01*
X1145276Y376600D01*
X1145221Y376554D01*
X1145168Y376506D01*
X1145119Y376455D01*
X1145072Y376401D01*
X1145028Y376345D01*
X1144987Y376286D01*
X1144949Y376226D01*
X1144914Y376163D01*
X1144883Y376099D01*
X1144855Y376033D01*
X1144831Y375966D01*
X1144810Y375898D01*
X1144793Y375828D01*
X1144780Y375758D01*
X1144771Y375688D01*
X1144765Y375616D01*
X1144763Y375545D01*
X1144764Y375545D02*
X1144764Y374205D01*
X1144764Y375814D02*
X1142619Y376886D01*
X1146373Y379628D02*
X1147445Y380968D01*
X1142619Y380968D01*
X1142619Y379628D02*
X1142619Y382309D01*
X1142619Y385114D02*
X1142619Y386723D01*
X1142621Y386788D01*
X1142627Y386852D01*
X1142637Y386916D01*
X1142650Y386980D01*
X1142668Y387042D01*
X1142689Y387103D01*
X1142713Y387163D01*
X1142742Y387221D01*
X1142774Y387278D01*
X1142809Y387332D01*
X1142847Y387384D01*
X1142889Y387434D01*
X1142933Y387481D01*
X1142980Y387525D01*
X1143030Y387567D01*
X1143082Y387605D01*
X1143136Y387640D01*
X1143193Y387672D01*
X1143251Y387701D01*
X1143311Y387725D01*
X1143372Y387746D01*
X1143434Y387764D01*
X1143498Y387777D01*
X1143562Y387787D01*
X1143626Y387793D01*
X1143691Y387795D01*
X1144228Y387795D01*
X1144293Y387793D01*
X1144357Y387787D01*
X1144421Y387777D01*
X1144485Y387764D01*
X1144547Y387746D01*
X1144608Y387725D01*
X1144668Y387701D01*
X1144726Y387672D01*
X1144783Y387640D01*
X1144837Y387605D01*
X1144889Y387567D01*
X1144939Y387525D01*
X1144986Y387481D01*
X1145030Y387434D01*
X1145072Y387384D01*
X1145110Y387332D01*
X1145145Y387278D01*
X1145177Y387221D01*
X1145206Y387163D01*
X1145230Y387103D01*
X1145251Y387042D01*
X1145269Y386980D01*
X1145282Y386916D01*
X1145292Y386852D01*
X1145298Y386788D01*
X1145300Y386723D01*
X1145300Y385114D01*
X1147445Y385114D01*
X1147445Y387795D01*
M02*
