M48
;GenerationSoftware,Autodesk,EAGLE,9.4.1*%
;CreationDate,2019-05-20T19:05:54Z*%
FMAT,2
ICI,OFF
METRIC,TZ,000.000
T3C1.000
T2C1.016
T1C1.700
%
G90
M71
T1
X19050Y42620
X19050Y38660
T2
X24384Y33020
X26670Y33020
X28956Y33020
X34290Y44450
X31750Y44450
X29210Y44450
X113030Y44450
X110490Y44450
X95504Y33020
X110744Y24130
X28194Y24130
X30480Y24130
X32766Y24130
X34544Y33020
X36830Y33020
X39116Y33020
X44704Y33020
X46990Y33020
X49276Y33020
X54610Y44450
X52070Y44450
X49530Y44450
X113030Y24130
X115316Y24130
X117094Y33020
X119380Y33020
X48514Y24130
X50800Y24130
X53086Y24130
X54864Y33020
X57150Y33020
X59436Y33020
X65024Y33020
X67310Y33020
X69596Y33020
X74930Y44450
X72390Y44450
X69850Y44450
X121666Y33020
X95250Y44450
X68834Y24130
X71120Y24130
X73406Y24130
X75184Y33020
X77470Y33020
X79756Y33020
X85344Y33020
X87630Y33020
X89916Y33020
X92710Y44450
X90170Y44450
X89154Y24130
X91440Y24130
X93726Y24130
X97790Y33020
X100076Y33020
X105664Y33020
X107950Y33020
X110236Y33020
X115570Y44450
T3
X26670Y15240
X29210Y15240
X31750Y15240
X34290Y15240
X45720Y15240
X48260Y15240
X50800Y15240
X53340Y15240
X66040Y15240
X73660Y15240
X113030Y15240
X115570Y15240
X86360Y15240
X88900Y15240
X71120Y15240
X91440Y15240
X93980Y15240
X107950Y15240
X68580Y15240
X110490Y15240
M30