M48
;GenerationSoftware,Autodesk,EAGLE,9.4.1*%
;CreationDate,2019-05-20T19:04:46Z*%
FMAT,2
ICI,OFF
METRIC,TZ,000.000
T5C0.700
T4C0.800
T3C0.813
T2C1.000
T1C1.016
%
G90
M71
T1
X73660Y36830
X73660Y39370
X73660Y41910
X113030Y15240
X110490Y15240
X107950Y15240
X105410Y15240
X100330Y15240
X97790Y15240
X95250Y15240
X92710Y15240
X86360Y15240
X83820Y15240
X63500Y15240
X60960Y15240
X58420Y15240
X12700Y15240
X10160Y15240
X7620Y15240
X38100Y15240
X35560Y15240
X33020Y15240
X30480Y15240
X25400Y15240
X22860Y15240
X20320Y15240
X17780Y15240
X52070Y15240
X49530Y15240
X46990Y15240
X44450Y15240
X151130Y15240
X148590Y15240
X146050Y15240
X143510Y15240
X138430Y15240
X135890Y15240
X133350Y15240
X130810Y15240
X125730Y15240
X123190Y15240
X120650Y15240
X118110Y15240
X95250Y53340
X97790Y53340
X100330Y53340
X102870Y53340
X105410Y53340
X107950Y53340
X110490Y53340
X113030Y53340
X115570Y53340
X118110Y53340
X120650Y53340
X123190Y53340
X125730Y53340
X128270Y53340
X130810Y53340
X133350Y53340
X147320Y23114
X147320Y25400
X147320Y27686
X113030Y33274
X113030Y35560
X113030Y37846
X109220Y23114
X109220Y25400
X109220Y27686
X105410Y33274
X105410Y35560
X105410Y37846
X101600Y23114
X101600Y25400
X101600Y27686
X97790Y33274
X97790Y35560
X97790Y37846
X93980Y23114
X93980Y25400
X93980Y27686
X90170Y33274
X90170Y35560
X90170Y37846
X143510Y33274
X143510Y35560
X143510Y37846
X139700Y23114
X139700Y25400
X139700Y27686
X135890Y33274
X135890Y35560
X135890Y37846
X132080Y23114
X132080Y25400
X132080Y27686
X128270Y33274
X128270Y35560
X128270Y37846
X124460Y23114
X124460Y25400
X124460Y27686
X120650Y33274
X120650Y35560
X120650Y37846
X116840Y23114
X116840Y25400
X116840Y27686
T2
X27100Y59700
X27100Y57160
X27100Y87640
X27100Y85100
X27100Y82560
X27100Y80020
X27100Y77480
X27100Y54620
X27100Y74940
X27100Y72400
X27100Y69860
X27100Y67320
X27100Y64780
X27100Y62240
X27100Y52080
X51870Y87640
X51870Y85100
X51870Y82560
X51870Y80020
X51870Y77480
X51870Y74940
X51870Y72400
X51870Y69860
X51870Y67320
X51870Y64780
X51870Y62240
X51870Y59700
X51870Y57160
X51870Y54620
X51870Y52080
X73660Y15700
T3
X68580Y90170
X68580Y87630
X68580Y85090
X68580Y82550
X68580Y80010
X15240Y69850
X15240Y74930
X15240Y77470
X15240Y80010
X15240Y82550
X15240Y85090
X15240Y87630
X15240Y90170
X15240Y92710
X15240Y72390
X68580Y92710
X36830Y71120
X69850Y22860
X64770Y22860
X35560Y24130
X45720Y24130
X36830Y76200
T4
X78460Y12700
X73660Y9700
T5
X64750Y31750
X62250Y31750
X73680Y29210
X76180Y29210
M30