M48
;GenerationSoftware,Autodesk,EAGLE,9.4.1*%
;CreationDate,2019-05-20T19:03:07Z*%
FMAT,2
ICI,OFF
METRIC,TZ,000.000
T3C1.000
T2C1.016
T1C3.200
%
G90
M71
T1
X80010Y69850
X66040Y27940
T2
X53340Y60960
X53340Y63500
X53340Y48260
X53340Y50800
X53340Y55880
X53340Y27940
X53340Y53340
X53340Y30480
X53340Y33020
X53340Y35560
X90170Y33020
X90170Y30480
X90170Y27940
X90170Y25400
X90170Y44450
X90170Y41910
X90170Y39370
X90170Y36830
X90170Y73660
X90170Y71120
X90170Y68580
X90170Y53340
X90170Y50800
X53340Y43180
X90170Y48260
X90170Y62230
X90170Y59690
X90170Y57150
X52070Y69850
X54610Y69850
X53340Y40640
X90170Y66040
X53340Y45720
X53340Y58420
T3
X58850Y66050
X58850Y63510
X58850Y60970
X58850Y58430
X58850Y55890
X58850Y53350
X58850Y48270
X58850Y45730
X58850Y43190
X58850Y40650
X58850Y38110
X58850Y35570
X58850Y33030
X58850Y30490
X83620Y66050
X83620Y63510
X83620Y60970
X83620Y58430
X83620Y55890
X83620Y53350
X83620Y50810
X83620Y48270
X83620Y43190
X83620Y40650
X83620Y38110
X83620Y35570
X83620Y33030
X83620Y30490
X83620Y45730
X58850Y50810
M30